<?xml version="1.0" encoding="UTF-8" standalone="no"?>
<!-- Created with Inkscape (http://www.inkscape.org/) -->

<svg
   xmlns:dc="http://purl.org/dc/elements/1.1/"
   xmlns:cc="http://creativecommons.org/ns#"
   xmlns:rdf="http://www.w3.org/1999/02/22-rdf-syntax-ns#"
   xmlns:svg="http://www.w3.org/2000/svg"
   xmlns="http://www.w3.org/2000/svg"
   xmlns:sodipodi="http://sodipodi.sourceforge.net/DTD/sodipodi-0.dtd"
   xmlns:inkscape="http://www.inkscape.org/namespaces/inkscape"
   width="298.625"
   height="303.1875"
   id="svg2"
   version="1.1"
   inkscape:version="0.92.5 (2060ec1f9f, 2020-04-08)"
   sodipodi:docname="cache-hierarchy-intel-i5-m450.svg">
  <defs
     id="defs4">
    <inkscape:path-effect
       effect="spiro"
       id="path-effect4170"
       is_visible="true" />
    <inkscape:path-effect
       effect="spiro"
       id="path-effect4170-2"
       is_visible="true" />
    <inkscape:path-effect
       effect="spiro"
       id="path-effect4170-3"
       is_visible="true" />
    <inkscape:path-effect
       effect="spiro"
       id="path-effect4170-2-7"
       is_visible="true" />
    <inkscape:path-effect
       effect="spiro"
       id="path-effect4170-2-75"
       is_visible="true" />
    <inkscape:path-effect
       effect="spiro"
       id="path-effect4170-6"
       is_visible="true" />
    <inkscape:path-effect
       effect="spiro"
       id="path-effect4170-3-7"
       is_visible="true" />
    <inkscape:path-effect
       effect="spiro"
       id="path-effect4170-2-7-5"
       is_visible="true" />
    <inkscape:path-effect
       effect="spiro"
       id="path-effect4170-2-5"
       is_visible="true" />
    <inkscape:path-effect
       effect="spiro"
       id="path-effect4170-2-2"
       is_visible="true" />
    <inkscape:path-effect
       effect="spiro"
       id="path-effect4170-2-7-3"
       is_visible="true" />
    <inkscape:path-effect
       effect="spiro"
       id="path-effect4170-3-9"
       is_visible="true" />
    <inkscape:path-effect
       effect="spiro"
       id="path-effect4170-9"
       is_visible="true" />
    <inkscape:path-effect
       effect="spiro"
       id="path-effect4170-2-77"
       is_visible="true" />
  </defs>
  <sodipodi:namedview
     id="base"
     pagecolor="#ffffff"
     bordercolor="#666666"
     borderopacity="1.0"
     inkscape:pageopacity="0.0"
     inkscape:pageshadow="2"
     inkscape:zoom="1.979899"
     inkscape:cx="296.93372"
     inkscape:cy="192.00177"
     inkscape:document-units="px"
     inkscape:current-layer="layer1"
     showgrid="false"
     inkscape:window-width="1920"
     inkscape:window-height="1025"
     inkscape:window-x="0"
     inkscape:window-y="0"
     inkscape:window-maximized="1"
     fit-margin-top="0"
     fit-margin-left="0"
     fit-margin-right="0"
     fit-margin-bottom="0" />
  <metadata
     id="metadata7">
    <rdf:RDF>
      <cc:Work
         rdf:about="">
        <dc:format>image/svg+xml</dc:format>
        <dc:type
           rdf:resource="http://purl.org/dc/dcmitype/StillImage" />
        <dc:title />
      </cc:Work>
    </rdf:RDF>
  </metadata>
  <g
     inkscape:label="Layer 1"
     inkscape:groupmode="layer"
     id="layer1"
     transform="translate(-163.5,-209.625)">
    <rect
       style="fill:none;stroke:#000000;stroke-width:1.39999998;stroke-linecap:butt;stroke-linejoin:miter;stroke-miterlimit:4;stroke-opacity:1;stroke-dasharray:none;stroke-dashoffset:0"
       id="rect3047"
       width="297.2374"
       height="301.78308"
       x="164.20273"
       y="210.3343" />
    <rect
       style="fill:#9999ff;fill-opacity:1;stroke:#000000;stroke-width:1.37199986;stroke-linecap:butt;stroke-linejoin:miter;stroke-miterlimit:4;stroke-opacity:1;stroke-dasharray:none;stroke-dashoffset:0"
       id="rect3755"
       width="123.74368"
       height="62.362293"
       x="176.58701"
       y="222.02644" />
    <rect
       style="fill:#9999ff;fill-opacity:1;stroke:#000000;stroke-width:1.37199998;stroke-linecap:butt;stroke-linejoin:miter;stroke-miterlimit:4;stroke-opacity:1;stroke-dasharray:none;stroke-dashoffset:0"
       id="rect3755-9"
       width="123.744"
       height="62.362461"
       x="325.49088"
       y="222.02628" />
    <g
       aria-label="Core 0"
       style="font-style:normal;font-weight:normal;line-height:0%;font-family:sans-serif;letter-spacing:0px;word-spacing:0px;fill:#000000;fill-opacity:1;stroke:none"
       id="text3775">
      <path
         d="m 201.11435,239.66426 v 2.08008 q -0.99609,-0.92774 -2.12891,-1.38672 -1.12304,-0.45898 -2.39258,-0.45898 -2.5,0 -3.82812,1.5332 -1.32813,1.52344 -1.32813,4.41406 0,2.88086 1.32813,4.41406 1.32812,1.52344 3.82812,1.52344 1.26954,0 2.39258,-0.45898 1.13282,-0.45899 2.12891,-1.38672 v 2.06055 q -1.03516,0.70312 -2.19727,1.05468 -1.15234,0.35157 -2.4414,0.35157 -3.31055,0 -5.21485,-2.02149 -1.90429,-2.03125 -1.90429,-5.53711 0,-3.51562 1.90429,-5.53711 1.9043,-2.03125 5.21485,-2.03125 1.30859,0 2.46093,0.35156 1.16211,0.3418 2.17774,1.03516 z"
         style="font-size:20px;line-height:1.25;font-family:sans-serif"
         id="path476" />
      <path
         d="m 208.32138,243.44356 q -1.44531,0 -2.28516,1.13281 -0.83984,1.12305 -0.83984,3.08594 0,1.96289 0.83008,3.0957 0.83984,1.12305 2.29492,1.12305 1.43555,0 2.27539,-1.13281 0.83984,-1.13282 0.83984,-3.08594 0,-1.94336 -0.83984,-3.07617 -0.83984,-1.14258 -2.27539,-1.14258 z m 0,-1.52344 q 2.34375,0 3.68164,1.52344 1.33789,1.52344 1.33789,4.21875 0,2.68554 -1.33789,4.21875 -1.33789,1.52344 -3.68164,1.52344 -2.35352,0 -3.69141,-1.52344 -1.32812,-1.53321 -1.32812,-4.21875 0,-2.69531 1.32812,-4.21875 1.33789,-1.52344 3.69141,-1.52344 z"
         style="font-size:20px;line-height:1.25;font-family:sans-serif"
         id="path478" />
      <path
         d="m 222.65732,243.86348 q -0.30274,-0.17578 -0.66406,-0.25391 -0.35157,-0.0879 -0.78125,-0.0879 -1.52344,0 -2.34375,0.9961 -0.81055,0.98632 -0.81055,2.84179 v 5.76172 h -1.80664 v -10.9375 h 1.80664 v 1.69922 q 0.5664,-0.99609 1.47461,-1.47461 0.9082,-0.48828 2.20703,-0.48828 0.18555,0 0.41016,0.0293 0.2246,0.0195 0.49804,0.0684 z"
         style="font-size:20px;line-height:1.25;font-family:sans-serif"
         id="path480" />
      <path
         d="m 233.4581,247.20332 v 0.87891 h -8.26172 q 0.11719,1.85547 1.11328,2.83203 1.00586,0.9668 2.79297,0.9668 1.03516,0 2.00195,-0.25391 0.97657,-0.2539 1.9336,-0.76172 v 1.69922 q -0.9668,0.41016 -1.98242,0.625 -1.01563,0.21485 -2.06055,0.21485 -2.61719,0 -4.15039,-1.52344 -1.52344,-1.52344 -1.52344,-4.1211 0,-2.68554 1.44531,-4.25781 1.45508,-1.58203 3.91602,-1.58203 2.20703,0 3.48633,1.42578 1.28906,1.41602 1.28906,3.85742 z m -1.79688,-0.52734 q -0.0195,-1.47461 -0.83007,-2.35352 -0.80079,-0.8789 -2.12891,-0.8789 -1.50391,0 -2.41211,0.84961 -0.89844,0.84961 -1.03516,2.39258 z"
         style="font-size:20px;line-height:1.25;font-family:sans-serif"
         id="path482" />
      <path
         d="m 247.2374,239.84004 q -1.52344,0 -2.29493,1.50391 -0.76171,1.49414 -0.76171,4.50195 0,2.99805 0.76171,4.50195 0.77149,1.49415 2.29493,1.49415 1.5332,0 2.29492,-1.49415 0.77148,-1.5039 0.77148,-4.50195 0,-3.00781 -0.77148,-4.50195 -0.76172,-1.50391 -2.29492,-1.50391 z m 0,-1.5625 q 2.45117,0 3.74023,1.94336 1.29883,1.9336 1.29883,5.625 0,3.68164 -1.29883,5.625 -1.28906,1.9336 -3.74023,1.9336 -2.45118,0 -3.75,-1.9336 -1.28907,-1.94336 -1.28907,-5.625 0,-3.6914 1.28907,-5.625 1.29882,-1.94336 3.75,-1.94336 z"
         style="font-size:20px;line-height:1.25;font-family:sans-serif"
         id="path484" />
    </g>
    <g
       aria-label="threads (CPUs): 0,2"
       style="font-style:normal;font-weight:normal;line-height:0%;font-family:sans-serif;letter-spacing:0px;word-spacing:0px;fill:#000000;fill-opacity:1;stroke:none"
       id="text3819">
      <path
         d="m 190.91951,260.92596 v 1.55274 h 1.85059 v 0.69824 h -1.85059 v 2.96875 q 0,0.66895 0.18066,0.85938 0.18555,0.19043 0.74707,0.19043 h 0.92286 v 0.75195 h -0.92286 q -1.04003,0 -1.43554,-0.38574 -0.39551,-0.39063 -0.39551,-1.41602 v -2.96875 h -0.65918 v -0.69824 h 0.65918 v -1.55274 z"
         style="font-size:10px;line-height:1.25;font-family:sans-serif"
         id="path441" />
      <path
         d="m 198.49763,264.64667 v 3.30078 h -0.89843 v -3.27149 q 0,-0.77636 -0.30274,-1.16211 -0.30273,-0.38574 -0.9082,-0.38574 -0.72754,0 -1.14746,0.46387 -0.41992,0.46387 -0.41992,1.26465 v 3.09082 h -0.90332 v -7.59766 h 0.90332 v 2.97852 q 0.32226,-0.49317 0.75683,-0.73731 0.43946,-0.24414 1.01075,-0.24414 0.94238,0 1.42578,0.58594 0.48339,0.58105 0.48339,1.71387 z"
         style="font-size:10px;line-height:1.25;font-family:sans-serif"
         id="path443" />
      <path
         d="m 203.45857,263.31854 q -0.15136,-0.0879 -0.33203,-0.12695 -0.17578,-0.0439 -0.39062,-0.0439 -0.76172,0 -1.17188,0.49805 -0.40527,0.49316 -0.40527,1.4209 v 2.88086 h -0.90332 v -5.46875 h 0.90332 v 0.84961 q 0.2832,-0.49805 0.7373,-0.73731 0.4541,-0.24414 1.10352,-0.24414 0.0928,0 0.20508,0.0147 0.1123,0.01 0.24902,0.0342 z"
         style="font-size:10px;line-height:1.25;font-family:sans-serif"
         id="path445" />
      <path
         d="m 208.85896,264.98846 v 0.43946 h -4.13086 q 0.0586,0.92773 0.55664,1.41601 0.50293,0.4834 1.39649,0.4834 0.51758,0 1.00098,-0.12695 0.48828,-0.12695 0.96679,-0.38086 v 0.84961 q -0.4834,0.20508 -0.99121,0.3125 -0.50781,0.10742 -1.03027,0.10742 -1.3086,0 -2.0752,-0.76172 -0.76172,-0.76172 -0.76172,-2.06055 0,-1.34277 0.72266,-2.1289 0.72754,-0.79102 1.95801,-0.79102 1.10351,0 1.74316,0.71289 0.64453,0.70801 0.64453,1.92871 z m -0.89843,-0.26367 q -0.01,-0.7373 -0.41504,-1.17676 -0.40039,-0.43945 -1.06446,-0.43945 -0.75195,0 -1.20605,0.42481 -0.44922,0.4248 -0.51758,1.19629 z"
         style="font-size:10px;line-height:1.25;font-family:sans-serif"
         id="path447" />
      <path
         d="m 212.81892,265.19843 q -1.08886,0 -1.50879,0.24902 -0.41992,0.24902 -0.41992,0.84961 0,0.47851 0.3125,0.76172 0.31739,0.27832 0.85938,0.27832 0.74707,0 1.19629,-0.52735 0.4541,-0.53222 0.4541,-1.41113 v -0.20019 z m 1.792,-0.3711 v 3.12012 h -0.89844 v -0.83008 q -0.30762,0.49805 -0.7666,0.73731 -0.45899,0.23437 -1.12305,0.23437 -0.83984,0 -1.33789,-0.46875 -0.49316,-0.47363 -0.49316,-1.26465 0,-0.92285 0.61523,-1.3916 0.62012,-0.46875 1.8457,-0.46875 h 1.25977 v -0.0879 q 0,-0.62012 -0.41016,-0.95703 -0.40527,-0.3418 -1.14258,-0.3418 -0.46875,0 -0.91308,0.11231 -0.44434,0.1123 -0.85449,0.33691 v -0.83008 q 0.49316,-0.19043 0.95703,-0.2832 0.46386,-0.0977 0.90332,-0.0977 1.18652,0 1.77246,0.61524 0.58594,0.61523 0.58594,1.86523 z"
         style="font-size:10px;line-height:1.25;font-family:sans-serif"
         id="path449" />
      <path
         d="m 220.06013,263.30878 v -2.95899 h 0.89844 v 7.59766 h -0.89844 v -0.82031 q -0.2832,0.48828 -0.71777,0.72754 -0.42969,0.23437 -1.03515,0.23437 -0.99122,0 -1.61622,-0.79102 -0.62011,-0.79101 -0.62011,-2.08007 0,-1.28907 0.62011,-2.08008 0.625,-0.79102 1.61622,-0.79102 0.60546,0 1.03515,0.23926 0.43457,0.23438 0.71777,0.72266 z m -3.06152,1.90918 q 0,0.99121 0.40527,1.55761 0.41016,0.56153 1.12305,0.56153 0.71289,0 1.12305,-0.56153 0.41015,-0.5664 0.41015,-1.55761 0,-0.99121 -0.41015,-1.55274 -0.41016,-0.5664 -1.12305,-0.5664 -0.71289,0 -1.12305,0.5664 -0.40527,0.56153 -0.40527,1.55274 z"
         style="font-size:10px;line-height:1.25;font-family:sans-serif"
         id="path451" />
      <path
         d="m 226.29549,262.63983 v 0.84961 q -0.38086,-0.19531 -0.79102,-0.29297 -0.41016,-0.0976 -0.84961,-0.0976 -0.66894,0 -1.00586,0.20507 -0.33203,0.20508 -0.33203,0.61524 0,0.3125 0.23926,0.49316 0.23926,0.17578 0.96191,0.33692 l 0.30762,0.0684 q 0.95703,0.20507 1.35742,0.58105 0.40528,0.37109 0.40528,1.04004 0,0.76172 -0.60547,1.20605 -0.60059,0.44434 -1.65528,0.44434 -0.43945,0 -0.91797,-0.0879 -0.47363,-0.083 -1.00097,-0.25391 v -0.92773 q 0.49804,0.25879 0.98144,0.39062 0.4834,0.12696 0.95703,0.12696 0.63477,0 0.97657,-0.21485 0.34179,-0.21972 0.34179,-0.61523 0,-0.36621 -0.24902,-0.56152 -0.24414,-0.19532 -1.0791,-0.37598 l -0.3125,-0.0732 q -0.83496,-0.17578 -1.20606,-0.53711 -0.37109,-0.36621 -0.37109,-1.00098 0,-0.77148 0.54688,-1.19141 0.54687,-0.41992 1.55273,-0.41992 0.49805,0 0.9375,0.0732 0.43945,0.0733 0.81055,0.21973 z"
         style="font-size:10px;line-height:1.25;font-family:sans-serif"
         id="path453" />
      <path
         d="m 233.35603,260.35956 q -0.65429,1.12304 -0.97168,2.22168 -0.31738,1.09863 -0.31738,2.22656 0,1.12793 0.31738,2.23633 0.32227,1.10351 0.97168,2.22168 h -0.78125 q -0.73242,-1.14746 -1.09863,-2.25586 -0.36133,-1.1084 -0.36133,-2.20215 0,-1.08887 0.36133,-2.19238 0.36133,-1.10352 1.09863,-2.25586 z"
         style="font-size:10px;line-height:1.25;font-family:sans-serif"
         id="path455" />
      <path
         d="m 240.59724,261.21893 v 1.04004 q -0.49804,-0.46387 -1.06445,-0.69336 -0.56152,-0.22949 -1.19629,-0.22949 -1.25,0 -1.91406,0.7666 -0.66406,0.76172 -0.66406,2.20703 0,1.44043 0.66406,2.20703 0.66406,0.76172 1.91406,0.76172 0.63477,0 1.19629,-0.22949 0.56641,-0.22949 1.06445,-0.69336 v 1.03028 q -0.51757,0.35156 -1.09863,0.52734 -0.57617,0.17578 -1.2207,0.17578 -1.65528,0 -2.60742,-1.01074 -0.95215,-1.01563 -0.95215,-2.76856 0,-1.75781 0.95215,-2.76855 0.95214,-1.01563 2.60742,-1.01563 0.6543,0 1.23047,0.17578 0.58105,0.1709 1.08886,0.51758 z"
         style="font-size:10px;line-height:1.25;font-family:sans-serif"
         id="path457" />
      <path
         d="m 243.10701,261.46796 v 2.73925 h 1.24023 q 0.68848,0 1.06446,-0.35644 0.37597,-0.35645 0.37597,-1.01563 0,-0.65429 -0.37597,-1.01074 -0.37598,-0.35644 -1.06446,-0.35644 z m -0.98633,-0.81055 h 2.22656 q 1.22559,0 1.85059,0.55664 0.62988,0.55176 0.62988,1.62109 0,1.07911 -0.62988,1.63086 -0.625,0.55176 -1.85059,0.55176 h -1.24023 v 2.92969 h -0.98633 z"
         style="font-size:10px;line-height:1.25;font-family:sans-serif"
         id="path459" />
      <path
         d="m 248.03865,260.65741 h 0.99121 v 4.42871 q 0,1.17188 0.42481,1.68945 0.4248,0.5127 1.37695,0.5127 0.94726,0 1.37207,-0.5127 0.4248,-0.51757 0.4248,-1.68945 v -4.42871 h 0.99122 v 4.55078 q 0,1.42578 -0.70801,2.15332 -0.70313,0.72754 -2.08008,0.72754 -1.38184,0 -2.08984,-0.72754 -0.70313,-0.72754 -0.70313,-2.15332 z"
         style="font-size:10px;line-height:1.25;font-family:sans-serif"
         id="path461" />
      <path
         d="m 258.91756,262.63983 v 0.84961 q -0.38086,-0.19531 -0.79102,-0.29297 -0.41016,-0.0976 -0.84961,-0.0976 -0.66894,0 -1.00586,0.20507 -0.33203,0.20508 -0.33203,0.61524 0,0.3125 0.23926,0.49316 0.23926,0.17578 0.96191,0.33692 l 0.30762,0.0684 q 0.95703,0.20507 1.35742,0.58105 0.40528,0.37109 0.40528,1.04004 0,0.76172 -0.60547,1.20605 -0.60059,0.44434 -1.65528,0.44434 -0.43945,0 -0.91797,-0.0879 -0.47363,-0.083 -1.00097,-0.25391 v -0.92773 q 0.49804,0.25879 0.98144,0.39062 0.4834,0.12696 0.95703,0.12696 0.63477,0 0.97657,-0.21485 0.34179,-0.21972 0.34179,-0.61523 0,-0.36621 -0.24902,-0.56152 -0.24414,-0.19532 -1.0791,-0.37598 l -0.3125,-0.0732 q -0.83496,-0.17578 -1.20606,-0.53711 -0.37109,-0.36621 -0.37109,-1.00098 0,-0.77148 0.54688,-1.19141 0.54687,-0.41992 1.55273,-0.41992 0.49805,0 0.9375,0.0732 0.43945,0.0733 0.81055,0.21973 z"
         style="font-size:10px;line-height:1.25;font-family:sans-serif"
         id="path463" />
      <path
         d="m 260.49959,260.35956 h 0.78125 q 0.73242,1.15234 1.09375,2.25586 0.36621,1.10351 0.36621,2.19238 0,1.09375 -0.36621,2.20215 -0.36133,1.1084 -1.09375,2.25586 h -0.78125 q 0.64941,-1.11817 0.96679,-2.22168 0.32227,-1.1084 0.32227,-2.23633 0,-1.12793 -0.32227,-2.22656 -0.31738,-1.09864 -0.96679,-2.22168 z"
         style="font-size:10px;line-height:1.25;font-family:sans-serif"
         id="path465" />
      <path
         d="m 264.77205,266.70721 h 1.03027 v 1.24024 h -1.03027 z m 0,-3.93066 h 1.03027 v 1.24023 h -1.03027 z"
         style="font-size:10px;line-height:1.25;font-family:sans-serif"
         id="path467" />
      <path
         d="m 273.32674,261.30682 q -0.76172,0 -1.14746,0.75196 -0.38086,0.74707 -0.38086,2.25097 0,1.49903 0.38086,2.25098 0.38574,0.74707 1.14746,0.74707 0.7666,0 1.14746,-0.74707 0.38574,-0.75195 0.38574,-2.25098 0,-1.5039 -0.38574,-2.25097 -0.38086,-0.75196 -1.14746,-0.75196 z m 0,-0.78125 q 1.22558,0 1.87011,0.97168 0.64942,0.9668 0.64942,2.8125 0,1.84082 -0.64942,2.8125 -0.64453,0.9668 -1.87011,0.9668 -1.22559,0 -1.875,-0.9668 -0.64453,-0.97168 -0.64453,-2.8125 0,-1.8457 0.64453,-2.8125 0.64941,-0.97168 1.875,-0.97168 z"
         style="font-size:10px;line-height:1.25;font-family:sans-serif"
         id="path469" />
      <path
         d="m 277.68221,266.70721 h 1.03027 v 0.83985 l -0.80078,1.5625 h -0.62989 l 0.4004,-1.5625 z"
         style="font-size:10px;line-height:1.25;font-family:sans-serif"
         id="path471" />
      <path
         d="m 281.60799,267.11737 h 3.44238 v 0.83008 h -4.62891 v -0.83008 q 0.56153,-0.58105 1.52832,-1.55762 0.97168,-0.98144 1.22071,-1.26465 0.47363,-0.53222 0.65918,-0.89843 0.19043,-0.3711 0.19043,-0.72754 0,-0.58106 -0.41016,-0.94727 -0.40527,-0.36621 -1.05957,-0.36621 -0.46387,0 -0.98145,0.16113 -0.51269,0.16114 -1.09863,0.48829 v -0.9961 q 0.5957,-0.23926 1.11328,-0.36133 0.51758,-0.12207 0.94727,-0.12207 1.13281,0 1.80664,0.56641 0.67383,0.56641 0.67383,1.51367 0,0.44922 -0.1709,0.85449 -0.16602,0.40039 -0.61035,0.94727 -0.12207,0.1416 -0.77637,0.82031 -0.6543,0.67383 -1.8457,1.88965 z"
         style="font-size:10px;line-height:1.25;font-family:sans-serif"
         id="path473" />
    </g>
    <g
       aria-label="Core 1"
       style="font-style:normal;font-weight:normal;line-height:0%;font-family:sans-serif;letter-spacing:0px;word-spacing:0px;fill:#000000;fill-opacity:1;stroke:none"
       id="text3775-2">
      <path
         d="m 351.10248,239.55432 v 2.08008 q -0.9961,-0.92773 -2.12891,-1.38672 -1.12305,-0.45898 -2.39258,-0.45898 -2.5,0 -3.82812,1.5332 -1.32813,1.52344 -1.32813,4.41406 0,2.88086 1.32813,4.41406 1.32812,1.52344 3.82812,1.52344 1.26953,0 2.39258,-0.45898 1.13281,-0.45899 2.12891,-1.38672 v 2.06055 q -1.03516,0.70312 -2.19727,1.05468 -1.15234,0.35157 -2.4414,0.35157 -3.31055,0 -5.21485,-2.02149 -1.90429,-2.03125 -1.90429,-5.53711 0,-3.51562 1.90429,-5.53711 1.9043,-2.03125 5.21485,-2.03125 1.30859,0 2.46093,0.35157 1.16211,0.34179 2.17774,1.03515 z"
         style="font-size:20px;line-height:1.25;font-family:sans-serif"
         id="path430" />
      <path
         d="m 358.30951,243.33362 q -1.44531,0 -2.28516,1.13281 -0.83984,1.12305 -0.83984,3.08594 0,1.96289 0.83008,3.0957 0.83984,1.12305 2.29492,1.12305 1.43555,0 2.27539,-1.13281 0.83984,-1.13282 0.83984,-3.08594 0,-1.94336 -0.83984,-3.07617 -0.83984,-1.14258 -2.27539,-1.14258 z m 0,-1.52344 q 2.34375,0 3.68164,1.52344 1.33789,1.52344 1.33789,4.21875 0,2.68555 -1.33789,4.21875 -1.33789,1.52344 -3.68164,1.52344 -2.35352,0 -3.69141,-1.52344 -1.32812,-1.5332 -1.32812,-4.21875 0,-2.69531 1.32812,-4.21875 1.33789,-1.52344 3.69141,-1.52344 z"
         style="font-size:20px;line-height:1.25;font-family:sans-serif"
         id="path432" />
      <path
         d="m 372.64545,243.75354 q -0.30274,-0.17578 -0.66407,-0.25391 -0.35156,-0.0879 -0.78125,-0.0879 -1.52343,0 -2.34375,0.9961 -0.81054,0.98633 -0.81054,2.84179 v 5.76172 h -1.80664 v -10.9375 h 1.80664 v 1.69922 q 0.5664,-0.99609 1.47461,-1.47461 0.9082,-0.48828 2.20703,-0.48828 0.18554,0 0.41015,0.0293 0.22461,0.0195 0.49805,0.0684 z"
         style="font-size:20px;line-height:1.25;font-family:sans-serif"
         id="path434" />
      <path
         d="m 383.44623,247.09338 v 0.87891 h -8.26172 q 0.11719,1.85547 1.11328,2.83203 1.00586,0.9668 2.79297,0.9668 1.03516,0 2.00195,-0.25391 0.97656,-0.2539 1.9336,-0.76172 v 1.69922 q -0.9668,0.41016 -1.98243,0.625 -1.01562,0.21485 -2.06054,0.21485 -2.61719,0 -4.15039,-1.52344 -1.52344,-1.52344 -1.52344,-4.1211 0,-2.68554 1.44531,-4.25781 1.45508,-1.58203 3.91602,-1.58203 2.20703,0 3.48633,1.42578 1.28906,1.41602 1.28906,3.85742 z m -1.79688,-0.52734 q -0.0195,-1.47461 -0.83008,-2.35352 -0.80078,-0.8789 -2.1289,-0.8789 -1.50391,0 -2.41211,0.84961 -0.89844,0.84961 -1.03516,2.39258 z"
         style="font-size:20px;line-height:1.25;font-family:sans-serif"
         id="path436" />
      <path
         d="m 393.34857,251.3512 h 3.22266 v -11.12305 l -3.50586,0.70312 v -1.79687 l 3.48633,-0.70313 h 1.97265 v 12.91993 h 3.22266 v 1.66015 h -8.39844 z"
         style="font-size:20px;line-height:1.25;font-family:sans-serif"
         id="path438" />
    </g>
    <g
       aria-label="threads (CPUs): 1,3"
       style="font-style:normal;font-weight:normal;line-height:0%;font-family:sans-serif;letter-spacing:0px;word-spacing:0px;fill:#000000;fill-opacity:1;stroke:none"
       id="text3819-9">
      <path
         d="m 340.90765,260.81604 v 1.55273 h 1.85059 v 0.69825 h -1.85059 v 2.96875 q 0,0.66894 0.18067,0.85937 0.18554,0.19043 0.74707,0.19043 h 0.92285 v 0.75195 h -0.92285 q -1.04004,0 -1.43555,-0.38574 -0.39551,-0.39062 -0.39551,-1.41601 v -2.96875 h -0.65918 v -0.69825 h 0.65918 v -1.55273 z"
         style="font-size:10px;line-height:1.25;font-family:sans-serif"
         id="path395" />
      <path
         d="m 348.48578,264.53674 v 3.30078 h -0.89844 v -3.27148 q 0,-0.77637 -0.30273,-1.16211 -0.30274,-0.38574 -0.90821,-0.38574 -0.72754,0 -1.14746,0.46387 -0.41992,0.46386 -0.41992,1.26464 v 3.09082 h -0.90332 v -7.59765 h 0.90332 v 2.97851 q 0.32227,-0.49316 0.75684,-0.7373 0.43945,-0.24414 1.01074,-0.24414 0.94238,0 1.42578,0.58594 0.4834,0.58105 0.4834,1.71386 z"
         style="font-size:10px;line-height:1.25;font-family:sans-serif"
         id="path397" />
      <path
         d="m 353.44672,263.20862 q -0.15137,-0.0879 -0.33203,-0.12695 -0.17579,-0.0439 -0.39063,-0.0439 -0.76172,0 -1.17187,0.49805 -0.40528,0.49316 -0.40528,1.4209 v 2.88085 h -0.90332 v -5.46875 h 0.90332 v 0.84961 q 0.2832,-0.49804 0.73731,-0.7373 0.4541,-0.24414 1.10351,-0.24414 0.0928,0 0.20508,0.0147 0.1123,0.01 0.24902,0.0342 z"
         style="font-size:10px;line-height:1.25;font-family:sans-serif"
         id="path399" />
      <path
         d="m 358.84711,264.87854 v 0.43945 h -4.13086 q 0.0586,0.92774 0.55664,1.41602 0.50293,0.4834 1.39648,0.4834 0.51758,0 1.00098,-0.12696 0.48828,-0.12695 0.9668,-0.38086 v 0.84961 q -0.4834,0.20508 -0.99121,0.3125 -0.50782,0.10743 -1.03028,0.10743 -1.30859,0 -2.07519,-0.76172 -0.76172,-0.76172 -0.76172,-2.06055 0,-1.34277 0.72265,-2.12891 0.72754,-0.79101 1.95801,-0.79101 1.10352,0 1.74317,0.71289 0.64453,0.70801 0.64453,1.92871 z m -0.89844,-0.26367 q -0.01,-0.73731 -0.41504,-1.17676 -0.40039,-0.43945 -1.06445,-0.43945 -0.75196,0 -1.20606,0.4248 -0.44922,0.42481 -0.51758,1.19629 z"
         style="font-size:10px;line-height:1.25;font-family:sans-serif"
         id="path401" />
      <path
         d="m 362.80707,265.0885 q -1.08887,0 -1.50879,0.24902 -0.41992,0.24903 -0.41992,0.84961 0,0.47852 0.3125,0.76172 0.31738,0.27832 0.85937,0.27832 0.74707,0 1.19629,-0.52734 0.4541,-0.53223 0.4541,-1.41113 v -0.2002 z m 1.79199,-0.37109 v 3.12011 h -0.89844 v -0.83007 q -0.30761,0.49804 -0.7666,0.7373 -0.45898,0.23438 -1.12305,0.23438 -0.83984,0 -1.33789,-0.46875 -0.49316,-0.47364 -0.49316,-1.26465 0,-0.92285 0.61523,-1.3916 0.62012,-0.46875 1.84571,-0.46875 h 1.25976 v -0.0879 q 0,-0.62012 -0.41015,-0.95704 -0.40528,-0.34179 -1.14258,-0.34179 -0.46875,0 -0.91309,0.1123 -0.44433,0.11231 -0.85449,0.33692 v -0.83008 q 0.49316,-0.19043 0.95703,-0.28321 0.46387,-0.0976 0.90332,-0.0976 1.18653,0 1.77246,0.61523 0.58594,0.61524 0.58594,1.86524 z"
         style="font-size:10px;line-height:1.25;font-family:sans-serif"
         id="path403" />
      <path
         d="m 370.04828,263.19885 v -2.95898 h 0.89844 v 7.59765 h -0.89844 v -0.82031 q -0.2832,0.48828 -0.71777,0.72754 -0.42969,0.23438 -1.03516,0.23438 -0.99121,0 -1.61621,-0.79102 -0.62012,-0.79102 -0.62012,-2.08008 0,-1.28906 0.62012,-2.08008 0.625,-0.79101 1.61621,-0.79101 0.60547,0 1.03516,0.23926 0.43457,0.23437 0.71777,0.72265 z m -3.06152,1.90918 q 0,0.99121 0.40527,1.55762 0.41016,0.56152 1.12305,0.56152 0.71289,0 1.12304,-0.56152 0.41016,-0.56641 0.41016,-1.55762 0,-0.99121 -0.41016,-1.55273 -0.41015,-0.56641 -1.12304,-0.56641 -0.71289,0 -1.12305,0.56641 -0.40527,0.56152 -0.40527,1.55273 z"
         style="font-size:10px;line-height:1.25;font-family:sans-serif"
         id="path405" />
      <path
         d="m 376.28363,262.52991 v 0.84961 q -0.38086,-0.19532 -0.79102,-0.29297 -0.41015,-0.0977 -0.8496,-0.0977 -0.66895,0 -1.00586,0.20508 -0.33204,0.20508 -0.33204,0.61523 0,0.3125 0.23926,0.49317 0.23926,0.17578 0.96192,0.33691 l 0.30761,0.0684 q 0.95704,0.20508 1.35743,0.58106 0.40527,0.37109 0.40527,1.04004 0,0.76171 -0.60547,1.20605 -0.60059,0.44434 -1.65527,0.44434 -0.43946,0 -0.91797,-0.0879 -0.47363,-0.083 -1.00098,-0.25391 v -0.92774 q 0.49805,0.25879 0.98145,0.39063 0.4834,0.12695 0.95703,0.12695 0.63476,0 0.97656,-0.21484 0.3418,-0.21973 0.3418,-0.61524 0,-0.36621 -0.24903,-0.56152 -0.24414,-0.19531 -1.0791,-0.37598 l -0.3125,-0.0732 q -0.83496,-0.17578 -1.20605,-0.53711 -0.3711,-0.36621 -0.3711,-1.00097 0,-0.77149 0.54688,-1.19141 0.54687,-0.41992 1.55273,-0.41992 0.49805,0 0.9375,0.0732 0.43946,0.0732 0.81055,0.21973 z"
         style="font-size:10px;line-height:1.25;font-family:sans-serif"
         id="path407" />
      <path
         d="m 383.34418,260.24963 q -0.6543,1.12305 -0.97168,2.22168 -0.31739,1.09864 -0.31739,2.22657 0,1.12793 0.31739,2.23632 0.32226,1.10352 0.97168,2.22168 h -0.78125 q -0.73242,-1.14746 -1.09864,-2.25586 -0.36132,-1.10839 -0.36132,-2.20214 0,-1.08887 0.36132,-2.19239 0.36133,-1.10351 1.09864,-2.25586 z"
         style="font-size:10px;line-height:1.25;font-family:sans-serif"
         id="path409" />
      <path
         d="m 390.58539,261.10901 v 1.04004 q -0.49805,-0.46387 -1.06445,-0.69336 -0.56153,-0.22949 -1.19629,-0.22949 -1.25,0 -1.91407,0.7666 -0.66406,0.76172 -0.66406,2.20703 0,1.44043 0.66406,2.20703 0.66407,0.76172 1.91407,0.76172 0.63476,0 1.19629,-0.22949 0.5664,-0.2295 1.06445,-0.69336 v 1.03027 q -0.51758,0.35156 -1.09863,0.52734 -0.57618,0.17579 -1.22071,0.17579 -1.65527,0 -2.60742,-1.01075 -0.95215,-1.01562 -0.95215,-2.76855 0,-1.75781 0.95215,-2.76856 0.95215,-1.01562 2.60742,-1.01562 0.6543,0 1.23047,0.17578 0.58106,0.1709 1.08887,0.51758 z"
         style="font-size:10px;line-height:1.25;font-family:sans-serif"
         id="path411" />
      <path
         d="m 393.09515,261.35803 v 2.73926 h 1.24024 q 0.68847,0 1.06445,-0.35645 0.37598,-0.35644 0.37598,-1.01562 0,-0.6543 -0.37598,-1.01074 -0.37598,-0.35645 -1.06445,-0.35645 z m -0.98632,-0.81054 h 2.22656 q 1.22558,0 1.85058,0.55664 0.62989,0.55175 0.62989,1.62109 0,1.0791 -0.62989,1.63086 -0.625,0.55176 -1.85058,0.55176 h -1.24024 v 2.92968 h -0.98632 z"
         style="font-size:10px;line-height:1.25;font-family:sans-serif"
         id="path413" />
      <path
         d="m 398.02679,260.54749 h 0.99122 v 4.42871 q 0,1.17187 0.4248,1.68945 0.4248,0.51269 1.37695,0.51269 0.94727,0 1.37207,-0.51269 0.42481,-0.51758 0.42481,-1.68945 v -4.42871 h 0.99121 v 4.55078 q 0,1.42578 -0.70801,2.15332 -0.70312,0.72754 -2.08008,0.72754 -1.38183,0 -2.08984,-0.72754 -0.70313,-0.72754 -0.70313,-2.15332 z"
         style="font-size:10px;line-height:1.25;font-family:sans-serif"
         id="path415" />
      <path
         d="m 408.9057,262.52991 v 0.84961 q -0.38086,-0.19532 -0.79101,-0.29297 -0.41016,-0.0977 -0.84961,-0.0977 -0.66895,0 -1.00586,0.20508 -0.33203,0.20508 -0.33203,0.61523 0,0.3125 0.23925,0.49317 0.23926,0.17578 0.96192,0.33691 l 0.30761,0.0684 q 0.95704,0.20508 1.35743,0.58106 0.40527,0.37109 0.40527,1.04004 0,0.76171 -0.60547,1.20605 -0.60059,0.44434 -1.65527,0.44434 -0.43946,0 -0.91797,-0.0879 -0.47363,-0.083 -1.00098,-0.25391 v -0.92774 q 0.49805,0.25879 0.98145,0.39063 0.4834,0.12695 0.95703,0.12695 0.63476,0 0.97656,-0.21484 0.3418,-0.21973 0.3418,-0.61524 0,-0.36621 -0.24903,-0.56152 -0.24414,-0.19531 -1.0791,-0.37598 l -0.3125,-0.0732 q -0.83496,-0.17578 -1.20605,-0.53711 -0.3711,-0.36621 -0.3711,-1.00097 0,-0.77149 0.54688,-1.19141 0.54687,-0.41992 1.55273,-0.41992 0.49805,0 0.9375,0.0732 0.43946,0.0732 0.81055,0.21973 z"
         style="font-size:10px;line-height:1.25;font-family:sans-serif"
         id="path417" />
      <path
         d="m 410.48773,260.24963 h 0.78125 q 0.73242,1.15235 1.09375,2.25586 0.36621,1.10352 0.36621,2.19239 0,1.09375 -0.36621,2.20214 -0.36133,1.1084 -1.09375,2.25586 h -0.78125 q 0.64942,-1.11816 0.9668,-2.22168 0.32226,-1.10839 0.32226,-2.23632 0,-1.12793 -0.32226,-2.22657 -0.31738,-1.09863 -0.9668,-2.22168 z"
         style="font-size:10px;line-height:1.25;font-family:sans-serif"
         id="path419" />
      <path
         d="m 414.76019,266.59729 h 1.03028 v 1.24023 h -1.03028 z m 0,-3.93066 h 1.03028 v 1.24023 h -1.03028 z"
         style="font-size:10px;line-height:1.25;font-family:sans-serif"
         id="path421" />
      <path
         d="m 421.3764,267.00745 h 1.61133 v -5.56153 l -1.75293,0.35157 v -0.89844 l 1.74317,-0.35156 h 0.98632 v 6.45996 h 1.61133 v 0.83007 h -4.19922 z"
         style="font-size:10px;line-height:1.25;font-family:sans-serif"
         id="path423" />
      <path
         d="m 427.67035,266.59729 h 1.03027 v 0.83984 l -0.80078,1.5625 h -0.62988 l 0.40039,-1.5625 z"
         style="font-size:10px;line-height:1.25;font-family:sans-serif"
         id="path425" />
      <path
         d="m 433.7348,263.90686 q 0.70801,0.15137 1.10352,0.62988 0.40039,0.47852 0.40039,1.18164 0,1.07911 -0.74219,1.66993 -0.74219,0.59082 -2.10937,0.59082 -0.45899,0 -0.94727,-0.0928 -0.4834,-0.0879 -1.00098,-0.26855 v -0.95215 q 0.41016,0.23926 0.89844,0.36133 0.48828,0.12207 1.02051,0.12207 0.92773,0 1.41113,-0.36621 0.48828,-0.36621 0.48828,-1.06446 0,-0.64453 -0.4541,-1.00586 -0.44922,-0.36621 -1.25488,-0.36621 h -0.84961 v -0.81054 h 0.88867 q 0.72754,0 1.11328,-0.28809 0.38574,-0.29297 0.38574,-0.83984 0,-0.56153 -0.40039,-0.85938 -0.3955,-0.30273 -1.13769,-0.30273 -0.40527,0 -0.86914,0.0879 -0.46387,0.0879 -1.02051,0.27344 v -0.87891 q 0.56152,-0.15625 1.04981,-0.23438 0.49316,-0.0781 0.92773,-0.0781 1.12305,0 1.77734,0.51269 0.6543,0.50782 0.6543,1.37696 0,0.60547 -0.34668,1.02539 -0.34668,0.41504 -0.98633,0.57617 z"
         style="font-size:10px;line-height:1.25;font-family:sans-serif"
         id="path427" />
    </g>
    <rect
       style="fill:#45ff81;fill-opacity:1;stroke:#000000;stroke-width:1.37199974;stroke-linecap:butt;stroke-linejoin:miter;stroke-miterlimit:4;stroke-opacity:1;stroke-dasharray:none;stroke-dashoffset:0"
       id="rect3755-2"
       width="59.199997"
       height="62.362293"
       x="176.58701"
       y="290.052" />
    <g
       aria-label="L1d cache
32KB"
       style="font-style:normal;font-weight:normal;line-height:0%;font-family:sans-serif;letter-spacing:0px;word-spacing:0px;fill:#000000;fill-opacity:1;stroke:none"
       id="text3885">
      <path
         d="m 184.63543,311.41871 h 0.908 v 5.94698 h 3.26792 v 0.76416 h -4.17592 z"
         style="font-size:9.2059021px;line-height:1.25;font-family:sans-serif"
         id="path370" />
      <path
         d="m 190.00254,317.36569 h 1.48337 v -5.11988 l -1.61373,0.32364 v -0.82709 l 1.60474,-0.32365 h 0.90801 v 5.94698 h 1.48337 v 0.76416 h -3.86576 z"
         style="font-size:9.2059021px;line-height:1.25;font-family:sans-serif"
         id="path372" />
      <path
         d="m 198.89828,313.85954 v -2.72402 h 0.8271 v 6.99433 h -0.8271 v -0.75517 q -0.26071,0.44951 -0.66077,0.66977 -0.39557,0.21576 -0.95296,0.21576 -0.9125,0 -1.48787,-0.7282 -0.57087,-0.7282 -0.57087,-1.9149 0,-1.1867 0.57087,-1.9149 0.57537,-0.7282 1.48787,-0.7282 0.55739,0 0.95296,0.22026 0.40006,0.21576 0.66077,0.66527 z m -2.81841,1.75757 q 0,0.9125 0.37309,1.43393 0.37759,0.51693 1.03387,0.51693 0.65628,0 1.03387,-0.51693 0.37758,-0.52143 0.37758,-1.43393 0,-0.9125 -0.37758,-1.42943 -0.37759,-0.52143 -1.03387,-0.52143 -0.65628,0 -1.03387,0.52143 -0.37309,0.51693 -0.37309,1.42943 z"
         style="font-size:9.2059021px;line-height:1.25;font-family:sans-serif"
         id="path374" />
      <path
         d="m 207.97832,313.28866 v 0.77315 q -0.35061,-0.19328 -0.70572,-0.28768 -0.35062,-0.0989 -0.71022,-0.0989 -0.80462,0 -1.24963,0.51244 -0.44501,0.50794 -0.44501,1.42943 0,0.92149 0.44501,1.43393 0.44501,0.50794 1.24963,0.50794 0.3596,0 0.71022,-0.0944 0.35511,-0.0989 0.70572,-0.29218 v 0.76416 q -0.34612,0.16183 -0.71921,0.24274 -0.36859,0.0809 -0.78663,0.0809 -1.13726,0 -1.80702,-0.71472 -0.66977,-0.71471 -0.66977,-1.92838 0,-1.23165 0.67426,-1.93738 0.67876,-0.70572 1.85647,-0.70572 0.38208,0 0.74618,0.0809 0.3641,0.0764 0.70572,0.23374 z"
         style="font-size:9.2059021px;line-height:1.25;font-family:sans-serif"
         id="path376" />
      <path
         d="m 211.70473,315.59913 q -1.0024,0 -1.38897,0.22925 -0.38658,0.22925 -0.38658,0.78214 0,0.44052 0.28769,0.70123 0.29218,0.25622 0.79113,0.25622 0.68774,0 1.10129,-0.48547 0.41804,-0.48996 0.41804,-1.29907 v -0.1843 z m 1.6497,-0.34163 v 2.87235 h -0.8271 v -0.76416 q -0.28319,0.4585 -0.70572,0.67876 -0.42254,0.21576 -1.03387,0.21576 -0.77315,0 -1.23165,-0.43153 -0.454,-0.43602 -0.454,-1.16422 0,-0.84957 0.56638,-1.2811 0.57087,-0.43152 1.69913,-0.43152 h 1.15973 v -0.0809 q 0,-0.57088 -0.37758,-0.88104 -0.37309,-0.31465 -1.05185,-0.31465 -0.43153,0 -0.84058,0.10339 -0.40905,0.10338 -0.78663,0.31015 v -0.76416 q 0.454,-0.1753 0.88103,-0.26071 0.42703,-0.0899 0.83159,-0.0899 1.0923,0 1.63171,0.56638 0.53941,0.56638 0.53941,1.71711 z"
         style="font-size:9.2059021px;line-height:1.25;font-family:sans-serif"
         id="path378" />
      <path
         d="m 218.68108,313.28866 v 0.77315 q -0.35061,-0.19328 -0.70572,-0.28768 -0.35062,-0.0989 -0.71022,-0.0989 -0.80462,0 -1.24963,0.51244 -0.44502,0.50794 -0.44502,1.42943 0,0.92149 0.44502,1.43393 0.44501,0.50794 1.24963,0.50794 0.3596,0 0.71022,-0.0944 0.35511,-0.0989 0.70572,-0.29218 v 0.76416 q -0.34612,0.16183 -0.71921,0.24274 -0.36859,0.0809 -0.78664,0.0809 -1.13725,0 -1.80701,-0.71472 -0.66977,-0.71471 -0.66977,-1.92838 0,-1.23165 0.67426,-1.93738 0.67876,-0.70572 1.85646,-0.70572 0.38209,0 0.74619,0.0809 0.3641,0.0764 0.70572,0.23374 z"
         style="font-size:9.2059021px;line-height:1.25;font-family:sans-serif"
         id="path380" />
      <path
         d="m 224.30441,315.09119 v 3.03866 h -0.82709 v -3.01169 q 0,-0.71472 -0.27869,-1.06983 -0.2787,-0.35511 -0.83609,-0.35511 -0.66976,0 -1.05634,0.42703 -0.38657,0.42703 -0.38657,1.16422 v 2.84538 h -0.83159 v -6.99433 h 0.83159 v 2.742 q 0.29667,-0.45401 0.69673,-0.67876 0.40456,-0.22475 0.93048,-0.22475 0.86755,0 1.31256,0.53941 0.44501,0.53491 0.44501,1.57777 z"
         style="font-size:9.2059021px;line-height:1.25;font-family:sans-serif"
         id="path382" />
      <path
         d="m 230.26038,315.40584 v 0.40456 h -3.80283 q 0.0539,0.85406 0.51244,1.30357 0.46299,0.44501 1.28559,0.44501 0.47648,0 0.92149,-0.11687 0.44951,-0.11688 0.89002,-0.35062 v 0.78214 q -0.44501,0.1888 -0.9125,0.28769 -0.46748,0.0989 -0.94846,0.0989 -1.20467,0 -1.9104,-0.70123 -0.70123,-0.70123 -0.70123,-1.89692 0,-1.23614 0.66527,-1.95985 0.66976,-0.7282 1.80252,-0.7282 1.01589,0 1.60474,0.65628 0.59335,0.65178 0.59335,1.77555 z m -0.82709,-0.24273 q -0.009,-0.67876 -0.38208,-1.08332 -0.3686,-0.40455 -0.97993,-0.40455 -0.69224,0 -1.11028,0.39107 -0.41355,0.39107 -0.47648,1.10129 z"
         style="font-size:9.2059021px;line-height:1.25;font-family:sans-serif"
         id="path384" />
      <path
         d="m 187.46732,326.0187 q 0.65179,0.13935 1.01589,0.57986 0.36859,0.44052 0.36859,1.08781 0,0.99341 -0.68325,1.53731 -0.68325,0.54391 -1.94187,0.54391 -0.42253,0 -0.87204,-0.0854 -0.44501,-0.0809 -0.92149,-0.24723 v -0.87654 q 0.37758,0.22026 0.82709,0.33264 0.44951,0.11238 0.93947,0.11238 0.85406,0 1.29908,-0.33714 0.4495,-0.33713 0.4495,-0.97992 0,-0.59335 -0.41804,-0.92598 -0.41354,-0.33713 -1.15523,-0.33713 h -0.78214 v -0.74619 h 0.8181 q 0.66977,0 1.02488,-0.26521 0.35511,-0.2697 0.35511,-0.77315 0,-0.51693 -0.3686,-0.79113 -0.3641,-0.27869 -1.04735,-0.27869 -0.37309,0 -0.80012,0.0809 -0.42703,0.0809 -0.93947,0.25172 v -0.80911 q 0.51693,-0.14384 0.96644,-0.21576 0.454,-0.0719 0.85406,-0.0719 1.03387,0 1.63621,0.47199 0.60233,0.46748 0.60233,1.26761 0,0.55738 -0.31914,0.94396 -0.31915,0.38208 -0.90801,0.53042 z"
         style="font-size:9.2059021px;line-height:1.25;font-family:sans-serif"
         id="path386" />
      <path
         d="m 191.35556,328.87307 h 3.16902 v 0.76416 h -4.26133 v -0.76416 q 0.51694,-0.53492 1.40696,-1.43393 0.89452,-0.90351 1.12377,-1.16422 0.43602,-0.48996 0.60683,-0.82709 0.17531,-0.34163 0.17531,-0.66977 0,-0.53491 -0.37759,-0.87204 -0.37309,-0.33713 -0.97543,-0.33713 -0.42703,0 -0.9035,0.14833 -0.47199,0.14834 -1.0114,0.44951 v -0.91699 q 0.5484,-0.22026 1.02488,-0.33264 0.47648,-0.11238 0.87204,-0.11238 1.04286,0 1.66318,0.52143 0.62032,0.52143 0.62032,1.39347 0,0.41355 -0.15733,0.78664 -0.15283,0.3686 -0.56188,0.87204 -0.11238,0.13036 -0.71472,0.75518 -0.60234,0.62032 -1.69913,1.73959 z"
         style="font-size:9.2059021px;line-height:1.25;font-family:sans-serif"
         id="path388" />
      <path
         d="m 196.34958,322.92609 h 0.908 v 2.83639 l 3.0117,-2.83639 h 1.16872 l -3.33085,3.12857 3.56908,3.58257 h -1.19568 l -3.22297,-3.23195 v 3.23195 h -0.908 z"
         style="font-size:9.2059021px;line-height:1.25;font-family:sans-serif"
         id="path390" />
      <path
         d="m 203.29446,326.43225 v 2.4588 h 1.4564 q 0.7327,0 1.08331,-0.30117 0.35511,-0.30567 0.35511,-0.93048 0,-0.62931 -0.35511,-0.92598 -0.35061,-0.30117 -1.08331,-0.30117 z m 0,-2.75998 v 2.02278 h 1.34403 q 0.66527,0 0.98891,-0.24722 0.32814,-0.25173 0.32814,-0.76417 0,-0.50794 -0.32814,-0.75966 -0.32364,-0.25173 -0.98891,-0.25173 z m -0.908,-0.74618 h 2.31945 q 1.03836,0 1.60025,0.43153 0.56188,0.43152 0.56188,1.22715 0,0.61583 -0.28768,0.97993 -0.28769,0.3641 -0.84508,0.454 0.66977,0.14384 1.03836,0.60234 0.37309,0.454 0.37309,1.13725 0,0.89901 -0.61133,1.38898 -0.61133,0.48996 -1.73959,0.48996 h -2.40935 z"
         style="font-size:9.2059021px;line-height:1.25;font-family:sans-serif"
         id="path392" />
    </g>
    <rect
       style="fill:#eba69f;fill-opacity:1;stroke:#000000;stroke-width:1.37199974;stroke-linecap:butt;stroke-linejoin:miter;stroke-miterlimit:4;stroke-opacity:1;stroke-dasharray:none;stroke-dashoffset:0"
       id="rect3755-2-0"
       width="59.199997"
       height="62.362293"
       x="241.035"
       y="290.05203" />
    <g
       aria-label="L1i cache
32KB"
       style="font-style:normal;font-weight:normal;line-height:0%;font-family:sans-serif;letter-spacing:0px;word-spacing:0px;fill:#000000;fill-opacity:1;stroke:none"
       id="text3885-1">
      <path
         d="m 248.02828,311.41874 h 0.908 v 5.94698 h 3.26792 v 0.76416 h -4.17592 z"
         style="font-size:9.2059021px;line-height:1.25;font-family:sans-serif"
         id="path345" />
      <path
         d="m 253.39539,317.36572 h 1.48338 v -5.11988 l -1.61373,0.32364 v -0.82709 l 1.60474,-0.32365 h 0.908 v 5.94698 h 1.48337 v 0.76416 h -3.86576 z"
         style="font-size:9.2059021px;line-height:1.25;font-family:sans-serif"
         id="path347" />
      <path
         d="m 258.97827,313.09541 h 0.82709 v 5.03447 h -0.82709 z m 0,-1.95986 h 0.82709 v 1.04736 h -0.82709 z"
         style="font-size:9.2059021px;line-height:1.25;font-family:sans-serif"
         id="path349" />
      <path
         d="m 268.08528,313.28869 v 0.77316 q -0.35062,-0.19329 -0.70573,-0.28769 -0.35061,-0.0989 -0.71022,-0.0989 -0.80461,0 -1.24963,0.51244 -0.44501,0.50794 -0.44501,1.42943 0,0.92149 0.44501,1.43393 0.44502,0.50794 1.24963,0.50794 0.35961,0 0.71022,-0.0944 0.35511,-0.0989 0.70573,-0.29218 v 0.76416 q -0.34612,0.16183 -0.71921,0.24274 -0.3686,0.0809 -0.78664,0.0809 -1.13725,0 -1.80702,-0.71472 -0.66976,-0.71471 -0.66976,-1.92838 0,-1.23165 0.67426,-1.93738 0.67875,-0.70572 1.85646,-0.70572 0.38208,0 0.74618,0.0809 0.3641,0.0764 0.70573,0.23374 z"
         style="font-size:9.2059021px;line-height:1.25;font-family:sans-serif"
         id="path351" />
      <path
         d="m 271.81169,315.59916 q -1.0024,0 -1.38898,0.22925 -0.38657,0.22925 -0.38657,0.78214 0,0.44052 0.28768,0.70123 0.29218,0.25622 0.79114,0.25622 0.68774,0 1.10129,-0.48547 0.41804,-0.48996 0.41804,-1.29907 v -0.1843 z m 1.64969,-0.34163 v 2.87235 h -0.82709 v -0.76416 q -0.28319,0.4585 -0.70573,0.67876 -0.42253,0.21576 -1.03386,0.21576 -0.77315,0 -1.23165,-0.43153 -0.454,-0.43602 -0.454,-1.16422 0,-0.84957 0.56638,-1.28109 0.57087,-0.43153 1.69913,-0.43153 h 1.15973 v -0.0809 q 0,-0.57088 -0.37759,-0.88104 -0.37309,-0.31465 -1.05184,-0.31465 -0.43153,0 -0.84058,0.10339 -0.40905,0.10338 -0.78664,0.31016 v -0.76417 q 0.454,-0.1753 0.88104,-0.26071 0.42703,-0.0899 0.83158,-0.0899 1.09231,0 1.63171,0.56638 0.53941,0.56638 0.53941,1.71711 z"
         style="font-size:9.2059021px;line-height:1.25;font-family:sans-serif"
         id="path353" />
      <path
         d="m 278.78804,313.28869 v 0.77316 q -0.35061,-0.19329 -0.70573,-0.28769 -0.35061,-0.0989 -0.71022,-0.0989 -0.80461,0 -1.24963,0.51244 -0.44501,0.50794 -0.44501,1.42943 0,0.92149 0.44501,1.43393 0.44502,0.50794 1.24963,0.50794 0.35961,0 0.71022,-0.0944 0.35512,-0.0989 0.70573,-0.29218 v 0.76416 q -0.34612,0.16183 -0.71921,0.24274 -0.3686,0.0809 -0.78664,0.0809 -1.13725,0 -1.80702,-0.71472 -0.66976,-0.71471 -0.66976,-1.92838 0,-1.23165 0.67426,-1.93738 0.67876,-0.70572 1.85646,-0.70572 0.38208,0 0.74618,0.0809 0.36411,0.0764 0.70573,0.23374 z"
         style="font-size:9.2059021px;line-height:1.25;font-family:sans-serif"
         id="path355" />
      <path
         d="m 284.41137,315.09122 v 3.03866 h -0.82709 v -3.01169 q 0,-0.71472 -0.2787,-1.06983 -0.27869,-0.35511 -0.83608,-0.35511 -0.66976,0 -1.05634,0.42703 -0.38658,0.42703 -0.38658,1.16422 v 2.84538 H 280.195 v -6.99433 h 0.83158 v 2.742 q 0.29668,-0.454 0.69674,-0.67876 0.40456,-0.22475 0.93048,-0.22475 0.86755,0 1.31256,0.53941 0.44501,0.53491 0.44501,1.57777 z"
         style="font-size:9.2059021px;line-height:1.25;font-family:sans-serif"
         id="path357" />
      <path
         d="m 290.36734,315.40587 v 0.40456 h -3.80283 q 0.0539,0.85406 0.51244,1.30357 0.46299,0.44501 1.28559,0.44501 0.47647,0 0.92149,-0.11687 0.4495,-0.11687 0.89002,-0.35062 v 0.78214 q -0.44501,0.1888 -0.9125,0.28769 -0.46749,0.0989 -0.94846,0.0989 -1.20468,0 -1.9104,-0.70123 -0.70124,-0.70123 -0.70124,-1.89692 0,-1.23614 0.66528,-1.95985 0.66976,-0.7282 1.80252,-0.7282 1.01588,0 1.60474,0.65628 0.59335,0.65178 0.59335,1.77555 z m -0.8271,-0.24273 q -0.009,-0.67876 -0.38208,-1.08331 -0.36859,-0.40456 -0.97992,-0.40456 -0.69224,0 -1.11028,0.39107 -0.41355,0.39107 -0.47648,1.10129 z"
         style="font-size:9.2059021px;line-height:1.25;font-family:sans-serif"
         id="path359" />
      <path
         d="m 250.86017,326.01873 q 0.65179,0.13935 1.01589,0.57986 0.3686,0.44052 0.3686,1.08781 0,0.99341 -0.68326,1.53731 -0.68325,0.54391 -1.94187,0.54391 -0.42253,0 -0.87204,-0.0854 -0.44501,-0.0809 -0.92149,-0.24723 v -0.87654 q 0.37759,0.22026 0.82709,0.33264 0.44951,0.11238 0.93947,0.11238 0.85407,0 1.29908,-0.33713 0.44951,-0.33713 0.44951,-0.97993 0,-0.59335 -0.41805,-0.92598 -0.41354,-0.33713 -1.15523,-0.33713 h -0.78214 v -0.74619 h 0.8181 q 0.66977,0 1.02488,-0.2652 0.35511,-0.26971 0.35511,-0.77316 0,-0.51693 -0.3686,-0.79113 -0.3641,-0.27869 -1.04735,-0.27869 -0.37309,0 -0.80012,0.0809 -0.42703,0.0809 -0.93947,0.25172 v -0.80911 q 0.51693,-0.14384 0.96644,-0.21576 0.454,-0.0719 0.85406,-0.0719 1.03387,0 1.63621,0.47199 0.60234,0.46748 0.60234,1.26761 0,0.55739 -0.31915,0.94396 -0.31915,0.38208 -0.90801,0.53042 z"
         style="font-size:9.2059021px;line-height:1.25;font-family:sans-serif"
         id="path361" />
      <path
         d="m 254.74841,328.8731 h 3.16902 v 0.76416 h -4.26132 v -0.76416 q 0.51693,-0.53491 1.40695,-1.43393 0.89452,-0.90351 1.12377,-1.16422 0.43602,-0.48996 0.60684,-0.82709 0.1753,-0.34163 0.1753,-0.66977 0,-0.53491 -0.37758,-0.87204 -0.37309,-0.33713 -0.97543,-0.33713 -0.42703,0 -0.90351,0.14833 -0.47198,0.14834 -1.01139,0.44951 v -0.91699 q 0.5484,-0.22026 1.02487,-0.33264 0.47648,-0.11238 0.87205,-0.11238 1.04285,0 1.66317,0.52143 0.62032,0.52143 0.62032,1.39347 0,0.41355 -0.15733,0.78664 -0.15283,0.3686 -0.56188,0.87205 -0.11238,0.13035 -0.71472,0.75517 -0.60233,0.62032 -1.69913,1.73959 z"
         style="font-size:9.2059021px;line-height:1.25;font-family:sans-serif"
         id="path363" />
      <path
         d="m 259.74243,322.92612 h 0.908 v 2.83639 l 3.0117,-2.83639 h 1.16872 l -3.33085,3.12857 3.56909,3.58257 h -1.19569 l -3.22297,-3.23195 v 3.23195 h -0.908 z"
         style="font-size:9.2059021px;line-height:1.25;font-family:sans-serif"
         id="path365" />
      <path
         d="m 266.68731,326.43228 v 2.4588 h 1.4564 q 0.7327,0 1.08332,-0.30117 0.35511,-0.30567 0.35511,-0.93048 0,-0.62931 -0.35511,-0.92598 -0.35062,-0.30117 -1.08332,-0.30117 z m 0,-2.75998 v 2.02278 h 1.34403 q 0.66527,0 0.98891,-0.24722 0.32814,-0.25173 0.32814,-0.76417 0,-0.50794 -0.32814,-0.75966 -0.32364,-0.25173 -0.98891,-0.25173 z m -0.908,-0.74618 h 2.31945 q 1.03836,0 1.60025,0.43153 0.56188,0.43153 0.56188,1.22715 0,0.61583 -0.28768,0.97993 -0.28769,0.3641 -0.84508,0.454 0.66977,0.14384 1.03837,0.60234 0.37309,0.454 0.37309,1.13725 0,0.89902 -0.61133,1.38898 -0.61133,0.48996 -1.73959,0.48996 h -2.40936 z"
         style="font-size:9.2059021px;line-height:1.25;font-family:sans-serif"
         id="path367" />
    </g>
    <rect
       style="fill:#45ff81;fill-opacity:1;stroke:#000000;stroke-width:1.37199974;stroke-linecap:butt;stroke-linejoin:miter;stroke-miterlimit:4;stroke-opacity:1;stroke-dasharray:none;stroke-dashoffset:0"
       id="rect3755-2-08"
       width="59.199997"
       height="62.362293"
       x="325.491"
       y="290.05243" />
    <g
       aria-label="L1d cache
32KB"
       style="font-style:normal;font-weight:normal;line-height:0%;font-family:sans-serif;letter-spacing:0px;word-spacing:0px;fill:#000000;fill-opacity:1;stroke:none"
       id="text3885-8">
      <path
         d="m 333.5394,311.41914 h 0.90801 v 5.94698 h 3.26791 v 0.76416 h -4.17592 z"
         style="font-size:9.2059021px;line-height:1.25;font-family:sans-serif"
         id="path320" />
      <path
         d="m 338.90652,317.36612 h 1.48337 v -5.11989 l -1.61373,0.32365 v -0.82709 l 1.60474,-0.32365 h 0.908 v 5.94698 h 1.48338 v 0.76416 h -3.86576 z"
         style="font-size:9.2059021px;line-height:1.25;font-family:sans-serif"
         id="path322" />
      <path
         d="m 347.80226,313.85996 v -2.72401 h 0.82709 v 6.99433 h -0.82709 v -0.75517 q -0.26072,0.4495 -0.66078,0.66976 -0.39556,0.21577 -0.95295,0.21577 -0.9125,0 -1.48787,-0.7282 -0.57087,-0.72821 -0.57087,-1.9149 0,-1.1867 0.57087,-1.9149 0.57537,-0.72821 1.48787,-0.72821 0.55739,0 0.95295,0.22026 0.40006,0.21577 0.66078,0.66527 z m -2.81841,1.75758 q 0,0.91249 0.37309,1.43392 0.37759,0.51694 1.03387,0.51694 0.65628,0 1.03386,-0.51694 0.37759,-0.52143 0.37759,-1.43392 0,-0.9125 -0.37759,-1.42944 -0.37758,-0.52142 -1.03386,-0.52142 -0.65628,0 -1.03387,0.52142 -0.37309,0.51694 -0.37309,1.42944 z"
         style="font-size:9.2059021px;line-height:1.25;font-family:sans-serif"
         id="path324" />
      <path
         d="m 356.8823,313.28909 v 0.77315 q -0.35062,-0.19329 -0.70573,-0.28768 -0.35061,-0.0989 -0.71022,-0.0989 -0.80461,0 -1.24963,0.51243 -0.44501,0.50795 -0.44501,1.42944 0,0.92148 0.44501,1.43392 0.44502,0.50795 1.24963,0.50795 0.35961,0 0.71022,-0.0944 0.35511,-0.0989 0.70573,-0.29218 v 0.76416 q -0.34612,0.16182 -0.71921,0.24274 -0.3686,0.0809 -0.78664,0.0809 -1.13725,0 -1.80702,-0.71472 -0.66976,-0.71472 -0.66976,-1.92838 0,-1.23165 0.67426,-1.93738 0.67875,-0.70573 1.85646,-0.70573 0.38208,0 0.74618,0.0809 0.3641,0.0764 0.70573,0.23374 z"
         style="font-size:9.2059021px;line-height:1.25;font-family:sans-serif"
         id="path326" />
      <path
         d="m 360.60871,315.59956 q -1.0024,0 -1.38898,0.22924 -0.38657,0.22925 -0.38657,0.78215 0,0.44051 0.28768,0.70123 0.29218,0.25622 0.79114,0.25622 0.68774,0 1.10129,-0.48547 0.41804,-0.48996 0.41804,-1.29908 v -0.18429 z m 1.64969,-0.34163 v 2.87235 h -0.82709 v -0.76416 q -0.28319,0.45849 -0.70573,0.67875 -0.42253,0.21577 -1.03386,0.21577 -0.77315,0 -1.23165,-0.43153 -0.454,-0.43602 -0.454,-1.16422 0,-0.84957 0.56637,-1.2811 0.57088,-0.43152 1.69914,-0.43152 h 1.15973 v -0.0809 q 0,-0.57087 -0.37759,-0.88103 -0.37309,-0.31465 -1.05184,-0.31465 -0.43153,0 -0.84058,0.10338 -0.40905,0.10339 -0.78664,0.31016 v -0.76416 q 0.454,-0.17531 0.88104,-0.26071 0.42703,-0.0899 0.83158,-0.0899 1.09231,0 1.63171,0.56638 0.53941,0.56638 0.53941,1.71712 z"
         style="font-size:9.2059021px;line-height:1.25;font-family:sans-serif"
         id="path328" />
      <path
         d="m 367.58506,313.28909 v 0.77315 q -0.35062,-0.19329 -0.70573,-0.28768 -0.35061,-0.0989 -0.71022,-0.0989 -0.80462,0 -1.24963,0.51243 -0.44501,0.50795 -0.44501,1.42944 0,0.92148 0.44501,1.43392 0.44501,0.50795 1.24963,0.50795 0.35961,0 0.71022,-0.0944 0.35511,-0.0989 0.70573,-0.29218 v 0.76416 q -0.34612,0.16182 -0.71921,0.24274 -0.3686,0.0809 -0.78664,0.0809 -1.13725,0 -1.80702,-0.71472 -0.66976,-0.71472 -0.66976,-1.92838 0,-1.23165 0.67426,-1.93738 0.67875,-0.70573 1.85646,-0.70573 0.38208,0 0.74618,0.0809 0.3641,0.0764 0.70573,0.23374 z"
         style="font-size:9.2059021px;line-height:1.25;font-family:sans-serif"
         id="path330" />
      <path
         d="m 373.20839,315.09161 v 3.03867 h -0.82709 v -3.0117 q 0,-0.71471 -0.2787,-1.06982 -0.27869,-0.35511 -0.83608,-0.35511 -0.66976,0 -1.05634,0.42703 -0.38658,0.42703 -0.38658,1.16422 v 2.84538 h -0.83158 v -6.99433 h 0.83158 v 2.74199 q 0.29668,-0.454 0.69674,-0.67875 0.40456,-0.22476 0.93048,-0.22476 0.86755,0 1.31256,0.53941 0.44501,0.53492 0.44501,1.57777 z"
         style="font-size:9.2059021px;line-height:1.25;font-family:sans-serif"
         id="path332" />
      <path
         d="m 379.16436,315.40627 v 0.40455 h -3.80283 q 0.0539,0.85407 0.51244,1.30357 0.46299,0.44502 1.28559,0.44502 0.47647,0 0.92149,-0.11688 0.4495,-0.11687 0.89002,-0.35061 v 0.78214 q -0.44501,0.18879 -0.9125,0.28769 -0.46749,0.0989 -0.94846,0.0989 -1.20468,0 -1.9104,-0.70123 -0.70124,-0.70124 -0.70124,-1.89692 0,-1.23615 0.66528,-1.95985 0.66976,-0.72821 1.80252,-0.72821 1.01588,0 1.60474,0.65629 0.59335,0.65178 0.59335,1.77555 z m -0.8271,-0.24274 q -0.009,-0.67875 -0.38208,-1.08331 -0.36859,-0.40455 -0.97992,-0.40455 -0.69224,0 -1.11028,0.39107 -0.41355,0.39107 -0.47648,1.10129 z"
         style="font-size:9.2059021px;line-height:1.25;font-family:sans-serif"
         id="path334" />
      <path
         d="m 336.3713,326.01913 q 0.65178,0.13934 1.01588,0.57986 0.3686,0.44052 0.3686,1.08781 0,0.99341 -0.68325,1.53731 -0.68325,0.5439 -1.94187,0.5439 -0.42254,0 -0.87205,-0.0854 -0.44501,-0.0809 -0.92148,-0.24723 v -0.87654 q 0.37758,0.22026 0.82709,0.33264 0.44951,0.11237 0.93947,0.11237 0.85406,0 1.29907,-0.33713 0.44951,-0.33713 0.44951,-0.97992 0,-0.59335 -0.41804,-0.92599 -0.41355,-0.33713 -1.15523,-0.33713 h -0.78215 v -0.74618 h 0.81811 q 0.66976,0 1.02487,-0.26521 0.35511,-0.2697 0.35511,-0.77315 0,-0.51693 -0.36859,-0.79113 -0.3641,-0.2787 -1.04735,-0.2787 -0.3731,0 -0.80013,0.0809 -0.42703,0.0809 -0.93947,0.25173 v -0.80911 q 0.51694,-0.14385 0.96644,-0.21577 0.45401,-0.0719 0.85407,-0.0719 1.03386,0 1.6362,0.47198 0.60234,0.46749 0.60234,1.26761 0,0.55739 -0.31915,0.94397 -0.31915,0.38208 -0.908,0.53042 z"
         style="font-size:9.2059021px;line-height:1.25;font-family:sans-serif"
         id="path336" />
      <path
         d="m 340.25953,328.8735 h 3.16903 v 0.76416 h -4.26133 v -0.76416 q 0.51693,-0.53492 1.40696,-1.43393 0.89452,-0.90351 1.12376,-1.16422 0.43603,-0.48997 0.60684,-0.8271 0.17531,-0.34162 0.17531,-0.66976 0,-0.53492 -0.37759,-0.87205 -0.37309,-0.33713 -0.97543,-0.33713 -0.42703,0 -0.90351,0.14834 -0.47198,0.14834 -1.01139,0.44951 v -0.917 q 0.5484,-0.22025 1.02488,-0.33263 0.47647,-0.11238 0.87204,-0.11238 1.04286,0 1.66318,0.52143 0.62032,0.52143 0.62032,1.39347 0,0.41355 -0.15733,0.78664 -0.15283,0.36859 -0.56189,0.87204 -0.11237,0.13036 -0.71471,0.75517 -0.60234,0.62032 -1.69914,1.7396 z"
         style="font-size:9.2059021px;line-height:1.25;font-family:sans-serif"
         id="path338" />
      <path
         d="m 345.25355,322.92652 h 0.90801 v 2.83639 l 3.01169,-2.83639 h 1.16872 l -3.33084,3.12857 3.56908,3.58257 h -1.19569 l -3.22296,-3.23196 v 3.23196 h -0.90801 z"
         style="font-size:9.2059021px;line-height:1.25;font-family:sans-serif"
         id="path340" />
      <path
         d="m 352.19844,326.43267 v 2.45881 h 1.4564 q 0.73269,0 1.08331,-0.30117 0.35511,-0.30567 0.35511,-0.93048 0,-0.62931 -0.35511,-0.92599 -0.35062,-0.30117 -1.08331,-0.30117 z m 0,-2.75997 v 2.02278 h 1.34402 q 0.66527,0 0.98892,-0.24723 0.32814,-0.25172 0.32814,-0.76416 0,-0.50794 -0.32814,-0.75967 -0.32365,-0.25172 -0.98892,-0.25172 z m -0.90801,-0.74618 h 2.31946 q 1.03836,0 1.60024,0.43153 0.56189,0.43152 0.56189,1.22715 0,0.61582 -0.28769,0.97992 -0.28768,0.3641 -0.84507,0.45401 0.66976,0.14384 1.03836,0.60234 0.37309,0.454 0.37309,1.13725 0,0.89901 -0.61133,1.38897 -0.61133,0.48997 -1.73959,0.48997 h -2.40936 z"
         style="font-size:9.2059021px;line-height:1.25;font-family:sans-serif"
         id="path342" />
    </g>
    <rect
       style="fill:#eba69f;fill-opacity:1;stroke:#000000;stroke-width:1.37199974;stroke-linecap:butt;stroke-linejoin:miter;stroke-miterlimit:4;stroke-opacity:1;stroke-dasharray:none;stroke-dashoffset:0"
       id="rect3755-2-0-8"
       width="59.199997"
       height="62.362293"
       x="389.939"
       y="290.05246" />
    <g
       aria-label="L1i cache
32KB"
       style="font-style:normal;font-weight:normal;line-height:0%;font-family:sans-serif;letter-spacing:0px;word-spacing:0px;fill:#000000;fill-opacity:1;stroke:none"
       id="text3885-1-6">
      <path
         d="m 396.93226,311.41917 h 0.908 v 5.94698 h 3.26792 v 0.76416 h -4.17592 z"
         style="font-size:9.2059021px;line-height:1.25;font-family:sans-serif"
         id="path295" />
      <path
         d="m 402.29937,317.36615 h 1.48337 v -5.11989 l -1.61373,0.32365 v -0.82709 l 1.60474,-0.32365 h 0.90801 v 5.94698 h 1.48337 v 0.76416 h -3.86576 z"
         style="font-size:9.2059021px;line-height:1.25;font-family:sans-serif"
         id="path297" />
      <path
         d="m 407.88225,313.09583 h 0.82709 v 5.03448 h -0.82709 z m 0,-1.95985 h 0.82709 v 1.04735 h -0.82709 z"
         style="font-size:9.2059021px;line-height:1.25;font-family:sans-serif"
         id="path299" />
      <path
         d="m 416.98926,313.28912 v 0.77315 q -0.35062,-0.19329 -0.70573,-0.28768 -0.35061,-0.0989 -0.71022,-0.0989 -0.80462,0 -1.24963,0.51243 -0.44501,0.50795 -0.44501,1.42944 0,0.92149 0.44501,1.43392 0.44501,0.50795 1.24963,0.50795 0.35961,0 0.71022,-0.0944 0.35511,-0.0989 0.70573,-0.29218 v 0.76416 q -0.34612,0.16182 -0.71921,0.24274 -0.3686,0.0809 -0.78664,0.0809 -1.13725,0 -1.80702,-0.71472 -0.66977,-0.71471 -0.66977,-1.92838 0,-1.23165 0.67427,-1.93738 0.67875,-0.70572 1.85646,-0.70572 0.38208,0 0.74618,0.0809 0.3641,0.0764 0.70573,0.23374 z"
         style="font-size:9.2059021px;line-height:1.25;font-family:sans-serif"
         id="path301" />
      <path
         d="m 420.71567,315.59959 q -1.0024,0 -1.38898,0.22924 -0.38657,0.22925 -0.38657,0.78215 0,0.44051 0.28768,0.70123 0.29218,0.25622 0.79113,0.25622 0.68775,0 1.10129,-0.48547 0.41805,-0.48996 0.41805,-1.29908 v -0.18429 z m 1.64969,-0.34163 v 2.87235 h -0.82709 v -0.76416 q -0.28319,0.4585 -0.70573,0.67875 -0.42254,0.21577 -1.03387,0.21577 -0.77315,0 -1.23165,-0.43153 -0.454,-0.43602 -0.454,-1.16422 0,-0.84957 0.56638,-1.2811 0.57088,-0.43152 1.69914,-0.43152 h 1.15973 v -0.0809 q 0,-0.57087 -0.37759,-0.88103 -0.37309,-0.31465 -1.05185,-0.31465 -0.43152,0 -0.84057,0.10338 -0.40906,0.10339 -0.78664,0.31016 v -0.76416 q 0.454,-0.17531 0.88103,-0.26071 0.42703,-0.0899 0.83159,-0.0899 1.0923,0 1.63171,0.56637 0.53941,0.56638 0.53941,1.71712 z"
         style="font-size:9.2059021px;line-height:1.25;font-family:sans-serif"
         id="path303" />
      <path
         d="m 427.69202,313.28912 v 0.77315 q -0.35062,-0.19329 -0.70573,-0.28768 -0.35061,-0.0989 -0.71022,-0.0989 -0.80462,0 -1.24963,0.51243 -0.44501,0.50795 -0.44501,1.42944 0,0.92149 0.44501,1.43392 0.44501,0.50795 1.24963,0.50795 0.35961,0 0.71022,-0.0944 0.35511,-0.0989 0.70573,-0.29218 v 0.76416 q -0.34612,0.16182 -0.71921,0.24274 -0.3686,0.0809 -0.78664,0.0809 -1.13725,0 -1.80702,-0.71472 -0.66976,-0.71471 -0.66976,-1.92838 0,-1.23165 0.67426,-1.93738 0.67875,-0.70572 1.85646,-0.70572 0.38208,0 0.74618,0.0809 0.3641,0.0764 0.70573,0.23374 z"
         style="font-size:9.2059021px;line-height:1.25;font-family:sans-serif"
         id="path305" />
      <path
         d="m 433.31535,315.09164 v 3.03867 h -0.82709 v -3.0117 q 0,-0.71471 -0.2787,-1.06982 -0.27869,-0.35511 -0.83608,-0.35511 -0.66977,0 -1.05634,0.42703 -0.38658,0.42703 -0.38658,1.16422 v 2.84538 h -0.83159 v -6.99433 h 0.83159 v 2.74199 q 0.29668,-0.454 0.69674,-0.67875 0.40455,-0.22475 0.93048,-0.22475 0.86754,0 1.31256,0.5394 0.44501,0.53492 0.44501,1.57777 z"
         style="font-size:9.2059021px;line-height:1.25;font-family:sans-serif"
         id="path307" />
      <path
         d="m 439.27131,315.4063 v 0.40455 h -3.80283 q 0.0539,0.85407 0.51244,1.30357 0.46299,0.44502 1.28559,0.44502 0.47648,0 0.92149,-0.11688 0.44951,-0.11687 0.89003,-0.35061 v 0.78214 q -0.44502,0.18879 -0.9125,0.28769 -0.46749,0.0989 -0.94846,0.0989 -1.20468,0 -1.91041,-0.70123 -0.70123,-0.70123 -0.70123,-1.89692 0,-1.23615 0.66527,-1.95985 0.66977,-0.7282 1.80252,-0.7282 1.01589,0 1.60474,0.65628 0.59335,0.65178 0.59335,1.77555 z m -0.82709,-0.24274 q -0.009,-0.67875 -0.38208,-1.08331 -0.3686,-0.40455 -0.97993,-0.40455 -0.69224,0 -1.11028,0.39107 -0.41354,0.39107 -0.47648,1.10129 z"
         style="font-size:9.2059021px;line-height:1.25;font-family:sans-serif"
         id="path309" />
      <path
         d="m 399.76415,326.01916 q 0.65179,0.13934 1.01589,0.57986 0.36859,0.44052 0.36859,1.08781 0,0.99341 -0.68325,1.53731 -0.68325,0.5439 -1.94187,0.5439 -0.42254,0 -0.87204,-0.0854 -0.44501,-0.0809 -0.92149,-0.24723 v -0.87654 q 0.37758,0.22026 0.82709,0.33264 0.44951,0.11237 0.93947,0.11237 0.85406,0 1.29908,-0.33713 0.4495,-0.33713 0.4495,-0.97992 0,-0.59335 -0.41804,-0.92599 -0.41355,-0.33713 -1.15523,-0.33713 h -0.78214 v -0.74618 h 0.8181 q 0.66976,0 1.02487,-0.26521 0.35512,-0.2697 0.35512,-0.77315 0,-0.51693 -0.3686,-0.79113 -0.3641,-0.2787 -1.04735,-0.2787 -0.37309,0 -0.80012,0.0809 -0.42704,0.0809 -0.93947,0.25172 v -0.80911 q 0.51693,-0.14385 0.96644,-0.21577 0.454,-0.0719 0.85406,-0.0719 1.03387,0 1.6362,0.47198 0.60234,0.46749 0.60234,1.26761 0,0.55739 -0.31915,0.94397 -0.31915,0.38208 -0.908,0.53042 z"
         style="font-size:9.2059021px;line-height:1.25;font-family:sans-serif"
         id="path311" />
      <path
         d="m 403.65239,328.87353 h 3.16902 v 0.76416 h -4.26133 v -0.76416 q 0.51694,-0.53492 1.40696,-1.43393 0.89452,-0.90351 1.12377,-1.16422 0.43602,-0.48997 0.60683,-0.8271 0.17531,-0.34162 0.17531,-0.66976 0,-0.53492 -0.37759,-0.87205 -0.37309,-0.33713 -0.97543,-0.33713 -0.42703,0 -0.90351,0.14834 -0.47198,0.14834 -1.01139,0.44951 v -0.917 q 0.5484,-0.22025 1.02488,-0.33263 0.47648,-0.11238 0.87204,-0.11238 1.04286,0 1.66318,0.52143 0.62032,0.52143 0.62032,1.39347 0,0.41355 -0.15733,0.78664 -0.15283,0.36859 -0.56188,0.87204 -0.11238,0.13036 -0.71472,0.75517 -0.60234,0.62032 -1.69913,1.7396 z"
         style="font-size:9.2059021px;line-height:1.25;font-family:sans-serif"
         id="path313" />
      <path
         d="m 408.64641,322.92655 h 0.908 v 2.83639 l 3.0117,-2.83639 h 1.16872 l -3.33085,3.12857 3.56908,3.58257 h -1.19568 l -3.22297,-3.23196 v 3.23196 h -0.908 z"
         style="font-size:9.2059021px;line-height:1.25;font-family:sans-serif"
         id="path315" />
      <path
         d="m 415.59129,326.4327 v 2.45881 h 1.4564 q 0.7327,0 1.08331,-0.30117 0.35511,-0.30567 0.35511,-0.93048 0,-0.62931 -0.35511,-0.92599 -0.35061,-0.30117 -1.08331,-0.30117 z m 0,-2.75997 v 2.02278 h 1.34402 q 0.66527,0 0.98892,-0.24723 0.32814,-0.25172 0.32814,-0.76416 0,-0.50794 -0.32814,-0.75967 -0.32365,-0.25172 -0.98892,-0.25172 z m -0.90801,-0.74618 h 2.31946 q 1.03836,0 1.60025,0.43153 0.56188,0.43152 0.56188,1.22715 0,0.61582 -0.28769,0.97992 -0.28768,0.36411 -0.84507,0.45401 0.66977,0.14384 1.03836,0.60234 0.37309,0.454 0.37309,1.13725 0,0.89901 -0.61133,1.38898 -0.61133,0.48996 -1.73959,0.48996 h -2.40936 z"
         style="font-size:9.2059021px;line-height:1.25;font-family:sans-serif"
         id="path317" />
    </g>
    <rect
       style="fill:#ffd18f;fill-opacity:1;stroke:#000000;stroke-width:1.37199986;stroke-linecap:butt;stroke-linejoin:miter;stroke-miterlimit:4;stroke-opacity:1;stroke-dasharray:none;stroke-dashoffset:0"
       id="rect3755-7"
       width="123.74368"
       height="62.362293"
       x="176.58701"
       y="358.51447" />
    <rect
       style="fill:#ffd18f;fill-opacity:1;stroke:#000000;stroke-width:1.37199998;stroke-linecap:butt;stroke-linejoin:miter;stroke-miterlimit:4;stroke-opacity:1;stroke-dasharray:none;stroke-dashoffset:0"
       id="rect3755-9-8"
       width="123.744"
       height="62.362461"
       x="325.49088"
       y="358.51428" />
    <g
       aria-label="L2 cache 
256KB"
       style="font-style:normal;font-weight:normal;line-height:0%;font-family:sans-serif;letter-spacing:0px;word-spacing:0px;fill:#000000;fill-opacity:1;stroke:none"
       id="text4010">
      <path
         d="m 211.78395,375.74643 h 1.32574 v 8.6829 h 4.77133 v 1.11571 h -6.09707 z"
         style="font-size:13.44110489px;line-height:1.25;font-family:sans-serif"
         id="path245" />
      <path
         d="m 220.53249,384.42933 h 4.62694 v 1.11571 h -6.22176 v -1.11571 q 0.75475,-0.781 2.05423,-2.09361 1.30604,-1.31917 1.64076,-1.69983 0.63661,-0.71537 0.88601,-1.2076 0.25596,-0.49879 0.25596,-0.97789 0,-0.781 -0.5513,-1.27323 -0.54473,-0.49223 -1.42418,-0.49223 -0.62349,0 -1.31917,0.21658 -0.68912,0.21658 -1.47668,0.6563 v -1.33886 q 0.80069,-0.32158 1.49637,-0.48566 0.69568,-0.16408 1.27323,-0.16408 1.52262,0 2.42832,0.76132 0.9057,0.76131 0.9057,2.03454 0,0.6038 -0.2297,1.14853 -0.22315,0.53817 -0.82038,1.27323 -0.16408,0.19033 -1.04353,1.10259 -0.87944,0.9057 -2.48082,2.5399 z"
         style="font-size:13.44110489px;line-height:1.25;font-family:sans-serif"
         id="path247" />
      <path
         d="m 237.33387,378.47665 v 1.12884 q -0.51192,-0.28221 -1.0304,-0.42003 -0.51192,-0.14439 -1.03696,-0.14439 -1.17479,0 -1.82453,0.74819 -0.64974,0.74162 -0.64974,2.08704 0,1.34543 0.64974,2.09361 0.64974,0.74163 1.82453,0.74163 0.52504,0 1.03696,-0.13783 0.51848,-0.14438 1.0304,-0.42659 v 1.11571 q -0.50536,0.23627 -1.05009,0.35441 -0.53817,0.11813 -1.14853,0.11813 -1.66045,0 -2.63834,-1.04352 -0.9779,-1.04352 -0.9779,-2.81555 0,-1.79827 0.98446,-2.82867 0.99102,-1.03039 2.71053,-1.03039 0.55786,0 1.08947,0.11813 0.5316,0.11157 1.0304,0.34128 z"
         style="font-size:13.44110489px;line-height:1.25;font-family:sans-serif"
         id="path249" />
      <path
         d="m 242.77463,381.85005 q -1.46356,0 -2.02798,0.33472 -0.56442,0.33471 -0.56442,1.14197 0,0.64317 0.42003,1.02383 0.4266,0.37409 1.1551,0.37409 1.00414,0 1.60794,-0.7088 0.61036,-0.71538 0.61036,-1.89672 v -0.26909 z m 2.40863,-0.49879 v 4.19378 h -1.2076 v -1.11571 q -0.41347,0.66943 -1.03039,0.99102 -0.61693,0.31502 -1.5095,0.31502 -1.12885,0 -1.79828,-0.63005 -0.66286,-0.63661 -0.66286,-1.69983 0,-1.24041 0.82694,-1.87046 0.83351,-0.63005 2.48083,-0.63005 h 1.69326 v -0.11814 q 0,-0.83351 -0.55129,-1.28636 -0.54473,-0.45941 -1.53575,-0.45941 -0.63005,0 -1.22729,0.15095 -0.59724,0.15095 -1.14853,0.45285 v -1.11572 q 0.66286,-0.25595 1.28635,-0.38065 0.62349,-0.13126 1.21416,-0.13126 1.59482,0 2.38239,0.82694 0.78756,0.82694 0.78756,2.50708 z"
         style="font-size:13.44110489px;line-height:1.25;font-family:sans-serif"
         id="path251" />
      <path
         d="m 252.96046,378.47665 v 1.12884 q -0.51191,-0.28221 -1.03039,-0.42003 -0.51192,-0.14439 -1.03696,-0.14439 -1.17479,0 -1.82453,0.74819 -0.64974,0.74162 -0.64974,2.08704 0,1.34543 0.64974,2.09361 0.64974,0.74163 1.82453,0.74163 0.52504,0 1.03696,-0.13783 0.51848,-0.14438 1.03039,-0.42659 v 1.11571 q -0.50535,0.23627 -1.05008,0.35441 -0.53817,0.11813 -1.14853,0.11813 -1.66045,0 -2.63835,-1.04352 -0.97789,-1.04352 -0.97789,-2.81555 0,-1.79827 0.98446,-2.82867 0.99102,-1.03039 2.71053,-1.03039 0.55786,0 1.08947,0.11813 0.5316,0.11157 1.03039,0.34128 z"
         style="font-size:13.44110489px;line-height:1.25;font-family:sans-serif"
         id="path253" />
      <path
         d="m 261.17082,381.10843 v 4.43661 h -1.20759 v -4.39723 q 0,-1.04353 -0.40691,-1.56201 -0.40691,-0.51848 -1.22073,-0.51848 -0.97789,0 -1.54231,0.62349 -0.56442,0.62349 -0.56442,1.69983 v 4.1544 h -1.21417 v -10.21209 h 1.21417 v 4.00346 q 0.43316,-0.66287 1.01727,-0.99102 0.59067,-0.32815 1.35855,-0.32815 1.26666,0 1.9164,0.78756 0.64974,0.781 0.64974,2.30363 z"
         style="font-size:13.44110489px;line-height:1.25;font-family:sans-serif"
         id="path255" />
      <path
         d="m 269.86685,381.56784 v 0.59068 h -5.55233 q 0.0788,1.24697 0.74819,1.90328 0.67599,0.64974 1.87703,0.64974 0.69568,0 1.34542,-0.17064 0.6563,-0.17064 1.29948,-0.51192 v 1.14197 q -0.64974,0.27565 -1.3323,0.42004 -0.68255,0.14438 -1.3848,0.14438 -1.75889,0 -2.78929,-1.02383 -1.02383,-1.02384 -1.02383,-2.7696 0,-1.80484 0.97133,-2.86149 0.97789,-1.06321 2.63178,-1.06321 1.48324,0 2.343,0.9582 0.86632,0.95164 0.86632,2.5924 z m -1.2076,-0.3544 q -0.0131,-0.99102 -0.55786,-1.58169 -0.53816,-0.59068 -1.43074,-0.59068 -1.01071,0 -1.62107,0.57099 -0.6038,0.57098 -0.69568,1.60794 z"
         style="font-size:13.44110489px;line-height:1.25;font-family:sans-serif"
         id="path257" />
      <path
         d="m 213.04406,401.23071 h 4.62694 v 1.11572 h -6.22176 v -1.11572 q 0.75475,-0.781 2.05423,-2.09361 1.30604,-1.31917 1.64076,-1.69983 0.63661,-0.71537 0.88601,-1.2076 0.25596,-0.49879 0.25596,-0.97789 0,-0.781 -0.5513,-1.27323 -0.54473,-0.49223 -1.42418,-0.49223 -0.62348,0 -1.31917,0.21658 -0.68912,0.21658 -1.47668,0.65631 v -1.33886 q 0.80069,-0.32159 1.49637,-0.48567 0.69568,-0.16407 1.27323,-0.16407 1.52263,0 2.42833,0.76131 0.9057,0.76131 0.9057,2.03454 0,0.6038 -0.22971,1.14853 -0.22314,0.53817 -0.82038,1.27323 -0.16408,0.19033 -1.04352,1.10259 -0.87945,0.9057 -2.48083,2.5399 z"
         style="font-size:13.44110489px;line-height:1.25;font-family:sans-serif"
         id="path259" />
      <path
         d="m 220.46685,392.54781 h 5.2045 v 1.11571 h -3.99033 v 2.40208 q 0.28877,-0.0985 0.57754,-0.14439 0.28878,-0.0525 0.57755,-0.0525 1.64076,0 2.59897,0.89913 0.9582,0.89914 0.9582,2.43489 0,1.58169 -0.98446,2.46114 -0.98445,0.87288 -2.77616,0.87288 -0.61693,0 -1.26011,-0.10501 -0.63661,-0.105 -1.31917,-0.31502 v -1.3323 q 0.59068,0.32159 1.22073,0.4791 0.63005,0.15752 1.3323,0.15752 1.1354,0 1.79827,-0.59724 0.66287,-0.59724 0.66287,-1.62107 0,-1.02384 -0.66287,-1.62107 -0.66287,-0.59724 -1.79827,-0.59724 -0.53161,0 -1.06322,0.11814 -0.52504,0.11813 -1.07634,0.36753 z"
         style="font-size:13.44110489px;line-height:1.25;font-family:sans-serif"
         id="path261" />
      <path
         d="m 232.00468,396.91879 q -0.89257,0 -1.41762,0.61036 -0.51848,0.61037 -0.51848,1.67358 0,1.05665 0.51848,1.67357 0.52505,0.61037 1.41762,0.61037 0.89257,0 1.41105,-0.61037 0.52505,-0.61692 0.52505,-1.67357 0,-1.06321 -0.52505,-1.67358 -0.51848,-0.61036 -1.41105,-0.61036 z m 2.63178,-4.1544 v 1.2076 q -0.49879,-0.23627 -1.01071,-0.36097 -0.50535,-0.1247 -1.00415,-0.1247 -1.3126,0 -2.00829,0.88601 -0.68912,0.88601 -0.78756,2.67772 0.38722,-0.57098 0.97133,-0.87288 0.58411,-0.30846 1.28635,-0.30846 1.47669,0 2.32988,0.89913 0.85976,0.89257 0.85976,2.43489 0,1.5095 -0.89257,2.42176 -0.89257,0.91226 -2.37582,0.91226 -1.69983,0 -2.59897,-1.29948 -0.89913,-1.30604 -0.89913,-3.78031 0,-2.32332 1.10259,-3.70155 1.10259,-1.3848 2.95993,-1.3848 0.49879,0 1.00414,0.0984 0.51192,0.0985 1.06322,0.29534 z"
         style="font-size:13.44110489px;line-height:1.25;font-family:sans-serif"
         id="path263" />
      <path
         d="m 237.43888,392.54781 h 1.32573 v 4.14128 l 4.39724,-4.14128 h 1.70639 l -4.86322,4.56787 5.21106,5.23075 h -1.74577 l -4.7057,-4.71883 v 4.71883 h -1.32573 z"
         style="font-size:13.44110489px;line-height:1.25;font-family:sans-serif"
         id="path265" />
      <path
         d="m 247.57877,397.66698 v 3.58998 h 2.12643 q 1.06977,0 1.58169,-0.43972 0.51848,-0.44629 0.51848,-1.35855 0,-0.91883 -0.51848,-1.35199 -0.51192,-0.43972 -1.58169,-0.43972 z m 0,-4.02971 v 2.95337 h 1.96235 q 0.97133,0 1.44387,-0.36097 0.4791,-0.36753 0.4791,-1.11571 0,-0.74163 -0.4791,-1.10916 -0.47254,-0.36753 -1.44387,-0.36753 z m -1.32573,-1.08946 h 3.38653 q 1.51606,0 2.33644,0.63005 0.82038,0.63005 0.82038,1.79171 0,0.89914 -0.42003,1.43074 -0.42004,0.53161 -1.23386,0.66287 0.9779,0.21002 1.51607,0.87945 0.54473,0.66286 0.54473,1.66044 0,1.31261 -0.89258,2.02798 -0.89257,0.71538 -2.53989,0.71538 h -3.51779 z"
         style="font-size:13.44110489px;line-height:1.25;font-family:sans-serif"
         id="path267" />
    </g>
    <g
       aria-label="L2 cache 
256KB"
       style="font-style:normal;font-weight:normal;line-height:0%;font-family:sans-serif;letter-spacing:0px;word-spacing:0px;fill:#000000;fill-opacity:1;stroke:none"
       id="text4010-5">
      <path
         d="m 360.26842,375.8031 h 1.32573 v 8.6829 h 4.77133 v 1.11572 h -6.09706 z"
         style="font-size:13.44110489px;line-height:1.25;font-family:sans-serif"
         id="path270" />
      <path
         d="m 369.01695,384.486 h 4.62694 v 1.11572 h -6.22176 V 384.486 q 0.75475,-0.781 2.05423,-2.09361 1.30605,-1.31917 1.64076,-1.69983 0.63662,-0.71537 0.88601,-1.2076 0.25596,-0.49879 0.25596,-0.97789 0,-0.781 -0.55129,-1.27323 -0.54473,-0.49223 -1.42418,-0.49223 -0.62349,0 -1.31917,0.21658 -0.68912,0.21658 -1.47669,0.65631 v -1.33886 q 0.80069,-0.32159 1.49638,-0.48567 0.69568,-0.16407 1.27323,-0.16407 1.52262,0 2.42832,0.76131 0.9057,0.76131 0.9057,2.03454 0,0.6038 -0.22971,1.14853 -0.22314,0.53817 -0.82038,1.27323 -0.16407,0.19033 -1.04352,1.10259 -0.87945,0.9057 -2.48083,2.5399 z"
         style="font-size:13.44110489px;line-height:1.25;font-family:sans-serif"
         id="path272" />
      <path
         d="m 385.81833,378.53332 v 1.12884 q -0.51191,-0.28221 -1.03039,-0.42003 -0.51192,-0.14439 -1.03696,-0.14439 -1.17479,0 -1.82453,0.74819 -0.64974,0.74162 -0.64974,2.08705 0,1.34542 0.64974,2.09361 0.64974,0.74162 1.82453,0.74162 0.52504,0 1.03696,-0.13782 0.51848,-0.14439 1.03039,-0.4266 v 1.11571 q -0.50535,0.23627 -1.05008,0.35441 -0.53817,0.11813 -1.14854,0.11813 -1.66044,0 -2.63834,-1.04352 -0.97789,-1.04352 -0.97789,-2.81554 0,-1.79828 0.98446,-2.82867 0.99101,-1.0304 2.71053,-1.0304 0.55786,0 1.08947,0.11813 0.5316,0.11158 1.03039,0.34128 z"
         style="font-size:13.44110489px;line-height:1.25;font-family:sans-serif"
         id="path274" />
      <path
         d="m 391.25909,381.90672 q -1.46355,0 -2.02798,0.33472 -0.56442,0.33471 -0.56442,1.14197 0,0.64318 0.42004,1.02383 0.4266,0.3741 1.15509,0.3741 1.00415,0 1.60795,-0.70881 0.61036,-0.71537 0.61036,-1.89672 v -0.26909 z m 2.40864,-0.49879 v 4.19379 h -1.2076 V 384.486 q -0.41347,0.66943 -1.0304,0.99102 -0.61692,0.31502 -1.5095,0.31502 -1.12884,0 -1.79827,-0.63005 -0.66287,-0.63661 -0.66287,-1.69983 0,-1.24041 0.82695,-1.87046 0.8335,-0.63005 2.48083,-0.63005 h 1.69326 v -0.11814 q 0,-0.8335 -0.5513,-1.28635 -0.54473,-0.45942 -1.53575,-0.45942 -0.63005,0 -1.22728,0.15095 -0.59724,0.15095 -1.14854,0.45285 v -1.11571 q 0.66287,-0.25596 1.28636,-0.38066 0.62349,-0.13126 1.21416,-0.13126 1.59482,0 2.38238,0.82694 0.78757,0.82694 0.78757,2.50708 z"
         style="font-size:13.44110489px;line-height:1.25;font-family:sans-serif"
         id="path276" />
      <path
         d="m 401.44493,378.53332 v 1.12884 q -0.51192,-0.28221 -1.0304,-0.42003 -0.51191,-0.14439 -1.03696,-0.14439 -1.17478,0 -1.82452,0.74819 -0.64974,0.74162 -0.64974,2.08705 0,1.34542 0.64974,2.09361 0.64974,0.74162 1.82452,0.74162 0.52505,0 1.03696,-0.13782 0.51848,-0.14439 1.0304,-0.4266 v 1.11571 q -0.50535,0.23627 -1.05009,0.35441 -0.53816,0.11813 -1.14853,0.11813 -1.66045,0 -2.63834,-1.04352 -0.97789,-1.04352 -0.97789,-2.81554 0,-1.79828 0.98445,-2.82867 0.99102,-1.0304 2.71054,-1.0304 0.55786,0 1.08946,0.11813 0.53161,0.11158 1.0304,0.34128 z"
         style="font-size:13.44110489px;line-height:1.25;font-family:sans-serif"
         id="path278" />
      <path
         d="m 409.65529,381.1651 v 4.43662 h -1.2076 v -4.39724 q 0,-1.04352 -0.40691,-1.562 -0.40691,-0.51848 -1.22072,-0.51848 -0.97789,0 -1.54232,0.62348 -0.56442,0.62349 -0.56442,1.69983 v 4.15441 h -1.21416 v -10.21209 h 1.21416 v 4.00345 q 0.43316,-0.66287 1.01727,-0.99102 0.59068,-0.32815 1.35855,-0.32815 1.26667,0 1.91641,0.78756 0.64974,0.78101 0.64974,2.30363 z"
         style="font-size:13.44110489px;line-height:1.25;font-family:sans-serif"
         id="path280" />
      <path
         d="m 418.35132,381.62451 v 0.59068 h -5.55233 q 0.0788,1.24697 0.74818,1.90328 0.676,0.64974 1.87703,0.64974 0.69569,0 1.34543,-0.17064 0.6563,-0.17064 1.29948,-0.51192 v 1.14197 q -0.64974,0.27565 -1.3323,0.42004 -0.68256,0.14438 -1.3848,0.14438 -1.75889,0 -2.78929,-1.02383 -1.02384,-1.02384 -1.02384,-2.7696 0,-1.80484 0.97133,-2.86149 0.9779,-1.06321 2.63178,-1.06321 1.48325,0 2.34301,0.9582 0.86632,0.95164 0.86632,2.5924 z m -1.2076,-0.3544 q -0.0131,-0.99102 -0.55786,-1.58169 -0.53817,-0.59068 -1.43074,-0.59068 -1.01071,0 -1.62107,0.57099 -0.6038,0.57098 -0.69568,1.60794 z"
         style="font-size:13.44110489px;line-height:1.25;font-family:sans-serif"
         id="path282" />
      <path
         d="m 361.52852,401.28738 h 4.62695 v 1.11572 h -6.22176 v -1.11572 q 0.75474,-0.781 2.05423,-2.09361 1.30604,-1.31917 1.64076,-1.69983 0.63661,-0.71537 0.88601,-1.2076 0.25596,-0.49879 0.25596,-0.97789 0,-0.781 -0.5513,-1.27323 -0.54473,-0.49223 -1.42418,-0.49223 -0.62349,0 -1.31917,0.21658 -0.68912,0.21658 -1.47668,0.65631 v -1.33886 q 0.80069,-0.32159 1.49637,-0.48567 0.69568,-0.16407 1.27323,-0.16407 1.52262,0 2.42832,0.76131 0.9057,0.76131 0.9057,2.03454 0,0.6038 -0.2297,1.14853 -0.22315,0.53817 -0.82038,1.27323 -0.16408,0.19033 -1.04353,1.10259 -0.87944,0.9057 -2.48083,2.5399 z"
         style="font-size:13.44110489px;line-height:1.25;font-family:sans-serif"
         id="path284" />
      <path
         d="m 368.95132,392.60448 h 5.20449 v 1.11571 h -3.99033 v 2.40208 q 0.28878,-0.0985 0.57755,-0.14439 0.28878,-0.0525 0.57755,-0.0525 1.64076,0 2.59896,0.89913 0.95821,0.89914 0.95821,2.43489 0,1.58169 -0.98446,2.46114 -0.98446,0.87288 -2.77617,0.87288 -0.61692,0 -1.2601,-0.105 -0.63661,-0.10501 -1.31917,-0.31503 v -1.3323 q 0.59067,0.32159 1.22073,0.4791 0.63005,0.15752 1.33229,0.15752 1.13541,0 1.79828,-0.59724 0.66286,-0.59724 0.66286,-1.62107 0,-1.02383 -0.66286,-1.62107 -0.66287,-0.59724 -1.79828,-0.59724 -0.5316,0 -1.06321,0.11814 -0.52504,0.11813 -1.07634,0.36753 z"
         style="font-size:13.44110489px;line-height:1.25;font-family:sans-serif"
         id="path286" />
      <path
         d="m 380.48914,396.97546 q -0.89257,0 -1.41761,0.61037 -0.51848,0.61036 -0.51848,1.67357 0,1.05665 0.51848,1.67358 0.52504,0.61036 1.41761,0.61036 0.89258,0 1.41106,-0.61036 0.52504,-0.61693 0.52504,-1.67358 0,-1.06321 -0.52504,-1.67357 -0.51848,-0.61037 -1.41106,-0.61037 z m 2.63178,-4.1544 v 1.2076 q -0.49879,-0.23627 -1.0107,-0.36097 -0.50536,-0.1247 -1.00415,-0.1247 -1.31261,0 -2.00829,0.88601 -0.68912,0.88601 -0.78756,2.67772 0.38722,-0.57098 0.97133,-0.87288 0.58411,-0.30846 1.28635,-0.30846 1.47669,0 2.32988,0.89913 0.85976,0.89258 0.85976,2.43489 0,1.5095 -0.89257,2.42176 -0.89258,0.91226 -2.37583,0.91226 -1.69982,0 -2.59896,-1.29948 -0.89914,-1.30604 -0.89914,-3.78031 0,-2.32331 1.1026,-3.70155 1.10259,-1.3848 2.95993,-1.3848 0.49879,0 1.00414,0.0984 0.51192,0.0985 1.06321,0.29534 z"
         style="font-size:13.44110489px;line-height:1.25;font-family:sans-serif"
         id="path288" />
      <path
         d="m 385.92334,392.60448 h 1.32574 v 4.14128 l 4.39723,-4.14128 h 1.70639 l -4.86321,4.56787 5.21105,5.23075 h -1.74576 l -4.7057,-4.71883 v 4.71883 h -1.32574 z"
         style="font-size:13.44110489px;line-height:1.25;font-family:sans-serif"
         id="path290" />
      <path
         d="m 396.06324,397.72365 v 3.58998 h 2.12642 q 1.06978,0 1.5817,-0.43972 0.51848,-0.44629 0.51848,-1.35855 0,-0.91883 -0.51848,-1.35199 -0.51192,-0.43972 -1.5817,-0.43972 z m 0,-4.02971 v 2.95337 h 1.96235 q 0.97133,0 1.44387,-0.36097 0.4791,-0.36753 0.4791,-1.11571 0,-0.74163 -0.4791,-1.10916 -0.47254,-0.36753 -1.44387,-0.36753 z m -1.32573,-1.08946 h 3.38652 q 1.51607,0 2.33645,0.63005 0.82038,0.63005 0.82038,1.79171 0,0.89914 -0.42004,1.43074 -0.42003,0.53161 -1.23385,0.66287 0.97789,0.21002 1.51606,0.87945 0.54473,0.66286 0.54473,1.66045 0,1.3126 -0.89257,2.02797 -0.89257,0.71538 -2.53989,0.71538 h -3.51779 z"
         style="font-size:13.44110489px;line-height:1.25;font-family:sans-serif"
         id="path292" />
    </g>
    <rect
       style="fill:#f7ff8f;fill-opacity:1;stroke:#000000;stroke-width:1.37199998;stroke-linecap:butt;stroke-linejoin:miter;stroke-miterlimit:4;stroke-opacity:1;stroke-dasharray:none;stroke-dashoffset:0"
       id="rect3755-73"
       width="272.56766"
       height="73.97905"
       x="176.58701"
       y="426.46146" />
    <g
       aria-label="L3 cache 
3072KB"
       style="font-style:normal;font-weight:normal;line-height:0%;font-family:sans-serif;letter-spacing:0px;word-spacing:0px;fill:#000000;fill-opacity:1;stroke:none"
       id="text4010-0">
      <path
         d="m 284.09081,449.56454 h 1.32573 v 8.6829 h 4.77133 v 1.11572 h -6.09706 z"
         style="font-size:13.44110489px;line-height:1.25;font-family:sans-serif"
         id="path218" />
      <path
         d="m 295.71395,454.07991 q 0.95164,0.20346 1.48325,0.84663 0.53817,0.64318 0.53817,1.58826 0,1.45043 -0.99758,2.24456 -0.99759,0.79413 -2.83524,0.79413 -0.61692,0 -1.27323,-0.1247 -0.64974,-0.11814 -1.34542,-0.36097 v -1.27979 q 0.55129,0.32159 1.2076,0.48566 0.6563,0.16408 1.37167,0.16408 1.24698,0 1.89672,-0.49223 0.65631,-0.49223 0.65631,-1.43074 0,-0.86632 -0.61037,-1.35199 -0.6038,-0.49222 -1.6867,-0.49222 h -1.14197 v -1.08947 h 1.19448 q 0.97789,0 1.49637,-0.38722 0.51848,-0.39378 0.51848,-1.12884 0,-0.75475 -0.53817,-1.1551 -0.53161,-0.4069 -1.52919,-0.4069 -0.54473,0 -1.16822,0.11813 -0.62349,0.11814 -1.37167,0.36753 v -1.18135 q 0.75475,-0.21001 1.41105,-0.31502 0.66287,-0.10501 1.24698,-0.10501 1.5095,0 2.38894,0.68912 0.87945,0.68255 0.87945,1.85078 0,0.81381 -0.46598,1.37823 -0.46597,0.55786 -1.32573,0.77444 z"
         style="font-size:13.44110489px;line-height:1.25;font-family:sans-serif"
         id="path220" />
      <path
         d="m 309.64072,452.29477 v 1.12884 q -0.51192,-0.28221 -1.0304,-0.42004 -0.51191,-0.14438 -1.03696,-0.14438 -1.17478,0 -1.82452,0.74818 -0.64974,0.74163 -0.64974,2.08705 0,1.34542 0.64974,2.09361 0.64974,0.74162 1.82452,0.74162 0.52505,0 1.03696,-0.13782 0.51848,-0.14439 1.0304,-0.4266 v 1.11572 q -0.50535,0.23627 -1.05009,0.3544 -0.53817,0.11814 -1.14853,0.11814 -1.66045,0 -2.63834,-1.04353 -0.97789,-1.04352 -0.97789,-2.81554 0,-1.79827 0.98445,-2.82867 0.99102,-1.0304 2.71054,-1.0304 0.55786,0 1.08946,0.11814 0.53161,0.11157 1.0304,0.34128 z"
         style="font-size:13.44110489px;line-height:1.25;font-family:sans-serif"
         id="path222" />
      <path
         d="m 315.08148,455.66817 q -1.46356,0 -2.02798,0.33471 -0.56442,0.33472 -0.56442,1.14197 0,0.64318 0.42004,1.02384 0.42659,0.37409 1.15509,0.37409 1.00415,0 1.60795,-0.70881 0.61036,-0.71537 0.61036,-1.89672 v -0.26908 z m 2.40864,-0.49879 v 4.19378 h -1.2076 v -1.11572 q -0.41347,0.66943 -1.0304,0.99102 -0.61693,0.31503 -1.5095,0.31503 -1.12884,0 -1.79827,-0.63005 -0.66287,-0.63662 -0.66287,-1.69983 0,-1.24042 0.82694,-1.87047 0.83351,-0.63005 2.48083,-0.63005 h 1.69327 v -0.11813 q 0,-0.83351 -0.5513,-1.28636 -0.54473,-0.45941 -1.53575,-0.45941 -0.63005,0 -1.22729,0.15095 -0.59723,0.15095 -1.14853,0.45285 v -1.11572 q 0.66287,-0.25596 1.28636,-0.38066 0.62349,-0.13126 1.21416,-0.13126 1.59482,0 2.38238,0.82695 0.78757,0.82694 0.78757,2.50708 z"
         style="font-size:13.44110489px;line-height:1.25;font-family:sans-serif"
         id="path224" />
      <path
         d="m 325.26732,452.29477 v 1.12884 q -0.51192,-0.28221 -1.0304,-0.42004 -0.51192,-0.14438 -1.03696,-0.14438 -1.17478,0 -1.82452,0.74818 -0.64974,0.74163 -0.64974,2.08705 0,1.34542 0.64974,2.09361 0.64974,0.74162 1.82452,0.74162 0.52504,0 1.03696,-0.13782 0.51848,-0.14439 1.0304,-0.4266 v 1.11572 q -0.50536,0.23627 -1.05009,0.3544 -0.53817,0.11814 -1.14853,0.11814 -1.66045,0 -2.63834,-1.04353 -0.97789,-1.04352 -0.97789,-2.81554 0,-1.79827 0.98445,-2.82867 0.99102,-1.0304 2.71054,-1.0304 0.55786,0 1.08946,0.11814 0.53161,0.11157 1.0304,0.34128 z"
         style="font-size:13.44110489px;line-height:1.25;font-family:sans-serif"
         id="path226" />
      <path
         d="m 333.47768,454.92654 v 4.43662 h -1.2076 v -4.39724 q 0,-1.04352 -0.40691,-1.562 -0.40691,-0.51848 -1.22072,-0.51848 -0.9779,0 -1.54232,0.62349 -0.56442,0.62349 -0.56442,1.69983 v 4.1544 h -1.21416 v -10.21209 h 1.21416 v 4.00345 q 0.43316,-0.66286 1.01727,-0.99102 0.59067,-0.32815 1.35855,-0.32815 1.26667,0 1.91641,0.78757 0.64974,0.781 0.64974,2.30362 z"
         style="font-size:13.44110489px;line-height:1.25;font-family:sans-serif"
         id="path228" />
      <path
         d="m 342.17371,455.38596 v 0.59067 h -5.55233 q 0.0788,1.24698 0.74818,1.90328 0.67599,0.64974 1.87703,0.64974 0.69568,0 1.34542,-0.17064 0.65631,-0.17063 1.29949,-0.51191 v 1.14197 q -0.64975,0.27564 -1.3323,0.42003 -0.68256,0.14439 -1.3848,0.14439 -1.7589,0 -2.78929,-1.02384 -1.02384,-1.02383 -1.02384,-2.7696 0,-1.80484 0.97133,-2.86148 0.97789,-1.06322 2.63178,-1.06322 1.48325,0 2.34301,0.95821 0.86632,0.95164 0.86632,2.5924 z m -1.2076,-0.35441 q -0.0131,-0.99102 -0.55786,-1.58169 -0.53817,-0.59067 -1.43074,-0.59067 -1.01071,0 -1.62107,0.57098 -0.6038,0.57099 -0.69569,1.60795 z"
         style="font-size:13.44110489px;line-height:1.25;font-family:sans-serif"
         id="path230" />
      <path
         d="m 288.22552,470.88129 q 0.95164,0.20346 1.48325,0.84664 0.53817,0.64317 0.53817,1.58825 0,1.45043 -0.99758,2.24456 -0.99759,0.79413 -2.83524,0.79413 -0.61692,0 -1.27323,-0.1247 -0.64974,-0.11813 -1.34542,-0.36097 v -1.27979 q 0.5513,0.32159 1.2076,0.48567 0.6563,0.16407 1.37168,0.16407 1.24697,0 1.89671,-0.49223 0.65631,-0.49222 0.65631,-1.43074 0,-0.86632 -0.61036,-1.35198 -0.6038,-0.49223 -1.68671,-0.49223 h -1.14196 v -1.08947 h 1.19447 q 0.97789,0 1.49637,-0.38722 0.51848,-0.39378 0.51848,-1.12884 0,-0.75475 -0.53817,-1.15509 -0.5316,-0.40691 -1.52919,-0.40691 -0.54473,0 -1.16822,0.11813 -0.62349,0.11814 -1.37167,0.36753 v -1.18135 q 0.75475,-0.21001 1.41105,-0.31502 0.66287,-0.10501 1.24698,-0.10501 1.5095,0 2.38895,0.68912 0.87944,0.68256 0.87944,1.85078 0,0.81381 -0.46597,1.37823 -0.46598,0.55786 -1.32574,0.77444 z"
         style="font-size:13.44110489px;line-height:1.25;font-family:sans-serif"
         id="path232" />
      <path
         d="m 295.59582,467.23881 q -1.02384,0 -1.54232,1.0107 -0.51192,1.00415 -0.51192,3.02557 0,2.01485 0.51192,3.02556 0.51848,1.00414 1.54232,1.00414 1.03039,0 1.54231,-1.00414 0.51848,-1.01071 0.51848,-3.02556 0,-2.02142 -0.51848,-3.02557 -0.51192,-1.0107 -1.54231,-1.0107 z m 0,-1.05009 q 1.64732,0 2.51364,1.30605 0.87288,1.29948 0.87288,3.78031 0,2.47426 -0.87288,3.78031 -0.86632,1.29948 -2.51364,1.29948 -1.64733,0 -2.52021,-1.29948 -0.86632,-1.30605 -0.86632,-3.78031 0,-2.48083 0.86632,-3.78031 0.87288,-1.30605 2.52021,-1.30605 z"
         style="font-size:13.44110489px;line-height:1.25;font-family:sans-serif"
         id="path234" />
      <path
         d="m 300.97751,466.36592 h 6.30052 v 0.56442 l -3.55717,9.2342 h -1.3848 l 3.34715,-8.6829 h -4.7057 z"
         style="font-size:13.44110489px;line-height:1.25;font-family:sans-serif"
         id="path236" />
      <path
         d="m 311.00583,475.04882 h 4.62695 v 1.11572 h -6.22176 v -1.11572 q 0.75474,-0.781 2.05423,-2.09361 1.30604,-1.31917 1.64076,-1.69982 0.63661,-0.71537 0.88601,-1.2076 0.25596,-0.49879 0.25596,-0.9779 0,-0.781 -0.5513,-1.27323 -0.54473,-0.49222 -1.42418,-0.49222 -0.62349,0 -1.31917,0.21658 -0.68912,0.21658 -1.47668,0.6563 v -1.33886 q 0.80069,-0.32159 1.49637,-0.48566 0.69568,-0.16408 1.27323,-0.16408 1.52262,0 2.42832,0.76131 0.9057,0.76132 0.9057,2.03455 0,0.60379 -0.2297,1.14853 -0.22315,0.53817 -0.82038,1.27323 -0.16408,0.19032 -1.04353,1.10259 -0.87944,0.9057 -2.48083,2.53989 z"
         style="font-size:13.44110489px;line-height:1.25;font-family:sans-serif"
         id="path238" />
      <path
         d="m 318.29737,466.36592 h 1.32573 v 4.14128 l 4.39724,-4.14128 h 1.70639 l -4.86321,4.56788 5.21105,5.23074 h -1.74577 l -4.7057,-4.71883 v 4.71883 h -1.32573 z"
         style="font-size:13.44110489px;line-height:1.25;font-family:sans-serif"
         id="path240" />
      <path
         d="m 328.43727,471.48509 v 3.58999 h 2.12642 q 1.06978,0 1.58169,-0.43973 0.51848,-0.44628 0.51848,-1.35855 0,-0.91882 -0.51848,-1.35198 -0.51191,-0.43973 -1.58169,-0.43973 z m 0,-4.0297 v 2.95336 h 1.96235 q 0.97133,0 1.44386,-0.36096 0.47911,-0.36753 0.47911,-1.11572 0,-0.74162 -0.47911,-1.10915 -0.47253,-0.36753 -1.44386,-0.36753 z m -1.32574,-1.08947 h 3.38653 q 1.51606,0 2.33644,0.63005 0.82038,0.63006 0.82038,1.79171 0,0.89914 -0.42003,1.43075 -0.42004,0.5316 -1.23385,0.66286 0.97789,0.21002 1.51606,0.87945 0.54473,0.66287 0.54473,1.66045 0,1.31261 -0.89257,2.02798 -0.89257,0.71537 -2.5399,0.71537 h -3.51779 z"
         style="font-size:13.44110489px;line-height:1.25;font-family:sans-serif"
         id="path242" />
    </g>
    <path
       style="fill:none;stroke:#000000;stroke-width:1.46999991;stroke-linecap:butt;stroke-linejoin:miter;stroke-miterlimit:4;stroke-opacity:1;stroke-dasharray:none"
       d="m 205.79524,284.08527 v 5.8038"
       id="path4168"
       inkscape:path-effect="#path-effect4170"
       inkscape:original-d="m 205.79524,284.08527 0,5.8038"
       inkscape:connector-curvature="0" />
    <path
       style="fill:none;stroke:#000000;stroke-width:1.46999991;stroke-linecap:butt;stroke-linejoin:miter;stroke-miterlimit:4;stroke-opacity:1;stroke-dasharray:none"
       d="m 269.10207,284.47712 v 5.80381"
       id="path4168-0"
       inkscape:path-effect="#path-effect4170-2"
       inkscape:original-d="m 269.10207,284.47712 0,5.80381"
       inkscape:connector-curvature="0" />
    <path
       style="fill:none;stroke:#000000;stroke-width:1.46999991;stroke-linecap:butt;stroke-linejoin:miter;stroke-miterlimit:4;stroke-opacity:1;stroke-dasharray:none"
       d="m 355.99185,284.21956 v 5.8038"
       id="path4168-1"
       inkscape:path-effect="#path-effect4170-3"
       inkscape:original-d="m 355.99185,284.21956 0,5.8038"
       inkscape:connector-curvature="0" />
    <path
       style="fill:none;stroke:#000000;stroke-width:1.46999991;stroke-linecap:butt;stroke-linejoin:miter;stroke-miterlimit:4;stroke-opacity:1;stroke-dasharray:none"
       d="m 419.29868,284.61141 v 5.80381"
       id="path4168-0-4"
       inkscape:path-effect="#path-effect4170-2-7"
       inkscape:original-d="m 419.29868,284.61141 0,5.80381"
       inkscape:connector-curvature="0" />
    <path
       style="fill:none;stroke:#000000;stroke-width:1.46999991;stroke-linecap:butt;stroke-linejoin:miter;stroke-miterlimit:4;stroke-opacity:1;stroke-dasharray:none"
       d="m 237.13253,420.73018 v 6.25"
       id="path4168-0-7"
       inkscape:path-effect="#path-effect4170-2-5"
       inkscape:original-d="m 237.13253,420.73018 0,6.25"
       inkscape:connector-curvature="0" />
    <path
       style="fill:none;stroke:#000000;stroke-width:1.46999991;stroke-linecap:butt;stroke-linejoin:miter;stroke-miterlimit:4;stroke-opacity:1;stroke-dasharray:none"
       d="m 387.14018,420.73018 v 6.25"
       id="path4168-0-46"
       inkscape:path-effect="#path-effect4170-2-2"
       inkscape:original-d="m 387.14018,420.73018 0,6.25"
       inkscape:connector-curvature="0" />
    <g
       id="g3861"
       transform="translate(0.21686833,0.29955511)">
      <path
         inkscape:connector-curvature="0"
         inkscape:original-d="m 205.57863,351.85288 0,5.8038"
         inkscape:path-effect="#path-effect4170-9"
         id="path4168-8"
         d="m 205.57863,351.85288 v 5.8038"
         style="fill:none;stroke:#000000;stroke-width:1.46999991;stroke-linecap:butt;stroke-linejoin:miter;stroke-miterlimit:4;stroke-opacity:1;stroke-dasharray:none" />
      <path
         inkscape:connector-curvature="0"
         inkscape:original-d="m 268.88546,352.24473 0,5.80381"
         inkscape:path-effect="#path-effect4170-2-77"
         id="path4168-0-8"
         d="m 268.88546,352.24473 v 5.80381"
         style="fill:none;stroke:#000000;stroke-width:1.46999991;stroke-linecap:butt;stroke-linejoin:miter;stroke-miterlimit:4;stroke-opacity:1;stroke-dasharray:none" />
      <path
         inkscape:connector-curvature="0"
         inkscape:original-d="m 355.77524,351.98717 0,5.8038"
         inkscape:path-effect="#path-effect4170-3-9"
         id="path4168-1-2"
         d="m 355.77524,351.98717 v 5.8038"
         style="fill:none;stroke:#000000;stroke-width:1.46999991;stroke-linecap:butt;stroke-linejoin:miter;stroke-miterlimit:4;stroke-opacity:1;stroke-dasharray:none" />
      <path
         inkscape:connector-curvature="0"
         inkscape:original-d="m 419.08207,352.37902 0,5.80381"
         inkscape:path-effect="#path-effect4170-2-7-3"
         id="path4168-0-4-6"
         d="m 419.08207,352.37902 v 5.80381"
         style="fill:none;stroke:#000000;stroke-width:1.46999991;stroke-linecap:butt;stroke-linejoin:miter;stroke-miterlimit:4;stroke-opacity:1;stroke-dasharray:none" />
    </g>
  </g>
</svg>
