<?xml version="1.0" encoding="UTF-8" standalone="no"?>
<!-- Created with Inkscape (http://www.inkscape.org/) -->

<svg
   xmlns:dc="http://purl.org/dc/elements/1.1/"
   xmlns:cc="http://creativecommons.org/ns#"
   xmlns:rdf="http://www.w3.org/1999/02/22-rdf-syntax-ns#"
   xmlns:svg="http://www.w3.org/2000/svg"
   xmlns="http://www.w3.org/2000/svg"
   xmlns:sodipodi="http://sodipodi.sourceforge.net/DTD/sodipodi-0.dtd"
   xmlns:inkscape="http://www.inkscape.org/namespaces/inkscape"
   width="187"
   height="250"
   id="svg3104"
   version="1.1"
   inkscape:version="0.48.4 r9939"
   sodipodi:docname="car-travelling-along-arc.png">
  <sodipodi:namedview
     id="base"
     pagecolor="#ffffff"
     bordercolor="#666666"
     borderopacity="1.0"
     inkscape:pageopacity="0.0"
     inkscape:pageshadow="2"
     inkscape:zoom="1.8101934"
     inkscape:cx="-39.056608"
     inkscape:cy="134.44414"
     inkscape:document-units="px"
     inkscape:current-layer="layer1"
     showgrid="false"
     inkscape:window-width="1366"
     inkscape:window-height="717"
     inkscape:window-x="0"
     inkscape:window-y="27"
     inkscape:window-maximized="1"
     fit-margin-top="0"
     fit-margin-left="0"
     fit-margin-right="0"
     fit-margin-bottom="0" />
  <defs
     id="defs3106">
    <marker
       inkscape:stockid="Arrow2Lend"
       orient="auto"
       refY="0"
       refX="0"
       id="Arrow2Lend"
       style="overflow:visible">
      <path
         id="path5065"
         style="fill-rule:evenodd;stroke-width:0.625;stroke-linejoin:round"
         d="M 8.7185878,4.0337352 -2.2072895,0.01601326 8.7185884,-4.0017078 c -1.7454984,2.3720609 -1.7354408,5.6174519 -6e-7,8.035443 z"
         transform="matrix(-1.1,0,0,-1.1,-1.1,0)"
         inkscape:connector-curvature="0" />
    </marker>
    <marker
       inkscape:stockid="TriangleOutL"
       orient="auto"
       refY="0"
       refX="0"
       id="TriangleOutL"
       style="overflow:visible">
      <path
         id="path5186"
         d="m 5.77,0 -8.65,5 0,-10 8.65,5 z"
         style="fill-rule:evenodd;stroke:#000000;stroke-width:1pt"
         transform="scale(0.8,0.8)"
         inkscape:connector-curvature="0" />
    </marker>
    <marker
       inkscape:stockid="Arrow1Lend"
       orient="auto"
       refY="0"
       refX="0"
       id="Arrow1Lend"
       style="overflow:visible">
      <path
         id="path5047"
         d="M 0,0 5,-5 -12.5,0 5,5 0,0 z"
         style="fill-rule:evenodd;stroke:#000000;stroke-width:1pt"
         transform="matrix(-0.8,0,0,-0.8,-10,0)"
         inkscape:connector-curvature="0" />
    </marker>
    <inkscape:path-effect
       effect="spiro"
       id="path-effect4530"
       is_visible="true" />
    <inkscape:path-effect
       effect="spiro"
       id="path-effect4165"
       is_visible="true" />
    <inkscape:path-effect
       effect="spiro"
       id="path-effect4145"
       is_visible="true" />
    <inkscape:path-effect
       effect="spiro"
       id="path-effect4141"
       is_visible="true" />
    <inkscape:path-effect
       effect="spiro"
       id="path-effect3931"
       is_visible="true" />
    <inkscape:path-effect
       effect="spiro"
       id="path-effect3927"
       is_visible="true" />
    <marker
       inkscape:stockid="Arrow1Lend"
       orient="auto"
       refY="0"
       refX="0"
       id="Arrow1Lend-4"
       style="overflow:visible">
      <path
         id="path5047-7"
         d="M 0,0 5,-5 -12.5,0 5,5 0,0 z"
         style="fill-rule:evenodd;stroke:#000000;stroke-width:1pt"
         transform="matrix(-0.8,0,0,-0.8,-10,0)"
         inkscape:connector-curvature="0" />
    </marker>
    <inkscape:path-effect
       effect="spiro"
       id="path-effect4530-0-3"
       is_visible="true" />
  </defs>
  <metadata
     id="metadata3109">
    <rdf:RDF>
      <cc:Work
         rdf:about="">
        <dc:format>image/svg+xml</dc:format>
        <dc:type
           rdf:resource="http://purl.org/dc/dcmitype/StillImage" />
        <dc:title></dc:title>
      </cc:Work>
    </rdf:RDF>
  </metadata>
  <g
     inkscape:label="Layer 1"
     inkscape:groupmode="layer"
     id="layer1"
     transform="translate(2224.6584,-280.59074)">
    <path
       sodipodi:type="arc"
       style="fill:none;stroke:#000000;stroke-width:1.21856534;stroke-linecap:butt;stroke-linejoin:miter;stroke-miterlimit:4;stroke-opacity:1;stroke-dasharray:none;stroke-dashoffset:0"
       id="path3135"
       sodipodi:cx="-2202.5"
       sodipodi:cy="434.14789"
       sodipodi:rx="100.35714"
       sodipodi:ry="100.35714"
       d="m -2174.8378,337.67842 c 53.2786,15.2774 84.0847,70.85303 68.8073,124.13165 -2.5791,8.9944 -6.4034,17.58392 -11.3618,25.519"
       sodipodi:start="4.9916417"
       sodipodi:end="6.8416907"
       sodipodi:open="true"
       transform="matrix(1.6414447,0,0,1.6411039,1409.2124,-269.91106)" />
    <path
       sodipodi:type="arc"
       style="fill:none;stroke:#000000;stroke-width:1.58717847;stroke-linecap:butt;stroke-linejoin:miter;stroke-miterlimit:4;stroke-opacity:1;stroke-dasharray:none;stroke-dashoffset:0"
       id="path3135-9"
       sodipodi:cx="-2202.5"
       sodipodi:cy="434.14789"
       sodipodi:rx="100.35714"
       sodipodi:ry="100.35714"
       d="m -2174.8378,337.67842 c 53.2786,15.2774 84.0847,70.85303 68.8073,124.13165 -2.5791,8.9944 -6.4034,17.58392 -11.3618,25.519"
       sodipodi:start="4.9916417"
       sodipodi:end="6.8416907"
       sodipodi:open="true"
       transform="matrix(1.2602286,0,0,1.2599669,560.68277,-105.155)" />
    <path
       sodipodi:type="arc"
       style="fill:none;stroke:#000000;stroke-width:0.70588785;stroke-linecap:butt;stroke-linejoin:miter;stroke-miterlimit:4;stroke-opacity:1;stroke-dasharray:2.82355128, 2.82355128;stroke-dashoffset:0"
       id="path3135-9-5"
       sodipodi:cx="-2202.5"
       sodipodi:cy="434.14789"
       sodipodi:rx="100.35714"
       sodipodi:ry="100.35714"
       d="m -2174.8378,337.67842 c 53.2786,15.2774 84.0847,70.85303 68.8073,124.13165 -2.5791,8.9944 -6.4034,17.58392 -11.3618,25.519"
       sodipodi:start="4.9916417"
       sodipodi:end="6.8416907"
       sodipodi:open="true"
       transform="matrix(1.4168028,0,0,1.4165086,913.69648,-173.43055)" />
    <g
       id="g4131"
       transform="matrix(1.278803,0,0,1.2785374,620.16267,-147.84274)">
      <rect
         y="439.78531"
         x="-2109.3623"
         height="30.322754"
         width="18.723621"
         id="rect3923"
         style="fill:#ffffff;fill-opacity:1;stroke:#000000;stroke-width:0.73062354;stroke-linecap:butt;stroke-linejoin:miter;stroke-miterlimit:4;stroke-opacity:1;stroke-dasharray:none;stroke-dashoffset:0" />
      <rect
         y="442.63004"
         x="-2111.5178"
         height="6.6964288"
         width="2.2321429"
         id="rect4011"
         style="fill:#000000;fill-opacity:1;stroke:none" />
      <rect
         y="461.51395"
         x="-2111.4731"
         height="6.6964288"
         width="2.2321429"
         id="rect4011-0"
         style="fill:#000000;fill-opacity:1;stroke:none" />
      <g
         transform="translate(-0.2,0)"
         id="g4071">
        <rect
           style="fill:#000000;fill-opacity:1;stroke:none"
           id="rect4011-8"
           width="2.2321429"
           height="6.6964288"
           x="-2090.584"
           y="442.69702" />
        <rect
           style="fill:#000000;fill-opacity:1;stroke:none"
           id="rect4011-0-4"
           width="2.2321429"
           height="6.6964288"
           x="-2090.5393"
           y="461.58093" />
      </g>
    </g>
    <path
       sodipodi:type="arc"
       style="fill:#000000;fill-opacity:1;stroke:#f5f5f5;stroke-width:0.78756899;stroke-linecap:butt;stroke-linejoin:miter;stroke-miterlimit:4;stroke-opacity:0.87113402;stroke-dasharray:3.15027601, 3.15027601;stroke-dashoffset:0"
       id="path4171"
       sodipodi:cx="-88.135811"
       sodipodi:cy="156.20413"
       sodipodi:rx="98.742409"
       sodipodi:ry="56.568542"
       d="m 10.606598,156.20413 c 0,31.24195 -44.208482,56.56854 -98.742409,56.56854 -54.533929,0 -98.742409,-25.32659 -98.742409,-56.56854 0,-31.24194 44.20848,-56.56854 98.742409,-56.56854 54.533927,0 98.742409,25.3266 98.742409,56.56854 z"
       transform="matrix(0.03588184,0,0,0.06262073,-2213.8364,424.20887)" />
    <g
       transform="matrix(2.1383139,0,0,2.1378699,-2319.6535,278.0146)"
       id="g4323">
      <g
         id="g4325"
         transform="matrix(0.15690156,0,0,-0.15690156,-27.457772,145.18483)"
         xml:space="preserve"
         stroke-miterlimit="10.433"
         font-style="normal"
         font-variant="normal"
         font-weight="normal"
         font-stretch="normal"
         font-size-adjust="none"
         letter-spacing="normal"
         word-spacing="normal"
         style="font-style:normal;font-variant:normal;font-weight:normal;font-stretch:normal;letter-spacing:normal;word-spacing:normal;text-anchor:start;fill:none;stroke:#000000;stroke-width:0.78206253;stroke-linecap:butt;stroke-linejoin:miter;stroke-miterlimit:10.43299961;stroke-opacity:1;stroke-dasharray:none;stroke-dashoffset:0"><path
           d="m 492.39,427.92 -0.01,0.74 -0.05,0.73 -0.07,0.71 -0.11,0.7 -0.13,0.68 -0.16,0.66 -0.19,0.64 -0.22,0.62 -0.24,0.6 -0.27,0.59 -0.29,0.56 -0.32,0.54 -0.34,0.52 -0.37,0.5 -0.38,0.47 -0.42,0.45 -0.43,0.43 -0.45,0.41 -0.48,0.38 -0.49,0.35 -0.52,0.33 -0.53,0.3 -0.55,0.28 -0.57,0.25 -0.59,0.22 -0.6,0.2 -0.62,0.16 -0.63,0.14 -0.65,0.1 -0.67,0.08 -0.67,0.05 -0.69,0.01 -0.3,-1.25 c 4.09,0 8.58,-2.78 8.58,-10.2 0,-3.59 -1.35,-11.36 -6.28,-17.5 -2.39,-3.03 -6.49,-5.97 -10.66,-5.97 h 0 c -4.94,0 -8.42,4.03 -8.42,10.61 0,2.19 0.69,9.47 4.53,15.3 3.44,5.17 8.31,7.76 12.25,7.76 l 0.3,1.25 c -10.75,0 -21.72,-11.31 -21.72,-22.92 0,-8.26 5.58,-13.29 12.76,-13.29 10.55,0 21.67,10.9 21.67,22.81 z"
           id="path4327"
           inkscape:connector-curvature="0"
           style="fill:#000000;stroke-width:0" /></g>    </g>
    <path
       style="fill:none;stroke:#000000;stroke-width:0.80156696000000005;stroke-linecap:round;stroke-linejoin:miter;stroke-miterlimit:17.50000000000000000;stroke-opacity:1;stroke-dasharray:none;marker-mid:none;marker-end:url(#Arrow2Lend)"
       d="m -2064.9038,433.94829 0,-54.50787"
       id="path4528"
       inkscape:path-effect="#path-effect4530"
       inkscape:original-d="m -2064.9038,433.94829 0,-54.50787"
       inkscape:connector-curvature="0" />
    <g
       transform="matrix(0.61747637,0,0,0.61734816,-2175.7025,-480.48432)"
       id="g8399">
      <g
         style="font-style:normal;font-variant:normal;font-weight:normal;font-stretch:normal;letter-spacing:normal;word-spacing:normal;text-anchor:start;fill:none;stroke:#000000;stroke-width:0.78206253;stroke-linecap:butt;stroke-linejoin:miter;stroke-miterlimit:10.43299961;stroke-opacity:1;stroke-dasharray:none;stroke-dashoffset:0"
         word-spacing="normal"
         letter-spacing="normal"
         font-size-adjust="none"
         font-stretch="normal"
         font-weight="normal"
         font-variant="normal"
         font-style="normal"
         stroke-miterlimit="10.433"
         xml:space="preserve"
         transform="matrix(0.64951194,0,0,-0.64951194,-113.66459,1703.3987)"
         id="g8401"><path
           style="fill:#000000;stroke-width:0"
           inkscape:connector-curvature="0"
           id="path8403"
           d="m 480.72,424.93 0.06,0.13 0.06,0.12 0.03,0.06 0.04,0.05 0.03,0.05 0.04,0.05 0.05,0.05 0.04,0.05 0.06,0.04 0.06,0.04 0.06,0.04 0.07,0.04 0.08,0.04 0.09,0.03 0.09,0.03 0.11,0.03 0.11,0.03 0.13,0.02 0.13,0.03 0.07,0.01 0.08,0.01 0.07,0.01 0.08,0.01 0.09,0.01 0.08,0.01 0.09,0 0.1,0.01 0.09,0.01 0.1,0 0.11,0.01 0.1,0 0.11,0.01 0.12,0 0.12,0.01 0.12,0 0.13,0 0.13,0.01 0.13,0 0.14,0 0.14,0 0.15,0 v 2.34 c -1.23,-0.11 -2.69,-0.15 -3.94,-0.15 -1.23,0 -3.48,0.11 -4.53,0.15 v -2.34 c 0.95,0 2.39,-0.16 2.39,-0.55 0,-0.04 -0.04,-0.15 -0.25,-0.59 l -5.76,-12.47 -6.33,13.61 h 2.69 v 2.34 c -1.64,-0.11 -6.13,-0.15 -6.19,-0.15 -1.39,0 -3.63,0.11 -5.67,0.15 v -2.34 H 460 l 8.72,-18.73 c 0.6,-1.25 1.25,-1.25 1.89,-1.25 0.85,0 1.35,0.15 1.85,1.2 z" /></g>    </g>
    <rect
       style="fill:#e30000;fill-opacity:1;stroke:#000000;stroke-width:0.2;stroke-miterlimit:4;stroke-opacity:1;stroke-dasharray:none"
       id="rect8481"
       width="5.1826487"
       height="2.559572"
       x="-2075.8716"
       y="450.19177" />
    <rect
       style="fill:#e30000;fill-opacity:1;stroke:#000000;stroke-width:0.2;stroke-miterlimit:4;stroke-opacity:1;stroke-dasharray:none"
       id="rect8481-6"
       width="5.1826487"
       height="2.559572"
       x="-2059.7971"
       y="450.22299" />
    <rect
       y="450.19177"
       x="-2075.8716"
       height="2.559572"
       width="5.1826487"
       id="rect8547"
       style="fill:#e30000;fill-opacity:1;stroke:#000000;stroke-width:0.2;stroke-miterlimit:4;stroke-opacity:1;stroke-dasharray:none" />
    <rect
       y="450.22299"
       x="-2059.7971"
       height="2.559572"
       width="5.1826487"
       id="rect8549"
       style="fill:#e30000;fill-opacity:1;stroke:#000000;stroke-width:0.2;stroke-miterlimit:4;stroke-opacity:1;stroke-dasharray:none" />
    <rect
       y="450.19177"
       x="-2075.8716"
       height="2.559572"
       width="5.1826487"
       id="rect8597"
       style="fill:#e30000;fill-opacity:1;stroke:#000000;stroke-width:0.2;stroke-miterlimit:4;stroke-opacity:1;stroke-dasharray:none" />
    <rect
       y="450.22299"
       x="-2059.7971"
       height="2.559572"
       width="5.1826487"
       id="rect8599"
       style="fill:#e30000;fill-opacity:1;stroke:#000000;stroke-width:0.2;stroke-miterlimit:4;stroke-opacity:1;stroke-dasharray:none" />
    <rect
       style="fill:#e30000;fill-opacity:1;stroke:#000000;stroke-width:0.2;stroke-miterlimit:4;stroke-opacity:1;stroke-dasharray:none"
       id="rect8647"
       width="5.1826487"
       height="2.559572"
       x="-2075.8716"
       y="450.19177" />
    <rect
       style="fill:#e30000;fill-opacity:1;stroke:#000000;stroke-width:0.2;stroke-miterlimit:4;stroke-opacity:1;stroke-dasharray:none"
       id="rect8649"
       width="5.1826487"
       height="2.559572"
       x="-2059.7971"
       y="450.22299" />
    <rect
       style="fill:#e30000;fill-opacity:1;stroke:#000000;stroke-width:0.2;stroke-miterlimit:4;stroke-opacity:1;stroke-dasharray:none"
       id="rect8697"
       width="5.1826487"
       height="2.559572"
       x="-2075.8716"
       y="450.19177" />
    <rect
       style="fill:#e30000;fill-opacity:1;stroke:#000000;stroke-width:0.2;stroke-miterlimit:4;stroke-opacity:1;stroke-dasharray:none"
       id="rect8699"
       width="5.1826487"
       height="2.559572"
       x="-2059.7971"
       y="450.22299" />
    <path
       style="fill:none;stroke:#000000;stroke-width:1;stroke-linecap:butt;stroke-linejoin:miter;stroke-miterlimit:4;stroke-opacity:1;stroke-dasharray:4.00000004, 4.00000004;stroke-dashoffset:0"
       d="m -2074.6123,390.50366 -143.2549,43.71965"
       id="path4163"
       inkscape:path-effect="#path-effect4165"
       inkscape:original-d="m -2074.6123,390.50366 -143.2549,43.71965"
       inkscape:connector-curvature="0" />
    <rect
       y="450.19177"
       x="-2075.8716"
       height="2.559572"
       width="5.1826487"
       id="rect8747"
       style="fill:#e30000;fill-opacity:1;stroke:#000000;stroke-width:0.2;stroke-miterlimit:4;stroke-opacity:1;stroke-dasharray:none" />
    <rect
       y="450.22299"
       x="-2059.7971"
       height="2.559572"
       width="5.1826487"
       id="rect8749"
       style="fill:#e30000;fill-opacity:1;stroke:#000000;stroke-width:0.2;stroke-miterlimit:4;stroke-opacity:1;stroke-dasharray:none" />
    <path
       style="fill:none;stroke:#000000;stroke-width:0.94897567999999999;stroke-linecap:round;stroke-linejoin:miter;stroke-miterlimit:17.50000000000000000;stroke-opacity:1;stroke-dasharray:none;marker-mid:none;marker-end:url(#Arrow2Lend)"
       d="m -2064.9556,434.14966 -107.556,0"
       id="path4528-3"
       inkscape:path-effect="#path-effect4530-0-3"
       inkscape:original-d="m -2064.9556,434.14966 -107.556,0"
       inkscape:connector-curvature="0" />
    <g
       transform="matrix(0.87344824,0,0,0.87326687,-2264.5236,357.78999)"
       id="g6074">
      <g
         style="font-style:normal;font-variant:normal;font-weight:normal;font-stretch:normal;letter-spacing:normal;word-spacing:normal;text-anchor:start;fill:none;stroke:#000000;stroke-width:0.78206253;stroke-linecap:butt;stroke-linejoin:miter;stroke-miterlimit:10.43299961;stroke-opacity:1;stroke-dasharray:none;stroke-dashoffset:0"
         id="g6076"
         transform="matrix(0.45428187,0,0,-0.45428187,-79.499328,238.4992)"
         xml:space="preserve"
         stroke-miterlimit="10.433"
         font-style="normal"
         font-variant="normal"
         font-weight="normal"
         font-stretch="normal"
         font-size-adjust="none"
         letter-spacing="normal"
         word-spacing="normal"><path
           style="fill:#000000;stroke-width:0"
           inkscape:connector-curvature="0"
           d="m 459.91,409.14 -0.02,-0.07 -0.01,-0.08 -0.02,-0.07 -0.01,-0.08 -0.04,-0.16 -0.04,-0.16 -0.03,-0.16 -0.04,-0.16 -0.04,-0.16 -0.04,-0.16 -0.01,-0.08 -0.02,-0.07 -0.02,-0.07 -0.01,-0.07 -0.02,-0.07 -0.01,-0.07 -0.01,-0.06 -0.01,-0.06 -0.01,-0.06 -0.01,-0.05 -0.01,-0.05 -0.01,-0.04 -0.01,-0.04 0,-0.04 0,-0.03 0,-0.02 c 0,-0.89 0.7,-1.35 1.43,-1.35 0.61,0 1.5,0.39 1.85,1.39 0.11,0.21 1.8,6.99 2,7.88 0.39,1.64 1.3,5.12 1.59,6.48 0.21,0.64 1.6,2.99 2.78,4.08 0.41,0.34 1.85,1.64 4,1.64 1.28,0 2.03,-0.59 2.08,-0.59 -1.48,-0.25 -2.58,-1.46 -2.58,-2.74 0,-0.79 0.55,-1.75 1.89,-1.75 1.35,0 2.74,1.14 2.74,2.94 0,1.75 -1.6,3.23 -4.13,3.23 -3.25,0 -5.43,-2.43 -6.39,-3.82 -0.39,2.23 -2.18,3.82 -4.53,3.82 -2.28,0 -3.23,-1.93 -3.69,-2.82 -0.89,-1.71 -1.54,-4.69 -1.54,-4.85 0,-0.5 0.5,-0.5 0.61,-0.5 0.5,0 0.54,0.07 0.84,1.16 0.84,3.53 1.84,5.92 3.64,5.92 0.84,0 1.55,-0.39 1.55,-2.28 0,-1.05 -0.16,-1.61 -0.8,-4.19 z"
           id="path6078" /></g>    </g>
    <g
       id="g10638"
       transform="matrix(1.278803,0,0,1.2785374,620.86911,-147.13644)">
      <path
         style="font-style:normal;font-variant:normal;font-weight:normal;font-stretch:normal;letter-spacing:normal;word-spacing:normal;text-anchor:start;fill:#000000;stroke:#000000;stroke-width:0;stroke-linecap:butt;stroke-linejoin:miter;stroke-miterlimit:10.43299961;stroke-opacity:1;stroke-dasharray:none;stroke-dashoffset:0"
         inkscape:connector-curvature="0"
         d="m -2171.6289,463.42881 h -7.7121 v 0.59875 h 1.3792 v 7.46905 h -1.3792 v 0.59875 c 0.4887,-0.0409 1.7758,-0.0409 2.3362,-0.0409 0.6243,0 2.0137,0 2.5741,0.0409 v -0.59875 h -1.7221 v -3.44411 h 0.6397 c 1.2231,0 1.3383,0.54758 1.3383,1.49177 h 0.6013 v -3.58228 h -0.6013 c 0,0.94419 -0.1024,1.49176 -1.3383,1.49176 h -0.6397 v -3.42619 h 1.7861 c 2.0521,0 2.3464,0.98001 2.5357,2.47177 h 0.5988 z"
         id="path9996" />
      <path
         style="font-style:normal;font-variant:normal;font-weight:normal;font-stretch:normal;letter-spacing:normal;word-spacing:normal;text-anchor:start;fill:#000000;stroke:#000000;stroke-width:0;stroke-linecap:butt;stroke-linejoin:miter;stroke-miterlimit:10.43299961;stroke-opacity:1;stroke-dasharray:none;stroke-dashoffset:0"
         inkscape:connector-curvature="0"
         d="m -2167.1561,470.43983 -0.015,0.008 -0.015,0.008 -0.013,0.008 -0.013,0.008 -0.015,0.008 -0.01,0.0102 -0.013,0.0102 -0.013,0.008 -0.01,0.0102 -0.01,0.0102 -0.013,0.0128 -0.01,0.0102 -0.01,0.0102 -0.01,0.0128 -0.01,0.0128 -0.01,0.0128 -0.01,0.0102 -0.01,0.0154 -0.01,0.0128 -0.01,0.0128 -0.01,0.0128 -0.01,0.0154 -0.01,0.0154 -0.01,0.0128 0,0.0154 -0.01,0.0154 0,0.0154 0,0.0154 0,0.0154 0,0.0179 0,0.0154 0,0.0154 c 0,0.24564 0.1663,0.41963 0.4196,0.41963 0.2405,0 0.4273,-0.15096 0.4273,-0.43499 0,-0.79577 -1.2384,-0.79577 -1.4917,-0.79577 -1.3357,0 -2.1622,1.02862 -2.1622,2.05213 0,1.1233 0.9519,2.01375 2.1187,2.01375 1.3305,0 1.6427,-1.05165 1.6427,-1.15912 0,-0.10491 -0.1152,-0.10491 -0.151,-0.10491 -0.1151,0 -0.1254,0.0256 -0.1714,0.15352 -0.197,0.55014 -0.6678,0.82649 -1.2129,0.82649 -0.6141,0 -1.415,-0.45546 -1.415,-1.73741 0,-1.13353 0.5527,-1.75531 1.3792,-1.75531 0.1152,0 0.545,0 0.8649,0.13049 z"
         id="path9998" />
      <path
         style="font-style:normal;font-variant:normal;font-weight:normal;font-stretch:normal;letter-spacing:normal;word-spacing:normal;text-anchor:start;fill:#000000;stroke:#000000;stroke-width:0;stroke-linecap:butt;stroke-linejoin:miter;stroke-miterlimit:10.43299961;stroke-opacity:1;stroke-dasharray:none;stroke-dashoffset:0"
         inkscape:connector-curvature="0"
         d="m -2163.5994,475.4064 -0.028,0 -0.026,0 -0.026,0 -0.025,0 -0.023,0 -0.023,0 -0.023,0 -0.023,0 -0.02,-0.003 -0.021,0 -0.021,0 -0.02,0 -0.018,0 -0.018,-0.003 -0.018,0 -0.018,-0.003 -0.015,0 -0.018,-0.003 -0.028,-0.003 -0.028,-0.003 -0.028,-0.005 -0.023,-0.005 -0.023,-0.008 -0.02,-0.008 -0.018,-0.008 -0.015,-0.0102 -0.015,-0.0102 -0.015,-0.0128 -0.013,-0.0128 -0.01,-0.0154 -0.01,-0.0154 -0.01,-0.0179 -0.01,-0.0179 -0.01,-0.023 -0.01,-0.023 0,-0.023 0,-0.0281 0,-0.0281 0,-0.0307 0,-0.0333 0,-0.0333 v -1.45082 c 0.043,0.0435 0.4632,0.51431 1.2103,0.51431 l -0.051,-0.2482 c -0.7881,0 -1.136,-0.68575 -1.1591,-0.73949 v -2.07004 c 0.2661,-0.44522 0.783,-0.67551 1.2538,-0.67551 0.7472,0 1.328,0.78298 1.328,1.71949 0,1.01839 -0.6678,1.76555 -1.4227,1.76555 l 0.051,0.2482 c 1.1745,0 2.1827,-0.88022 2.1827,-2.01375 0,-1.09515 -0.9084,-2.00352 -2.0394,-2.00352 -0.5066,0 -1.0261,0.18423 -1.3894,0.54246 v -0.54246 l -1.3408,0.0947 v 0.31984 c 0.6243,0 0.673,0.0486 0.673,0.41964 v 4.11962 c 0,0.38381 -0.092,0.38381 -0.673,0.38381 v 0.32241 c 0.021,0 0.6448,-0.0358 1.0158,-0.0358 0.3327,0 0.9468,0.0256 1.0287,0.0358 z"
         id="path10000" />
      <path
         style="font-style:normal;font-variant:normal;font-weight:normal;font-stretch:normal;letter-spacing:normal;word-spacing:normal;text-anchor:start;fill:#000000;stroke:#000000;stroke-width:0;stroke-linecap:butt;stroke-linejoin:miter;stroke-miterlimit:10.43299961;stroke-opacity:1;stroke-dasharray:none;stroke-dashoffset:0"
         inkscape:connector-curvature="0"
         d="m -2147.492,467.92457 0.033,0 0.038,0 0.036,0 0.02,-0.003 0.018,0 0.018,-0.003 0.018,-0.003 0.018,-0.003 0.018,-0.003 0.018,-0.003 0.018,-0.005 0.015,-0.005 0.015,-0.005 0.015,-0.005 0.015,-0.008 0.015,-0.008 0.013,-0.0102 0.013,-0.008 0.013,-0.0128 0.01,-0.0102 0.01,-0.0128 0.01,-0.008 0.01,-0.008 0,-0.005 0.01,-0.008 0,-0.008 0.01,-0.0102 0,-0.008 0,-0.0102 0,-0.008 0,-0.0102 0,-0.0102 0,-0.0102 0,-0.0102 0,-0.0102 0,-0.0102 0,-0.0128 c 0,-0.25588 -0.2431,-0.25588 -0.4197,-0.25588 h -7.6353 c -0.1791,0 -0.4197,0 -0.4197,0.25588 0,0.25076 0.2406,0.25076 0.4325,0.25076 z"
         id="path10002" />
      <path
         style="font-style:normal;font-variant:normal;font-weight:normal;font-stretch:normal;letter-spacing:normal;word-spacing:normal;text-anchor:start;fill:#000000;stroke:#000000;stroke-width:0;stroke-linecap:butt;stroke-linejoin:miter;stroke-miterlimit:10.43299961;stroke-opacity:1;stroke-dasharray:none;stroke-dashoffset:0"
         inkscape:connector-curvature="0"
         d="m -2147.4818,470.40145 0.018,0 0.015,0 0.036,-0.003 0.036,0 0.018,0 0.018,-0.003 0.018,-0.003 0.018,0 0.015,-0.003 0.018,-0.005 0.018,-0.003 0.015,-0.005 0.018,-0.005 0.015,-0.005 0.015,-0.005 0.015,-0.008 0.013,-0.008 0.013,-0.0102 0.013,-0.0102 0.013,-0.0102 0.01,-0.0128 0.01,-0.005 0.01,-0.008 0.01,-0.005 0.01,-0.008 0,-0.008 0.01,-0.008 0,-0.008 0.01,-0.008 0,-0.0102 0,-0.008 0,-0.0102 0,-0.0102 0,-0.0102 0,-0.0102 0,-0.0102 0,-0.0102 0,-0.0128 0,-0.0102 c 0,-0.25588 -0.2431,-0.25588 -0.4299,-0.25588 h -7.6123 c -0.1919,0 -0.4325,0 -0.4325,0.25588 0,0.25587 0.2406,0.25587 0.4197,0.25587 z"
         id="path10004" />
      <path
         style="font-style:normal;font-variant:normal;font-weight:normal;font-stretch:normal;letter-spacing:normal;word-spacing:normal;text-anchor:start;fill:#000000;stroke:#000000;stroke-width:0;stroke-linecap:butt;stroke-linejoin:miter;stroke-miterlimit:10.43299961;stroke-opacity:1;stroke-dasharray:none;stroke-dashoffset:0"
         inkscape:connector-curvature="0"
         d="m -2141.681,471.34308 -0.01,0.0179 0,0.0205 -0.01,0.0179 -0.01,0.0205 -0.01,0.0409 -0.01,0.0409 -0.01,0.0409 -0.01,0.0409 -0.01,0.0409 -0.01,0.0409 0,0.0205 -0.01,0.0179 -0.01,0.0179 0,0.0179 -0.01,0.0179 0,0.0179 0,0.0154 -0.01,0.0154 0,0.0154 0,0.0128 0,0.0128 0,0.0102 0,0.0102 0,0.0102 0,0.008 0,0.005 c 0,0.22773 0.1791,0.34543 0.3659,0.34543 0.1561,0 0.3838,-0.0998 0.4734,-0.35567 0.015,-0.0282 0.1663,-0.62434 0.2431,-0.94418 l 0.2789,-1.14633 c 0.077,-0.28147 0.1535,-0.56037 0.2175,-0.85719 0.051,-0.21494 0.1561,-0.5834 0.1663,-0.63457 0.1919,-0.39661 0.87,-1.55574 2.0752,-1.55574 0.5757,0 0.6934,0.47082 0.6934,0.89046 0,0.31984 -0.092,0.67551 -0.1919,1.05933 l -0.3557,1.48152 -0.2559,0.96722 c -0.054,0.25587 -0.1688,0.68575 -0.1688,0.74972 0,0.22773 0.1791,0.34543 0.371,0.34543 0.3966,0 0.4734,-0.31985 0.5731,-0.72925 0.1792,-0.71134 0.65,-2.57412 0.7677,-3.07052 0.036,-0.16632 0.7113,-1.69391 2.1033,-1.69391 0.5476,0 0.6857,0.43244 0.6857,0.89046 0,0.72924 -0.5347,2.18007 -0.7906,2.85558 -0.1152,0.30705 -0.1638,0.44779 -0.1638,0.70366 0,0.5962 0.4427,1.04398 1.044,1.04398 1.1975,0 1.6709,-1.86022 1.6709,-1.96258 0,-0.12793 -0.1152,-0.12793 -0.151,-0.12793 -0.1279,0 -0.1279,0.0384 -0.1945,0.23029 -0.1893,0.67551 -0.5987,1.57876 -1.2973,1.57876 -0.22,0 -0.3096,-0.12794 -0.3096,-0.41964 0,-0.31985 0.1177,-0.6269 0.2278,-0.90581 0.2456,-0.66016 0.7804,-2.07516 0.7804,-2.80441 0,-0.82648 -0.5118,-1.36126 -1.4662,-1.36126 -0.957,0 -1.6043,0.55781 -2.0752,1.23332 -0.015,-0.16632 -0.054,-0.59875 -0.4119,-0.90324 -0.3173,-0.26611 -0.7241,-0.33008 -1.044,-0.33008 -1.1463,0 -1.7707,0.81369 -1.9882,1.10539 -0.064,-0.72669 -0.5987,-1.10539 -1.1744,-1.10539 -0.5834,0 -0.8265,0.49384 -0.9442,0.72157 -0.2277,0.44779 -0.3941,1.20006 -0.3941,1.241 0,0.12794 0.128,0.12794 0.1561,0.12794 0.128,0 0.1382,-0.0179 0.215,-0.29682 0.2149,-0.90324 0.4708,-1.51479 0.9313,-1.51479 0.2048,0 0.3967,0.0998 0.3967,0.5834 0,0.26867 -0.041,0.41197 -0.2047,1.07213 z"
         id="path10006" />
      <path
         style="font-style:normal;font-variant:normal;font-weight:normal;font-stretch:normal;letter-spacing:normal;word-spacing:normal;text-anchor:start;fill:#000000;stroke:#000000;stroke-width:0;stroke-linecap:butt;stroke-linejoin:miter;stroke-miterlimit:10.43299961;stroke-opacity:1;stroke-dasharray:none;stroke-dashoffset:0"
         inkscape:connector-curvature="0"
         d="m -2126.8581,471.11279 0,0.0768 0,0.0793 0,0.0409 0,0.0409 0.01,0.0409 0.01,0.0409 0.01,0.0409 0.013,0.0409 0.013,0.0409 0.015,0.0409 0.021,0.0409 0.02,0.0384 0.026,0.0384 0.031,0.0384 0.031,0.0358 0.038,0.0358 0.041,0.0333 0.023,0.0154 0.023,0.0154 0.026,0.0154 0.026,0.0153 0.028,0.0154 0.028,0.0128 0.031,0.0128 0.031,0.0128 0.033,0.0128 0.033,0.0128 0.036,0.0102 0.038,0.0102 0.038,0.0102 0.038,0.0102 0.044,0.008 0.043,0.008 0.044,0.008 0.046,0.008 0.049,0.005 0.051,0.005 0.051,0.005 0.054,0.003 0.056,0.005 0.056,0 0.059,0.003 0.061,0 h 0.6115 c 0.2559,0 0.4094,0 0.4094,-0.30705 0,-0.2917 -0.1663,-0.2917 -0.3326,-0.2917 -0.7753,-0.0128 -0.7753,-0.18168 -0.7753,-0.47338 v -2.73788 c 0,-1.13609 -0.9084,-1.96257 -2.807,-1.96257 -0.7241,0 -2.2798,0.0486 -2.2798,1.17191 0,0.55781 0.4452,0.80346 0.7881,0.80346 0.3966,0 0.8034,-0.26868 0.8034,-0.80346 0,-0.38381 -0.2405,-0.60131 -0.2789,-0.62434 0.3557,-0.0768 0.7625,-0.0921 0.9186,-0.0921 0.957,0 1.3997,0.53478 1.3997,1.50711 v 0.43243 0.39405 1.21286 c 0,1.22309 -1.172,1.38685 -1.4918,1.38685 -0.6474,0 -1.1591,-0.44266 -1.1591,-1.00815 0,-1.37406 2.0163,-1.55317 2.6509,-1.59156 h 0 v -0.39405 c -0.9033,0.0384 -4.1427,0.15097 -4.1427,2.00352 0,1.22309 1.5788,1.45082 2.459,1.45082 1.0235,0 1.6197,-0.52455 1.9037,-1.05933 z"
         id="path10008" />
    </g>
  </g>
</svg>
