<?xml version="1.0" encoding="UTF-8" standalone="no"?>
<!-- Created with Inkscape (http://www.inkscape.org/) -->

<svg
   xmlns:dc="http://purl.org/dc/elements/1.1/"
   xmlns:cc="http://creativecommons.org/ns#"
   xmlns:rdf="http://www.w3.org/1999/02/22-rdf-syntax-ns#"
   xmlns:svg="http://www.w3.org/2000/svg"
   xmlns="http://www.w3.org/2000/svg"
   xmlns:sodipodi="http://sodipodi.sourceforge.net/DTD/sodipodi-0.dtd"
   xmlns:inkscape="http://www.inkscape.org/namespaces/inkscape"
   width="240"
   height="140"
   id="svg2"
   version="1.1"
   inkscape:version="0.92.5 (2060ec1f9f, 2020-04-08)"
   sodipodi:docname="dna-compression.svg">
  <defs
     id="defs4">
    <inkscape:path-effect
       effect="spiro"
       id="path-effect40622"
       is_visible="true" />
    <inkscape:path-effect
       effect="spiro"
       id="path-effect40618"
       is_visible="true" />
    <inkscape:path-effect
       effect="spiro"
       id="path-effect40418"
       is_visible="true" />
    <marker
       inkscape:stockid="Arrow2Lstart"
       orient="auto"
       refY="0.0"
       refX="0.0"
       id="Arrow2Lstart"
       style="overflow:visible">
      <path
         id="path6896"
         style="fill-rule:evenodd;stroke-width:0.62500000;stroke-linejoin:round"
         d="M 8.7185878,4.0337352 L -2.2072895,0.016013256 L 8.7185884,-4.0017078 C 6.9730900,-1.6296469 6.9831476,1.6157441 8.7185878,4.0337352 z "
         transform="scale(1.1) translate(1,0)" />
    </marker>
    <inkscape:path-effect
       effect="spiro"
       id="path-effect7058"
       is_visible="true" />
    <inkscape:path-effect
       effect="spiro"
       id="path-effect6619"
       is_visible="true" />
    <marker
       inkscape:stockid="Arrow2Lend"
       orient="auto"
       refY="0"
       refX="0"
       id="Arrow2Lend"
       style="overflow:visible">
      <path
         id="path4264"
         style="fill-rule:evenodd;stroke-width:0.625;stroke-linejoin:round"
         d="M 8.7185878,4.0337352 -2.2072895,0.01601326 8.7185884,-4.0017078 c -1.7454984,2.3720609 -1.7354408,5.6174519 -6e-7,8.035443 z"
         transform="matrix(-1.1,0,0,-1.1,-1.1,0)"
         inkscape:connector-curvature="0" />
    </marker>
    <inkscape:path-effect
       effect="spiro"
       id="path-effect4871"
       is_visible="true" />
    <marker
       inkscape:stockid="Arrow1Lend"
       orient="auto"
       refY="0"
       refX="0"
       id="Arrow1Lend"
       style="overflow:visible">
      <path
         id="path4246"
         d="M 0,0 5,-5 -12.5,0 5,5 0,0 z"
         style="fill-rule:evenodd;stroke:#000000;stroke-width:1pt"
         transform="matrix(-0.8,0,0,-0.8,-10,0)"
         inkscape:connector-curvature="0" />
    </marker>
    <marker
       inkscape:stockid="Arrow1Lstart"
       orient="auto"
       refY="0"
       refX="0"
       id="Arrow1Lstart"
       style="overflow:visible">
      <path
         id="path4243"
         d="M 0,0 5,-5 -12.5,0 5,5 0,0 z"
         style="fill-rule:evenodd;stroke:#000000;stroke-width:1pt"
         transform="matrix(0.8,0,0,0.8,10,0)"
         inkscape:connector-curvature="0" />
    </marker>
    <inkscape:path-effect
       effect="spiro"
       id="path-effect4237"
       is_visible="true" />
    <marker
       inkscape:stockid="Arrow1Lstart"
       orient="auto"
       refY="0"
       refX="0"
       id="Arrow1Lstart-6"
       style="overflow:visible">
      <path
         inkscape:connector-curvature="0"
         id="path4243-3"
         d="M 0,0 5,-5 -12.5,0 5,5 0,0 z"
         style="fill-rule:evenodd;stroke:#000000;stroke-width:1pt"
         transform="matrix(0.8,0,0,0.8,10,0)" />
    </marker>
    <marker
       inkscape:stockid="Arrow1Lend"
       orient="auto"
       refY="0"
       refX="0"
       id="Arrow1Lend-0"
       style="overflow:visible">
      <path
         inkscape:connector-curvature="0"
         id="path4246-8"
         d="M 0,0 5,-5 -12.5,0 5,5 0,0 z"
         style="fill-rule:evenodd;stroke:#000000;stroke-width:1pt"
         transform="matrix(-0.8,0,0,-0.8,-10,0)" />
    </marker>
    <inkscape:path-effect
       effect="spiro"
       id="path-effect4871-9"
       is_visible="true" />
    <marker
       inkscape:stockid="Arrow1Lstart"
       orient="auto"
       refY="0"
       refX="0"
       id="Arrow1Lstart-5"
       style="overflow:visible">
      <path
         id="path4243-1"
         d="M 0,0 5,-5 -12.5,0 5,5 0,0 z"
         style="fill-rule:evenodd;stroke:#000000;stroke-width:1pt"
         transform="matrix(0.8,0,0,0.8,10,0)"
         inkscape:connector-curvature="0" />
    </marker>
    <marker
       inkscape:stockid="Arrow1Lend"
       orient="auto"
       refY="0"
       refX="0"
       id="Arrow1Lend-3"
       style="overflow:visible">
      <path
         id="path4246-7"
         d="M 0,0 5,-5 -12.5,0 5,5 0,0 z"
         style="fill-rule:evenodd;stroke:#000000;stroke-width:1pt"
         transform="matrix(-0.8,0,0,-0.8,-10,0)"
         inkscape:connector-curvature="0" />
    </marker>
    <inkscape:path-effect
       effect="spiro"
       id="path-effect4871-2"
       is_visible="true" />
  </defs>
  <sodipodi:namedview
     id="base"
     pagecolor="#ffffff"
     bordercolor="#666666"
     borderopacity="1.0"
     inkscape:pageopacity="0.0"
     inkscape:pageshadow="2"
     inkscape:zoom="2.8284271"
     inkscape:cx="101.36971"
     inkscape:cy="88.228099"
     inkscape:document-units="px"
     inkscape:current-layer="layer1"
     showgrid="false"
     inkscape:window-width="1920"
     inkscape:window-height="1025"
     inkscape:window-x="0"
     inkscape:window-y="0"
     inkscape:window-maximized="1"
     fit-margin-top="0"
     fit-margin-left="0"
     fit-margin-right="0"
     fit-margin-bottom="0" />
  <metadata
     id="metadata7">
    <rdf:RDF>
      <cc:Work
         rdf:about="">
        <dc:format>image/svg+xml</dc:format>
        <dc:type
           rdf:resource="http://purl.org/dc/dcmitype/StillImage" />
        <dc:title />
      </cc:Work>
    </rdf:RDF>
  </metadata>
  <g
     inkscape:label="Layer 1"
     inkscape:groupmode="layer"
     id="layer1"
     transform="translate(-45.674397,-255.23085)">
    <path
       style="fill:none;stroke:#000000;stroke-width:1.20000005;stroke-linecap:butt;stroke-linejoin:miter;stroke-miterlimit:4;stroke-opacity:1;stroke-dasharray:none;stroke-dashoffset:0"
       d="m 50.875764,258.00193 29.146929,0 0,29.09343 -29.146929,0 z"
       id="rect3761"
       inkscape:connector-curvature="0" />
    <path
       inkscape:connector-curvature="0"
       style="fill:none;stroke:#000000;stroke-width:1.20000005;stroke-linecap:butt;stroke-linejoin:miter;stroke-miterlimit:4;stroke-opacity:1;stroke-dasharray:none;stroke-dashoffset:0"
       d="m 109.19336,258.0017 -29.146932,0 0,29.09344 29.146932,0 z"
       id="rect3761-8" />
    <path
       inkscape:connector-curvature="0"
       style="fill:none;stroke:#000000;stroke-width:1.20000005;stroke-linecap:butt;stroke-linejoin:miter;stroke-miterlimit:4;stroke-opacity:1;stroke-dasharray:none;stroke-dashoffset:0"
       d="m 109.20366,258.0017 29.14692,0 0,29.09344 -29.14692,0 z"
       id="rect3761-8-4" />
    <path
       inkscape:connector-curvature="0"
       style="fill:none;stroke:#000000;stroke-width:1.20000005;stroke-linecap:butt;stroke-linejoin:miter;stroke-miterlimit:4;stroke-opacity:1;stroke-dasharray:none;stroke-dashoffset:0"
       d="m 225.87871,258.0017 -29.14694,0 0,29.09343 29.14694,0 z"
       id="rect3761-5" />
    <path
       inkscape:connector-curvature="0"
       style="fill:none;stroke:#000000;stroke-width:1.20000005;stroke-linecap:butt;stroke-linejoin:miter;stroke-miterlimit:4;stroke-opacity:1;stroke-dasharray:none;stroke-dashoffset:0"
       d="m 167.56112,258.00148 29.14692,0 0,29.09343 -29.14692,0 z"
       id="rect3761-8-0" />
    <path
       inkscape:connector-curvature="0"
       style="fill:none;stroke:#000000;stroke-width:1.20000005;stroke-linecap:butt;stroke-linejoin:miter;stroke-miterlimit:4;stroke-opacity:1;stroke-dasharray:none;stroke-dashoffset:0"
       d="m 167.55082,258.00148 -29.14693,0 0,29.09343 29.14693,0 z"
       id="rect3761-8-4-4" />
    <path
       inkscape:connector-curvature="0"
       style="fill:none;stroke:#000000;stroke-width:1.20000005;stroke-linecap:butt;stroke-linejoin:miter;stroke-miterlimit:4;stroke-opacity:1;stroke-dasharray:none;stroke-dashoffset:0"
       d="m 225.86796,258.0017 29.14692,0 0,29.09344 -29.14692,0 z"
       id="rect3761-5-5" />
    <path
       inkscape:connector-curvature="0"
       style="fill:none;stroke:#000000;stroke-width:1.20000005;stroke-linecap:butt;stroke-linejoin:miter;stroke-miterlimit:4;stroke-opacity:1;stroke-dasharray:none;stroke-dashoffset:0"
       d="m 284.18555,258.00148 -29.14693,0 0,29.09343 29.14693,0 z"
       id="rect3761-8-0-3" />
    <g
       aria-label="A "
       transform="scale(1.0009191,0.99908175)"
       style="font-style:normal;font-weight:normal;line-height:0%;font-family:sans-serif;letter-spacing:0px;word-spacing:0px;fill:#000bd0;fill-opacity:1;stroke:none"
       id="text3784">
      <path
         d="m 65.427878,267.20197 -2.910796,7.89315 h 5.832215 z m -1.211061,-2.11404 h 2.432745 l 6.044682,15.86065 h -2.230902 l -1.444775,-4.06874 h -7.149508 l -1.444775,4.06874 h -2.262772 z"
         style="font-size:21.75660324px;line-height:1.25;font-family:sans-serif;fill:#000bd0;fill-opacity:1"
         id="path254" />
    </g>
    <g
       aria-label="T "
       transform="scale(1.0009191,0.99908175)"
       style="font-style:normal;font-weight:normal;line-height:0%;font-family:sans-serif;letter-spacing:0px;word-spacing:0px;fill:#ff0000;fill-opacity:1;stroke:none"
       id="text3784-0">
      <path
         d="m 87.347362,265.08765 h 13.417278 v 1.80597 h -5.630368 v 14.05468 h -2.156539 v -14.05468 h -5.630371 z"
         style="font-size:21.75660324px;line-height:1.25;font-family:sans-serif;fill:#ff0000;fill-opacity:1"
         id="path257" />
    </g>
    <g
       aria-label="C "
       transform="scale(1.0009191,0.99908175)"
       style="font-style:normal;font-weight:normal;line-height:0%;font-family:sans-serif;letter-spacing:0px;word-spacing:0px;fill:#00ab0c;fill-opacity:1;stroke:none"
       id="text3784-1">
      <path
         d="m 130.35915,266.30934 v 2.26277 q -1.08358,-1.00922 -2.31589,-1.50851 -1.22168,-0.4993 -2.60272,-0.4993 -2.71957,0 -4.16435,1.66786 -1.44477,1.65724 -1.44477,4.80175 0,3.13389 1.44477,4.80175 1.44478,1.65725 4.16435,1.65725 1.38104,0 2.60272,-0.4993 1.23231,-0.4993 2.31589,-1.50852 v 2.24153 q -1.12607,0.76488 -2.39025,1.14732 -1.25356,0.38244 -2.65584,0.38244 -3.60131,0 -5.67286,-2.19903 -2.07155,-2.20966 -2.07155,-6.02344 0,-3.8244 2.07155,-6.02343 2.07155,-2.20966 5.67286,-2.20966 1.42353,0 2.67708,0.38244 1.26418,0.37182 2.36901,1.12608 z"
         style="font-size:21.75660324px;line-height:1.25;font-family:sans-serif;fill:#00ab0c;fill-opacity:1"
         id="path260" />
    </g>
    <g
       aria-label="C "
       transform="scale(1.0009191,0.99908175)"
       style="font-style:normal;font-weight:normal;line-height:0%;font-family:sans-serif;letter-spacing:0px;word-spacing:0px;fill:#cb00a9;fill-opacity:1;stroke:none"
       id="text3784-0-2">
      <path
         d="m 158.51582,266.30909 v 2.26278 q -1.08358,-1.00922 -2.31589,-1.50852 -1.22168,-0.4993 -2.60272,-0.4993 -2.71957,0 -4.16435,1.66787 -1.44477,1.65724 -1.44477,4.80175 0,3.13389 1.44477,4.80175 1.44478,1.65724 4.16435,1.65724 1.38104,0 2.60272,-0.4993 1.23231,-0.49929 2.31589,-1.50851 v 2.24152 q -1.12608,0.76489 -2.39025,1.14733 -1.25356,0.38244 -2.65584,0.38244 -3.60131,0 -5.67286,-2.19904 -2.07155,-2.20965 -2.07155,-6.02343 0,-3.8244 2.07155,-6.02343 2.07155,-2.20966 5.67286,-2.20966 1.42353,0 2.67708,0.38244 1.26418,0.37182 2.36901,1.12607 z"
         style="font-size:21.75660324px;line-height:1.25;font-family:sans-serif;fill:#cb00a9;fill-opacity:1"
         id="path263" />
    </g>
    <g
       aria-label="G "
       transform="scale(1.0009191,0.99908175)"
       style="font-style:normal;font-weight:normal;line-height:0%;font-family:sans-serif;letter-spacing:0px;word-spacing:0px;fill:#000bd0;fill-opacity:1;stroke:none"
       id="text3784-6">
      <path
         d="m 186.47384,278.68553 v -4.25996 h -3.5057 v -1.76347 h 5.63037 v 6.80956 q -1.24293,0.88174 -2.74082,1.33854 -1.49789,0.44618 -3.19763,0.44618 -3.71817,0 -5.82159,-2.16716 -2.0928,-2.17779 -2.0928,-6.05531 0,-3.88814 2.0928,-6.0553 2.10342,-2.17779 5.82159,-2.17779 1.55101,0 2.94267,0.38244 1.40228,0.38244 2.58147,1.12608 v 2.28402 q -1.18982,-1.00922 -2.52836,-1.51914 -1.33854,-0.50992 -2.81518,-0.50992 -2.9108,0 -4.37682,1.62537 -1.4554,1.62537 -1.4554,4.84424 0,3.20825 1.4554,4.83362 1.46602,1.62538 4.37682,1.62538 1.13669,0 2.02906,-0.19122 0.89236,-0.20185 1.60412,-0.61616 z"
         style="font-size:21.75660324px;line-height:1.25;font-family:sans-serif"
         id="path266" />
    </g>
    <g
       aria-label="A "
       transform="scale(1.0009191,0.99908175)"
       style="font-style:normal;font-weight:normal;line-height:0%;font-family:sans-serif;letter-spacing:0px;word-spacing:0px;fill:#ff0000;fill-opacity:1;stroke:none"
       id="text3784-0-5">
      <path
         d="m 210.90015,267.20146 -2.9108,7.89314 h 5.83221 z m -1.21107,-2.11405 h 2.43275 l 6.04468,15.86065 h -2.2309 l -1.44478,-4.06874 h -7.1495 l -1.44478,4.06874 h -2.26277 z"
         style="font-size:21.75660324px;line-height:1.25;font-family:sans-serif"
         id="path269" />
    </g>
    <g
       aria-label="T "
       transform="scale(1.0009191,0.99908175)"
       style="font-style:normal;font-weight:normal;line-height:0%;font-family:sans-serif;letter-spacing:0px;word-spacing:0px;fill:#00ab0c;fill-opacity:1;stroke:none"
       id="text3784-1-7">
      <path
         d="m 233.227,265.08738 h 13.41728 v 1.80597 h -5.63037 v 14.05468 h -2.15654 V 266.89335 H 233.227 Z"
         style="font-size:21.75660324px;line-height:1.25;font-family:sans-serif"
         id="path272" />
    </g>
    <g
       aria-label="G "
       transform="scale(1.0009191,0.99908175)"
       style="font-style:normal;font-weight:normal;line-height:0%;font-family:sans-serif;letter-spacing:0px;word-spacing:0px;fill:#cb00a9;fill-opacity:1;stroke:none"
       id="text3784-0-2-0">
      <path
         d="m 273.72863,278.68501 v -4.25996 h -3.5057 v -1.76347 h 5.63037 v 6.80956 q -1.24293,0.88174 -2.74082,1.33854 -1.49789,0.44618 -3.19763,0.44618 -3.71817,0 -5.82159,-2.16716 -2.0928,-2.17779 -2.0928,-6.0553 0,-3.88815 2.0928,-6.05531 2.10342,-2.17778 5.82159,-2.17778 1.55101,0 2.94267,0.38244 1.40228,0.38244 2.58147,1.12607 v 2.28402 q -1.18981,-1.00922 -2.52836,-1.51914 -1.33854,-0.50992 -2.81518,-0.50992 -2.9108,0 -4.37682,1.62537 -1.4554,1.62537 -1.4554,4.84425 0,3.20824 1.4554,4.83362 1.46602,1.62537 4.37682,1.62537 1.1367,0 2.02906,-0.19122 0.89236,-0.20185 1.60412,-0.61616 z"
         style="font-size:21.75660324px;line-height:1.25;font-family:sans-serif"
         id="path275" />
    </g>
    <path
       inkscape:connector-curvature="0"
       style="fill:none;stroke:#000000;stroke-width:1.20000005;stroke-linecap:butt;stroke-linejoin:miter;stroke-miterlimit:4;stroke-opacity:1;stroke-dasharray:none;stroke-dashoffset:0"
       d="m 50.875588,332.71076 29.146926,0 0,29.09345 -29.146926,0 z"
       id="rect3761-6" />
    <path
       inkscape:connector-curvature="0"
       style="fill:none;stroke:#000000;stroke-width:1.20000005;stroke-linecap:butt;stroke-linejoin:miter;stroke-miterlimit:4;stroke-opacity:1;stroke-dasharray:none;stroke-dashoffset:0"
       d="m 109.19318,332.71054 -29.146937,0 0,29.09344 29.146937,0 z"
       id="rect3761-8-5" />
    <path
       inkscape:connector-curvature="0"
       style="fill:none;stroke:#000000;stroke-width:1.20000005;stroke-linecap:butt;stroke-linejoin:miter;stroke-miterlimit:4;stroke-opacity:1;stroke-dasharray:none;stroke-dashoffset:0"
       d="m 109.20349,332.71054 29.14692,0 0,29.09344 -29.14692,0 z"
       id="rect3761-8-4-0" />
    <path
       inkscape:connector-curvature="0"
       style="fill:none;stroke:#000000;stroke-width:1.20000005;stroke-linecap:butt;stroke-linejoin:miter;stroke-miterlimit:4;stroke-opacity:1;stroke-dasharray:none;stroke-dashoffset:0"
       d="m 225.87854,332.71054 -29.14694,0 0,29.09344 29.14694,0 z"
       id="rect3761-5-3" />
    <path
       inkscape:connector-curvature="0"
       style="fill:none;stroke:#000000;stroke-width:1.20000005;stroke-linecap:butt;stroke-linejoin:miter;stroke-miterlimit:4;stroke-opacity:1;stroke-dasharray:none;stroke-dashoffset:0"
       d="m 167.56095,332.71032 29.14692,0 0,29.09344 -29.14692,0 z"
       id="rect3761-8-0-6" />
    <path
       inkscape:connector-curvature="0"
       style="fill:none;stroke:#000000;stroke-width:1.20000005;stroke-linecap:butt;stroke-linejoin:miter;stroke-miterlimit:4;stroke-opacity:1;stroke-dasharray:none;stroke-dashoffset:0"
       d="m 167.55065,332.71032 -29.14693,0 0,29.09344 29.14693,0 z"
       id="rect3761-8-4-4-8" />
    <path
       inkscape:connector-curvature="0"
       style="fill:none;stroke:#000000;stroke-width:1.20000005;stroke-linecap:butt;stroke-linejoin:miter;stroke-miterlimit:4;stroke-opacity:1;stroke-dasharray:none;stroke-dashoffset:0"
       d="m 225.86778,332.71054 29.14694,0 0,29.09344 -29.14694,0 z"
       id="rect3761-5-5-3" />
    <path
       inkscape:connector-curvature="0"
       style="fill:none;stroke:#000000;stroke-width:1.20000005;stroke-linecap:butt;stroke-linejoin:miter;stroke-miterlimit:4;stroke-opacity:1;stroke-dasharray:none;stroke-dashoffset:0"
       d="m 284.18538,332.71033 -29.14693,0 0,29.09343 29.14693,0 z"
       id="rect3761-8-0-3-2" />
    <g
       aria-label="00 "
       transform="scale(1.0009191,0.99908175)"
       style="font-style:normal;font-weight:normal;line-height:0%;font-family:sans-serif;letter-spacing:0px;word-spacing:0px;fill:#000bd0;fill-opacity:1;stroke:none"
       id="text3784-05">
      <path
         d="m 59.518467,342.47851 q -1.408655,0 -2.122012,1.3906 -0.704328,1.38156 -0.704328,4.16275 0,2.77216 0.704328,4.16276 0.713357,1.38157 2.122012,1.38157 1.417685,0 2.122013,-1.38157 0.713357,-1.3906 0.713357,-4.16276 0,-2.78119 -0.713357,-4.16275 -0.704328,-1.3906 -2.122013,-1.3906 z m 0,-1.44477 q 2.26649,0 3.458429,1.79694 1.200969,1.7879 1.200969,5.20118 0,3.40425 -1.200969,5.20119 -1.191939,1.78791 -3.458429,1.78791 -2.26649,0 -3.467458,-1.78791 -1.191939,-1.79694 -1.191939,-5.20119 0,-3.41328 1.191939,-5.20118 1.200968,-1.79694 3.467458,-1.79694 z"
         style="font-size:18.49311256px;line-height:1.25;font-family:sans-serif"
         id="path278" />
      <path
         d="m 71.284349,342.47851 q -1.408655,0 -2.122013,1.3906 -0.704327,1.38156 -0.704327,4.16275 0,2.77216 0.704327,4.16276 0.713358,1.38157 2.122013,1.38157 1.417685,0 2.122012,-1.38157 0.713358,-1.3906 0.713358,-4.16276 0,-2.78119 -0.713358,-4.16275 -0.704327,-1.3906 -2.122012,-1.3906 z m 0,-1.44477 q 2.26649,0 3.458429,1.79694 1.200968,1.7879 1.200968,5.20118 0,3.40425 -1.200968,5.20119 -1.191939,1.78791 -3.458429,1.78791 -2.26649,0 -3.467459,-1.78791 -1.191939,-1.79694 -1.191939,-5.20119 0,-3.41328 1.191939,-5.20118 1.200969,-1.79694 3.467459,-1.79694 z"
         style="font-size:18.49311256px;line-height:1.25;font-family:sans-serif"
         id="path280" />
    </g>
    <g
       aria-label="11 "
       transform="scale(1.0009191,0.99908175)"
       style="font-style:normal;font-weight:normal;line-height:0%;font-family:sans-serif;letter-spacing:0px;word-spacing:0px;fill:#ff0000;fill-opacity:1;stroke:none"
       id="text3784-0-0">
      <path
         d="m 85.35318,353.22378 h 2.979847 v -10.28499 l -3.241712,0.65015 v -1.66149 l 3.223653,-0.65015 h 1.824027 v 11.94648 h 2.979848 v 1.53507 H 85.35318 Z"
         style="font-size:18.49311256px;line-height:1.25;font-family:sans-serif"
         id="path283" />
      <path
         d="m 97.119062,353.22378 h 2.979848 v -10.28499 l -3.241714,0.65015 v -1.66149 l 3.223654,-0.65015 h 1.82403 v 11.94648 h 2.97984 v 1.53507 h -7.765658 z"
         style="font-size:18.49311256px;line-height:1.25;font-family:sans-serif"
         id="path285" />
    </g>
    <g
       aria-label="01 "
       transform="scale(1.0009191,0.99908175)"
       style="font-style:normal;font-weight:normal;line-height:0%;font-family:sans-serif;letter-spacing:0px;word-spacing:0px;fill:#00ab0c;fill-opacity:1;stroke:none"
       id="text3784-1-1">
      <path
         d="m 117.87391,342.47827 q -1.40866,0 -2.12201,1.39059 -0.70433,1.38157 -0.70433,4.16276 0,2.77216 0.70433,4.16276 0.71335,1.38156 2.12201,1.38156 1.41768,0 2.12201,-1.38156 0.71336,-1.3906 0.71336,-4.16276 0,-2.78119 -0.71336,-4.16276 -0.70433,-1.39059 -2.12201,-1.39059 z m 0,-1.44478 q 2.26649,0 3.45843,1.79694 1.20097,1.78791 1.20097,5.20119 0,3.40425 -1.20097,5.20119 -1.19194,1.78791 -3.45843,1.78791 -2.26649,0 -3.46746,-1.78791 -1.19194,-1.79694 -1.19194,-5.20119 0,-3.41328 1.19194,-5.20119 1.20097,-1.79694 3.46746,-1.79694 z"
         style="font-size:18.49311256px;line-height:1.25;font-family:sans-serif"
         id="path288" />
      <path
         d="m 126.05494,353.22378 h 2.97985 v -10.28499 l -3.24171,0.65015 v -1.66149 l 3.22365,-0.65015 h 1.82403 v 11.94648 h 2.97985 v 1.53507 h -7.76567 z"
         style="font-size:18.49311256px;line-height:1.25;font-family:sans-serif"
         id="path290" />
    </g>
    <g
       aria-label="01 "
       transform="scale(1.0009191,0.99908175)"
       style="font-style:normal;font-weight:normal;line-height:0%;font-family:sans-serif;letter-spacing:0px;word-spacing:0px;fill:#cb00a9;fill-opacity:1;stroke:none"
       id="text3784-0-2-7">
      <path
         d="m 147.29346,342.47802 q -1.40865,0 -2.12201,1.3906 -0.70432,1.38156 -0.70432,4.16276 0,2.77216 0.70432,4.16275 0.71336,1.38157 2.12201,1.38157 1.41769,0 2.12202,-1.38157 0.71335,-1.39059 0.71335,-4.16275 0,-2.7812 -0.71335,-4.16276 -0.70433,-1.3906 -2.12202,-1.3906 z m 0,-1.44477 q 2.26649,0 3.45843,1.79694 1.20097,1.78791 1.20097,5.20119 0,3.40424 -1.20097,5.20118 -1.19194,1.78791 -3.45843,1.78791 -2.26648,0 -3.46745,-1.78791 -1.19194,-1.79694 -1.19194,-5.20118 0,-3.41328 1.19194,-5.20119 1.20097,-1.79694 3.46745,-1.79694 z"
         style="font-size:18.49311256px;line-height:1.25;font-family:sans-serif"
         id="path293" />
      <path
         d="m 155.4745,353.22353 h 2.97985 v -10.28498 l -3.24172,0.65014 v -1.66149 l 3.22366,-0.65015 h 1.82403 v 11.94648 h 2.97984 v 1.53508 h -7.76566 z"
         style="font-size:18.49311256px;line-height:1.25;font-family:sans-serif"
         id="path295" />
    </g>
    <g
       aria-label="10"
       transform="scale(1.0009191,0.99908175)"
       style="font-style:normal;font-weight:normal;line-height:0%;font-family:sans-serif;letter-spacing:0px;word-spacing:0px;fill:#000bd0;fill-opacity:1;stroke:none"
       id="text3784-6-3">
      <path
         d="m 172.43195,353.22378 h 2.97984 v -10.28499 l -3.24171,0.65015 v -1.66149 l 3.22365,-0.65015 h 1.82403 v 11.94648 h 2.97985 v 1.53507 h -7.76566 z"
         style="font-size:18.49311256px;line-height:1.25;font-family:sans-serif"
         id="path298" />
      <path
         d="m 187.78267,342.47827 q -1.40865,0 -2.12201,1.39059 -0.70433,1.38157 -0.70433,4.16276 0,2.77216 0.70433,4.16276 0.71336,1.38156 2.12201,1.38156 1.41769,0 2.12202,-1.38156 0.71335,-1.3906 0.71335,-4.16276 0,-2.78119 -0.71335,-4.16276 -0.70433,-1.39059 -2.12202,-1.39059 z m 0,-1.44478 q 2.26649,0 3.45843,1.79694 1.20097,1.78791 1.20097,5.20119 0,3.40425 -1.20097,5.20119 -1.19194,1.78791 -3.45843,1.78791 -2.26649,0 -3.46745,-1.78791 -1.19194,-1.79694 -1.19194,-5.20119 0,-3.41328 1.19194,-5.20119 1.20096,-1.79694 3.46745,-1.79694 z"
         style="font-size:18.49311256px;line-height:1.25;font-family:sans-serif"
         id="path300" />
    </g>
    <g
       aria-label="00 "
       transform="scale(1.0009191,0.99908175)"
       style="font-style:normal;font-weight:normal;line-height:0%;font-family:sans-serif;letter-spacing:0px;word-spacing:0px;fill:#ff0000;fill-opacity:1;stroke:none"
       id="text3784-0-5-2">
      <path
         d="m 205.43638,342.47799 q -1.40866,0 -2.12201,1.3906 -0.70433,1.38156 -0.70433,4.16275 0,2.77217 0.70433,4.16276 0.71335,1.38157 2.12201,1.38157 1.41768,0 2.12201,-1.38157 0.71336,-1.39059 0.71336,-4.16276 0,-2.78119 -0.71336,-4.16275 -0.70433,-1.3906 -2.12201,-1.3906 z m 0,-1.44477 q 2.26649,0 3.45843,1.79694 1.20097,1.7879 1.20097,5.20118 0,3.40425 -1.20097,5.20119 -1.19194,1.78791 -3.45843,1.78791 -2.26649,0 -3.46746,-1.78791 -1.19194,-1.79694 -1.19194,-5.20119 0,-3.41328 1.19194,-5.20118 1.20097,-1.79694 3.46746,-1.79694 z"
         style="font-size:18.49311256px;line-height:1.25;font-family:sans-serif"
         id="path303" />
      <path
         d="m 217.20226,342.47799 q -1.40865,0 -2.12201,1.3906 -0.70433,1.38156 -0.70433,4.16275 0,2.77217 0.70433,4.16276 0.71336,1.38157 2.12201,1.38157 1.41769,0 2.12201,-1.38157 0.71336,-1.39059 0.71336,-4.16276 0,-2.78119 -0.71336,-4.16275 -0.70432,-1.3906 -2.12201,-1.3906 z m 0,-1.44477 q 2.26649,0 3.45843,1.79694 1.20097,1.7879 1.20097,5.20118 0,3.40425 -1.20097,5.20119 -1.19194,1.78791 -3.45843,1.78791 -2.26649,0 -3.46746,-1.78791 -1.19194,-1.79694 -1.19194,-5.20119 0,-3.41328 1.19194,-5.20118 1.20097,-1.79694 3.46746,-1.79694 z"
         style="font-size:18.49311256px;line-height:1.25;font-family:sans-serif"
         id="path305" />
    </g>
    <g
       aria-label="11 "
       transform="scale(1.0009191,0.99908175)"
       style="font-style:normal;font-weight:normal;line-height:0%;font-family:sans-serif;letter-spacing:0px;word-spacing:0px;fill:#00ab0c;fill-opacity:1;stroke:none"
       id="text3784-1-7-9">
      <path
         d="m 230.78738,353.2235 h 2.97985 v -10.28499 l -3.24171,0.65015 v -1.66149 l 3.22365,-0.65015 h 1.82403 v 11.94648 h 2.97985 v 1.53508 h -7.76567 z"
         style="font-size:18.49311256px;line-height:1.25;font-family:sans-serif"
         id="path308" />
      <path
         d="m 242.55327,353.2235 h 2.97984 v -10.28499 l -3.24171,0.65015 v -1.66149 l 3.22365,-0.65015 h 1.82403 v 11.94648 h 2.97985 v 1.53508 h -7.76566 z"
         style="font-size:18.49311256px;line-height:1.25;font-family:sans-serif"
         id="path310" />
    </g>
    <g
       aria-label="10 "
       transform="scale(1.0009191,0.99908175)"
       style="font-style:normal;font-weight:normal;line-height:0%;font-family:sans-serif;letter-spacing:0px;word-spacing:0px;fill:#cb00a9;fill-opacity:1;stroke:none"
       id="text3784-0-2-0-2">
      <path
         d="m 260.20691,353.22326 h 2.97985 v -10.28499 l -3.24172,0.65015 v -1.66149 l 3.22366,-0.65015 h 1.82402 v 11.94648 h 2.97985 v 1.53507 h -7.76566 z"
         style="font-size:18.49311256px;line-height:1.25;font-family:sans-serif"
         id="path313" />
      <path
         d="m 275.55764,342.47775 q -1.40866,0 -2.12201,1.39059 -0.70433,1.38157 -0.70433,4.16276 0,2.77216 0.70433,4.16276 0.71335,1.38156 2.12201,1.38156 1.41768,0 2.12201,-1.38156 0.71336,-1.3906 0.71336,-4.16276 0,-2.78119 -0.71336,-4.16276 -0.70433,-1.39059 -2.12201,-1.39059 z m 0,-1.44478 q 2.26649,0 3.45843,1.79694 1.20097,1.78791 1.20097,5.20119 0,3.40425 -1.20097,5.20119 -1.19194,1.78791 -3.45843,1.78791 -2.26649,0 -3.46746,-1.78791 -1.19194,-1.79694 -1.19194,-5.20119 0,-3.41328 1.19194,-5.20119 1.20097,-1.79694 3.46746,-1.79694 z"
         style="font-size:18.49311256px;line-height:1.25;font-family:sans-serif"
         id="path315" />
    </g>
    <path
       style="fill:none;stroke:#000000;stroke-width:1.20000005;stroke-linecap:butt;stroke-linejoin:miter;stroke-miterlimit:4;stroke-dasharray:none;stroke-opacity:1;marker-start:url(#Arrow2Lstart);marker-end:url(#Arrow2Lend)"
       d="M 167.46348,373.9004 H 50.875763"
       id="path4869" />
    <g
       aria-label="1 byte"
       transform="scale(1.0009191,0.99908175)"
       style="font-style:normal;font-weight:normal;line-height:0%;font-family:sans-serif;letter-spacing:0px;word-spacing:0px;fill:#000000;fill-opacity:1;stroke:none"
       id="text6539">
      <path
         d="m 89.308645,390.52518 h 2.246796 v -7.75486 l -2.444242,0.49021 v -1.25275 l 2.430625,-0.49021 h 1.375312 v 9.00761 h 2.246797 v 1.15744 h -5.855288 z"
         style="font-size:13.94375515px;line-height:1.25;font-family:sans-serif"
         id="path319" />
      <path
         d="m 107.6711,387.87668 q 0,-1.38212 -0.57191,-2.16509 -0.56511,-0.78979 -1.55914,-0.78979 -0.99404,0 -1.56595,0.78979 -0.56511,0.78297 -0.56511,2.16509 0,1.38212 0.56511,2.1719 0.57191,0.78298 1.56595,0.78298 0.99403,0 1.55914,-0.78298 0.57191,-0.78978 0.57191,-2.1719 z m -4.26211,-2.66211 q 0.3949,-0.68085 0.99404,-1.00766 0.60596,-0.33361 1.4434,-0.33361 1.38893,0 2.2536,1.10297 0.87149,1.10297 0.87149,2.90041 0,1.79744 -0.87149,2.90041 -0.86467,1.10297 -2.2536,1.10297 -0.83744,0 -1.4434,-0.3268 -0.59914,-0.33362 -0.99404,-1.01447 v 1.14383 h -1.25956 v -10.59399 h 1.25956 z"
         style="font-size:13.94375515px;line-height:1.25;font-family:sans-serif"
         id="path321" />
      <path
         d="m 114.22085,392.3907 q -0.53106,1.36169 -1.03489,1.77701 -0.50382,0.41532 -1.34808,0.41532 h -1.00084 v -1.04851 h 0.73531 q 0.51745,0 0.8034,-0.2451 0.28596,-0.24511 0.63319,-1.15744 l 0.22468,-0.57192 -3.08424,-7.50293 h 1.32766 l 2.38296,5.96422 2.38297,-5.96422 h 1.32765 z"
         style="font-size:13.94375515px;line-height:1.25;font-family:sans-serif"
         id="path323" />
      <path
         d="m 120.53912,381.89203 v 2.1651 h 2.58041 v 0.97361 h -2.58041 v 4.13955 q 0,0.93276 0.25191,1.19829 0.25872,0.26553 1.0417,0.26553 h 1.2868 v 1.04851 h -1.2868 q -1.45021,0 -2.00169,-0.53787 -0.55149,-0.54468 -0.55149,-1.97446 v -4.13955 h -0.91914 v -0.97361 h 0.91914 v -2.1651 z"
         style="font-size:13.94375515px;line-height:1.25;font-family:sans-serif"
         id="path325" />
      <path
         d="m 131.2897,387.55668 v 0.61276 h -5.75997 q 0.0817,1.29361 0.77616,1.97446 0.70128,0.67404 1.94723,0.67404 0.7217,0 1.39574,-0.17702 0.68084,-0.17702 1.34807,-0.53106 v 1.18467 q -0.67404,0.28596 -1.38212,0.43575 -0.70808,0.14978 -1.43658,0.14978 -1.82468,0 -2.89361,-1.06212 -1.06212,-1.06212 -1.06212,-2.87318 0,-1.87233 1.00766,-2.96849 1.01446,-1.10297 2.73019,-1.10297 1.53872,0 2.43063,0.99403 0.89872,0.98723 0.89872,2.68935 z m -1.25276,-0.36766 q -0.0136,-1.02808 -0.57872,-1.64084 -0.5583,-0.61276 -1.48425,-0.61276 -1.0485,0 -1.68169,0.59234 -0.62638,0.59233 -0.7217,1.66807 z"
         style="font-size:13.94375515px;line-height:1.25;font-family:sans-serif"
         id="path327" />
    </g>
    <path
       style="fill:none;stroke:#000000;stroke-width:0.70000005;stroke-linecap:butt;stroke-linejoin:miter;stroke-miterlimit:4;stroke-dasharray:none;stroke-opacity:1;marker-start:url(#Arrow2Lstart);marker-end:url(#Arrow2Lend)"
       d="m 80.147955,296.55874 h -29.7868"
       id="path4869-0" />
    <g
       aria-label="1 byte"
       transform="scale(1.0009191,0.99908175)"
       style="font-style:normal;font-weight:normal;line-height:0%;font-family:sans-serif;letter-spacing:0px;word-spacing:0px;fill:#000000;fill-opacity:1;stroke:none"
       id="text6539-9">
      <path
         d="m 49.404675,310.87799 h 1.657595 v -5.72121 l -1.803262,0.36166 v -0.92424 l 1.793216,-0.36166 h 1.014648 v 6.64545 h 1.657595 v 0.85391 h -4.319792 z"
         style="font-size:10.28713131px;line-height:1.25;font-family:sans-serif"
         id="path331" />
      <path
         d="m 62.951742,308.92404 q 0,-1.01967 -0.421933,-1.59732 -0.41691,-0.58267 -1.15027,-0.58267 -0.73336,0 -1.155293,0.58267 -0.41691,0.57765 -0.41691,1.59732 0,1.01967 0.41691,1.60234 0.421933,0.57765 1.155293,0.57765 0.73336,0 1.15027,-0.57765 0.421933,-0.58267 0.421933,-1.60234 z m -3.144406,-1.964 q 0.291335,-0.5023 0.73336,-0.74341 0.447048,-0.24612 1.064879,-0.24612 1.024695,0 1.662617,0.81372 0.642946,0.81373 0.642946,2.13981 0,1.32607 -0.642946,2.1398 -0.637922,0.81373 -1.662617,0.81373 -0.617831,0 -1.064879,-0.2411 -0.442025,-0.24613 -0.73336,-0.74843 v 0.84386 h -0.929257 v -7.81581 h 0.929257 z"
         style="font-size:10.28713131px;line-height:1.25;font-family:sans-serif"
         id="path333" />
      <path
         d="m 67.783881,312.2543 q -0.391795,1.0046 -0.763498,1.311 -0.371703,0.30641 -0.994557,0.30641 h -0.738383 v -0.77355 h 0.542485 q 0.381749,0 0.592716,-0.18083 0.210967,-0.18082 0.46714,-0.85391 l 0.16576,-0.42193 -2.275425,-5.53536 h 0.979487 l 1.758055,4.40016 1.758055,-4.40016 h 0.979487 z"
         style="font-size:10.28713131px;line-height:1.25;font-family:sans-serif"
         id="path335" />
      <path
         d="m 72.445237,304.50881 v 1.59732 h 1.903722 v 0.71829 h -1.903722 v 3.05399 q 0,0.68815 0.185852,0.88405 0.190874,0.1959 0.768521,0.1959 h 0.949349 v 0.77354 H 73.39961 q -1.069902,0 -1.476766,-0.39681 -0.406864,-0.40185 -0.406864,-1.45668 v -3.05399 h -0.678107 v -0.71829 h 0.678107 v -1.59732 z"
         style="font-size:10.28713131px;line-height:1.25;font-family:sans-serif"
         id="path337" />
      <path
         d="m 80.376575,308.68796 v 0.45207 h -4.249469 q 0.06028,0.95437 0.572624,1.45667 0.51737,0.49728 1.436581,0.49728 0.53244,0 1.029718,-0.1306 0.502302,-0.1306 0.994557,-0.39179 v 0.874 q -0.497278,0.21097 -1.019672,0.32147 -0.522393,0.11051 -1.059856,0.11051 -1.346167,0 -2.13478,-0.78359 -0.78359,-0.78359 -0.78359,-2.11971 0,-1.38133 0.743406,-2.19004 0.748429,-0.81372 2.014228,-0.81372 1.135201,0 1.793216,0.73336 0.663037,0.72833 0.663037,1.98409 z m -0.924234,-0.27125 q -0.01005,-0.75847 -0.426956,-1.21054 -0.411887,-0.45207 -1.095017,-0.45207 -0.773544,0 -1.240684,0.437 -0.462118,0.437 -0.53244,1.23064 z"
         style="font-size:10.28713131px;line-height:1.25;font-family:sans-serif"
         id="path339" />
    </g>
    <path
       transform="translate(45.674397,255.23085)"
       style="fill:none;stroke:#000000;stroke-width:1px;stroke-linecap:butt;stroke-linejoin:miter;stroke-opacity:1;marker-end:url(#Arrow2Lend)"
       d="M 121.97592,42.419265 V 67.168002"
       id="path40416" />
    <path
       transform="translate(45.674397,255.23085)"
       style="fill:none;stroke:#000000;stroke-width:0;stroke-linecap:butt;stroke-linejoin:miter;stroke-miterlimit:4;stroke-dasharray:none;stroke-opacity:1"
       d="M 121.875,61.125 V 42.25"
       id="path40616" />
    <path
       style="fill:none;stroke:#000000;stroke-width:2.5;stroke-linecap:butt;stroke-linejoin:miter;stroke-miterlimit:4;stroke-dasharray:none;stroke-opacity:1"
       d="m 167.6994,315.48085 v -18"
       id="path40620" />
  </g>
</svg>
