<?xml version="1.0" encoding="UTF-8" standalone="no"?>
<!-- Created with Inkscape (http://www.inkscape.org/) -->

<svg
   xmlns:dc="http://purl.org/dc/elements/1.1/"
   xmlns:cc="http://creativecommons.org/ns#"
   xmlns:rdf="http://www.w3.org/1999/02/22-rdf-syntax-ns#"
   xmlns:svg="http://www.w3.org/2000/svg"
   xmlns="http://www.w3.org/2000/svg"
   xmlns:sodipodi="http://sodipodi.sourceforge.net/DTD/sodipodi-0.dtd"
   xmlns:inkscape="http://www.inkscape.org/namespaces/inkscape"
   width="420"
   height="320"
   viewBox="0 0 420 319.99999"
   id="svg8578"
   version="1.1"
   inkscape:version="0.91 r13725"
   sodipodi:docname="rotating-earth-forces.svg">
  <sodipodi:namedview
     id="base"
     pagecolor="#ffffff"
     bordercolor="#666666"
     borderopacity="1.0"
     inkscape:pageopacity="0.0"
     inkscape:pageshadow="2"
     inkscape:zoom="2.8"
     inkscape:cx="181.30613"
     inkscape:cy="265.70635"
     inkscape:document-units="px"
     inkscape:current-layer="layer1"
     showgrid="false"
     inkscape:window-width="1920"
     inkscape:window-height="1025"
     inkscape:window-x="0"
     inkscape:window-y="0"
     inkscape:window-maximized="1"
     fit-margin-top="0"
     fit-margin-left="0"
     fit-margin-right="0"
     fit-margin-bottom="0"
     units="px" />
  <defs
     id="defs8580">
    <marker
       inkscape:stockid="Arrow2Lend"
       orient="auto"
       refY="0.0"
       refX="0.0"
       id="Arrow2Lend"
       style="overflow:visible;"
       inkscape:isstock="true">
      <path
         id="path6904"
         style="fill-rule:evenodd;stroke-width:0.625;stroke-linejoin:round;stroke:#000000;stroke-opacity:1;fill:#000000;fill-opacity:1"
         d="M 8.7185878,4.0337352 L -2.2072895,0.016013256 L 8.7185884,-4.0017078 C 6.9730900,-1.6296469 6.9831476,1.6157441 8.7185878,4.0337352 z "
         transform="scale(1.1) rotate(180) translate(1,0)" />
    </marker>
    <marker
       inkscape:isstock="true"
       style="overflow:visible"
       id="marker18162"
       refX="0"
       refY="0"
       orient="auto"
       inkscape:stockid="Arrow2Lstart">
      <path
         transform="matrix(1.1,0,0,1.1,1.1,0)"
         d="M 8.7185878,4.0337352 -2.2072895,0.01601326 8.7185884,-4.0017078 c -1.7454984,2.3720609 -1.7354408,5.6174519 -6e-7,8.035443 z"
         style="fill:#000000;fill-opacity:1;fill-rule:evenodd;stroke:#000000;stroke-width:0.625;stroke-linejoin:round;stroke-opacity:1"
         id="path18164"
         inkscape:connector-curvature="0" />
    </marker>
    <marker
       inkscape:isstock="true"
       style="overflow:visible"
       id="marker14342"
       refX="0"
       refY="0"
       orient="auto"
       inkscape:stockid="Arrow2Lstart">
      <path
         transform="matrix(1.1,0,0,1.1,1.1,0)"
         d="M 8.7185878,4.0337352 -2.2072895,0.01601326 8.7185884,-4.0017078 c -1.7454984,2.3720609 -1.7354408,5.6174519 -6e-7,8.035443 z"
         style="fill:#a6a3a3;fill-opacity:1;fill-rule:evenodd;stroke:#a6a3a3;stroke-width:0.625;stroke-linejoin:round;stroke-opacity:1"
         id="path14344"
         inkscape:connector-curvature="0" />
    </marker>
    <marker
       inkscape:stockid="Arrow2Lstart"
       orient="auto"
       refY="0"
       refX="0"
       id="Arrow2Lstart"
       style="overflow:visible"
       inkscape:isstock="true"
       inkscape:collect="always">
      <path
         inkscape:connector-curvature="0"
         id="path6901"
         style="fill:#000000;fill-opacity:1;fill-rule:evenodd;stroke:#000000;stroke-width:0.625;stroke-linejoin:round;stroke-opacity:1"
         d="M 8.7185878,4.0337352 -2.2072895,0.01601326 8.7185884,-4.0017078 c -1.7454984,2.3720609 -1.7354408,5.6174519 -6e-7,8.035443 z"
         transform="matrix(1.1,0,0,1.1,1.1,0)" />
    </marker>
    <marker
       inkscape:stockid="Arrow1Lstart"
       orient="auto"
       refY="0"
       refX="0"
       id="Arrow1Lstart"
       style="overflow:visible"
       inkscape:isstock="true">
      <path
         inkscape:connector-curvature="0"
         id="path6883"
         d="M 0,0 5,-5 -12.5,0 5,5 0,0 Z"
         style="fill:#ed0d0d;fill-opacity:1;fill-rule:evenodd;stroke:#ed0d0d;stroke-width:1pt;stroke-opacity:1"
         transform="matrix(0.8,0,0,0.8,10,0)" />
    </marker>
    <marker
       inkscape:stockid="Arrow2Lend"
       orient="auto"
       refY="0"
       refX="0"
       id="Arrow2Lend-9"
       style="overflow:visible">
      <path
         id="path3903-1"
         style="fill-rule:evenodd;stroke-width:0.625;stroke-linejoin:round"
         d="M 8.7185878,4.0337352 -2.2072895,0.01601326 8.7185884,-4.0017078 c -1.7454984,2.3720609 -1.7354408,5.6174519 -6e-7,8.035443 z"
         transform="matrix(-1.1,0,0,-1.1,-1.1,0)"
         inkscape:connector-curvature="0" />
    </marker>
    <marker
       inkscape:stockid="Arrow2Lend"
       orient="auto"
       refY="0"
       refX="0"
       id="marker8549"
       style="overflow:visible">
      <path
         id="path8551"
         style="fill-rule:evenodd;stroke-width:0.625;stroke-linejoin:round"
         d="M 8.7185878,4.0337352 -2.2072895,0.01601326 8.7185884,-4.0017078 c -1.7454984,2.3720609 -1.7354408,5.6174519 -6e-7,8.035443 z"
         transform="matrix(-1.1,0,0,-1.1,-1.1,0)"
         inkscape:connector-curvature="0" />
    </marker>
    <marker
       inkscape:stockid="Arrow2Lend"
       orient="auto"
       refY="0"
       refX="0"
       id="marker8553"
       style="overflow:visible">
      <path
         id="path8555"
         style="fill-rule:evenodd;stroke-width:0.625;stroke-linejoin:round"
         d="M 8.7185878,4.0337352 -2.2072895,0.01601326 8.7185884,-4.0017078 c -1.7454984,2.3720609 -1.7354408,5.6174519 -6e-7,8.035443 z"
         transform="matrix(-1.1,0,0,-1.1,-1.1,0)"
         inkscape:connector-curvature="0" />
    </marker>
    <marker
       inkscape:stockid="Arrow2Lend"
       orient="auto"
       refY="0"
       refX="0"
       id="Arrow2Lend-9-8"
       style="overflow:visible">
      <path
         id="path3903-1-9"
         style="fill-rule:evenodd;stroke-width:0.625;stroke-linejoin:round"
         d="M 8.7185878,4.0337352 -2.2072895,0.01601326 8.7185884,-4.0017078 c -1.7454984,2.3720609 -1.7354408,5.6174519 -6e-7,8.035443 z"
         transform="matrix(-1.1,0,0,-1.1,-1.1,0)"
         inkscape:connector-curvature="0" />
    </marker>
    <marker
       inkscape:stockid="Arrow2Lend"
       orient="auto"
       refY="0"
       refX="0"
       id="Arrow2Lend-9-8-3"
       style="overflow:visible">
      <path
         id="path3903-1-9-6"
         style="fill-rule:evenodd;stroke-width:0.625;stroke-linejoin:round"
         d="M 8.7185878,4.0337352 -2.2072895,0.01601326 8.7185884,-4.0017078 c -1.7454984,2.3720609 -1.7354408,5.6174519 -6e-7,8.035443 z"
         transform="matrix(-1.1,0,0,-1.1,-1.1,0)"
         inkscape:connector-curvature="0" />
    </marker>
    <marker
       inkscape:stockid="Arrow2Lend"
       orient="auto"
       refY="0"
       refX="0"
       id="Arrow2Lend-9-8-9"
       style="overflow:visible">
      <path
         id="path3903-1-9-3"
         style="fill-rule:evenodd;stroke-width:0.625;stroke-linejoin:round"
         d="M 8.7185878,4.0337352 -2.2072895,0.01601326 8.7185884,-4.0017078 c -1.7454984,2.3720609 -1.7354408,5.6174519 -6e-7,8.035443 z"
         transform="matrix(-1.1,0,0,-1.1,-1.1,0)"
         inkscape:connector-curvature="0" />
    </marker>
    <marker
       inkscape:stockid="Arrow2Lend"
       orient="auto"
       refY="0"
       refX="0"
       id="Arrow2Lend-9-8-9-4"
       style="overflow:visible">
      <path
         id="path3903-1-9-3-5"
         style="fill-rule:evenodd;stroke-width:0.625;stroke-linejoin:round"
         d="M 8.7185878,4.0337352 -2.2072895,0.01601326 8.7185884,-4.0017078 c -1.7454984,2.3720609 -1.7354408,5.6174519 -6e-7,8.035443 z"
         transform="matrix(-1.1,0,0,-1.1,-1.1,0)"
         inkscape:connector-curvature="0" />
    </marker>
    <marker
       inkscape:stockid="Arrow2Lend"
       orient="auto"
       refY="0"
       refX="0"
       id="Arrow2Lend-9-8-9-4-3"
       style="overflow:visible">
      <path
         id="path3903-1-9-3-5-6"
         style="fill-rule:evenodd;stroke-width:0.625;stroke-linejoin:round"
         d="M 8.7185878,4.0337352 -2.2072895,0.01601326 8.7185884,-4.0017078 c -1.7454984,2.3720609 -1.7354408,5.6174519 -6e-7,8.035443 z"
         transform="matrix(-1.1,0,0,-1.1,-1.1,0)"
         inkscape:connector-curvature="0" />
    </marker>
    <marker
       inkscape:stockid="Arrow2Lend"
       orient="auto"
       refY="0"
       refX="0"
       id="Arrow2Lend-9-8-9-4-0"
       style="overflow:visible">
      <path
         id="path3903-1-9-3-5-63"
         style="fill-rule:evenodd;stroke-width:0.625;stroke-linejoin:round"
         d="M 8.7185878,4.0337352 -2.2072895,0.01601326 8.7185884,-4.0017078 c -1.7454984,2.3720609 -1.7354408,5.6174519 -6e-7,8.035443 z"
         transform="matrix(-1.1,0,0,-1.1,-1.1,0)"
         inkscape:connector-curvature="0" />
    </marker>
    <marker
       inkscape:stockid="Arrow2Lend"
       orient="auto"
       refY="0"
       refX="0"
       id="Arrow2Lend-9-8-9-4-3-0"
       style="overflow:visible">
      <path
         id="path3903-1-9-3-5-6-6"
         style="fill-rule:evenodd;stroke-width:0.625;stroke-linejoin:round"
         d="M 8.7185878,4.0337352 -2.2072895,0.01601326 8.7185884,-4.0017078 c -1.7454984,2.3720609 -1.7354408,5.6174519 -6e-7,8.035443 z"
         transform="matrix(-1.1,0,0,-1.1,-1.1,0)"
         inkscape:connector-curvature="0" />
    </marker>
    <marker
       inkscape:stockid="Arrow2Lend"
       orient="auto"
       refY="0"
       refX="0"
       id="Arrow2Lend-9-8-9-4-1"
       style="overflow:visible">
      <path
         id="path3903-1-9-3-5-5"
         style="fill-rule:evenodd;stroke-width:0.625;stroke-linejoin:round"
         d="M 8.7185878,4.0337352 -2.2072895,0.01601326 8.7185884,-4.0017078 c -1.7454984,2.3720609 -1.7354408,5.6174519 -6e-7,8.035443 z"
         transform="matrix(-1.1,0,0,-1.1,-1.1,0)"
         inkscape:connector-curvature="0" />
    </marker>
    <marker
       inkscape:stockid="Arrow2Lend"
       orient="auto"
       refY="0"
       refX="0"
       id="Arrow2Lend-9-8-9-4-0-5"
       style="overflow:visible">
      <path
         id="path3903-1-9-3-5-63-4"
         style="fill-rule:evenodd;stroke-width:0.625;stroke-linejoin:round"
         d="M 8.7185878,4.0337352 -2.2072895,0.01601326 8.7185884,-4.0017078 c -1.7454984,2.3720609 -1.7354408,5.6174519 -6e-7,8.035443 z"
         transform="matrix(-1.1,0,0,-1.1,-1.1,0)"
         inkscape:connector-curvature="0" />
    </marker>
    <marker
       inkscape:stockid="Arrow2Lend"
       orient="auto"
       refY="0"
       refX="0"
       id="Arrow2Lend-9-8-9-4-3-8"
       style="overflow:visible">
      <path
         id="path3903-1-9-3-5-6-4"
         style="fill-rule:evenodd;stroke-width:0.625;stroke-linejoin:round"
         d="M 8.7185878,4.0337352 -2.2072895,0.01601326 8.7185884,-4.0017078 c -1.7454984,2.3720609 -1.7354408,5.6174519 -6e-7,8.035443 z"
         transform="matrix(-1.1,0,0,-1.1,-1.1,0)"
         inkscape:connector-curvature="0" />
    </marker>
    <marker
       inkscape:stockid="Arrow2Lend"
       orient="auto"
       refY="0"
       refX="0"
       id="Arrow2Lend-9-8-9-4-31"
       style="overflow:visible">
      <path
         id="path3903-1-9-3-5-4"
         style="fill-rule:evenodd;stroke-width:0.625;stroke-linejoin:round"
         d="M 8.7185878,4.0337352 -2.2072895,0.01601326 8.7185884,-4.0017078 c -1.7454984,2.3720609 -1.7354408,5.6174519 -6e-7,8.035443 z"
         transform="matrix(-1.1,0,0,-1.1,-1.1,0)"
         inkscape:connector-curvature="0" />
    </marker>
    <marker
       inkscape:stockid="Arrow2Lend"
       orient="auto"
       refY="0"
       refX="0"
       id="Arrow2Lend-9-8-9-4-0-9"
       style="overflow:visible">
      <path
         id="path3903-1-9-3-5-63-2"
         style="fill-rule:evenodd;stroke-width:0.625;stroke-linejoin:round"
         d="M 8.7185878,4.0337352 -2.2072895,0.01601326 8.7185884,-4.0017078 c -1.7454984,2.3720609 -1.7354408,5.6174519 -6e-7,8.035443 z"
         transform="matrix(-1.1,0,0,-1.1,-1.1,0)"
         inkscape:connector-curvature="0" />
    </marker>
    <marker
       inkscape:stockid="Arrow2Lend"
       orient="auto"
       refY="0"
       refX="0"
       id="Arrow2Lend-9-8-9-4-0-6"
       style="overflow:visible">
      <path
         id="path3903-1-9-3-5-63-1"
         style="fill-rule:evenodd;stroke-width:0.625;stroke-linejoin:round"
         d="M 8.7185878,4.0337352 -2.2072895,0.01601326 8.7185884,-4.0017078 c -1.7454984,2.3720609 -1.7354408,5.6174519 -6e-7,8.035443 z"
         transform="matrix(-1.1,0,0,-1.1,-1.1,0)"
         inkscape:connector-curvature="0" />
    </marker>
    <marker
       style="overflow:visible"
       id="Arrow2Lend-9-9"
       refX="0"
       refY="0"
       orient="auto"
       inkscape:stockid="Arrow2Lend">
      <path
         inkscape:connector-curvature="0"
         transform="matrix(-1.1,0,0,-1.1,-1.1,0)"
         d="M 8.7185878,4.0337352 -2.2072895,0.01601326 8.7185884,-4.0017078 c -1.7454984,2.3720609 -1.7354408,5.6174519 -6e-7,8.035443 z"
         style="fill-rule:evenodd;stroke-width:0.625;stroke-linejoin:round"
         id="path3903-1-4" />
    </marker>
    <marker
       style="overflow:visible"
       id="marker11917"
       refX="0"
       refY="0"
       orient="auto"
       inkscape:stockid="Arrow2Lend">
      <path
         inkscape:connector-curvature="0"
         transform="matrix(-1.1,0,0,-1.1,-1.1,0)"
         d="M 8.7185878,4.0337352 -2.2072895,0.01601326 8.7185884,-4.0017078 c -1.7454984,2.3720609 -1.7354408,5.6174519 -6e-7,8.035443 z"
         style="fill-rule:evenodd;stroke-width:0.625;stroke-linejoin:round"
         id="path11919" />
    </marker>
    <marker
       style="overflow:visible"
       id="marker11921"
       refX="0"
       refY="0"
       orient="auto"
       inkscape:stockid="Arrow2Lend">
      <path
         inkscape:connector-curvature="0"
         transform="matrix(-1.1,0,0,-1.1,-1.1,0)"
         d="M 8.7185878,4.0337352 -2.2072895,0.01601326 8.7185884,-4.0017078 c -1.7454984,2.3720609 -1.7354408,5.6174519 -6e-7,8.035443 z"
         style="fill-rule:evenodd;stroke-width:0.625;stroke-linejoin:round"
         id="path11923" />
    </marker>
    <marker
       inkscape:stockid="Arrow2Lendth"
       orient="auto"
       refY="0"
       refX="0"
       id="Arrow2Lendth"
       style="overflow:visible">
      <path
         id="path6370"
         style="fill:#bdbdbd;fill-rule:evenodd;stroke:#bdbdbd;stroke-width:0.625;stroke-linejoin:round"
         d="M 8.7185878,4.0337352 -2.2072895,0.01601326 8.7185884,-4.0017078 c -1.7454984,2.3720609 -1.7354408,5.6174519 -6e-7,8.035443 z"
         transform="matrix(-1.1,0,0,-1.1,-1.1,0)"
         inkscape:connector-curvature="0" />
    </marker>
    <marker
       inkscape:stockid="Arrow2Lend"
       orient="auto"
       refY="0"
       refX="0"
       id="Arrow2Lend-9-8-9-4-0-90"
       style="overflow:visible">
      <path
         id="path3903-1-9-3-5-63-9"
         style="fill-rule:evenodd;stroke-width:0.625;stroke-linejoin:round"
         d="M 8.7185878,4.0337352 -2.2072895,0.01601326 8.7185884,-4.0017078 c -1.7454984,2.3720609 -1.7354408,5.6174519 -6e-7,8.035443 z"
         transform="matrix(-1.1,0,0,-1.1,-1.1,0)"
         inkscape:connector-curvature="0" />
    </marker>
    <marker
       style="overflow:visible"
       id="Arrow2Lend-9-7"
       refX="0"
       refY="0"
       orient="auto"
       inkscape:stockid="Arrow2Lend">
      <path
         inkscape:connector-curvature="0"
         transform="matrix(-1.1,0,0,-1.1,-1.1,0)"
         d="M 8.7185878,4.0337352 -2.2072895,0.01601326 8.7185884,-4.0017078 c -1.7454984,2.3720609 -1.7354408,5.6174519 -6e-7,8.035443 z"
         style="fill-rule:evenodd;stroke-width:0.625;stroke-linejoin:round"
         id="path3903-1-7" />
    </marker>
    <marker
       style="overflow:visible"
       id="marker14783"
       refX="0"
       refY="0"
       orient="auto"
       inkscape:stockid="Arrow2Lend">
      <path
         inkscape:connector-curvature="0"
         transform="matrix(-1.1,0,0,-1.1,-1.1,0)"
         d="M 8.7185878,4.0337352 -2.2072895,0.01601326 8.7185884,-4.0017078 c -1.7454984,2.3720609 -1.7354408,5.6174519 -6e-7,8.035443 z"
         style="fill-rule:evenodd;stroke-width:0.625;stroke-linejoin:round"
         id="path14785" />
    </marker>
    <marker
       style="overflow:visible"
       id="marker14787"
       refX="0"
       refY="0"
       orient="auto"
       inkscape:stockid="Arrow2Lend">
      <path
         inkscape:connector-curvature="0"
         transform="matrix(-1.1,0,0,-1.1,-1.1,0)"
         d="M 8.7185878,4.0337352 -2.2072895,0.01601326 8.7185884,-4.0017078 c -1.7454984,2.3720609 -1.7354408,5.6174519 -6e-7,8.035443 z"
         style="fill-rule:evenodd;stroke-width:0.625;stroke-linejoin:round"
         id="path14789" />
    </marker>
    <marker
       inkscape:stockid="Arrow2Lendth"
       orient="auto"
       refY="0"
       refX="0"
       id="Arrow2Lendth-1"
       style="overflow:visible">
      <path
         id="path6370-1"
         style="fill:#bdbdbd;fill-rule:evenodd;stroke:#bdbdbd;stroke-width:0.625;stroke-linejoin:round"
         d="M 8.7185878,4.0337352 -2.2072895,0.01601326 8.7185884,-4.0017078 c -1.7454984,2.3720609 -1.7354408,5.6174519 -6e-7,8.035443 z"
         transform="matrix(-1.1,0,0,-1.1,-1.1,0)"
         inkscape:connector-curvature="0" />
    </marker>
    <marker
       inkscape:stockid="Arrow2Lend"
       orient="auto"
       refY="0"
       refX="0"
       id="Arrow2Lend-9-8-9-4-0-90-6"
       style="overflow:visible">
      <path
         id="path3903-1-9-3-5-63-9-5"
         style="fill-rule:evenodd;stroke-width:0.625;stroke-linejoin:round"
         d="M 8.7185878,4.0337352 -2.2072895,0.01601326 8.7185884,-4.0017078 c -1.7454984,2.3720609 -1.7354408,5.6174519 -6e-7,8.035443 z"
         transform="matrix(-1.1,0,0,-1.1,-1.1,0)"
         inkscape:connector-curvature="0" />
    </marker>
    <marker
       inkscape:isstock="true"
       style="overflow:visible"
       id="marker14342-3"
       refX="0"
       refY="0"
       orient="auto"
       inkscape:stockid="Arrow2Lstart">
      <path
         transform="matrix(1.1,0,0,1.1,1.1,0)"
         d="M 8.7185878,4.0337352 -2.2072895,0.01601326 8.7185884,-4.0017078 c -1.7454984,2.3720609 -1.7354408,5.6174519 -6e-7,8.035443 z"
         style="fill:#000000;fill-opacity:1;fill-rule:evenodd;stroke:#000000;stroke-width:0.625;stroke-linejoin:round;stroke-opacity:1"
         id="path14344-9"
         inkscape:connector-curvature="0" />
    </marker>
    <marker
       inkscape:stockid="Arrow2Lend"
       orient="auto"
       refY="0"
       refX="0"
       id="Arrow2Lend-9-8-9-4-8"
       style="overflow:visible">
      <path
         id="path3903-1-9-3-5-1"
         style="fill-rule:evenodd;stroke-width:0.625;stroke-linejoin:round"
         d="M 8.7185878,4.0337352 -2.2072895,0.01601326 8.7185884,-4.0017078 c -1.7454984,2.3720609 -1.7354408,5.6174519 -6e-7,8.035443 z"
         transform="matrix(-1.1,0,0,-1.1,-1.1,0)"
         inkscape:connector-curvature="0" />
    </marker>
  </defs>
  <metadata
     id="metadata8583">
    <rdf:RDF>
      <cc:Work
         rdf:about="">
        <dc:format>image/svg+xml</dc:format>
        <dc:type
           rdf:resource="http://purl.org/dc/dcmitype/StillImage" />
        <dc:title></dc:title>
      </cc:Work>
    </rdf:RDF>
  </metadata>
  <g
     transform="translate(-189.4232,-306.30544)"
     inkscape:label="Layer 1"
     inkscape:groupmode="layer"
     id="layer1">
    <ellipse
       ry="145.74947"
       rx="181.30296"
       cy="467.13992"
       cx="371.47617"
       id="path4138-3"
       style="fill:#c2dcff;fill-opacity:1;stroke:#000000;stroke-width:1.5;stroke-miterlimit:4;stroke-dasharray:none;stroke-opacity:1" />
    <ellipse
       cy="467.79642"
       cx="371.763"
       id="path3336-6"
       style="fill:#f2f2f2;fill-opacity:1;stroke:#000000;stroke-width:1.5;stroke-miterlimit:4;stroke-dasharray:none;stroke-opacity:1"
       rx="136.63411"
       ry="136.55806" />
    <path
       sodipodi:nodetypes="cccc"
       inkscape:connector-curvature="0"
       id="path13371"
       d="m 451.79608,425.01097 23.46347,0.41962 -1.21149,0.19409 64.05412,-39.51592"
       style="fill:none;fill-rule:evenodd;stroke:#7a7a7a;stroke-width:1;stroke-linecap:butt;stroke-linejoin:miter;stroke-miterlimit:4;stroke-dasharray:3, 3;stroke-dashoffset:0;stroke-opacity:1" />
    <path
       inkscape:connector-curvature="0"
       id="path3855-0"
       d="m 371.38509,626.30545 0,-320.00001"
       style="fill:none;stroke:#000000;stroke-width:1;stroke-linecap:butt;stroke-linejoin:miter;stroke-miterlimit:4;stroke-dasharray:2.00000004, 2.00000004;stroke-dashoffset:0;stroke-opacity:1" />
    <g
       style="font-style:normal;font-variant:normal;font-weight:normal;font-stretch:normal;letter-spacing:normal;word-spacing:normal;text-anchor:start;fill:none;stroke:#000000;stroke-width:0.90470231;stroke-linecap:butt;stroke-linejoin:miter;stroke-miterlimit:10.43299961;stroke-dasharray:none;stroke-dashoffset:0;stroke-opacity:1"
       id="g7310"
       transform="matrix(0.44721692,0,0,-0.44652623,123.81136,681.42651)"
       xml:space="preserve"
       stroke-miterlimit="10.433"
       font-style="normal"
       font-variant="normal"
       font-weight="normal"
       font-stretch="normal"
       font-size-adjust="none"
       letter-spacing="normal"
       word-spacing="normal"><path
         style="fill:#000000;stroke-width:0"
         inkscape:connector-curvature="0"
         d="m 472,394.25 0,0.02 0,0.03 0,0.01 0,0.02 0,0.01 -0.01,0.02 0,0.01 -0.01,0.02 -0.01,0.02 -0.01,0.02 -0.01,0.02 -0.02,0.03 -0.01,0.02 -0.02,0.03 -0.02,0.03 -0.03,0.03 -0.02,0.03 -0.03,0.04 -0.02,0.02 -0.01,0.02 -0.02,0.02 -0.02,0.02 -0.02,0.02 -0.02,0.03 -0.02,0.02 -0.02,0.02 -0.02,0.03 -0.03,0.02 -0.02,0.03 -0.03,0.03 -0.03,0.03 -0.02,0.03 -0.03,0.03 -0.03,0.03 -0.03,0.03 -0.03,0.03 -0.04,0.04 -0.03,0.03 -0.04,0.04 -0.03,0.03 -0.04,0.04 -0.04,0.04 c -6.22,6.28 -7.81,15.69 -7.81,23.31 0,8.67 1.89,17.35 8.01,23.56 0.64,0.61 0.64,0.71 0.64,0.86 0,0.35 -0.18,0.49 -0.48,0.49 -0.5,0 -4.98,-3.38 -7.92,-9.7 -2.55,-5.49 -3.14,-11.02 -3.14,-15.21 0,-3.89 0.54,-9.9 3.28,-15.54 2.98,-6.13 7.28,-9.36 7.78,-9.36 0.3,0 0.48,0.14 0.48,0.5 z"
         id="path7312" /><path
         style="fill:#000000;stroke-width:0"
         inkscape:connector-curvature="0"
         d="m 506.98,440.82 0,0.02 0,0.02 -0.01,0.01 0,0.02 0,0.02 -0.01,0.02 0,0.02 -0.01,0.02 0,0.02 -0.01,0.02 -0.01,0.02 -0.01,0.02 -0.01,0.02 -0.01,0.02 -0.02,0.02 -0.01,0.02 -0.02,0.02 -0.02,0.02 -0.01,0.02 -0.02,0.02 -0.03,0.01 -0.02,0.02 -0.02,0.01 -0.03,0.02 -0.03,0.01 -0.03,0.01 -0.01,0.01 -0.02,0 -0.01,0.01 -0.02,0 -0.02,0 -0.02,0.01 -0.01,0 -0.02,0 -0.02,0 -0.02,0 -0.02,0 -0.02,0 c -0.25,0 -0.31,-0.04 -0.91,-0.75 l -2.39,-2.84 c -1.29,2.34 -3.89,3.59 -7.12,3.59 -6.33,0 -12.3,-5.73 -12.3,-11.76 0,-4.03 2.64,-6.33 5.17,-7.06 l 5.33,-1.41 c 1.84,-0.44 4.59,-1.19 4.59,-5.28 0,-4.49 -4.09,-9.16 -8.96,-9.16 -3.19,0 -8.72,1.1 -8.72,7.27 0,1.2 0.25,2.39 0.29,2.69 0.05,0.2 0.1,0.25 0.1,0.35 0,0.5 -0.35,0.55 -0.6,0.55 -0.25,0 -0.34,-0.05 -0.5,-0.2 -0.2,-0.2 -2.98,-11.56 -2.98,-11.7 0,-0.3 0.25,-0.5 0.55,-0.5 0.25,0 0.29,0.04 0.89,0.75 l 2.45,2.82 c 2.14,-2.89 5.52,-3.57 8.41,-3.57 6.78,0 12.65,6.62 12.65,12.79 0,3.44 -1.68,5.14 -2.43,5.83 -1.15,1.16 -1.9,1.34 -6.33,2.5 -1.1,0.3 -2.89,0.8 -3.35,0.89 -1.34,0.45 -3.03,1.89 -3.03,4.53 0,4.05 3.99,8.28 8.72,8.28 4.14,0 7.17,-2.14 7.17,-7.73 0,-1.59 -0.2,-2.49 -0.2,-2.78 0,-0.05 0,-0.5 0.61,-0.5 0.5,0 0.55,0.15 0.73,1 z"
         id="path7314" /><path
         style="fill:#000000;stroke-width:0"
         inkscape:connector-curvature="0"
         d="m 518.43,440.65 0.03,0.06 0.02,0.05 0.02,0.05 0.02,0.05 0.02,0.04 0.02,0.05 0.02,0.04 0.02,0.04 0.01,0.05 0.02,0.04 0.01,0.03 0.01,0.04 0.01,0.04 0.01,0.03 0.01,0.04 0.01,0.03 0.01,0.03 0.01,0.03 0,0.03 0.01,0.03 0,0.03 0.01,0.03 0,0.03 0,0.02 0.01,0.06 0,0.05 0,0.04 0,0.05 c 0,1.08 -0.98,1.92 -2.06,1.92 -1.33,0 -1.73,-1.09 -1.91,-1.64 l -4.61,-15.09 c -0.03,-0.06 -0.17,-0.52 -0.17,-0.56 0,-0.41 1.08,-0.77 1.36,-0.77 0.25,0 0.28,0.08 0.52,0.59 z"
         id="path7316" /><path
         style="fill:#000000;stroke-width:0"
         inkscape:connector-curvature="0"
         d="m 536.75,418.65 0,0.37 -0.01,0.39 -0.01,0.39 -0.01,0.41 -0.04,0.84 -0.06,0.88 -0.08,0.92 -0.11,0.95 -0.13,0.97 -0.17,1.01 -0.19,1.02 -0.23,1.03 -0.27,1.05 -0.3,1.06 -0.35,1.07 -0.4,1.07 -0.21,0.53 -0.22,0.53 -0.24,0.53 -0.25,0.53 c -2.99,6.12 -7.27,9.36 -7.77,9.36 -0.29,0 -0.5,-0.19 -0.5,-0.49 0,-0.15 0,-0.25 0.94,-1.15 4.89,-4.92 7.74,-12.85 7.74,-23.27 0,-8.51 -1.85,-17.28 -8.04,-23.56 -0.64,-0.59 -0.64,-0.7 -0.64,-0.84 0,-0.3 0.21,-0.5 0.5,-0.5 0.5,0 4.97,3.39 7.92,9.71 2.54,5.47 3.13,11 3.13,15.19 z"
         id="path7318" /></g>    <path
       inkscape:connector-curvature="0"
       id="path7082-6-7-19-0"
       d="m 509.80707,386.54434 -57.98424,37.88797"
       style="fill:none;stroke:#000000;stroke-width:1;stroke-linecap:butt;stroke-linejoin:miter;stroke-miterlimit:4;stroke-dasharray:none;stroke-opacity:1;marker-end:url(#Arrow2Lend-9-8-9-4)"
       sodipodi:nodetypes="cc" />
    <path
       sodipodi:nodetypes="cc"
       inkscape:connector-curvature="0"
       id="path7082-6-7-19-0-1"
       d="m 518.40264,384.31389 25.26628,0.13049"
       style="fill:none;stroke:#000000;stroke-width:1;stroke-linecap:butt;stroke-linejoin:miter;stroke-miterlimit:4;stroke-dasharray:none;stroke-opacity:1;marker-end:url(#Arrow2Lend-9-8-9-4-3)" />
    <g
       id="g5525"
       transform="matrix(1.093863,0,0,1.0926298,309.84343,338.03553)">
      <g
         word-spacing="normal"
         letter-spacing="normal"
         font-size-adjust="none"
         font-stretch="normal"
         font-weight="normal"
         font-variant="normal"
         font-style="normal"
         stroke-miterlimit="10.433"
         xml:space="preserve"
         transform="matrix(0.40714286,0,0,-0.40714286,-71.25,227.25)"
         id="g5527"
         style="font-style:normal;font-variant:normal;font-weight:normal;font-stretch:normal;letter-spacing:normal;word-spacing:normal;text-anchor:start;fill:none;stroke:#000000;stroke-width:0.98677295;stroke-linecap:butt;stroke-linejoin:miter;stroke-miterlimit:10.43299961;stroke-dasharray:none;stroke-dashoffset:0;stroke-opacity:1"><path
           id="path5529"
           d="m 459.91,409.14 -0.02,-0.07 -0.01,-0.08 -0.02,-0.07 -0.01,-0.08 -0.04,-0.16 -0.04,-0.16 -0.03,-0.16 -0.04,-0.16 -0.04,-0.16 -0.04,-0.16 -0.01,-0.08 -0.02,-0.07 -0.02,-0.07 -0.01,-0.07 -0.02,-0.07 -0.01,-0.07 -0.01,-0.06 -0.01,-0.06 -0.01,-0.06 -0.01,-0.05 -0.01,-0.05 -0.01,-0.04 -0.01,-0.04 0,-0.04 0,-0.03 0,-0.02 c 0,-0.89 0.7,-1.35 1.43,-1.35 0.61,0 1.5,0.39 1.85,1.39 0.06,0.11 0.65,2.44 0.95,3.69 l 1.1,4.48 c 0.29,1.1 0.59,2.19 0.84,3.35 0.2,0.84 0.61,2.28 0.66,2.48 0.75,1.55 3.39,6.08 8.1,6.08 2.25,0 2.71,-1.84 2.71,-3.48 0,-1.25 -0.36,-2.64 -0.75,-4.14 l -1.39,-5.79 -1,-3.78 c -0.21,-1 -0.66,-2.68 -0.66,-2.93 0,-0.89 0.7,-1.35 1.45,-1.35 1.55,0 1.85,1.25 2.24,2.85 0.7,2.78 2.55,10.06 3,12 0.14,0.65 2.78,6.62 8.22,6.62 2.14,0 2.68,-1.69 2.68,-3.48 0,-2.85 -2.09,-8.52 -3.09,-11.16 -0.45,-1.2 -0.64,-1.75 -0.64,-2.75 0,-2.33 1.73,-4.08 4.08,-4.08 4.69,0 6.53,7.27 6.53,7.67 0,0.5 -0.45,0.5 -0.59,0.5 -0.5,0 -0.5,-0.15 -0.75,-0.9 -0.75,-2.64 -2.35,-6.17 -5.08,-6.17 -0.86,0 -1.21,0.5 -1.21,1.64 0,1.25 0.46,2.45 0.9,3.54 0.95,2.58 3.04,8.11 3.04,10.96 0,3.23 -2,5.32 -5.73,5.32 -3.74,0 -6.27,-2.18 -8.11,-4.82 -0.06,0.65 -0.2,2.34 -1.61,3.53 -1.24,1.04 -2.83,1.29 -4.08,1.29 -4.48,0 -6.92,-3.18 -7.76,-4.32 -0.25,2.84 -2.35,4.32 -4.6,4.32 -2.28,0 -3.23,-1.93 -3.69,-2.82 -0.89,-1.75 -1.54,-4.69 -1.54,-4.85 0,-0.5 0.5,-0.5 0.61,-0.5 0.5,0 0.54,0.07 0.84,1.16 0.84,3.53 1.84,5.92 3.64,5.92 0.8,0 1.55,-0.39 1.55,-2.28 0,-1.05 -0.16,-1.61 -0.8,-4.19 z"
           inkscape:connector-curvature="0"
           style="fill:#000000;stroke-width:0" /><path
           id="path5531"
           d="m 505.82,415.17 0.22,-0.11 0.22,-0.1 0.21,-0.1 0.22,-0.09 0.22,-0.09 0.22,-0.08 0.22,-0.07 0.22,-0.07 0.21,-0.07 0.22,-0.06 0.21,-0.05 0.22,-0.05 0.21,-0.05 0.21,-0.04 0.2,-0.04 0.21,-0.03 0.2,-0.03 0.19,-0.03 0.2,-0.02 0.19,-0.03 0.18,-0.01 0.18,-0.02 0.18,-0.01 0.17,-0.02 0.16,0 0.16,-0.01 0.16,-0.01 0.15,0 0.14,-0.01 0.13,0 0.13,0 0.12,0 0,1.8 c -4.39,0 -4.39,3.33 -4.39,5.58 0,2.23 0,5.57 4.39,5.57 4.39,0 4.39,-3.34 4.39,-5.57 0,-2.25 0,-5.58 -4.39,-5.58 l 0,0 0,-1.8 c 7.17,0 9.92,3.89 9.92,7.38 0,2.34 -1.25,3.98 -2,4.78 1.5,0.79 2.55,0.89 3.1,0.95 -0.11,-0.25 -0.2,-0.7 -0.2,-1 0,-1.25 0.84,-2.14 2.13,-2.14 1.3,0 2.15,0.94 2.15,2.14 0,1.14 -0.85,2.89 -3.15,2.89 -0.73,0 -3.07,-0.16 -5.28,-1.89 -0.89,0.59 -2.98,1.64 -6.67,1.64 -7.17,0 -9.9,-3.89 -9.9,-7.37 0,-2.05 0.98,-4.1 2.57,-5.24 -1.39,-1.73 -1.68,-3.39 -1.68,-4.44 0,-0.73 0.2,-3.18 2.18,-4.78 -0.64,-0.14 -4.28,-1.18 -4.28,-4.33 0,-2.54 2.74,-6.28 12.71,-6.28 l 0,1.8 c -5.99,0 -8.43,2.3 -8.43,4.58 0,3 3.14,3 3.85,3 l 0,0 5.83,0 c 1.54,0 7.17,0 7.17,-3.1 0,-1.79 -1.94,-4.48 -8.42,-4.48 l 0,-1.8 c 8.81,0 12.7,2.94 12.7,6.43 0,1.5 -0.39,4.64 -3.73,6.32 -2.79,1.41 -5.79,1.41 -10.57,1.41 -1.29,0 -3.58,0 -3.83,0.05 -2.2,0.34 -2.75,2.23 -2.75,3.14 0,0.5 0.21,1.23 0.5,1.64 z"
           inkscape:connector-curvature="0"
           style="fill:#000000;stroke-width:0" /></g>    </g>
    <g
       transform="matrix(1.0180494,0,0,1.0169015,-2.3196686,-54.948612)"
       id="g5892">
      <g
         style="font-style:normal;font-variant:normal;font-weight:normal;font-stretch:normal;letter-spacing:normal;word-spacing:normal;text-anchor:start;fill:none;stroke:#000000;stroke-width:0.98282492;stroke-linecap:butt;stroke-linejoin:miter;stroke-miterlimit:10.43299961;stroke-dasharray:none;stroke-dashoffset:0;stroke-opacity:1"
         id="g5894"
         transform="matrix(0.40714286,0,0,-0.40714286,350.47077,616.51096)"
         xml:space="preserve"
         stroke-miterlimit="10.433"
         font-style="normal"
         font-variant="normal"
         font-weight="normal"
         font-stretch="normal"
         font-size-adjust="none"
         letter-spacing="normal"
         word-spacing="normal"><path
           style="fill:#000000;stroke-width:0"
           inkscape:connector-curvature="0"
           d="m 459.91,409.14 -0.02,-0.07 -0.01,-0.08 -0.02,-0.07 -0.01,-0.08 -0.04,-0.16 -0.04,-0.16 -0.03,-0.16 -0.04,-0.16 -0.04,-0.16 -0.04,-0.16 -0.01,-0.08 -0.02,-0.07 -0.02,-0.07 -0.01,-0.07 -0.02,-0.07 -0.01,-0.07 -0.01,-0.06 -0.01,-0.06 -0.01,-0.06 -0.01,-0.05 -0.01,-0.05 -0.01,-0.04 -0.01,-0.04 0,-0.04 0,-0.03 0,-0.02 c 0,-0.89 0.7,-1.35 1.43,-1.35 0.61,0 1.5,0.39 1.85,1.39 0.06,0.11 0.65,2.44 0.95,3.69 l 1.1,4.48 c 0.29,1.1 0.59,2.19 0.84,3.35 0.2,0.84 0.61,2.28 0.66,2.48 0.75,1.55 3.39,6.08 8.1,6.08 2.25,0 2.71,-1.84 2.71,-3.48 0,-1.25 -0.36,-2.64 -0.75,-4.14 l -1.39,-5.79 -1,-3.78 c -0.21,-1 -0.66,-2.68 -0.66,-2.93 0,-0.89 0.7,-1.35 1.45,-1.35 1.55,0 1.85,1.25 2.24,2.85 0.7,2.78 2.55,10.06 3,12 0.14,0.65 2.78,6.62 8.22,6.62 2.14,0 2.68,-1.69 2.68,-3.48 0,-2.85 -2.09,-8.52 -3.09,-11.16 -0.45,-1.2 -0.64,-1.75 -0.64,-2.75 0,-2.33 1.73,-4.08 4.08,-4.08 4.69,0 6.53,7.27 6.53,7.67 0,0.5 -0.45,0.5 -0.59,0.5 -0.5,0 -0.5,-0.15 -0.75,-0.9 -0.75,-2.64 -2.35,-6.17 -5.08,-6.17 -0.86,0 -1.21,0.5 -1.21,1.64 0,1.25 0.46,2.45 0.9,3.54 0.95,2.58 3.04,8.11 3.04,10.96 0,3.23 -2,5.32 -5.73,5.32 -3.74,0 -6.27,-2.18 -8.11,-4.82 -0.06,0.65 -0.2,2.34 -1.61,3.53 -1.24,1.04 -2.83,1.29 -4.08,1.29 -4.48,0 -6.92,-3.18 -7.76,-4.32 -0.25,2.84 -2.35,4.32 -4.6,4.32 -2.28,0 -3.23,-1.93 -3.69,-2.82 -0.89,-1.75 -1.54,-4.69 -1.54,-4.85 0,-0.5 0.5,-0.5 0.61,-0.5 0.5,0 0.54,0.07 0.84,1.16 0.84,3.53 1.84,5.92 3.64,5.92 0.8,0 1.55,-0.39 1.55,-2.28 0,-1.05 -0.16,-1.61 -0.8,-4.19 z"
           id="path5896" /><path
           style="fill:#000000;stroke-width:0"
           inkscape:connector-curvature="0"
           d="m 529.34,424.73 0,0.21 -0.01,0.2 -0.01,0.2 -0.02,0.19 -0.02,0.18 -0.03,0.18 -0.03,0.17 -0.04,0.16 -0.04,0.16 -0.04,0.16 -0.05,0.14 -0.05,0.14 -0.06,0.13 -0.05,0.13 -0.07,0.12 -0.06,0.12 -0.07,0.1 -0.07,0.1 -0.08,0.1 -0.08,0.09 -0.08,0.08 -0.08,0.07 -0.09,0.07 -0.08,0.06 -0.09,0.05 -0.1,0.05 -0.09,0.04 -0.1,0.03 -0.09,0.02 -0.1,0.02 -0.1,0.01 -0.11,0 c -1.29,0 -2.63,-1.18 -2.63,-2.34 0,-0.48 0.23,-1.03 0.73,-1.48 0.86,-0.75 1.75,-2.1 1.75,-4.19 0,-2 -0.95,-4.83 -2.48,-7.13 -1.5,-2.14 -3.35,-3.82 -5.69,-3.82 -2.85,0 -4.39,1.78 -4.83,4.46 0.55,1.3 1.69,4.49 1.69,5.9 0,0.59 -0.25,1.09 -0.89,1.09 -0.41,0 -0.96,-0.11 -1.35,-0.84 -0.55,-1 -1.15,-4.24 -1.15,-6.04 -1.64,-2.34 -3.63,-4.57 -6.77,-4.57 -3.3,0 -4.34,2.93 -4.34,5.71 0,6.24 5.09,11.47 5.09,12.11 0,0.55 -0.41,0.96 -0.95,0.96 -0.66,0 -1,-0.66 -1.3,-1.11 -2.55,-3.69 -4.44,-9.61 -4.44,-14.14 0,-3.44 1.16,-7.13 5.24,-7.13 3.53,0 5.87,2.49 7.67,5.24 0.45,-2.89 2.39,-5.24 5.48,-5.24 3.89,0 6.29,3.03 8.07,6.78 1.2,2.44 3.09,9.21 3.09,12.3 z"
           id="path5898" /><path
           style="fill:#000000;stroke-width:0"
           inkscape:connector-curvature="0"
           d="m 549.55,430.54 -1.18,0 c -0.1,-0.76 -0.46,-2.83 -0.91,-3.17 -0.26,-0.2 -2.95,-0.2 -3.44,-0.2 l -6.42,0 c 3.66,3.23 4.88,4.2 6.97,5.84 2.58,2.06 4.98,4.22 4.98,7.53 0,4.22 -3.68,6.8 -8.15,6.8 -4.31,0 -7.25,-3.03 -7.25,-6.23 0,-1.79 1.5,-1.96 1.86,-1.96 0.83,0 1.84,0.6 1.84,1.85 0,0.62 -0.25,1.84 -2.06,1.84 1.08,2.47 3.45,3.23 5.09,3.23 3.49,0 5.3,-2.7 5.3,-5.53 0,-3.03 -2.16,-5.43 -3.28,-6.68 l -8.39,-8.3 c -0.36,-0.31 -0.36,-0.39 -0.36,-1.36 l 14.36,0 z"
           id="path5900" /><path
           style="fill:#000000;stroke-width:0"
           inkscape:connector-curvature="0"
           d="m 556.04,397.57 -0.01,-0.02 0,-0.03 -0.01,-0.03 -0.01,-0.02 0,-0.03 -0.01,-0.02 0,-0.02 -0.01,-0.03 0,-0.02 -0.01,-0.02 0,-0.02 -0.01,-0.02 0,-0.02 0,-0.02 -0.01,-0.04 -0.01,-0.03 -0.01,-0.03 0,-0.03 -0.01,-0.03 0,-0.03 -0.01,-0.02 0,-0.02 0,-0.03 -0.01,-0.02 0,-0.02 0,-0.01 0,-0.02 -0.01,-0.01 0,-0.02 0,-0.01 0,-0.02 0,-0.01 0,-0.01 0,-0.02 0,-0.02 0,-0.02 c 0,-0.74 0.55,-1.35 1.39,-1.35 1.05,0 1.64,0.91 1.75,1.05 0.23,0.45 1.84,7.13 3.19,12.52 0.98,-2 2.57,-3.35 4.92,-3.35 l -0.05,1.1 c -3.48,0 -4.28,3.98 -4.28,4.43 0,0.21 0.25,1.19 0.39,1.85 1.41,5.58 1.91,7.37 3,9.36 2.14,3.64 4.63,4.73 6.17,4.73 1.85,0 3.44,-1.44 3.44,-4.87 0,-2.75 -1.44,-8.33 -2.78,-10.77 -1.66,-3.14 -4.05,-4.73 -5.94,-4.73 l 0,0 0.05,-1.1 c 5.83,0 12.26,7.03 12.26,14.46 0,5.28 -3.29,8.1 -6.93,8.1 -4.83,0 -10.07,-4.98 -11.55,-11.06 z"
           id="path5902" /><polygon
           style="fill:#000000;stroke-width:0"
           points="586.46,435.44 587.35,434.55 593.13,439.62 598.87,434.55 599.76,435.44 593.13,442.22 "
           id="polygon5904" /><path
           style="fill:#000000;stroke-width:0"
           inkscape:connector-curvature="0"
           d="m 579.68,397.57 -0.01,-0.02 0,-0.03 -0.01,-0.03 0,-0.02 -0.01,-0.03 -0.01,-0.02 0,-0.02 -0.01,-0.03 0,-0.02 -0.01,-0.02 0,-0.02 -0.01,-0.02 0,-0.02 0,-0.02 -0.01,-0.04 -0.01,-0.03 -0.01,-0.03 0,-0.03 -0.01,-0.03 0,-0.03 -0.01,-0.02 0,-0.02 0,-0.03 -0.01,-0.02 0,-0.02 0,-0.01 0,-0.02 -0.01,-0.01 0,-0.02 0,-0.01 0,-0.02 0,-0.01 0,-0.01 0,-0.02 0,-0.02 0,-0.02 c 0,-0.74 0.55,-1.35 1.39,-1.35 1.05,0 1.64,0.91 1.75,1.05 0.23,0.45 1.84,7.13 3.19,12.52 0.98,-2 2.58,-3.35 4.92,-3.35 l -0.05,1.1 c -3.48,0 -4.28,3.98 -4.28,4.43 0,0.21 0.25,1.19 0.39,1.85 1.41,5.58 1.91,7.37 3,9.36 2.14,3.64 4.63,4.73 6.17,4.73 1.85,0 3.44,-1.44 3.44,-4.87 0,-2.75 -1.44,-8.33 -2.78,-10.77 -1.66,-3.14 -4.05,-4.73 -5.94,-4.73 l 0,0 0.05,-1.1 c 5.83,0 12.26,7.03 12.26,14.46 0,5.28 -3.29,8.1 -6.93,8.1 -4.83,0 -10.07,-4.98 -11.55,-11.06 z"
           id="path5906" /><path
           style="fill:#000000;stroke-width:0"
           inkscape:connector-curvature="0"
           d="m 580.76,399.02 0,-0.03 -0.01,-0.03 -0.01,-0.02 0,-0.03 -0.01,-0.02 0,-0.03 -0.01,-0.02 0,-0.02 -0.01,-0.03 0,-0.02 -0.01,-0.02 0,-0.02 -0.01,-0.02 0,-0.02 -0.01,-0.03 -0.01,-0.04 0,-0.03 -0.01,-0.03 0,-0.03 -0.01,-0.02 0,-0.03 -0.01,-0.02 0,-0.02 0,-0.02 -0.01,-0.02 0,-0.02 0,-0.02 0,-0.01 0,-0.02 -0.01,-0.01 0,-0.01 0,-0.02 0,-0.01 0,-0.02 0,-0.02 0,-0.02 c 0,-0.74 0.55,-1.34 1.39,-1.34 1.05,0 1.64,0.9 1.75,1.04 0.24,0.46 1.84,7.13 3.19,12.52 0.98,-2 2.58,-3.35 4.92,-3.35 l -0.05,1.1 c -3.48,0 -4.28,3.98 -4.28,4.43 0,0.21 0.25,1.19 0.39,1.85 1.41,5.58 1.91,7.37 3,9.36 2.14,3.64 4.63,4.73 6.17,4.73 1.85,0 3.44,-1.44 3.44,-4.87 0,-2.75 -1.44,-8.33 -2.78,-10.77 -1.66,-3.14 -4.04,-4.73 -5.94,-4.73 l 0,0 0.05,-1.1 c 5.83,0 12.27,7.03 12.27,14.46 0,5.28 -3.3,8.11 -6.94,8.11 -4.83,0 -10.06,-4.99 -11.55,-11.07 z"
           id="path5908" /><path
           style="fill:#000000;stroke-width:0"
           inkscape:connector-curvature="0"
           d="m 581.84,397.57 -0.01,-0.02 0,-0.03 -0.01,-0.03 0,-0.02 -0.01,-0.03 -0.01,-0.02 0,-0.02 -0.01,-0.03 0,-0.02 -0.01,-0.02 0,-0.02 -0.01,-0.02 0,-0.02 0,-0.02 -0.01,-0.04 -0.01,-0.03 -0.01,-0.03 0,-0.03 -0.01,-0.03 0,-0.03 -0.01,-0.02 0,-0.02 0,-0.03 -0.01,-0.02 0,-0.02 0,-0.01 0,-0.02 -0.01,-0.01 0,-0.02 0,-0.01 0,-0.02 0,-0.01 0,-0.01 0,-0.02 0,-0.02 0,-0.02 c 0,-0.74 0.55,-1.35 1.39,-1.35 1.05,0 1.64,0.91 1.75,1.05 0.23,0.45 1.84,7.13 3.19,12.52 0.98,-2 2.57,-3.35 4.92,-3.35 l -0.05,1.1 c -3.48,0 -4.28,3.98 -4.28,4.43 0,0.21 0.25,1.19 0.39,1.85 1.41,5.58 1.91,7.37 3,9.36 2.14,3.64 4.63,4.73 6.17,4.73 1.85,0 3.44,-1.44 3.44,-4.87 0,-2.75 -1.44,-8.33 -2.78,-10.77 -1.66,-3.14 -4.05,-4.73 -5.94,-4.73 l 0,0 0.05,-1.1 c 5.83,0 12.27,7.03 12.27,14.46 0,5.28 -3.3,8.1 -6.94,8.1 -4.83,0 -10.06,-4.98 -11.55,-11.06 z"
           id="path5910" /></g>    </g>
    <g
       word-spacing="normal"
       letter-spacing="normal"
       font-size-adjust="none"
       font-stretch="normal"
       font-weight="normal"
       font-variant="normal"
       font-style="normal"
       stroke-miterlimit="10.433"
       xml:space="preserve"
       transform="matrix(0.40664808,0,0,-0.40525223,354.80954,501.32326)"
       id="g5203"
       style="font-style:normal;font-variant:normal;font-weight:normal;font-stretch:normal;letter-spacing:normal;word-spacing:normal;text-anchor:start;fill:none;stroke:#000000;stroke-width:1.00293946;stroke-linecap:butt;stroke-linejoin:miter;stroke-miterlimit:10.43299961;stroke-dasharray:none;stroke-dashoffset:0;stroke-opacity:1"><g
         style="stroke-width:1.00293946"
         id="g5043"
         transform="translate(20.725085,2.6803902)"><path
           style="fill:#000000;stroke-width:0"
           inkscape:connector-curvature="0"
           d="m 487.6,440.07 -30.14,0 0,-2.34 5.39,0 0,-29.19 -5.39,0 0,-2.34 c 1.9,0.16 6.93,0.16 9.12,0.16 2.44,0 7.88,0 10.06,-0.16 l 0,2.34 -6.73,0 0,13.46 2.5,0 c 4.78,0 5.23,-2.14 5.23,-5.83 l 2.35,0 0,14 -2.35,0 c 0,-3.69 -0.4,-5.83 -5.23,-5.83 l -2.5,0 0,13.39 6.98,0 c 8.02,0 9.18,-3.83 9.91,-9.66 l 2.34,0 z"
           id="path5205" /><path
           style="fill:#000000;stroke-width:0"
           inkscape:connector-curvature="0"
           d="m 509.83,422.95 -0.02,0 -0.01,-0.01 -0.03,0 -0.04,-0.01 -0.04,0 -0.04,-0.01 -0.05,-0.01 -0.05,-0.01 -0.05,-0.01 -0.05,0 -0.06,-0.01 -0.05,-0.01 -0.06,-0.01 -0.12,-0.02 -0.11,-0.02 -0.06,-0.01 -0.06,-0.01 -0.05,0 -0.06,-0.01 -0.05,-0.01 -0.05,-0.01 -0.05,-0.01 -0.04,0 -0.04,-0.01 -0.04,0 -0.04,-0.01 -0.01,0 -0.02,0 -0.01,0 -0.01,-0.01 -0.02,0 -0.01,0 0,0 -0.01,0 -0.01,0 0,0 c -0.08,0 -0.14,0 -0.32,0.11 -1.26,0.45 -2.76,0.45 -3.42,0.45 l -0.03,-0.97 c 0.88,0 1.56,-0.04 2.44,-0.25 -0.42,-0.28 -0.66,-0.79 -0.66,-1.32 0,-0.21 0.06,-0.97 0.8,-1.39 l 0,-5.58 -8.78,0 0,3.79 c 0,3.07 2.86,4.75 6.2,4.75 l 0.03,0.97 c -4.25,0 -8.7,-1.87 -8.7,-5.68 l 0,-3.83 -3,0 0,-1.25 3,0 0,-11.02 c 0,-1.5 -0.36,-1.5 -2.63,-1.5 l 0,-1.25 c 0.08,0 2.52,0.14 3.91,0.14 1.33,0 2.61,-0.03 3.94,-0.14 l 0,1.25 c -2.27,0 -2.61,0 -2.61,1.5 l 0,11.02 8.64,0 0,-11.02 c 0,-1.5 -0.34,-1.5 -2.61,-1.5 l 0,-1.25 c 0.06,0 2.5,0.14 3.89,0.14 1.33,0 2.62,-0.03 3.94,-0.14 l 0,1.25 c -2.27,0 -2.61,0 -2.61,1.5 z"
           id="path5207" /><path
           style="fill:#000000;stroke-width:0"
           inkscape:connector-curvature="0"
           d="m 526.78,413.75 0,-1.25 c 2.32,0 2.61,-0.25 2.61,-1.96 l 0,-5.97 c 0,-3.06 -1.99,-5.18 -4.63,-5.18 -3.17,0 -3.31,1.5 -3.31,3.28 l 0,11.45 -5.38,-0.37 0,-1.25 c 2.63,0 2.63,-0.11 2.63,-3.22 l 0,-5.22 c 0,-2.41 0,-5.64 5.81,-5.64 0.77,0 3.31,0 4.99,2.92 l 0.03,0 0,-2.92 5.23,0.34 0,1.25 c -2.34,0 -2.62,0.25 -2.62,1.95 l 0,12.16 z"
           id="path5209" /><path
           style="fill:#000000;stroke-width:0"
           inkscape:connector-curvature="0"
           d="m 543.52,420.26 -0.01,0.1 0,0.09 -0.02,0.1 -0.01,0.09 -0.02,0.09 -0.03,0.09 -0.03,0.09 -0.03,0.09 -0.04,0.09 -0.05,0.08 -0.04,0.08 -0.05,0.09 -0.06,0.07 -0.06,0.08 -0.06,0.07 -0.06,0.07 -0.07,0.07 -0.08,0.07 -0.07,0.06 -0.08,0.06 -0.08,0.05 -0.09,0.05 -0.09,0.05 -0.09,0.04 -0.09,0.04 -0.1,0.03 -0.1,0.03 -0.1,0.02 -0.1,0.02 -0.11,0.01 -0.11,0.01 -0.11,0.01 c -1.04,0 -1.98,-0.83 -1.98,-1.99 0,-1.25 1.02,-2.01 1.98,-2.01 1.13,0 2.04,0.86 2.04,2.01 z"
           id="path5211" /><path
           style="fill:#000000;stroke-width:0"
           inkscape:connector-curvature="0"
           d="m 538.22,413.75 0,-1.25 c 2.19,0 2.5,-0.22 2.5,-1.93 l 0,-9.06 c 0,-1.5 -0.34,-1.5 -2.61,-1.5 l 0,-1.25 c 0.06,0 2.5,0.14 3.91,0.14 1.21,0 2.46,-0.03 3.68,-0.14 l 0,1.25 c -2.01,0 -2.37,0 -2.37,1.47 l 0,12.64 z"
           id="path5213" /><path
           style="fill:#000000;stroke-width:0"
           inkscape:connector-curvature="0"
           d="m 559.84,422.56 0,-1.25 c 2.33,0 2.61,-0.25 2.61,-1.95 l 0,-7.22 c -1.28,1.26 -2.95,1.98 -4.88,1.98 l 0.18,-0.97 c 1.67,0 3.17,-0.76 4.14,-2.01 0.42,-0.57 0.42,-0.6 0.42,-1.27 l 0,-7.45 c -0.91,-1.64 -2.67,-3.03 -4.94,-3.03 -1.95,0 -3.36,1.15 -4.05,2.15 -0.7,1.05 -1.1,2.46 -1.1,4.67 0,0.82 0,3.43 1.42,5.07 1.39,1.56 3.09,1.87 4.11,1.87 l -0.18,0.97 c -4.64,0 -8.53,-3.48 -8.53,-7.87 0,-4.35 3.69,-7.83 8.11,-7.83 2.86,0 4.57,1.53 5.16,2.15 l 0,-2.15 5.37,0.34 0,1.25 c -2.34,0 -2.62,0.25 -2.62,1.95 l 0,20.99 z"
           id="path5215" /></g></g>    <path
       style="fill:none;stroke:#000000;stroke-width:0.69999999;stroke-linecap:butt;stroke-linejoin:miter;stroke-miterlimit:4;stroke-dasharray:none;stroke-opacity:1;marker-start:url(#Arrow2Lstart);marker-end:url(#Arrow2Lend-9-9)"
       d="m 373.78703,383.48868 129.54861,0"
       id="path7082-1-8"
       inkscape:connector-curvature="0" />
    <g
       style="fill:#8d8d8d;fill-opacity:1;stroke:#2b2b2b;stroke-width:0.98917848;stroke-opacity:1"
       transform="matrix(1.1419623,0,0,1.1406748,532.13065,361.69519)"
       id="g6101">
      <g
         style="font-style:normal;font-variant:normal;font-weight:normal;font-stretch:normal;letter-spacing:normal;word-spacing:normal;text-anchor:start;fill:#8d8d8d;fill-opacity:1;stroke:#2b2b2b;stroke-width:0.87617975;stroke-linecap:butt;stroke-linejoin:miter;stroke-miterlimit:10.43299961;stroke-dasharray:none;stroke-dashoffset:0;stroke-opacity:1"
         word-spacing="normal"
         letter-spacing="normal"
         font-size-adjust="none"
         font-stretch="normal"
         font-weight="normal"
         font-variant="normal"
         font-style="normal"
         stroke-miterlimit="10.433"
         xml:space="preserve"
         transform="matrix(0.40714286,0,0,-0.40714286,-240.95563,234.82614)"
         id="g6103"><path
           style="fill:#8d8d8d;fill-opacity:1;stroke:#2b2b2b;stroke-width:0;stroke-opacity:1"
           inkscape:connector-curvature="0"
           id="path6105"
           d="m 459.91,409.14 -0.02,-0.07 -0.01,-0.08 -0.02,-0.07 -0.01,-0.08 -0.04,-0.16 -0.04,-0.16 -0.03,-0.16 -0.04,-0.16 -0.04,-0.16 -0.04,-0.16 -0.01,-0.08 -0.02,-0.07 -0.02,-0.07 -0.01,-0.07 -0.02,-0.07 -0.01,-0.07 -0.01,-0.06 -0.01,-0.06 -0.01,-0.06 -0.01,-0.05 -0.01,-0.05 -0.01,-0.04 -0.01,-0.04 0,-0.04 0,-0.03 0,-0.02 c 0,-0.89 0.7,-1.35 1.43,-1.35 0.61,0 1.5,0.39 1.85,1.39 0.06,0.11 0.65,2.44 0.95,3.69 l 1.1,4.48 c 0.29,1.1 0.59,2.19 0.84,3.35 0.2,0.84 0.61,2.28 0.66,2.48 0.75,1.55 3.39,6.08 8.1,6.08 2.25,0 2.71,-1.84 2.71,-3.48 0,-1.25 -0.36,-2.64 -0.75,-4.14 l -1.39,-5.79 -1,-3.78 c -0.21,-1 -0.66,-2.68 -0.66,-2.93 0,-0.89 0.7,-1.35 1.45,-1.35 1.55,0 1.85,1.25 2.24,2.85 0.7,2.78 2.55,10.06 3,12 0.14,0.65 2.78,6.62 8.22,6.62 2.14,0 2.68,-1.69 2.68,-3.48 0,-2.85 -2.09,-8.52 -3.09,-11.16 -0.45,-1.2 -0.64,-1.75 -0.64,-2.75 0,-2.33 1.73,-4.08 4.08,-4.08 4.69,0 6.53,7.27 6.53,7.67 0,0.5 -0.45,0.5 -0.59,0.5 -0.5,0 -0.5,-0.15 -0.75,-0.9 -0.75,-2.64 -2.35,-6.17 -5.08,-6.17 -0.86,0 -1.21,0.5 -1.21,1.64 0,1.25 0.46,2.45 0.9,3.54 0.95,2.58 3.04,8.11 3.04,10.96 0,3.23 -2,5.32 -5.73,5.32 -3.74,0 -6.27,-2.18 -8.11,-4.82 -0.06,0.65 -0.2,2.34 -1.61,3.53 -1.24,1.04 -2.83,1.29 -4.08,1.29 -4.48,0 -6.92,-3.18 -7.76,-4.32 -0.25,2.84 -2.35,4.32 -4.6,4.32 -2.28,0 -3.23,-1.93 -3.69,-2.82 -0.89,-1.75 -1.54,-4.69 -1.54,-4.85 0,-0.5 0.5,-0.5 0.61,-0.5 0.5,0 0.54,0.07 0.84,1.16 0.84,3.53 1.84,5.92 3.64,5.92 0.8,0 1.55,-0.39 1.55,-2.28 0,-1.05 -0.16,-1.61 -0.8,-4.19 z" /><path
           style="fill:#8d8d8d;fill-opacity:1;stroke:#2b2b2b;stroke-width:0;stroke-opacity:1"
           inkscape:connector-curvature="0"
           id="path6107"
           d="m 505.82,415.17 0.22,-0.11 0.22,-0.1 0.21,-0.1 0.22,-0.09 0.22,-0.09 0.22,-0.08 0.22,-0.07 0.22,-0.07 0.21,-0.07 0.22,-0.06 0.21,-0.05 0.22,-0.05 0.21,-0.05 0.21,-0.04 0.2,-0.04 0.21,-0.03 0.2,-0.03 0.19,-0.03 0.2,-0.02 0.19,-0.03 0.18,-0.01 0.18,-0.02 0.18,-0.01 0.17,-0.02 0.16,0 0.16,-0.01 0.16,-0.01 0.15,0 0.14,-0.01 0.13,0 0.13,0 0.12,0 0,1.8 c -4.39,0 -4.39,3.33 -4.39,5.58 0,2.23 0,5.57 4.39,5.57 4.39,0 4.39,-3.34 4.39,-5.57 0,-2.25 0,-5.58 -4.39,-5.58 l 0,0 0,-1.8 c 7.17,0 9.92,3.89 9.92,7.38 0,2.34 -1.25,3.98 -2,4.78 1.5,0.79 2.55,0.89 3.1,0.95 -0.11,-0.25 -0.2,-0.7 -0.2,-1 0,-1.25 0.84,-2.14 2.13,-2.14 1.3,0 2.15,0.94 2.15,2.14 0,1.14 -0.85,2.89 -3.15,2.89 -0.73,0 -3.07,-0.16 -5.28,-1.89 -0.89,0.59 -2.98,1.64 -6.67,1.64 -7.17,0 -9.9,-3.89 -9.9,-7.37 0,-2.05 0.98,-4.1 2.57,-5.24 -1.39,-1.73 -1.68,-3.39 -1.68,-4.44 0,-0.73 0.2,-3.18 2.18,-4.78 -0.64,-0.14 -4.28,-1.18 -4.28,-4.33 0,-2.54 2.74,-6.28 12.71,-6.28 l 0,1.8 c -5.99,0 -8.43,2.3 -8.43,4.58 0,3 3.14,3 3.85,3 l 0,0 5.83,0 c 1.54,0 7.17,0 7.17,-3.1 0,-1.79 -1.94,-4.48 -8.42,-4.48 l 0,-1.8 c 8.81,0 12.7,2.94 12.7,6.43 0,1.5 -0.39,4.64 -3.73,6.32 -2.79,1.41 -5.79,1.41 -10.57,1.41 -1.29,0 -3.58,0 -3.83,0.05 -2.2,0.34 -2.75,2.23 -2.75,3.14 0,0.5 0.21,1.23 0.5,1.64 z" /><path
           style="fill:#8d8d8d;fill-opacity:1;stroke:#2b2b2b;stroke-width:0;stroke-opacity:1"
           inkscape:connector-curvature="0"
           id="path6109"
           d="m 544.05,401.9 0.06,0 0.07,0 0.06,0 0.06,0 0.06,0 0.05,0 0.05,0.01 0.05,0 0.05,0.01 0.04,0 0.04,0.01 0.04,0.01 0.04,0.01 0.03,0.01 0.03,0.02 0.03,0.02 0.03,0.02 0.03,0.02 0.02,0.02 0.02,0.03 0.02,0.03 0.02,0.03 0.01,0.02 0.01,0.02 0,0.02 0.01,0.02 0.01,0.02 0,0.02 0.01,0.02 0,0.03 0.01,0.02 0,0.03 0.01,0.02 0,0.03 0,0.03 0,0.03 0.01,0.03 0,0.03 0,0.04 0,0.03 0,0.03 0,0.04 c 0,3.06 -1.72,6.83 -6.91,6.83 -4.56,0 -8.04,-3.63 -8.04,-7.92 0,-4.43 3.87,-7.97 8.5,-7.97 4.7,0 6.45,3.76 6.45,4.53 0,0.14 -0.08,0.48 -0.59,0.48 -0.46,0 -0.53,-0.22 -0.63,-0.56 -1.09,-2.81 -3.73,-3.34 -4.98,-3.34 -1.64,0 -3.21,0.73 -4.25,2.06 -1.3,1.62 -1.33,3.75 -1.33,5.11 l 0.03,0.9 c 0.39,4.93 3.52,5.72 4.84,5.72 4.29,0 4.43,-4.84 4.47,-5.72 l -9.31,0 -0.03,-0.9 z" /><path
           style="fill:#8d8d8d;fill-opacity:1;stroke:#2b2b2b;stroke-width:0;stroke-opacity:1"
           inkscape:connector-curvature="0"
           id="path6111"
           d="m 564.66,407.73 4.39,0 0,1.25 -4.53,0 0,3.9 c 0,3.14 1.85,4.64 3.43,4.64 0.31,0 0.65,-0.07 1,-0.18 -0.49,-0.27 -0.77,-0.83 -0.77,-1.39 0,-0.94 0.67,-1.6 1.61,-1.6 0.94,0 1.59,0.66 1.59,1.6 0,1.5 -1.48,2.54 -3.4,2.54 -1.25,0 -2.78,-0.39 -4.05,-1.47 -1.14,1.27 -3.2,1.47 -4.56,1.47 l -0.11,-0.97 c 0.31,0 1.81,0 2.97,-0.56 -0.39,-0.14 -0.97,-0.59 -0.97,-1.5 0,-0.48 0.17,-1.08 0.86,-1.42 -0.07,-0.36 -0.07,-0.81 -0.07,-1.16 l 0,-3.9 -8.78,0 0,3.79 c 0,3.39 3.41,4.75 5.99,4.75 l 0.11,0.97 c -3.8,0 -8.57,-1.75 -8.57,-5.69 l 0,-3.82 -3,0 0,-1.25 3,0 0,-11.02 c 0,-1.5 -0.35,-1.5 -2.62,-1.5 l 0,-1.25 c 0.08,0 2.52,0.14 3.91,0.14 1.32,0 2.61,-0.03 3.93,-0.14 l 0,1.25 c -2.26,0 -2.61,0 -2.61,1.5 l 0,11.02 8.64,0 0,-11.02 c 0,-1.5 -0.34,-1.5 -2.6,-1.5 l 0,-1.25 c 0.17,0 2.53,0.14 3.96,0.14 1.5,0 3.04,-0.08 4.54,-0.14 l 0,1.25 -0.71,0 c -2.58,0 -2.58,0.39 -2.58,1.58 z" /></g>    </g>
    <path
       sodipodi:nodetypes="cc"
       inkscape:connector-curvature="0"
       id="path14334"
       d="m 474.67903,424.94858 38.36115,-38.53052"
       style="fill:none;fill-rule:evenodd;stroke:#a6a3a3;stroke-width:1;stroke-linecap:butt;stroke-linejoin:miter;stroke-miterlimit:4;stroke-dasharray:none;stroke-opacity:1;marker-start:url(#marker14342)" />
    <rect
       style="fill:#4362ff;fill-opacity:1;stroke:#000000;stroke-width:1.00000024;stroke-miterlimit:100;stroke-dasharray:none;stroke-opacity:1"
       id="rect8644"
       width="13.247857"
       height="13.243016"
       x="185.76282"
       y="604.8421"
       ry="3.7837152"
       transform="matrix(0.81395967,-0.58092139,0.58178963,0.81333931,0,0)" />
    <path
       style="fill:none;stroke:#000000;stroke-width:0.99999982px;stroke-linecap:butt;stroke-linejoin:miter;stroke-opacity:1;marker-end:url(#Arrow2Lend-9-7)"
       d="m 371.32237,477.32988 0,-76.26273"
       id="path7082-6"
       inkscape:connector-curvature="0" />
    <g
       style="font-style:normal;font-variant:normal;font-weight:normal;font-stretch:normal;letter-spacing:normal;word-spacing:normal;text-anchor:start;fill:none;stroke:#000000;stroke-width:2.08957291;stroke-linecap:butt;stroke-linejoin:miter;stroke-miterlimit:10.43299961;stroke-dasharray:none;stroke-dashoffset:0;stroke-opacity:1"
       id="g6736"
       transform="matrix(0.52771664,0,0,-0.49039297,105.36185,616.11127)"
       xml:space="preserve"
       stroke-miterlimit="10.433"
       font-style="normal"
       font-variant="normal"
       font-weight="normal"
       font-stretch="normal"
       font-size-adjust="none"
       letter-spacing="normal"
       word-spacing="normal"><path
         style="fill:#000000;stroke-width:0"
         inkscape:connector-curvature="0"
         d="m 462.14,410.34 0.25,0.27 0.24,0.25 0.24,0.25 0.23,0.24 0.22,0.23 0.22,0.22 0.21,0.22 0.2,0.21 0.2,0.2 0.2,0.19 0.19,0.19 0.19,0.19 0.18,0.17 0.19,0.18 0.35,0.33 0.34,0.32 0.33,0.3 0.33,0.29 0.32,0.29 0.65,0.56 0.33,0.29 0.33,0.28 c 0,0.05 3.08,2.69 4.88,4.49 4.73,4.64 5.83,7.03 5.83,7.21 0,0.5 -0.46,0.5 -0.55,0.5 -0.35,0 -0.5,-0.09 -0.75,-0.54 -1.49,-2.39 -2.53,-3.19 -3.74,-3.19 -1.2,0 -1.79,0.75 -2.54,1.59 -0.94,1.16 -1.78,2.14 -3.44,2.14 -3.73,0 -6.02,-4.62 -6.02,-5.67 0,-0.25 0.14,-0.54 0.6,-0.54 0.45,0 0.54,0.25 0.64,0.54 0.95,2.3 3.84,2.35 4.23,2.35 1.05,0 2,-0.36 3.14,-0.75 2,-0.75 2.55,-0.75 3.85,-0.75 -1.8,-2.14 -5.99,-5.74 -6.92,-6.53 l -4.49,-4.18 c -3.39,-3.34 -5.14,-6.18 -5.14,-6.53 0,-0.5 0.5,-0.5 0.59,-0.5 0.41,0 0.5,0.1 0.8,0.64 1.16,1.75 2.64,3.1 4.24,3.1 1.15,0 1.65,-0.46 2.89,-1.89 0.86,-1.05 1.75,-1.85 3.18,-1.85 4.94,0 7.83,6.33 7.83,7.67 0,0.25 -0.2,0.5 -0.59,0.5 -0.46,0 -0.55,-0.29 -0.71,-0.65 -1.14,-3.24 -4.32,-4.17 -5.98,-4.17 -0.98,0 -1.89,0.29 -2.94,0.64 -1.68,0.64 -2.43,0.84 -3.48,0.84 -0.1,0 -0.89,0 -1.35,-0.14 z"
         id="path6738" /><path
         style="fill:#000000;stroke-width:0"
         inkscape:connector-curvature="0"
         d="m 490.95,440.65 0.02,0.06 0.03,0.05 0.02,0.05 0.02,0.05 0.02,0.04 0.02,0.05 0.02,0.04 0.02,0.04 0.01,0.05 0.02,0.04 0.01,0.03 0.01,0.04 0.01,0.04 0.01,0.03 0.01,0.04 0.01,0.03 0.01,0.03 0.01,0.03 0,0.03 0.01,0.03 0,0.03 0.01,0.03 0,0.03 0,0.02 0.01,0.06 0,0.05 0,0.04 0,0.05 c 0,1.08 -0.98,1.92 -2.06,1.92 -1.33,0 -1.74,-1.09 -1.91,-1.64 l -4.61,-15.09 c -0.03,-0.06 -0.17,-0.52 -0.17,-0.56 0,-0.41 1.08,-0.77 1.36,-0.77 0.25,0 0.28,0.08 0.52,0.59 z"
         id="path6740" /></g>    <path
       sodipodi:nodetypes="cc"
       inkscape:connector-curvature="0"
       id="path14334-4"
       d="m 557.23654,343.04169 -38.23488,38.40425"
       style="fill:none;fill-rule:evenodd;stroke:#000000;stroke-width:1;stroke-linecap:butt;stroke-linejoin:miter;stroke-miterlimit:4;stroke-dasharray:none;stroke-opacity:1;marker-start:url(#marker14342-3)" />
    <g
       id="g17114"
       transform="translate(303.57143,256.60714)">
      <g
         word-spacing="normal"
         letter-spacing="normal"
         font-size-adjust="none"
         font-stretch="normal"
         font-weight="normal"
         font-variant="normal"
         font-style="normal"
         stroke-miterlimit="10.433"
         xml:space="preserve"
         transform="matrix(0.45714286,0,0,-0.45714286,-80,303.75)"
         id="content"
         style="font-style:normal;font-variant:normal;font-weight:normal;font-stretch:normal;letter-spacing:normal;word-spacing:normal;text-anchor:start;fill:none;fill-opacity:1;fill-rule:evenodd;stroke:#000000;stroke-linecap:butt;stroke-linejoin:miter;stroke-miterlimit:10.43299961;stroke-dasharray:none;stroke-dashoffset:0;stroke-opacity:1"><path
           id="path17117"
           d="m 457.64,397.38 0,-0.02 -0.01,-0.03 0,-0.03 -0.01,-0.02 -0.01,-0.03 0,-0.02 -0.01,-0.03 0,-0.02 -0.01,-0.02 0,-0.02 -0.01,-0.02 0,-0.02 -0.01,-0.02 0,-0.02 -0.01,-0.04 -0.01,-0.03 -0.01,-0.04 0,-0.03 -0.01,-0.03 0,-0.02 -0.01,-0.03 0,-0.02 -0.01,-0.02 0,-0.02 0,-0.02 0,-0.02 -0.01,-0.02 0,-0.01 0,-0.02 0,-0.01 0,-0.01 0,-0.01 0,-0.02 0,-0.02 0,-0.02 0,-0.01 c 0,-0.75 0.54,-1.35 1.39,-1.35 1.04,0 1.64,0.9 1.74,1.05 0.25,0.44 1.85,7.12 3.19,12.5 1,-1.99 2.59,-3.34 4.93,-3.34 l -0.05,1.1 c -3.49,0 -4.28,3.98 -4.28,4.43 0,0.2 0.25,1.2 0.4,1.84 1.39,5.58 1.89,7.38 2.98,9.37 2.15,3.63 4.64,4.73 6.18,4.73 1.84,0 3.44,-1.44 3.44,-4.88 0,-2.74 -1.44,-8.32 -2.79,-10.76 -1.65,-3.14 -4.04,-4.73 -5.93,-4.73 l 0,0 0.05,-1.1 c 5.83,0 12.26,7.03 12.26,14.45 0,5.28 -3.29,8.12 -6.93,8.12 -4.83,0 -10.06,-4.98 -11.55,-11.06 z"
           inkscape:connector-curvature="0"
           style="fill:#000000;stroke-width:0" /></g>    </g>
    <path
       inkscape:connector-curvature="0"
       id="path7082-6-7-19-0-2"
       d="M 452.87524,424.02461 371.90129,477.1063"
       style="fill:none;stroke:#000000;stroke-width:1;stroke-linecap:butt;stroke-linejoin:miter;stroke-miterlimit:4;stroke-dasharray:3, 3;stroke-opacity:1;marker-end:;stroke-dashoffset:0"
       sodipodi:nodetypes="cc" />
    <g
       transform="matrix(1.0657065,0,0,1.0657065,247.92666,309.72116)"
       id="g17763">
      <g
         style="font-style:normal;font-variant:normal;font-weight:normal;font-stretch:normal;letter-spacing:normal;word-spacing:normal;text-anchor:start;fill:none;fill-opacity:1;fill-rule:evenodd;stroke:#000000;stroke-width:0.93834466;stroke-linecap:butt;stroke-linejoin:miter;stroke-miterlimit:10.43299961;stroke-dasharray:none;stroke-dashoffset:0;stroke-opacity:1"
         id="g17765"
         transform="matrix(0.45714286,0,0,-0.45714286,-80,315)"
         xml:space="preserve"
         stroke-miterlimit="10.433"
         font-style="normal"
         font-variant="normal"
         font-weight="normal"
         font-stretch="normal"
         font-size-adjust="none"
         letter-spacing="normal"
         word-spacing="normal"><path
           style="fill:#000000;stroke-width:0"
           inkscape:connector-curvature="0"
           d="m 478.66,430.91 0,0.31 -0.01,0.34 -0.01,0.36 -0.02,0.37 -0.03,0.38 -0.04,0.4 -0.05,0.41 -0.06,0.41 -0.06,0.42 -0.08,0.42 -0.09,0.43 -0.1,0.42 -0.11,0.43 -0.13,0.42 -0.13,0.41 -0.16,0.4 -0.17,0.4 -0.18,0.39 -0.2,0.37 -0.22,0.35 -0.23,0.34 -0.25,0.32 -0.27,0.3 -0.29,0.27 -0.31,0.25 -0.17,0.12 -0.16,0.11 -0.18,0.1 -0.17,0.09 -0.19,0.09 -0.19,0.07 -0.19,0.07 -0.2,0.06 -0.21,0.06 -0.21,0.04 -0.21,0.03 -0.23,0.03 -0.23,0.01 -0.23,0.01 -0.05,-1.1 c 2.44,0 2.74,-3.18 2.74,-6.02 0,-2.45 -0.4,-4.99 -1.59,-9.92 l -10.42,0 c 0.85,3.19 1.84,7.17 3.84,10.71 1.34,2.44 3.18,5.23 5.43,5.23 l 0.05,1.1 c -6.93,0 -14.6,-14.05 -14.6,-25.46 0,-4.68 1.45,-10.21 5.98,-10.21 l 0,1.1 c -1.64,0 -2.69,1.44 -2.69,6.07 0,2.1 0.3,4.99 1.59,9.87 l 10.37,0 c -0.55,-2.29 -1.6,-6.53 -3.49,-10.11 -1.74,-3.39 -3.64,-5.83 -5.78,-5.83 l 0,-1.1 c 7.02,0 14.59,14.3 14.59,25.46 z"
           id="path17767" /></g>    </g>
    <path
       sodipodi:open="true"
       d="m 371.92897,449.1666 a 28.24618,28.075762 0 0 1 23.18098,12.45585"
       sodipodi:end="5.693264"
       sodipodi:start="4.7226967"
       sodipodi:ry="28.075762"
       sodipodi:rx="28.24618"
       sodipodi:cy="477.24088"
       sodipodi:cx="371.63782"
       sodipodi:type="arc"
       id="path17888"
       style="opacity:1;fill:none;fill-opacity:1;stroke:#000000;stroke-width:1;stroke-linejoin:miter;stroke-miterlimit:4;stroke-dasharray:none;stroke-dashoffset:0;stroke-opacity:1" />
    <g
       id="g18012"
       transform="matrix(0.97719199,0,0,0.97719199,297.45429,343.84914)"
       inkscape:transform-center-x="-9.4229223"
       inkscape:transform-center-y="7.6779385">
      <g
         word-spacing="normal"
         letter-spacing="normal"
         font-size-adjust="none"
         font-stretch="normal"
         font-weight="normal"
         font-variant="normal"
         font-style="normal"
         stroke-miterlimit="10.433"
         xml:space="preserve"
         transform="matrix(0.45714286,0,0,-0.45714286,-80,315)"
         id="g18014"
         style="font-style:normal;font-variant:normal;font-weight:normal;font-stretch:normal;letter-spacing:normal;word-spacing:normal;text-anchor:start;fill:none;fill-opacity:1;fill-rule:evenodd;stroke:#000000;stroke-width:1.02334034;stroke-linecap:butt;stroke-linejoin:miter;stroke-miterlimit:10.43299961;stroke-dasharray:none;stroke-dashoffset:0;stroke-opacity:1"><path
           id="path18016"
           d="m 490.13641,436.19826 0.48,0.11 0.47,0.12 0.49,0.14 0.48,0.15 0.48,0.16 0.48,0.18 0.48,0.19 0.48,0.2 0.47,0.22 0.46,0.23 0.46,0.24 0.45,0.25 0.44,0.27 0.43,0.28 0.42,0.29 0.4,0.3 0.39,0.31 0.37,0.32 0.35,0.34 0.34,0.35 0.32,0.35 0.29,0.37 0.28,0.38 0.25,0.39 0.22,0.4 0.2,0.41 0.17,0.42 0.15,0.43 0.11,0.44 0.09,0.45 0.05,0.45 0.01,0.47 c 0,4.29 -4.48,7.47 -11.01,7.47 l -14.19,0 c -1,0 -1.45,0 -1.45,-0.99 0,-0.55 0.45,-0.55 1.4,-0.55 0.1,0 1.04,0 1.89,-0.1 0.9,-0.1 1.34,-0.15 1.34,-0.8 0,-0.2 -0.04,-0.35 -0.2,-0.94 l -6.67,-26.75 c -0.5,-1.95 -0.6,-2.35 -4.53,-2.35 -0.9,0 -1.35,0 -1.35,-0.99 0,-0.55 0.6,-0.55 0.7,-0.55 l 12.6,0 c 0.4,0 1,0 1,1 0,0.54 -0.45,0.54 -1.39,0.54 -1.85,0 -3.24,0 -3.24,0.9 0,0.3 0.09,0.55 0.15,0.85 l 3.28,13.2 5.93,0 -0.05,1.1 -5.58,0 3.24,13 c 0.3,1.19 0.45,1.69 1.39,1.84 0.45,0.05 2.05,0.05 3.04,0.05 3.54,0 9.07,0 9.07,-4.93 0,-1.7 -0.8,-5.14 -2.74,-7.08 -1.3,-1.29 -3.94,-2.88 -8.42,-2.88 l 0.05,-1.1 c 4.54,0 5.43,-2.79 5.43,-4.53 0,-0.75 -0.4,-2.3 -0.7,-3.44 -0.35,-1.4 -0.79,-3.24 -0.79,-4.23 0,-5.39 5.97,-5.39 6.62,-5.39 4.24,0 5.98,5.03 5.98,5.73 0,0.6 -0.55,0.6 -0.6,0.6 -0.45,0 -0.55,-0.35 -0.65,-0.7 -1.24,-3.68 -3.38,-4.53 -4.53,-4.53 -1.64,0 -1.99,1.1 -1.99,3.04 0,1.54 0.3,4.08 0.5,5.68 0.1,0.69 0.2,1.64 0.2,2.34 0,3.83 -3.34,5.38 -4.69,5.88 z"
           inkscape:connector-curvature="0"
           style="fill:#000000;stroke-width:0" /></g>    </g>
  </g>
</svg>
