<?xml version="1.0" encoding="UTF-8" standalone="no"?>
<!-- Created with Inkscape (http://www.inkscape.org/) -->

<svg
   xmlns:dc="http://purl.org/dc/elements/1.1/"
   xmlns:cc="http://creativecommons.org/ns#"
   xmlns:rdf="http://www.w3.org/1999/02/22-rdf-syntax-ns#"
   xmlns:svg="http://www.w3.org/2000/svg"
   xmlns="http://www.w3.org/2000/svg"
   xmlns:sodipodi="http://sodipodi.sourceforge.net/DTD/sodipodi-0.dtd"
   xmlns:inkscape="http://www.inkscape.org/namespaces/inkscape"
   sodipodi:docname="rotating-bucket.png"
   inkscape:version="0.48.5 r10040"
   version="1.1"
   id="svg2"
   height="290"
   width="452">
  <sodipodi:namedview
     id="base"
     pagecolor="#ffffff"
     bordercolor="#666666"
     borderopacity="1.0"
     inkscape:pageopacity="0.0"
     inkscape:pageshadow="2"
     inkscape:zoom="1.4"
     inkscape:cx="91.619123"
     inkscape:cy="134.99793"
     inkscape:document-units="px"
     showgrid="false"
     inkscape:window-width="1920"
     inkscape:window-height="1029"
     inkscape:window-x="0"
     inkscape:window-y="27"
     inkscape:window-maximized="1"
     inkscape:current-layer="svg2"
     fit-margin-top="0"
     fit-margin-left="0"
     fit-margin-right="0"
     fit-margin-bottom="0" />
  <defs
     id="defs4">
    <marker
       inkscape:stockid="Arrow2Lend"
       orient="auto"
       refY="0"
       refX="0"
       id="Arrow2Lend"
       style="overflow:visible">
      <path
         id="path3903"
         style="fill-rule:evenodd;stroke-width:0.625;stroke-linejoin:round"
         d="M 8.7185878,4.0337352 -2.2072895,0.01601326 8.7185884,-4.0017078 c -1.7454984,2.3720609 -1.7354408,5.6174519 -6e-7,8.035443 z"
         transform="matrix(-1.1,0,0,-1.1,-1.1,0)"
         inkscape:connector-curvature="0" />
    </marker>
    <marker
       inkscape:stockid="Arrow1Lend"
       orient="auto"
       refY="0"
       refX="0"
       id="Arrow1Lend"
       style="overflow:visible">
      <path
         id="path3885"
         d="M 0,0 5,-5 -12.5,0 5,5 0,0 z"
         style="fill-rule:evenodd;stroke:#000000;stroke-width:1pt"
         transform="matrix(-0.8,0,0,-0.8,-10,0)"
         inkscape:connector-curvature="0" />
    </marker>
    <inkscape:path-effect
       effect="spiro"
       id="path-effect3845"
       is_visible="true" />
    <inkscape:path-effect
       effect="spiro"
       id="path-effect3012"
       is_visible="true" />
    <inkscape:path-effect
       effect="spiro"
       id="path-effect2987"
       is_visible="true" />
    <inkscape:path-effect
       effect="spiro"
       id="path-effect3012-2"
       is_visible="true" />
    <marker
       inkscape:stockid="Arrow2Lend"
       orient="auto"
       refY="0"
       refX="0"
       id="Arrow2Lend-9"
       style="overflow:visible">
      <path
         inkscape:connector-curvature="0"
         id="path3903-7"
         style="fill-rule:evenodd;stroke-width:0.625;stroke-linejoin:round"
         d="M 8.7185878,4.0337352 -2.2072895,0.01601326 8.7185884,-4.0017078 c -1.7454984,2.3720609 -1.7354408,5.6174519 -6e-7,8.035443 z"
         transform="matrix(-1.1,0,0,-1.1,-1.1,0)" />
    </marker>
    <marker
       inkscape:stockid="Arrow2Lend"
       orient="auto"
       refY="0"
       refX="0"
       id="Arrow2Lend-99"
       style="overflow:visible">
      <path
         inkscape:connector-curvature="0"
         id="path3903-79"
         style="fill-rule:evenodd;stroke-width:0.625;stroke-linejoin:round"
         d="M 8.7185878,4.0337352 -2.2072895,0.01601326 8.7185884,-4.0017078 c -1.7454984,2.3720609 -1.7354408,5.6174519 -6e-7,8.035443 z"
         transform="matrix(-1.1,0,0,-1.1,-1.1,0)" />
    </marker>
    <marker
       inkscape:stockid="Arrow2Lend"
       orient="auto"
       refY="0"
       refX="0"
       id="Arrow2Lend-1"
       style="overflow:visible">
      <path
         inkscape:connector-curvature="0"
         id="path3903-0"
         style="fill-rule:evenodd;stroke-width:0.625;stroke-linejoin:round"
         d="M 8.7185878,4.0337352 -2.2072895,0.01601326 8.7185884,-4.0017078 c -1.7454984,2.3720609 -1.7354408,5.6174519 -6e-7,8.035443 z"
         transform="matrix(-1.1,0,0,-1.1,-1.1,0)" />
    </marker>
    <marker
       inkscape:stockid="Arrow2Lend"
       orient="auto"
       refY="0"
       refX="0"
       id="Arrow2Lend-2"
       style="overflow:visible">
      <path
         inkscape:connector-curvature="0"
         id="path3903-6"
         style="fill-rule:evenodd;stroke-width:0.625;stroke-linejoin:round"
         d="M 8.7185878,4.0337352 -2.2072895,0.01601326 8.7185884,-4.0017078 c -1.7454984,2.3720609 -1.7354408,5.6174519 -6e-7,8.035443 z"
         transform="matrix(-1.1,0,0,-1.1,-1.1,0)" />
    </marker>
    <marker
       inkscape:stockid="Arrow2Lstart"
       orient="auto"
       refY="0"
       refX="0"
       id="Arrow2Lstart"
       style="overflow:visible">
      <path
         inkscape:connector-curvature="0"
         id="path6896"
         style="fill-rule:evenodd;stroke-width:0.625;stroke-linejoin:round"
         d="M 8.7185878,4.0337352 -2.2072895,0.01601326 8.7185884,-4.0017078 c -1.7454984,2.3720609 -1.7354408,5.6174519 -6e-7,8.035443 z"
         transform="matrix(1.1,0,0,1.1,1.1,0)" />
    </marker>
    <marker
       inkscape:stockid="Arrow2Lstart"
       orient="auto"
       refY="0"
       refX="0"
       id="Arrow2Lstart-6"
       style="overflow:visible">
      <path
         inkscape:connector-curvature="0"
         id="path6896-9"
         style="fill-rule:evenodd;stroke-width:0.625;stroke-linejoin:round"
         d="M 8.7185878,4.0337352 -2.2072895,0.01601326 8.7185884,-4.0017078 c -1.7454984,2.3720609 -1.7354408,5.6174519 -6e-7,8.035443 z"
         transform="matrix(1.1,0,0,1.1,1.1,0)" />
    </marker>
    <marker
       inkscape:stockid="Arrow2Lend"
       orient="auto"
       refY="0"
       refX="0"
       id="Arrow2Lend-0"
       style="overflow:visible">
      <path
         id="path3903-2"
         style="fill-rule:evenodd;stroke-width:0.625;stroke-linejoin:round"
         d="M 8.7185878,4.0337352 -2.2072895,0.01601326 8.7185884,-4.0017078 c -1.7454984,2.3720609 -1.7354408,5.6174519 -6e-7,8.035443 z"
         transform="matrix(-1.1,0,0,-1.1,-1.1,0)"
         inkscape:connector-curvature="0" />
    </marker>
    <marker
       inkscape:stockid="Arrow2Lend"
       orient="auto"
       refY="0"
       refX="0"
       id="marker5049"
       style="overflow:visible">
      <path
         id="path5051"
         style="fill-rule:evenodd;stroke-width:0.625;stroke-linejoin:round"
         d="M 8.7185878,4.0337352 -2.2072895,0.01601326 8.7185884,-4.0017078 c -1.7454984,2.3720609 -1.7354408,5.6174519 -6e-7,8.035443 z"
         transform="matrix(-1.1,0,0,-1.1,-1.1,0)"
         inkscape:connector-curvature="0" />
    </marker>
    <marker
       inkscape:stockid="Arrow2Lend"
       orient="auto"
       refY="0"
       refX="0"
       id="marker5053"
       style="overflow:visible">
      <path
         id="path5055"
         style="fill-rule:evenodd;stroke-width:0.625;stroke-linejoin:round"
         d="M 8.7185878,4.0337352 -2.2072895,0.01601326 8.7185884,-4.0017078 c -1.7454984,2.3720609 -1.7354408,5.6174519 -6e-7,8.035443 z"
         transform="matrix(-1.1,0,0,-1.1,-1.1,0)"
         inkscape:connector-curvature="0" />
    </marker>
    <inkscape:path-effect
       effect="spiro"
       id="path-effect3845-7"
       is_visible="true" />
    <inkscape:path-effect
       effect="spiro"
       id="path-effect3012-2-5"
       is_visible="true" />
    <inkscape:path-effect
       effect="spiro"
       id="path-effect3012-1"
       is_visible="true" />
  </defs>
  <metadata
     id="metadata7">
    <rdf:RDF>
      <cc:Work
         rdf:about="">
        <dc:format>image/svg+xml</dc:format>
        <dc:type
           rdf:resource="http://purl.org/dc/dcmitype/StillImage" />
        <dc:title></dc:title>
      </cc:Work>
    </rdf:RDF>
  </metadata>
  <g
     inkscape:label="Layer 1"
     inkscape:groupmode="layer"
     id="layer1"
     transform="translate(-150.53425,-3.2943743)">
    <path
       style="fill:#f8f7ff;fill-opacity:1;stroke:#9578ff;stroke-width:0;stroke-linecap:butt;stroke-linejoin:miter;stroke-miterlimit:4;stroke-opacity:1;stroke-dasharray:none;stroke-dashoffset:0"
       d="m 234.82074,290.98496 c -29.53167,-1.6878 -52.12369,-8.73022 -56.09926,-17.48738 -0.7458,-1.6428 -0.73962,-2.70569 0.0244,-4.20376 l 0.61679,-1.20928 -0.67909,-0.36353 c -0.54482,-0.29164 -0.7079,-0.27861 -0.82478,0.0659 -0.1442,0.42497 -18.80721,-133.22225 -18.81101,-134.70696 -0.001,-0.42374 0.73305,1.03241 1.63143,3.23588 4.69297,11.51073 10.91743,21.00142 19.57818,29.85167 12.0367,12.30008 26.69839,20.68774 43.63982,24.96552 15.44795,3.90066 32.97055,3.4524 48.44323,-1.23925 11.17121,-3.38735 21.20308,-8.56494 30.57176,-15.77854 3.51682,-2.70784 12.29959,-11.52124 15.09561,-15.14826 5.69689,-7.39002 10.95094,-16.67649 14.03598,-24.80839 0.77164,-2.03399 1.34181,-3.2821 1.26705,-2.77361 -0.0748,0.5085 -4.40678,31.78093 -9.62672,69.4943 -5.71102,41.26151 -9.63103,68.65664 -9.84294,68.78789 -0.22069,0.13671 -0.3041,0.82698 -0.22342,1.84908 0.1137,1.44104 0.0122,1.8058 -0.87497,3.13266 -1.52074,2.27526 -4.60453,4.62458 -8.75222,6.66768 -9.29584,4.57901 -21.7344,7.42308 -40.51599,9.26393 -3.22708,0.31629 -24.8549,0.62157 -28.65391,0.40445 l 0,0 z m 78.50529,-23.31044 c 0.23443,-0.28254 0.0863,-0.67626 -0.54619,-1.45135 -0.74982,-0.91894 -0.93516,-1.00779 -1.36234,-0.65317 -0.66093,0.54865 -0.62349,0.92833 0.17547,1.77897 0.75264,0.80134 1.25931,0.89653 1.73306,0.32555 l 0,0 z m -131.69521,-1.7919 c 0.89593,-0.70491 1.02383,-1.26707 0.40511,-1.78068 -0.30775,-0.25547 -0.66219,-0.12427 -1.45685,0.53929 -0.91334,0.76268 -0.99592,0.94224 -0.63393,1.3785 0.53651,0.64662 0.70721,0.63273 1.68567,-0.13711 z m 128.00703,-1.54853 c 0.22196,-0.35551 0.3593,-0.67778 0.30519,-0.71616 -2.14038,-1.51846 -2.11454,-1.50935 -2.57166,-0.90574 -0.5878,0.7762 -0.58352,0.78824 0.55166,1.55571 1.2491,0.84447 1.22935,0.84372 1.71481,0.0661 l 0,0 z M 186.35074,262.3241 c 0.35331,-0.92094 -0.44821,-1.22006 -1.60279,-0.59812 -1.12139,0.60405 -1.31357,1.04139 -0.71895,1.63615 0.42611,0.4262 2.03615,-0.29363 2.32174,-1.03803 z m 119.33449,-1.09278 c 0,-0.26977 -1.64422,-1.18172 -2.1306,-1.18172 -0.17192,0 -0.45853,0.27279 -0.63693,0.60621 -0.28084,0.52487 -0.16861,0.68764 0.83645,1.21304 1.06506,0.55676 1.19259,0.56545 1.54595,0.10531 0.21182,-0.27582 0.38513,-0.6101 0.38513,-0.74285 l 0,0 z m -115.51946,-0.42188 c 0.77572,-0.40123 0.8651,-0.56462 0.59008,-1.07862 -0.38745,-0.72411 -0.35453,-0.72104 -1.69881,-0.15923 -1.15179,0.48137 -1.16112,0.49431 -0.88147,1.22325 0.2354,0.61356 0.82387,0.61788 1.9902,0.0146 l 0,0 z m 110.88703,-1.04777 c 0.44219,-0.82645 0.46288,-0.79863 -0.93704,-1.26075 -1.07389,-0.35449 -1.29656,-0.35048 -1.53582,0.0277 -0.45002,0.71136 -0.34717,0.90918 0.71209,1.36968 1.31065,0.56981 1.3859,0.56396 1.76077,-0.13664 l 0,10e-6 z m -105.87979,-0.91955 c 0.14922,-0.14926 0.18187,-0.55327 0.0726,-0.8978 -0.17646,-0.55614 -0.30956,-0.58948 -1.18601,-0.29714 -1.29625,0.43236 -1.57304,0.71105 -1.3315,1.34065 0.15431,0.4022 0.42411,0.47566 1.18668,0.3231 0.54283,-0.10861 1.10907,-0.31955 1.25829,-0.46881 l 0,0 z m 101.26903,-0.30822 c 0,-0.15564 0.0806,-0.49335 0.17936,-0.75048 0.26284,-0.68513 -2.25742,-1.43702 -2.66342,-0.79461 -0.41979,0.66423 -0.205,0.97636 0.96212,1.39817 1.3285,0.48012 1.52194,0.4988 1.52194,0.14692 l 0,0 z m -97.40016,-0.83417 c 0.77098,-0.15424 0.96283,-0.34649 0.96283,-0.96485 0,-0.71704 -0.0808,-0.75916 -1.12881,-0.58903 -1.33011,0.21589 -1.796,0.59798 -1.54067,1.26351 0.2075,0.54087 0.34092,0.56357 1.70665,0.29037 z m 92.77857,-1.1567 c 0,-0.59566 -0.22741,-0.7907 -1.21386,-1.04115 -0.98262,-0.24947 -1.24672,-0.22246 -1.38648,0.14182 -0.29592,0.77133 -0.19863,0.95506 0.67466,1.27409 1.44005,0.52607 1.92568,0.43157 1.92568,-0.37476 l 0,0 z m -86.97528,-0.3173 c 0.0356,-0.0304 -0.0176,-0.37032 -0.11823,-0.75536 -0.1652,-0.63188 -0.30657,-0.67967 -1.45128,-0.49065 -1.54237,0.25469 -1.52859,0.24314 -1.26852,1.06271 0.1862,0.58681 0.35551,0.63792 1.49163,0.45028 0.70488,-0.11642 1.31075,-0.23656 1.3464,-0.26698 l 0,0 z m 82.29807,-1.02995 c 0.0631,-0.44453 -0.0612,-0.6934 -0.34661,-0.6934 -0.24479,0 -0.87836,-0.0866 -1.40792,-0.19262 -0.87742,-0.17552 -0.96283,-0.12275 -0.96283,0.59492 0,0.57011 0.1914,0.82588 0.69324,0.9264 1.32789,0.26599 1.92265,0.0793 2.02412,-0.6353 z m -77.78942,-0.0816 c 0.48123,-0.44068 0.0584,-1.38679 -0.57925,-1.29644 -1.73658,0.24603 -1.99152,0.3954 -1.99152,1.16683 0,0.73071 0.071,0.76592 1.1554,0.5731 0.63547,-0.11301 1.27238,-0.31255 1.41537,-0.44349 z m 72.91532,-0.73152 c 0,-0.59799 -0.20336,-0.7743 -1.08362,-0.93948 -1.26529,-0.23742 -1.68934,-0.0497 -1.68934,0.74786 0,0.56504 0.53329,0.7922 2.07972,0.88581 0.53716,0.0326 0.69324,-0.12378 0.69324,-0.69419 z m -67.87268,-0.0135 c 0.0356,-0.0262 -0.0193,-0.36914 -0.122,-0.76211 -0.16557,-0.63332 -0.32459,-0.696 -1.3997,-0.55177 -1.46457,0.19649 -1.49172,0.21947 -1.26844,1.07347 0.15791,0.604 0.31617,0.65667 1.45129,0.48297 0.70071,-0.10726 1.30321,-0.21637 1.33884,-0.24256 l 0,0 z m 63.06506,-0.66487 c 0.2839,-0.74001 9.3e-4,-0.97436 -1.33023,-1.10132 -1.05449,-0.10056 -1.22913,-0.0261 -1.34363,0.57305 -0.14858,0.77742 0.12881,0.95913 1.51747,0.99402 0.61767,0.0155 1.03647,-0.15316 1.15639,-0.46575 l 0,0 z m -58.40668,-0.86209 c 0.0826,-0.72331 0.006,-0.8531 -0.41033,-0.6934 -0.28155,0.10812 -0.91652,0.19649 -1.41104,0.19649 -0.75905,0 -0.89912,0.12278 -0.89912,0.78817 0,0.73666 0.0855,0.78197 1.30946,0.6934 1.18828,-0.086 1.31885,-0.17712 1.41103,-0.98466 z m 53.663,-0.0347 c 0,-0.64579 -0.14547,-0.77045 -0.89912,-0.77045 -0.49452,0 -1.11844,-0.0842 -1.38648,-0.18705 -0.36507,-0.14013 -0.48736,0.009 -0.48736,0.59068 0,0.87381 0.32469,1.07779 1.77161,1.11294 0.86918,0.0211 1.00135,-0.0774 1.00135,-0.74612 l 0,0 z m -48.68082,-0.30818 c 0,-0.70766 -0.11297,-0.77044 -1.38649,-0.77044 -1.2735,0 -1.38648,0.0627 -1.38648,0.77044 0,0.70767 0.11298,0.77046 1.38648,0.77046 1.27352,0 1.38649,-0.0627 1.38649,-0.77046 z m 4.23645,0.1583 c 0.71951,-0.005 0.87894,-0.46649 0.41416,-1.2005 -0.19235,-0.30379 -0.5884,-0.36604 -1.38176,-0.21717 -0.93497,0.17544 -1.11211,0.33489 -1.11211,1.0011 0,0.67139 0.1059,0.76405 0.69324,0.6066 0.38128,-0.10226 1.0052,-0.18772 1.38647,-0.19003 l 0,0 z m 39.51466,-0.46648 c 0,-0.70766 -0.11297,-0.77044 -1.38647,-0.77044 -1.2735,0 -1.38648,0.0627 -1.38648,0.77044 0,0.70768 0.11298,0.77046 1.38648,0.77046 1.2735,0 1.38647,-0.0627 1.38647,-0.77046 z m -4.9297,-0.30818 c 0,-0.69439 -0.1226,-0.77044 -1.2421,-0.77044 -0.85466,0 -1.30113,0.1539 -1.43137,0.49337 -0.24298,0.63337 0.40395,1.03682 1.67212,1.0428 0.86396,0.004 1.00135,-0.10092 1.00135,-0.76573 z m -29.27011,-0.30817 c 0,-0.69148 -0.12446,-0.77045 -1.21425,-0.77045 -1.27441,0 -1.72886,0.34468 -1.44163,1.09339 0.11078,0.28882 0.61213,0.4475 1.41378,0.4475 1.1195,0 1.2421,-0.076 1.2421,-0.77044 z m 4.50606,0.46226 c 0.25186,0 0.42364,-0.32802 0.42364,-0.80896 0,-0.74169 -0.08,-0.79295 -0.96283,-0.61637 -0.52956,0.10593 -1.15347,0.19262 -1.38649,0.19262 -0.25186,0 -0.42364,0.32802 -0.42364,0.80897 0,0.74169 0.08,0.79295 0.96284,0.61636 0.52956,-0.10593 1.15347,-0.19262 1.38648,-0.19262 z m 19.83435,0.0253 c 0,-0.15564 0.0842,-0.50233 0.18702,-0.77044 0.15386,-0.40104 -0.0647,-0.48748 -1.23243,-0.48748 -1.30867,0 -1.41944,0.0602 -1.41944,0.77045 0,0.6934 0.12324,0.77044 1.23242,0.77044 0.67783,0 1.23243,-0.12733 1.23243,-0.28297 z m -14.481,-0.79565 c 0,-0.70768 -0.11298,-0.77045 -1.38648,-0.77045 -1.27352,0 -1.38649,0.0627 -1.38649,0.77045 0,0.70767 0.11297,0.77044 1.38649,0.77044 1.2735,0 1.38648,-0.0627 1.38648,-0.77044 z m 4.9297,0 c 0,-0.70768 -0.11298,-0.77045 -1.38648,-0.77045 -1.27351,0 -1.38648,0.0627 -1.38648,0.77045 0,0.70767 0.11298,0.77044 1.38648,0.77044 1.2735,0 1.38648,-0.0627 1.38648,-0.77044 z m 4.9297,0 c 0,-0.70768 -0.11297,-0.77045 -1.38647,-0.77045 -1.27352,0 -1.38648,0.0627 -1.38648,0.77045 0,0.70767 0.11297,0.77044 1.38648,0.77044 1.2735,0 1.38647,-0.0627 1.38647,-0.77044 z"
       id="path3847"
       inkscape:connector-curvature="0" />
    <path
       style="fill:#f4f0ff;fill-opacity:1;stroke:none"
       d="m 233.03083,290.85054 c -6.08802,-0.4946 -19.05201,-2.05582 -21.35069,-2.57121 -1.4379,-0.32239 -3.33234,-0.69399 -4.20987,-0.82576 -2.9399,-0.44149 -11.2049,-2.84817 -15.28229,-4.45005 -10.56679,-4.15136 -15.67849,-9.42715 -13.35016,-13.77868 0.39738,-0.74271 0.34844,-1.02166 -0.25693,-1.46442 -0.70874,-0.51837 -2.91591,-14.60881 -7.63962,-48.7709 -0.46403,-3.3559 -2.03095,-14.63301 -3.48205,-25.06026 -1.4511,-10.42725 -3.13006,-22.58692 -3.73103,-27.02149 -1.05538,-7.7876 -1.81134,-13.23934 -3.68078,-26.54454 -0.48518,-3.45313 -0.8018,-6.35878 -0.70358,-6.45702 0.0982,-0.0982 0.54108,0.66775 0.98415,1.7022 7.48418,17.47319 17.9921,30.90149 32.11465,41.04002 13.85146,9.94391 30.31585,15.7421 48.54024,17.09422 3.54086,0.26271 4.03049,0.3981 4.03049,1.11449 0,0.52489 0.31051,0.81544 0.87146,0.81544 0.58097,0 0.87145,-0.29055 0.87145,-0.87166 0,-0.86317 0.29049,-0.87166 29.81698,-0.87166 l 29.81698,0 -0.35748,1.24674 c -0.19661,0.68571 -0.59097,1.68313 -0.87635,2.21649 -0.28538,0.53335 -0.44782,1.04078 -0.36102,1.12761 0.22895,0.22901 14.72752,-5.17209 14.72752,-5.48638 0,-0.31532 -14.49578,-5.67041 -14.72601,-5.44014 -0.0876,0.0876 0.0742,0.59577 0.35951,1.12914 0.28538,0.53336 0.67974,1.53077 0.87635,2.21648 l 0.35748,1.24674 -21.21135,-0.0204 -21.21134,-0.0204 4.92788,-1.29902 c 28.3034,-7.46098 51.23434,-27.51485 62.20482,-54.40017 0.91883,-2.25177 1.72957,-3.91715 1.80167,-3.70085 0.0721,0.21632 -3.01625,23.04391 -6.86295,50.72801 -3.84669,27.68408 -7.46658,53.76687 -8.04418,57.96174 -0.57761,4.19487 -1.77008,12.23593 -2.64992,17.86905 -0.87986,5.63311 -1.72702,11.22263 -1.88257,12.42117 -0.32723,2.52116 -1.57105,4.39981 -4.12834,6.23542 -8.53329,6.12513 -21.16379,9.77682 -41.66271,12.0454 -5.64379,0.62459 -30.03023,1.21925 -34.64041,0.84471 l 0,0 z m 13.72544,-23.26592 c 0,-1.01693 -0.19365,-1.30749 -0.87145,-1.30749 -0.6778,0 -0.87146,0.29056 -0.87146,1.30749 0,1.01694 0.19366,1.3075 0.87146,1.3075 0.6778,0 0.87145,-0.29056 0.87145,-1.3075 z m 66.47575,-0.0439 c 0.16304,-0.26387 -0.11737,-0.89366 -0.62304,-1.39949 -0.70978,-0.70994 -1.03751,-0.80167 -1.43692,-0.40217 -0.3994,0.39949 -0.33542,0.71869 0.28056,1.3995 0.90171,0.99662 1.34955,1.09784 1.7794,0.40216 l 0,0 z M 182.4472,264.47046 c -0.37801,-0.61178 -1.30379,-0.42449 -2.06602,0.41796 -0.54929,0.6071 -0.59598,0.90967 -0.2013,1.30445 0.39468,0.39477 0.74392,0.29782 1.50567,-0.41798 0.54549,-0.51257 0.88823,-1.09957 0.76165,-1.30443 l 0,0 z m 127.23277,-0.20994 c 0.27467,-0.71592 -0.79805,-1.86506 -1.76618,-1.89201 -0.9555,-0.0266 -0.96841,1.22638 -0.0195,1.88939 1.2309,0.86002 1.45658,0.86035 1.78565,0.002 l 0,0 z m -62.9237,-1.47003 c 0,-1.01694 -0.19365,-1.3075 -0.87145,-1.3075 -0.6778,0 -0.87146,0.29056 -0.87146,1.3075 0,1.01693 0.19366,1.30749 0.87146,1.30749 0.6778,0 0.87145,-0.29056 0.87145,-1.30749 z m -61.30012,0.3768 c 1.27068,-0.6607 1.22633,-0.59351 0.91952,-1.39322 -0.24412,-0.63633 -0.39434,-0.64135 -1.5353,-0.0511 -1.26116,0.65233 -1.52462,1.09819 -0.97422,1.64871 0.38532,0.38542 0.47895,0.37339 1.59,-0.2043 z m 119.98275,-1.51036 c 0.29361,-0.76529 -0.51748,-1.46431 -1.71114,-1.47475 -1.48244,-0.0129 -0.40276,2.10062 1.10299,2.15922 0.18726,0.007 0.46093,-0.30073 0.60815,-0.68447 l 0,0 z m -115.5544,-0.68486 c 1.41985,-0.64709 1.16444,-1.47843 -0.41813,-1.36101 -1.46555,0.10873 -1.71762,0.32733 -1.38306,1.19939 0.30954,0.80685 0.37291,0.81254 1.80119,0.16162 z m 111.33781,-1.38035 c 0,-0.32109 -0.52143,-0.82144 -1.15875,-1.11189 -0.92598,-0.422 -1.231,-0.41416 -1.51838,0.039 -0.53671,0.84634 -0.45355,1.13586 0.38956,1.35624 1.49356,0.39039 2.28757,0.29205 2.28757,-0.28336 l 0,0 z m -105.95897,-1.31768 c 0.0895,-0.45306 -0.14913,-0.71109 -0.65359,-0.70685 -1.21823,0.01 -2.04008,0.70066 -1.74611,1.46688 0.33742,0.87952 2.19195,0.29216 2.3997,-0.76003 z m 51.49293,-0.4956 c 0,-1.23486 -0.16599,-1.52541 -0.87145,-1.52541 -0.70547,0 -0.87146,0.29055 -0.87146,1.52541 0,1.23485 0.16599,1.52541 0.87146,1.52541 0.70546,0 0.87145,-0.29056 0.87145,-1.52541 z m 49.67303,0.26454 c 0,-0.81499 -0.79484,-1.35412 -1.99641,-1.35412 -0.98596,0 -0.71423,1.29686 0.36244,1.72974 1.44062,0.5792 1.63397,0.53475 1.63397,-0.37562 z m -96.35196,-0.71701 c 0.09,-0.0901 0.0568,-0.44209 -0.0737,-0.78237 -0.15381,-0.40092 -0.63508,-0.54261 -1.36745,-0.40258 -1.27629,0.24404 -1.74237,0.76035 -1.31327,1.45481 0.25387,0.41086 2.27149,0.21319 2.75442,-0.26986 l 0,0 z m 91.80693,-0.68584 c 0.37374,-0.60488 -0.58578,-1.24327 -1.88195,-1.25209 -1.04265,-0.007 -1.36736,1.072 -0.43574,1.448 0.96561,0.38973 2.0104,0.30141 2.31769,-0.19591 z m -87.39729,-0.37563 c 0.91321,-0.57748 -0.0224,-1.43671 -1.35777,-1.2469 -1.40451,0.19962 -1.67416,1.67362 -0.30451,1.66459 0.55678,-0.004 1.30481,-0.19163 1.66228,-0.41769 l 0,0 z m 82.70448,-0.97332 c 0.12827,-0.66117 -1.90679,-1.38267 -2.63326,-0.93358 -0.69031,0.42672 -0.2876,1.40688 0.6511,1.5847 1.38893,0.2631 1.83311,0.11715 1.98216,-0.65112 z m -78.30792,0.0902 c 0.90358,0 1.02784,-0.32987 0.46102,-1.22381 -0.56152,-0.8856 -2.6753,-0.18883 -2.6753,0.88186 0,0.61521 0.20243,0.79335 0.68924,0.60649 0.37907,-0.1455 1.06534,-0.26454 1.52504,-0.26454 z m 73.60246,-1.06806 c 0,-0.63538 -1.96735,-1.29315 -2.63441,-0.88079 -0.83951,0.51895 -0.38197,1.45944 0.78256,1.60858 1.45653,0.18655 1.85185,0.0312 1.85185,-0.72779 z m -68.07782,-0.61898 c -0.1004,-0.48225 -0.54374,-0.68138 -1.38197,-0.62072 -1.46968,0.10641 -1.74889,0.32536 -1.44026,1.12983 0.34763,0.90611 3.01662,0.42464 2.82223,-0.50911 z m 32.34809,-0.49211 c 0,-1.01695 0.19366,-1.30749 0.87146,-1.30749 0.48414,0 0.87146,-0.29056 0.87146,-0.65376 0,-0.45265 -0.45476,-0.65374 -1.47843,-0.65374 -1.60514,0 -2.0074,0.53116 -2.0074,2.65064 0,0.98128 0.19908,1.27183 0.87146,1.27183 0.6778,0 0.87145,-0.29055 0.87145,-1.30748 z m -28.29369,0.42049 c 1.30905,-0.70074 0.99679,-1.29216 -0.68224,-1.29216 -1.23456,0 -1.52505,0.16603 -1.52505,0.87167 0,0.96076 0.88358,1.12908 2.20729,0.42049 z m 59.03046,-0.0137 c 0.38514,-0.62332 0.20177,-0.7516 -1.31286,-0.91856 -0.94852,-0.10459 -1.3297,0.0592 -1.44482,0.62068 -0.1214,0.59228 0.13709,0.7627 1.15704,0.7627 0.72239,0 1.44268,-0.20917 1.60064,-0.46482 z m -4.81092,-0.8427 c 0,-0.41898 -0.50852,-0.70278 -1.41613,-0.79032 -1.36538,-0.13167 -1.92467,0.5722 -1.10562,1.39144 0.55149,0.55163 2.52175,0.082 2.52175,-0.60112 z m -48.6607,-0.24093 c -0.0775,-0.37222 -0.28794,-0.6664 -0.46768,-0.65375 -0.17974,0.0127 -0.81699,0.0231 -1.41612,0.0231 -0.6778,0 -1.08932,0.24697 -1.08932,0.65374 0,0.45914 0.46348,0.65375 1.557,0.65375 1.17754,0 1.52266,-0.16494 1.41612,-0.67677 l 0,1e-5 z m 4.7769,-0.57444 c -0.15208,-0.78989 -1.04437,-0.95594 -2.17826,-0.40537 -1.20563,0.58542 -0.48436,1.52636 1.00269,1.30806 0.92272,-0.13546 1.2717,-0.40343 1.17557,-0.90269 l 0,0 z m 38.87292,0.37955 c 0,-0.67797 -0.29049,-0.87167 -1.30719,-0.87167 -0.79883,0 -1.30718,0.22599 -1.30718,0.58111 0,0.83985 0.44315,1.16222 1.59767,1.16222 0.72621,0 1.0167,-0.24905 1.0167,-0.87166 z m -4.79302,-0.43583 c 0,-0.67796 -0.29048,-0.87167 -1.30718,-0.87167 -0.79883,0 -1.30719,0.226 -1.30719,0.58111 0,0.83984 0.44316,1.16221 1.59768,1.16221 0.72621,0 1.01669,-0.24904 1.01669,-0.87165 z m -29.27078,-0.24094 c -0.0775,-0.37223 -0.28794,-0.66641 -0.46768,-0.65374 -0.17974,0.0126 -0.71895,0.0229 -1.19825,0.0229 -0.48414,0 -0.87146,0.29056 -0.87146,0.65375 0,0.4393 0.43928,0.65374 1.33914,0.65374 0.98058,0 1.30141,-0.18119 1.19825,-0.67676 l 0,1e-5 z m 4.87,-0.1949 c 0,-0.67795 -0.29049,-0.87165 -1.30719,-0.87165 -1.0167,0 -1.30718,0.1937 -1.30718,0.87165 0,0.67796 0.29048,0.87167 1.30718,0.87167 1.0167,0 1.30719,-0.19371 1.30719,-0.87167 z m 14.73405,-0.10897 c 0.1118,-0.58969 -0.15333,-0.76271 -1.16881,-0.76271 -1.38427,0 -2.04402,0.5609 -1.56728,1.33246 0.45206,0.73164 2.57309,0.28995 2.73609,-0.56975 l 0,0 z m 4.87372,0.10897 c 0,-0.67795 -0.29049,-0.87165 -1.30718,-0.87165 -1.0167,0 -1.30719,0.1937 -1.30719,0.87165 0,0.67796 0.29049,0.87167 1.30719,0.87167 1.01669,0 1.30718,-0.19371 1.30718,-0.87167 z m -14.81476,-0.21791 c 0,-0.43583 -0.43573,-0.65374 -1.30719,-0.65374 -0.87145,0 -1.30718,0.21791 -1.30718,0.65374 0,0.43584 0.43573,0.65375 1.30718,0.65375 0.87146,0 1.30719,-0.21791 1.30719,-0.65375 z m 3.48582,-3.05082 c 0,-1.23484 -0.16599,-1.5254 -0.87145,-1.5254 -0.70547,0 -0.87146,0.29056 -0.87146,1.5254 0,1.23486 0.16599,1.52541 0.87146,1.52541 0.70546,0 0.87145,-0.29055 0.87145,-1.52541 z m 0,-5.01204 c 0,-1.01694 -0.19365,-1.3075 -0.87145,-1.3075 -0.6778,0 -0.87146,0.29056 -0.87146,1.3075 0,1.01693 0.19366,1.30749 0.87146,1.30749 0.6778,0 0.87145,-0.29056 0.87145,-1.30749 z m 0,-4.79414 c 0,-1.01693 -0.19365,-1.30749 -0.87145,-1.30749 -0.6778,0 -0.87146,0.29056 -0.87146,1.30749 0,1.01693 0.19366,1.30749 0.87146,1.30749 0.6778,0 0.87145,-0.29056 0.87145,-1.30749 z m -43.57283,-2.98327 c 0,-0.20255 -0.4136,-0.74189 -0.9191,-1.19853 -1.39953,-1.26424 -3.29605,-5.34264 -3.89101,-8.36749 -0.32003,-1.62701 -0.44564,-4.49116 -0.31464,-7.17381 0.25085,-5.13693 1.26999,-8.33778 3.58733,-11.26689 1.54477,-1.95259 1.64056,-2.8881 0.21775,-2.12645 -1.33192,0.71299 -3.79796,4.23043 -4.83761,6.90013 -1.17393,3.01452 -1.63358,10.71965 -0.83018,13.91643 0.74338,2.95794 2.44574,6.16523 4.27304,8.05054 1.48429,1.53138 2.71442,2.10516 2.71442,1.26607 l 0,0 z m 25.12676,-0.27617 c 1.74878,-1.22518 4.07549,-5.35079 4.9529,-8.78222 1.91368,-7.48418 0.41562,-14.78356 -4.02241,-19.59938 -2.84048,-3.08227 -3.56474,-2.35215 -0.99977,1.00787 4.92001,6.44506 4.69704,19.81345 -0.43218,25.91061 -1.65602,1.96852 -1.37796,2.77983 0.50146,1.46312 z m 18.44607,-1.75261 c 0,-1.23486 -0.16599,-1.5254 -0.87145,-1.5254 -0.70547,0 -0.87146,0.29054 -0.87146,1.5254 0,1.23485 0.16599,1.52541 0.87146,1.52541 0.70546,0 0.87145,-0.29056 0.87145,-1.52541 z m 0,-4.79414 c 0,-1.23485 -0.16599,-1.52541 -0.87145,-1.52541 -0.70547,0 -0.87146,0.29056 -0.87146,1.52541 0,1.23486 0.16599,1.5254 0.87146,1.5254 0.70546,0 0.87145,-0.29054 0.87145,-1.5254 z m -39.04809,-0.598 c 0.72114,-0.79704 0.7757,-0.79637 2.3551,0.0286 2.35395,1.22949 6.01407,0.92318 8.11421,-0.67904 2.01497,-1.53726 3.30654,-4.08415 3.30654,-6.5203 0,-2.78415 -1.14613,-4.01013 -4.78144,-5.11458 -3.49872,-1.06295 -4.60108,-2.03963 -4.18294,-3.706 0.71354,-2.84363 3.35493,-4.77709 5.84555,-4.27886 1.90877,0.38186 2.84995,1.65264 3.11014,4.19939 0.12461,1.2196 0.43086,2.28476 0.68058,2.36701 0.49326,0.16248 2.45484,-7.23097 2.07959,-7.83828 -0.12597,-0.20388 -0.67996,0.053 -1.23107,0.57088 -0.96019,0.90226 -1.04923,0.91063 -2.13292,0.2004 -1.33568,-0.87537 -4.87855,-0.98757 -6.40278,-0.20276 -1.90062,0.97862 -3.8881,3.21141 -4.33447,4.86946 -0.90602,3.36553 0.58252,5.66651 4.35793,6.73645 3.59638,1.01922 4.37746,1.64015 4.37746,3.47998 0,2.77481 -2.70987,5.39616 -5.5784,5.39616 -0.6954,0 -1.93063,-0.4479 -2.74494,-0.99533 -1.32508,-0.8908 -1.49438,-1.23404 -1.61225,-3.26872 -0.1964,-3.39021 -1.08565,-2.90567 -2.02658,1.10427 -0.43592,1.85773 -0.8849,3.62284 -0.99775,3.92248 -0.31591,0.83884 0.96948,0.64504 1.79844,-0.27117 z m 39.04809,-4.1961 c 0,-1.23485 -0.16599,-1.52541 -0.87145,-1.52541 -0.70547,0 -0.87146,0.29056 -0.87146,1.52541 0,1.23486 0.16599,1.52541 0.87146,1.52541 0.70546,0 0.87145,-0.29055 0.87145,-1.52541 z m 0,-5.01205 c 0,-1.01693 -0.19365,-1.30749 -0.87145,-1.30749 -0.6778,0 -0.87146,0.29056 -0.87146,1.30749 0,1.01694 0.19366,1.30749 0.87146,1.30749 0.6778,0 0.87145,-0.29055 0.87145,-1.30749 z m 0,-4.79413 c 0,-1.01694 -0.19365,-1.3075 -0.87145,-1.3075 -0.6778,0 -0.87146,0.29056 -0.87146,1.3075 0,1.01693 0.19366,1.30749 0.87146,1.30749 0.6778,0 0.87145,-0.29056 0.87145,-1.30749 z m 62.60123,-3.26072 c 0.81421,-0.57043 0.98418,-0.57043 1.45748,0 0.86406,1.04136 2.75745,0.77887 3.98738,-0.5528 1.39808,-1.51373 1.85683,-2.72394 1.03255,-2.72394 -0.33581,0 -0.73669,0.39747 -0.89084,0.88327 -0.4065,1.2811 -2.29743,2.43729 -2.93808,1.79647 -0.55083,-0.55095 0.16653,-5.02068 1.1244,-7.00586 0.73311,-1.51941 1.5995,-1.65813 1.5995,-0.25611 0,0.94974 0.17508,1.13134 0.98039,1.01694 0.76789,-0.1091 0.9804,-0.42267 0.9804,-1.44677 0,-1.1853 -0.146,-1.31973 -1.56234,-1.43848 -1.00022,-0.0838 -1.76047,0.10775 -2.11299,0.53264 -0.48482,0.58431 -0.62731,0.58694 -1.19208,0.0221 -1.39408,-1.39439 -4.06201,-0.57528 -5.18197,1.59099 -1.02532,1.98322 -0.38854,2.0646 1.25694,0.16061 1.59515,-1.84577 2.91011,-1.88593 2.91011,-0.0888 0,1.55302 -1.30401,5.65964 -2.07074,6.52128 -0.95617,1.07451 -1.3297,0.94821 -1.07876,-0.36479 0.18801,-0.98373 0.0837,-1.10876 -0.8185,-0.98062 -1.29272,0.18363 -1.63557,1.62776 -0.57126,2.40618 1.0215,0.74711 1.94999,0.72542 3.08841,-0.0721 l 0,-2e-5 z m -62.60123,-1.75133 c 0,-1.23486 -0.16599,-1.52541 -0.87145,-1.52541 -0.70547,0 -0.87146,0.29055 -0.87146,1.52541 0,1.23485 0.16599,1.52541 0.87146,1.52541 0.70546,0 0.87145,-0.29056 0.87145,-1.52541 z m 0,-4.79415 c 0,-1.23484 -0.16599,-1.5254 -0.87145,-1.5254 -0.70547,0 -0.87146,0.29056 -0.87146,1.5254 0,1.23486 0.16599,1.52541 0.87146,1.52541 0.70546,0 0.87145,-0.29055 0.87145,-1.52541 z m 0,-4.79413 c 0,-1.23485 -0.16599,-1.52541 -0.87145,-1.52541 -0.70547,0 -0.87146,0.29056 -0.87146,1.52541 0,1.23486 0.16599,1.52541 0.87146,1.52541 0.70546,0 0.87145,-0.29055 0.87145,-1.52541 z"
       id="path3938"
       inkscape:connector-curvature="0" />
    <path
       style="fill:none;stroke:#000000;stroke-width:1px;stroke-linecap:butt;stroke-linejoin:miter;stroke-opacity:1"
       d="M 151.14995,82.352436 177.54392,272.62653"
       id="path3010"
       inkscape:path-effect="#path-effect3012"
       inkscape:original-d="M 151.14995,82.352436 C 207.60918,293.11056 177.54392,272.62653 177.54392,272.62653"
       inkscape:connector-curvature="0"
       sodipodi:nodetypes="cc" />
    <path
       sodipodi:type="arc"
       style="fill:none;stroke:#000000;stroke-width:0.81954956;stroke-opacity:1"
       id="path3014"
       sodipodi:cx="231.57747"
       sodipodi:cy="278.58533"
       sodipodi:rx="56.316006"
       sodipodi:ry="17.172594"
       d="m 287.89347,278.58533 a 56.316006,17.172594 0 1 1 -112.63201,0"
       transform="matrix(1.2200394,0,0,1.2203255,-36.493922,-68.912911)"
       sodipodi:start="0"
       sodipodi:end="3.1415927"
       sodipodi:open="true" />
    <path
       sodipodi:type="arc"
       style="fill:none;stroke:#000000;stroke-width:0.69229847;stroke-opacity:1"
       id="path3014-3"
       sodipodi:cx="231.57747"
       sodipodi:cy="278.58533"
       sodipodi:rx="56.316006"
       sodipodi:ry="17.172594"
       d="m 287.89347,278.58533 a 56.316006,17.172594 0 1 1 -112.63201,0 56.316006,17.172594 0 1 1 112.63201,0 z"
       transform="matrix(1.6852387,0,0,1.2380888,-144.22453,-263.40937)" />
    <path
       style="fill:none;stroke:#000000;stroke-width:1px;stroke-linecap:butt;stroke-linejoin:miter;stroke-opacity:1"
       d="M 340.90353,82.35185 314.50957,272.62594"
       id="path3010-2"
       inkscape:path-effect="#path-effect3012-2"
       inkscape:original-d="M 340.90353,82.35185 C 284.44431,293.10997 314.50957,272.62594 314.50957,272.62594"
       inkscape:connector-curvature="0"
       sodipodi:nodetypes="cc" />
    <path
       sodipodi:type="arc"
       style="fill:none;stroke:#000000;stroke-width:0.81954956;stroke-miterlimit:4;stroke-opacity:1;stroke-dasharray:1.63909914, 1.63909914;stroke-dashoffset:0"
       id="path3014-6"
       sodipodi:cx="231.57747"
       sodipodi:cy="278.58533"
       sodipodi:rx="56.316006"
       sodipodi:ry="17.172594"
       d="m 287.89347,278.58533 a 56.316006,17.172594 0 1 1 -112.63201,0"
       transform="matrix(1.2200394,0,0,-1.2203255,-36.656575,612.15487)"
       sodipodi:start="0"
       sodipodi:end="3.1415927"
       sodipodi:open="true" />
    <path
       style="fill:none;stroke:#2e00cf;stroke-width:1px;stroke-linecap:butt;stroke-linejoin:miter;stroke-opacity:1"
       d="m 155.87246,116.58868 c 3.35757,20.51349 13.97309,39.76413 29.52977,53.55058 15.55668,13.78644 35.9439,22.01065 56.71226,22.87773 22.03637,0.92002 44.32113,-6.48582 61.42345,-20.41272 17.10232,-13.92689 28.86849,-34.24965 32.43105,-56.01559"
       id="path3843"
       inkscape:path-effect="#path-effect3845"
       inkscape:original-d="m 155.87246,116.58868 c 0,0 47.84286,75.62693 86.24203,76.42831 40.33311,0.84176 93.8545,-76.42831 93.8545,-76.42831"
       inkscape:connector-curvature="0"
       sodipodi:nodetypes="cac" />
    <path
       style="fill:none;stroke:#000000;stroke-width:1;stroke-linecap:butt;stroke-linejoin:miter;stroke-miterlimit:4;stroke-opacity:1;stroke-dasharray:1.99999999, 1.99999999;stroke-dashoffset:0"
       d="m 245.91109,268.86063 0,-227.997376"
       id="path3855"
       inkscape:connector-curvature="0" />
    <path
       style="fill:none;stroke:#000000;stroke-width:0.99999982px;stroke-linecap:butt;stroke-linejoin:miter;stroke-opacity:1;marker-end:url(#Arrow2Lend)"
       d="m 245.91106,192.72578 0,-72.03156"
       id="path7082"
       inkscape:connector-curvature="0" />
    <path
       style="fill:none;stroke:#000000;stroke-width:0.99999994px;stroke-linecap:butt;stroke-linejoin:miter;stroke-opacity:1;marker-end:url(#Arrow2Lend)"
       d="m 246.38155,193.06655 71.49258,0"
       id="path7082-1"
       inkscape:connector-curvature="0" />
    <path
       style="fill:none;stroke:#000000;stroke-width:0.99999994px;stroke-linecap:butt;stroke-linejoin:miter;stroke-opacity:1;marker-end:url(#Arrow2Lend)"
       d="m 245.87363,192.63417 52.4063,-27.06886"
       id="path7082-1-0"
       inkscape:connector-curvature="0"
       sodipodi:nodetypes="cc" />
    <path
       sodipodi:type="arc"
       style="fill:none;stroke:#2e00cf;stroke-width:0.73044562;stroke-miterlimit:4;stroke-opacity:1;stroke-dasharray:none;stroke-dashoffset:0"
       id="path3014-3-5"
       sodipodi:cx="231.57747"
       sodipodi:cy="278.58533"
       sodipodi:rx="56.316006"
       sodipodi:ry="17.172594"
       d="m 287.89347,278.58533 a 56.316006,17.172594 0 1 1 -112.63201,0 56.316006,17.172594 0 1 1 112.63201,0 z"
       transform="matrix(1.597228,0,0,1.1734303,-123.95913,-210.09658)" />
    <path
       sodipodi:open="true"
       sodipodi:end="7.4351026"
       sodipodi:start="1.9425515"
       transform="matrix(1.5756698,0,0,1.5760393,-223.77215,-27.790314)"
       d="M 285.59665,48.426514 A 31.785715,7.9464288 0 1 1 310.07127,48.28232"
       sodipodi:ry="7.9464288"
       sodipodi:rx="31.785715"
       sodipodi:cy="41.022896"
       sodipodi:cx="297.14285"
       id="path3892"
       style="fill:none;stroke:#000000;stroke-width:0.63457638;stroke-linejoin:miter;stroke-miterlimit:100;stroke-opacity:1;stroke-dasharray:none;stroke-dashoffset:0;marker-start:url(#Arrow2Lstart)"
       sodipodi:type="arc" />
    <g
       style="font-style:normal;font-variant:normal;font-weight:normal;font-stretch:normal;letter-spacing:normal;word-spacing:normal;text-anchor:start;fill:none;stroke:#000000;stroke-width:1.12024653;stroke-linecap:butt;stroke-linejoin:miter;stroke-miterlimit:10.43299961;stroke-opacity:1;stroke-dasharray:none;stroke-dashoffset:0"
       id="g4732"
       transform="matrix(0.53160364,0,0,-0.53172831,-3.6856402,233.6462)"
       xml:space="preserve"
       stroke-miterlimit="10.433"
       font-style="normal"
       font-variant="normal"
       font-weight="normal"
       font-stretch="normal"
       font-size-adjust="none"
       letter-spacing="normal"
       word-spacing="normal"><path
         style="fill:#000000;stroke-width:0"
         inkscape:connector-curvature="0"
         d="m 485.66,424.73 0,0.21 -0.01,0.2 -0.01,0.2 -0.02,0.19 -0.02,0.18 -0.03,0.18 -0.03,0.17 -0.04,0.16 -0.04,0.16 -0.04,0.16 -0.05,0.14 -0.05,0.14 -0.05,0.13 -0.06,0.13 -0.07,0.12 -0.06,0.12 -0.07,0.1 -0.07,0.1 -0.08,0.1 -0.08,0.09 -0.08,0.08 -0.08,0.07 -0.08,0.07 -0.09,0.06 -0.09,0.05 -0.09,0.05 -0.1,0.04 -0.09,0.03 -0.1,0.02 -0.1,0.02 -0.1,0.01 -0.1,0 c -1.3,0 -2.64,-1.18 -2.64,-2.34 0,-0.48 0.23,-1.03 0.73,-1.48 0.86,-0.75 1.75,-2.1 1.75,-4.19 0,-2 -0.95,-4.83 -2.48,-7.13 -1.5,-2.14 -3.35,-3.82 -5.69,-3.82 -2.85,0 -4.39,1.78 -4.83,4.46 0.55,1.3 1.69,4.49 1.69,5.9 0,0.59 -0.25,1.09 -0.89,1.09 -0.41,0 -0.96,-0.11 -1.35,-0.84 -0.54,-1 -1.15,-4.24 -1.15,-6.04 -1.64,-2.34 -3.63,-4.57 -6.77,-4.57 -3.3,0 -4.34,2.93 -4.34,5.71 0,6.24 5.09,11.47 5.09,12.11 0,0.55 -0.41,0.96 -0.95,0.96 -0.66,0 -1,-0.66 -1.3,-1.11 -2.55,-3.69 -4.44,-9.61 -4.44,-14.14 0,-3.44 1.16,-7.13 5.24,-7.13 3.53,0 5.87,2.49 7.67,5.24 0.45,-2.89 2.39,-5.24 5.48,-5.24 3.89,0 6.29,3.03 8.07,6.78 1.2,2.44 3.09,9.21 3.09,12.3 z"
         id="path4734" /></g>    <path
       d="m 201.42851,235.39953 0,-0.01 0,-0.0148 0,-0.005 0,-0.01 0,-0.005 -0.005,-0.01 0,-0.005 -0.005,-0.01 -0.005,-0.01 -0.005,-0.01 -0.005,-0.01 -0.01,-0.0148 -0.005,-0.01 -0.01,-0.0148 -0.01,-0.0148 -0.0148,-0.0148 -0.01,-0.0148 -0.0148,-0.0196 -0.01,-0.01 -0.005,-0.01 -0.01,-0.01 -0.01,-0.01 -0.01,-0.01 -0.01,-0.0148 -0.01,-0.01 -0.01,-0.01 -0.01,-0.0148 -0.0148,-0.01 -0.01,-0.0148 -0.0148,-0.0148 -0.0148,-0.0148 -0.01,-0.0148 -0.0148,-0.0148 -0.0148,-0.0148 -0.0148,-0.0148 -0.0148,-0.0148 -0.0196,-0.0196 -0.0148,-0.0148 -0.0196,-0.0196 -0.0148,-0.0148 -0.0196,-0.0196 -0.0197,-0.0196 c -3.04701,-3.07714 -3.82591,-7.68792 -3.82591,-11.42163 0,-4.2482 0.92587,-8.50129 3.92388,-11.54412 0.31353,-0.29888 0.31353,-0.34789 0.31353,-0.42139 0,-0.17148 -0.0881,-0.24009 -0.23515,-0.24009 -0.24494,0 -2.43956,1.65617 -3.87979,4.75289 -1.24917,2.69002 -1.5382,5.39966 -1.5382,7.45271 0,1.90605 0.26453,4.85088 1.60679,7.61442 1.45982,3.00362 3.56626,4.58627 3.8112,4.58627 0.14698,0 0.23515,-0.0686 0.23515,-0.24498 z"
       id="path7092"
       inkscape:connector-curvature="0"
       style="font-style:normal;font-variant:normal;font-weight:normal;font-stretch:normal;letter-spacing:normal;word-spacing:normal;text-anchor:start;fill:#000000;stroke:#000000;stroke-width:0;stroke-linecap:butt;stroke-linejoin:miter;stroke-miterlimit:10.43299961;stroke-opacity:1;stroke-dasharray:none;stroke-dashoffset:0" />
    <path
       d="m 218.56427,212.5808 0,-0.01 0,-0.01 -0.005,-0.005 0,-0.01 0,-0.01 -0.005,-0.01 0,-0.01 -0.005,-0.01 0,-0.01 -0.005,-0.01 -0.005,-0.01 -0.005,-0.01 -0.005,-0.01 -0.005,-0.01 -0.01,-0.01 -0.005,-0.01 -0.01,-0.01 -0.01,-0.01 -0.005,-0.01 -0.01,-0.01 -0.0148,-0.005 -0.01,-0.01 -0.01,-0.005 -0.0148,-0.01 -0.0148,-0.005 -0.0148,-0.005 -0.005,-0.005 -0.01,0 -0.005,-0.005 -0.01,0 -0.01,0 -0.01,-0.005 -0.005,0 -0.01,0 -0.01,0 -0.01,0 -0.01,0 -0.01,0 c -0.12247,0 -0.15186,0.0196 -0.44579,0.36749 l -1.1708,1.39157 c -0.63193,-1.14657 -1.9056,-1.75906 -3.4879,-1.75906 -3.10089,0 -6.02543,2.80764 -6.02543,5.76225 0,1.97466 1.29327,3.10163 2.53264,3.45933 l 2.61103,0.69088 c 0.90137,0.21559 2.24851,0.58308 2.24851,2.58714 0,2.20003 -2.00358,4.48828 -4.38925,4.48828 -1.5627,0 -4.2717,-0.53898 -4.2717,-3.56222 0,-0.58797 0.12247,-1.17107 0.14206,-1.31806 0.0245,-0.098 0.0491,-0.12249 0.0491,-0.1715 0,-0.24498 -0.17145,-0.26949 -0.29392,-0.26949 -0.12247,0 -0.16656,0.0245 -0.24494,0.098 -0.098,0.098 -1.45982,5.66425 -1.45982,5.73284 0,0.147 0.12247,0.24499 0.26943,0.24499 0.12247,0 0.14206,-0.0196 0.43598,-0.36749 l 1.2002,-1.38176 c 1.04832,1.41607 2.70409,1.74925 4.11983,1.74925 3.32134,0 6.19689,-3.24371 6.19689,-6.26694 0,-1.68555 -0.82298,-2.51853 -1.19039,-2.85663 -0.56336,-0.56837 -0.93076,-0.65658 -3.1009,-1.22497 -0.53886,-0.14699 -1.41574,-0.39198 -1.64107,-0.43608 -0.65643,-0.22049 -1.48431,-0.92608 -1.48431,-2.21964 0,-1.98446 1.95459,-4.05711 4.27169,-4.05711 2.02807,0 3.51238,1.04858 3.51238,3.78761 0,0.77908 -0.098,1.22007 -0.098,1.36217 0,0.0245 0,0.24499 0.29881,0.24499 0.24495,0 0.26944,-0.0735 0.35762,-0.48999 z"
       id="path7094"
       inkscape:connector-curvature="0"
       style="font-style:normal;font-variant:normal;font-weight:normal;font-stretch:normal;letter-spacing:normal;word-spacing:normal;text-anchor:start;fill:#000000;stroke:#000000;stroke-width:0;stroke-linecap:butt;stroke-linejoin:miter;stroke-miterlimit:10.43299961;stroke-opacity:1;stroke-dasharray:none;stroke-dashoffset:0" />
    <path
       d="m 226.26507,223.44383 0,-0.1813 0,-0.19109 -0.005,-0.19109 -0.01,-0.2009 -0.0196,-0.41159 -0.0294,-0.43119 -0.0393,-0.45079 -0.0491,-0.46548 -0.0686,-0.4753 -0.0783,-0.49489 -0.098,-0.49978 -0.11273,-0.50469 -0.13227,-0.51449 -0.14696,-0.51938 -0.17145,-0.52429 -0.19105,-0.52428 -0.10773,-0.25971 -0.10773,-0.2597 -0.11761,-0.25968 -0.12247,-0.2597 c -1.45982,-2.99872 -3.55647,-4.58627 -3.80142,-4.58627 -0.14696,0 -0.24492,0.0931 -0.24492,0.24008 0,0.0735 0,0.1225 0.45557,0.56349 2.39549,2.41074 3.79161,6.29635 3.79161,11.40202 0,4.1698 -0.90625,8.46699 -3.93367,11.54411 -0.31351,0.2891 -0.31351,0.343 -0.31351,0.41159 0,0.147 0.098,0.245 0.24492,0.245 0.24495,0 2.42978,-1.66106 3.8798,-4.75778 1.23937,-2.68024 1.5284,-5.38988 1.5284,-7.44292 z"
       id="path7096"
       inkscape:connector-curvature="0"
       style="font-style:normal;font-variant:normal;font-weight:normal;font-stretch:normal;letter-spacing:normal;word-spacing:normal;text-anchor:start;fill:#000000;stroke:#000000;stroke-width:0;stroke-linecap:butt;stroke-linejoin:miter;stroke-miterlimit:10.43299961;stroke-opacity:1;stroke-dasharray:none;stroke-dashoffset:0" />
    <g
       word-spacing="normal"
       letter-spacing="normal"
       font-size-adjust="none"
       font-stretch="normal"
       font-weight="normal"
       font-variant="normal"
       font-style="normal"
       stroke-miterlimit="10.433"
       xml:space="preserve"
       transform="matrix(0.45015993,0,0,-0.45026549,99.93598,393.78133)"
       id="content"
       style="font-style:normal;font-variant:normal;font-weight:normal;font-stretch:normal;letter-spacing:normal;word-spacing:normal;text-anchor:start;fill:none;stroke:#000000;stroke-width:2.36108851;stroke-linecap:butt;stroke-linejoin:miter;stroke-miterlimit:10.43299961;stroke-opacity:1;stroke-dasharray:none;stroke-dashoffset:0"><path
         id="path4740"
         d="m 472.16,421.25 0.03,0.13 0.04,0.15 0.04,0.16 0.04,0.18 0.06,0.19 0.06,0.21 0.06,0.22 0.07,0.22 0.08,0.23 0.09,0.24 0.1,0.25 0.1,0.24 0.11,0.25 0.12,0.25 0.13,0.25 0.14,0.25 0.15,0.24 0.15,0.24 0.17,0.23 0.18,0.22 0.18,0.22 0.2,0.2 0.21,0.19 0.22,0.18 0.23,0.16 0.25,0.14 0.12,0.07 0.13,0.06 0.14,0.05 0.13,0.05 0.14,0.05 0.14,0.04 0.15,0.03 0.15,0.03 0.15,0.02 0.16,0.02 0.16,0.01 0.16,0 c 0.25,0 1.44,0 2.48,-0.64 -1.39,-0.25 -2.39,-1.5 -2.39,-2.69 0,-0.79 0.55,-1.75 1.89,-1.75 1.1,0 2.69,0.89 2.69,2.89 0,2.6 -2.94,3.28 -4.63,3.28 -2.89,0 -4.64,-2.64 -5.23,-3.78 -1.25,3.28 -3.94,3.78 -5.37,3.78 -5.19,0 -8.04,-6.42 -8.04,-7.67 0,-0.5 0.5,-0.5 0.61,-0.5 0.39,0 0.55,0.11 0.64,0.55 1.69,5.28 4.99,6.53 6.68,6.53 0.95,0 2.68,-0.44 2.68,-3.33 0,-1.54 -0.84,-4.89 -2.68,-11.86 -0.8,-3.09 -2.54,-5.18 -4.74,-5.18 -0.3,0 -1.44,0 -2.48,0.65 1.25,0.24 2.34,1.28 2.34,2.69 0,1.34 -1.09,1.73 -1.84,1.73 -1.5,0 -2.75,-1.29 -2.75,-2.89 0,-2.28 2.5,-3.28 4.68,-3.28 3.3,0 5.08,3.49 5.24,3.78 0.59,-1.84 2.39,-3.78 5.37,-3.78 5.14,0 7.99,6.42 7.99,7.67 0,0.5 -0.45,0.5 -0.61,0.5 -0.44,0 -0.55,-0.2 -0.64,-0.54 -1.64,-5.33 -5.03,-6.53 -6.63,-6.53 -1.95,0 -2.75,1.59 -2.75,3.29 0,1.1 0.3,2.19 0.86,4.38 z"
         inkscape:connector-curvature="0"
         style="fill:#000000;stroke-width:0" /></g>    <g
       id="g4852"
       transform="matrix(0.43502613,0,0,-0.43512815,87.004738,334.23113)"
       xml:space="preserve"
       stroke-miterlimit="10.433"
       font-style="normal"
       font-variant="normal"
       font-weight="normal"
       font-stretch="normal"
       font-size-adjust="none"
       letter-spacing="normal"
       word-spacing="normal"
       style="font-style:normal;font-variant:normal;font-weight:normal;font-stretch:normal;letter-spacing:normal;word-spacing:normal;text-anchor:start;fill:none;stroke:#000000;stroke-width:2.44322681;stroke-linecap:butt;stroke-linejoin:miter;stroke-miterlimit:10.43299961;stroke-opacity:1;stroke-dasharray:none;stroke-dashoffset:0"><path
         d="m 479.74,425.18 0.01,0.04 0.01,0.03 0.01,0.06 0.02,0.05 0.01,0.06 0.01,0.05 0.02,0.04 0.01,0.05 0.01,0.04 0.01,0.04 0,0.04 0.01,0.04 0.01,0.04 0.01,0.03 0,0.03 0.01,0.03 0,0.03 0.01,0.03 0,0.03 0.01,0.05 0,0.06 0,0.05 0,0.05 0.01,0.05 0,0.03 0,0.03 0,0.03 0,0.03 c 0,0.91 -0.69,1.35 -1.44,1.35 -0.5,0 -1.3,-0.3 -1.75,-1.05 -0.1,-0.25 -0.5,-1.78 -0.69,-2.69 -0.36,-1.29 -0.7,-2.64 -1,-3.98 l -2.25,-8.97 c -0.19,-0.75 -2.33,-4.23 -5.62,-4.23 -2.54,0 -3.1,2.18 -3.1,4.03 0,2.29 0.86,5.39 2.55,9.76 0.8,2.05 1,2.6 1,3.6 0,2.23 -1.59,4.07 -4.09,4.07 -4.74,0 -6.58,-7.21 -6.58,-7.67 0,-0.5 0.5,-0.5 0.61,-0.5 0.5,0 0.54,0.11 0.79,0.91 1.35,4.69 3.33,6.17 5.03,6.17 0.4,0 1.25,0 1.25,-1.59 0,-1.25 -0.5,-2.53 -0.85,-3.49 -1.99,-5.28 -2.9,-8.12 -2.9,-10.47 0,-4.42 3.15,-5.92 6.08,-5.92 1.96,0 3.64,0.85 5.03,2.24 -0.64,-2.58 -1.23,-5.03 -3.23,-7.68 -1.3,-1.68 -3.19,-3.14 -5.48,-3.14 -0.69,0 -2.94,0.16 -3.79,2.1 0.8,0 1.46,0 2.14,0.61 0.5,0.43 1,1.09 1,2.03 0,1.55 -1.34,1.75 -1.84,1.75 -1.14,0 -2.8,-0.8 -2.8,-3.24 0,-2.5 2.21,-4.34 5.29,-4.34 5.14,0 10.26,4.55 11.67,10.17 z"
         id="path4854"
         inkscape:connector-curvature="0"
         style="fill:#000000;stroke-width:0" /></g>    <g
       word-spacing="normal"
       letter-spacing="normal"
       font-size-adjust="none"
       font-stretch="normal"
       font-weight="normal"
       font-variant="normal"
       font-style="normal"
       stroke-miterlimit="10.433"
       xml:space="preserve"
       transform="matrix(0.45015993,0,0,-0.45026549,46.69316,313.53547)"
       id="g4972"
       style="font-style:normal;font-variant:normal;font-weight:normal;font-stretch:normal;letter-spacing:normal;word-spacing:normal;text-anchor:start;fill:none;stroke:#000000;stroke-width:2.36108851;stroke-linecap:butt;stroke-linejoin:miter;stroke-miterlimit:10.43299961;stroke-opacity:1;stroke-dasharray:none;stroke-dashoffset:0"><path
         id="path4974"
         d="m 462.14,410.34 0.25,0.27 0.24,0.25 0.24,0.25 0.23,0.24 0.22,0.23 0.22,0.22 0.21,0.22 0.2,0.21 0.2,0.2 0.2,0.19 0.19,0.19 0.19,0.19 0.18,0.17 0.19,0.18 0.35,0.33 0.34,0.32 0.33,0.3 0.33,0.29 0.32,0.29 0.65,0.56 0.33,0.29 0.33,0.28 c 0,0.05 3.08,2.69 4.88,4.49 4.73,4.64 5.83,7.03 5.83,7.21 0,0.5 -0.46,0.5 -0.55,0.5 -0.35,0 -0.5,-0.09 -0.75,-0.54 -1.49,-2.39 -2.53,-3.19 -3.74,-3.19 -1.2,0 -1.79,0.75 -2.54,1.59 -0.94,1.16 -1.78,2.14 -3.44,2.14 -3.73,0 -6.02,-4.62 -6.02,-5.67 0,-0.25 0.14,-0.54 0.6,-0.54 0.45,0 0.54,0.25 0.64,0.54 0.95,2.3 3.84,2.35 4.23,2.35 1.05,0 2,-0.36 3.14,-0.75 2,-0.75 2.55,-0.75 3.85,-0.75 -1.8,-2.14 -5.99,-5.74 -6.92,-6.53 l -4.49,-4.18 c -3.39,-3.34 -5.14,-6.18 -5.14,-6.53 0,-0.5 0.5,-0.5 0.59,-0.5 0.41,0 0.5,0.1 0.8,0.64 1.16,1.75 2.64,3.1 4.24,3.1 1.15,0 1.65,-0.46 2.89,-1.89 0.86,-1.05 1.75,-1.85 3.18,-1.85 4.94,0 7.83,6.33 7.83,7.67 0,0.25 -0.2,0.5 -0.59,0.5 -0.46,0 -0.55,-0.29 -0.71,-0.65 -1.14,-3.24 -4.32,-4.17 -5.98,-4.17 -0.98,0 -1.89,0.29 -2.94,0.64 -1.68,0.64 -2.43,0.84 -3.48,0.84 -0.1,0 -0.89,0 -1.35,-0.14 z"
         inkscape:connector-curvature="0"
         style="fill:#000000;stroke-width:0" /></g>    <path
       style="fill:#f8f7ff;fill-opacity:1;stroke:#9578ff;stroke-width:0;stroke-linecap:butt;stroke-linejoin:miter;stroke-miterlimit:4;stroke-opacity:1;stroke-dasharray:none;stroke-dashoffset:0"
       d="m 493.97317,290.98531 c -29.53168,-1.68779 -52.1237,-8.73022 -56.09927,-17.48737 -0.7458,-1.6428 -0.73961,-2.7057 0.0244,-4.20377 l 0.61679,-1.20928 -0.67908,-0.36352 c -0.54483,-0.29165 -0.70791,-0.27861 -0.82479,0.0659 -0.14419,0.42496 -18.80721,-133.22226 -18.811,-134.70696 -10e-4,-0.42375 0.73304,1.0324 1.63142,3.23587 4.69298,11.51073 10.91744,21.00142 19.57818,29.85168 12.0367,12.30007 26.69839,20.68774 43.63982,24.96551 15.44796,3.90066 32.97055,3.4524 48.44324,-1.23925 11.1712,-3.38734 21.20308,-8.56494 30.57176,-15.77854 3.51681,-2.70784 12.29958,-11.52124 15.09561,-15.14825 5.69689,-7.39003 10.95094,-16.6765 14.03598,-24.80839 0.77164,-2.03399 1.34181,-3.2821 1.26704,-2.77362 -0.0748,0.5085 -4.40678,31.78094 -9.62672,69.49431 -5.71101,41.26151 -9.63102,68.65663 -9.84293,68.78789 -0.2207,0.1367 -0.30411,0.82698 -0.22343,1.84907 0.11371,1.44105 0.0122,1.8058 -0.87496,3.13266 -1.52074,2.27526 -4.60454,4.62459 -8.75222,6.66768 -9.29585,4.57901 -21.73441,7.42308 -40.516,9.26393 -3.22708,0.3163 -24.8549,0.62157 -28.65391,0.40445 l 0,0 z m 78.50529,-23.31044 c 0.23443,-0.28254 0.0862,-0.67625 -0.54619,-1.45134 -0.74983,-0.91894 -0.93516,-1.0078 -1.36235,-0.65318 -0.66093,0.54866 -0.62349,0.92834 0.17547,1.77898 0.75264,0.80134 1.25931,0.89652 1.73307,0.32554 l 0,0 z m -131.69522,-1.7919 c 0.89594,-0.70491 1.02383,-1.26706 0.40512,-1.78067 -0.30776,-0.25548 -0.66219,-0.12428 -1.45685,0.53928 -0.91335,0.76268 -0.99592,0.94224 -0.63394,1.37851 0.53652,0.64661 0.70721,0.63272 1.68567,-0.13712 z m 128.00704,-1.54853 c 0.22196,-0.35551 0.3593,-0.67778 0.30519,-0.71616 -2.14039,-1.51845 -2.11455,-1.50935 -2.57166,-0.90574 -0.5878,0.7762 -0.58352,0.78825 0.55165,1.55571 1.2491,0.84448 1.22935,0.84372 1.71482,0.0661 l 0,0 z m -123.28712,-2.00999 c 0.35331,-0.92094 -0.44821,-1.22005 -1.60279,-0.59811 -1.12139,0.60404 -1.31357,1.04139 -0.71895,1.63615 0.42612,0.4262 2.03615,-0.29364 2.32174,-1.03804 z m 119.33449,-1.09277 c 0,-0.26978 -1.64422,-1.18173 -2.1306,-1.18173 -0.17192,0 -0.45853,0.27279 -0.63692,0.60621 -0.28084,0.52487 -0.16861,0.68764 0.83645,1.21304 1.06505,0.55676 1.19258,0.56545 1.54594,0.10531 0.21183,-0.27581 0.38513,-0.6101 0.38513,-0.74285 l 0,0 z M 449.3182,260.8098 c 0.77571,-0.40123 0.86509,-0.56462 0.59007,-1.07862 -0.38745,-0.72412 -0.35453,-0.72104 -1.69881,-0.15923 -1.15179,0.48137 -1.16112,0.4943 -0.88146,1.22324 0.23539,0.61357 0.82387,0.61789 1.9902,0.0146 l 0,0 z m 110.88703,-1.04777 c 0.44219,-0.82646 0.46288,-0.79863 -0.93704,-1.26076 -1.07389,-0.35449 -1.29656,-0.35048 -1.53583,0.0277 -0.45002,0.71137 -0.34717,0.90918 0.71209,1.36968 1.31065,0.56981 1.38591,0.56397 1.76078,-0.13664 l 0,2e-5 z m -105.87979,-0.91956 c 0.14922,-0.14925 0.18187,-0.55327 0.0726,-0.8978 -0.17647,-0.55614 -0.30956,-0.58948 -1.18601,-0.29714 -1.29626,0.43236 -1.57305,0.71105 -1.33151,1.34065 0.15431,0.40221 0.42411,0.47566 1.18669,0.32311 0.54283,-0.10861 1.10906,-0.31956 1.25828,-0.46882 l 0,0 z m 101.26902,-0.30821 c 0,-0.15564 0.0806,-0.49336 0.17936,-0.75049 0.26285,-0.68513 -2.25741,-1.43702 -2.66342,-0.7946 -0.41979,0.66422 -0.205,0.97635 0.96213,1.39816 1.3285,0.48012 1.52193,0.49881 1.52193,0.14693 l 0,0 z m -97.40016,-0.83418 c 0.77098,-0.15424 0.96283,-0.34649 0.96283,-0.96485 0,-0.71704 -0.0808,-0.75915 -1.1288,-0.58903 -1.33011,0.21589 -1.79601,0.59799 -1.54068,1.26352 0.2075,0.54087 0.34093,0.56357 1.70665,0.29036 z m 92.77857,-1.1567 c 0,-0.59565 -0.2274,-0.7907 -1.21385,-1.04114 -0.98262,-0.24947 -1.24673,-0.22247 -1.38648,0.14181 -0.29592,0.77133 -0.19864,0.95506 0.67466,1.27409 1.44005,0.52607 1.92567,0.43157 1.92567,-0.37476 l 0,0 z m -86.97528,-0.3173 c 0.0356,-0.0304 -0.0176,-0.37032 -0.11822,-0.75535 -0.16521,-0.63189 -0.30657,-0.67967 -1.45129,-0.49066 -1.54237,0.2547 -1.52858,0.24314 -1.26852,1.06271 0.1862,0.58682 0.35552,0.63792 1.49163,0.45029 0.70488,-0.11642 1.31075,-0.23656 1.3464,-0.26699 l 0,0 z m 82.29808,-1.02995 c 0.0631,-0.44453 -0.0612,-0.6934 -0.34662,-0.6934 -0.24479,0 -0.87835,-0.0866 -1.40791,-0.19262 -0.87743,-0.17552 -0.96283,-0.12275 -0.96283,0.59492 0,0.57012 0.1914,0.82588 0.69324,0.9264 1.32789,0.266 1.92265,0.0793 2.02412,-0.6353 z m -77.78942,-0.0816 c 0.48123,-0.44067 0.0584,-1.38679 -0.57925,-1.29644 -1.73658,0.24603 -1.99152,0.3954 -1.99152,1.16683 0,0.73072 0.071,0.76592 1.1554,0.5731 0.63547,-0.113 1.27238,-0.31255 1.41537,-0.44349 z m 72.91531,-0.73151 c 0,-0.598 -0.20336,-0.77431 -1.08362,-0.93948 -1.26529,-0.23743 -1.68933,-0.0497 -1.68933,0.74785 0,0.56505 0.53329,0.7922 2.07971,0.88581 0.53716,0.0326 0.69324,-0.12378 0.69324,-0.69418 z m -67.87267,-0.0135 c 0.0356,-0.0262 -0.0193,-0.36913 -0.12201,-0.7621 -0.16557,-0.63333 -0.32459,-0.696 -1.3997,-0.55177 -1.46457,0.19648 -1.49172,0.21946 -1.26844,1.07347 0.15791,0.604 0.31618,0.65667 1.45129,0.48297 0.70072,-0.10727 1.30321,-0.21638 1.33885,-0.24257 l 0,0 z m 63.06506,-0.66487 c 0.2839,-0.74 9.2e-4,-0.97435 -1.33024,-1.10132 -1.05449,-0.10055 -1.22913,-0.0261 -1.34363,0.57306 -0.14857,0.77742 0.12881,0.95912 1.51748,0.99401 0.61766,0.0155 1.03647,-0.15316 1.15639,-0.46575 l 0,0 z m -58.40668,-0.86208 c 0.0826,-0.72332 0.006,-0.85311 -0.41034,-0.69341 -0.28155,0.10813 -0.91652,0.19649 -1.41103,0.19649 -0.75905,0 -0.89912,0.12279 -0.89912,0.78817 0,0.73666 0.0855,0.78197 1.30945,0.6934 1.18828,-0.086 1.31885,-0.17712 1.41104,-0.98465 z m 53.66299,-0.0347 c 0,-0.6458 -0.14546,-0.77045 -0.89912,-0.77045 -0.49452,0 -1.11843,-0.0842 -1.38648,-0.18706 -0.36507,-0.14013 -0.48735,0.009 -0.48735,0.59068 0,0.87381 0.32469,1.07779 1.7716,1.11295 0.86918,0.0211 1.00135,-0.0774 1.00135,-0.74612 l 0,0 z m -48.68082,-0.30818 c 0,-0.70767 -0.11297,-0.77044 -1.38648,-0.77044 -1.27351,0 -1.38648,0.0627 -1.38648,0.77044 0,0.70766 0.11297,0.77045 1.38648,0.77045 1.27351,0 1.38648,-0.0627 1.38648,-0.77045 z m 4.23646,0.1583 c 0.7195,-0.005 0.87894,-0.4665 0.41415,-1.20051 -0.19235,-0.30379 -0.5884,-0.36604 -1.38175,-0.21717 -0.93498,0.17545 -1.11212,0.3349 -1.11212,1.00111 0,0.67138 0.1059,0.76404 0.69324,0.6066 0.38129,-0.10227 1.0052,-0.18773 1.38648,-0.19003 l 0,0 z m 39.51466,-0.46648 c 0,-0.70767 -0.11298,-0.77044 -1.38648,-0.77044 -1.2735,0 -1.38648,0.0627 -1.38648,0.77044 0,0.70768 0.11298,0.77045 1.38648,0.77045 1.2735,0 1.38648,-0.0627 1.38648,-0.77045 z m -4.92971,-0.30818 c 0,-0.69439 -0.1226,-0.77044 -1.24209,-0.77044 -0.85467,0 -1.30114,0.15389 -1.43138,0.49336 -0.24298,0.63337 0.40396,1.03683 1.67213,1.04281 0.86396,0.004 1.00134,-0.10093 1.00134,-0.76573 z m -29.27011,-0.30817 c 0,-0.69149 -0.12445,-0.77046 -1.21424,-0.77046 -1.27442,0 -1.72887,0.34469 -1.44164,1.09339 0.11078,0.28883 0.61213,0.44751 1.41379,0.44751 1.11949,0 1.24209,-0.076 1.24209,-0.77044 z m 4.50606,0.46226 c 0.25186,0 0.42365,-0.32803 0.42365,-0.80897 0,-0.74169 -0.08,-0.79294 -0.96283,-0.61636 -0.52956,0.10592 -1.15348,0.19261 -1.38649,0.19261 -0.25187,0 -0.42365,0.32803 -0.42365,0.80897 0,0.74169 0.08,0.79296 0.96284,0.61636 0.52956,-0.10592 1.15348,-0.19261 1.38648,-0.19261 z m 19.83435,0.0253 c 0,-0.15564 0.0842,-0.50234 0.18702,-0.77044 0.15386,-0.40105 -0.0647,-0.48749 -1.23242,-0.48749 -1.30868,0 -1.41944,0.0602 -1.41944,0.77046 0,0.6934 0.12323,0.77044 1.23242,0.77044 0.67783,0 1.23242,-0.12733 1.23242,-0.28297 z m -14.481,-0.79566 c 0,-0.70767 -0.11298,-0.77045 -1.38648,-0.77045 -1.27351,0 -1.38649,0.0627 -1.38649,0.77045 0,0.70767 0.11298,0.77045 1.38649,0.77045 1.2735,0 1.38648,-0.0627 1.38648,-0.77045 z m 4.9297,0 c 0,-0.70767 -0.11297,-0.77045 -1.38647,-0.77045 -1.27352,0 -1.38648,0.0627 -1.38648,0.77045 0,0.70767 0.11297,0.77045 1.38648,0.77045 1.2735,0 1.38647,-0.0627 1.38647,-0.77045 z m 4.92971,0 c 0,-0.70767 -0.11298,-0.77045 -1.38648,-0.77045 -1.27351,0 -1.38648,0.0627 -1.38648,0.77045 0,0.70767 0.11298,0.77045 1.38648,0.77045 1.2735,0 1.38648,-0.0627 1.38648,-0.77045 z"
       id="path3847-5"
       inkscape:connector-curvature="0" />
    <path
       style="fill:#f4f0ff;fill-opacity:1;stroke:none"
       d="m 492.94279,290.83636 c -0.83877,-0.079 -3.97602,-0.35246 -6.97164,-0.60772 -12.95769,-1.10413 -23.97278,-3.32126 -33.26368,-6.69535 -5.7623,-2.09264 -9.16358,-3.96469 -11.95201,-6.57831 -2.91682,-2.73396 -3.80457,-4.94984 -2.87509,-7.17643 0.58025,-1.39001 0.56463,-1.564 -0.19556,-2.17915 -0.86669,-0.70133 -1.94155,-7.89852 -11.88087,-79.55385 -6.56815,-47.35175 -7.3707,-53.21987 -7.3707,-53.89421 0,-0.96516 0.70186,0.19994 1.74816,2.90203 2.46638,6.36944 7.05201,14.379 11.71455,20.46136 16.36645,21.3504 40.74078,34.34451 67.90957,36.20304 3.98323,0.27247 4.46622,0.39469 4.46622,1.13017 0,0.53409 0.30703,0.82464 0.87145,0.82464 0.58097,0 0.87146,-0.29055 0.87146,-0.87166 0,-0.86311 0.29048,-0.87166 29.62952,-0.87166 32.90998,0 30.40934,-0.25004 28.9189,2.89158 -0.39085,0.82384 -0.63594,1.56762 -0.54466,1.65282 0.22401,0.2091 14.75988,-5.13656 14.76156,-5.42866 10e-4,-0.29501 -14.53987,-5.62345 -14.76156,-5.40905 -0.0913,0.0882 0.15381,0.83457 0.54466,1.65841 1.47865,3.11677 3.06346,2.89815 -20.53113,2.83223 -11.68296,-0.0327 -20.75156,-0.14227 -20.15244,-0.24362 2.57364,-0.43532 10.65208,-2.88942 14.68028,-4.45963 23.49362,-9.15788 42.17446,-27.64695 51.77311,-51.24162 1.48666,-3.65438 2.12305,-4.51675 1.76897,-2.39708 -0.21601,1.2931 -10.74453,77.11784 -13.97932,100.67686 -1.29014,9.39614 -3.45555,24.1412 -4.59127,31.26364 -0.46761,2.93244 -0.85019,5.86215 -0.85019,6.51048 0,3.88823 -7.43452,8.9426 -18.47436,12.55984 -4.94248,1.61941 -15.21739,3.71134 -23.57342,4.79943 -8.48867,1.10536 -31.194,1.85325 -37.69051,1.24147 z m 13.07186,-23.25174 c 0,-1.01693 -0.19366,-1.30749 -0.87146,-1.30749 -0.67781,0 -0.87145,0.29056 -0.87145,1.30749 0,1.01694 0.19364,1.3075 0.87145,1.3075 0.6778,0 0.87146,-0.29056 0.87146,-1.3075 z m 66.47574,-0.0439 c 0.44949,-0.72746 -1.42414,-2.43762 -2.01887,-1.84275 -0.34465,0.34473 -0.31701,0.73167 0.0999,1.3995 0.62884,1.0072 1.45283,1.19753 1.9189,0.44325 z M 440.73001,265.9917 c 1.5922,-1.44125 0.58928,-2.57613 -1.15146,-1.30298 -0.49449,0.36168 -0.70103,0.86867 -0.53268,1.3075 0.34616,0.90229 0.68337,0.90138 1.68414,-0.005 l 0,2e-5 z m 127.59026,-2.85585 c -1.12512,-0.91128 -1.56983,-0.97235 -2.00085,-0.27475 -0.17747,0.28722 0.11871,0.856 0.68424,1.31406 0.8014,0.64908 1.1232,0.70302 1.63913,0.27474 0.55537,-0.46102 0.51186,-0.63825 -0.32252,-1.31405 l 0,0 z m -62.30562,-0.34533 c 0,-1.01694 -0.19366,-1.3075 -0.87146,-1.3075 -0.67781,0 -0.87145,0.29056 -0.87145,1.3075 0,1.01693 0.19364,1.30749 0.87145,1.30749 0.6778,0 0.87146,-0.29056 0.87146,-1.30749 z m -61.00551,0.0906 c 0.83439,-0.67581 0.87789,-0.85304 0.32252,-1.31406 -0.51593,-0.42828 -0.83772,-0.37434 -1.63912,0.27474 -0.56555,0.45806 -0.86172,1.02684 -0.68425,1.31406 0.43103,0.6976 0.87573,0.63653 2.00085,-0.27474 l 0,0 z m 119.71915,-1.28678 c 0.21012,-0.6305 -1.51409,-1.55769 -2.32087,-1.24804 -0.90329,0.34671 -0.75896,0.93662 0.36084,1.47485 1.125,0.54074 1.72747,0.47102 1.96003,-0.22681 z M 449.0971,260.99297 c 1.16807,-0.53233 1.09866,-1.69359 -0.10053,-1.68241 -1.1516,0.011 -1.9536,0.72128 -1.66453,1.47475 0.31861,0.83048 0.38208,0.83795 1.76509,0.20766 l 0,0 z m 111.24983,-1.50502 c 0.18545,-0.55719 -1.93159,-1.61303 -2.51327,-1.25345 -0.22168,0.13704 -0.40307,0.51741 -0.40307,0.84523 0,0.99357 2.60039,1.35756 2.91634,0.40822 l 0,0 z M 454.5987,258.1172 c 0,-0.51534 -0.31249,-0.60308 -1.38434,-0.38866 -1.68209,0.33651 -1.75465,0.40071 -1.4247,1.26072 0.21191,0.55236 0.50339,0.59747 1.53531,0.23766 0.70054,-0.24427 1.27373,-0.74364 1.27373,-1.10972 z m 51.41595,-0.33871 c 0,-1.23486 -0.166,-1.52541 -0.87146,-1.52541 -0.70546,0 -0.87145,0.29055 -0.87145,1.52541 0,1.23485 0.16599,1.52541 0.87145,1.52541 0.70546,0 0.87146,-0.29056 0.87146,-1.52541 z m 49.67303,-0.0174 c 0,-0.87628 -2.16795,-1.35547 -2.65283,-0.58637 -0.27469,0.43571 -0.0494,0.74372 0.80929,1.10642 1.32025,0.55768 1.84354,0.41007 1.84354,-0.52005 z m -96.39554,-0.39147 c 0.066,-0.066 -0.006,-0.4482 -0.15964,-0.84921 -0.19463,-0.50734 -0.56224,-0.64398 -1.20851,-0.44923 -1.27988,0.38569 -1.73826,0.88453 -1.36615,1.48675 0.26278,0.42531 2.25822,0.28789 2.7343,-0.18831 z m 91.52182,-1.00755 c -0.17991,-0.94888 -2.53367,-1.34691 -2.53367,-0.42846 0,0.87427 0.43356,1.19116 1.62962,1.19116 0.76332,0 1.00932,-0.20752 0.90405,-0.7627 l 0,0 z m -87.40772,-0.0308 c 1.08367,-0.43015 0.2656,-1.49596 -1.00925,-1.31489 -1.24485,0.17681 -1.73439,1.68823 -0.53178,1.64186 0.43695,-0.0168 1.13042,-0.16399 1.54103,-0.32697 z m 82.87692,-0.79435 c 0.33627,-0.8765 0.35902,-0.85623 -1.37975,-1.22883 -1.2286,-0.26327 -1.41613,-0.18745 -1.41613,0.57253 0,0.5619 0.35152,0.94369 0.98039,1.06485 0.53922,0.10385 1.10648,0.21559 1.26057,0.24823 0.1541,0.0327 0.40381,-0.26291 0.55492,-0.65678 l 0,0 z m -78.3591,-0.15554 c 0.33986,0 0.61795,-0.41512 0.61795,-0.92249 0,-0.74398 -0.18973,-0.87163 -0.98039,-0.6597 -0.53921,0.14454 -1.12745,0.26547 -1.30719,0.26875 -0.17973,0.004 -0.3268,0.41917 -0.3268,0.92424 0,0.65829 0.19515,0.84339 0.68924,0.65374 0.37908,-0.1455 0.96731,-0.26454 1.30719,-0.26454 z m 4.79301,-0.87167 c 0.33986,0 0.61795,-0.41512 0.61795,-0.92249 0,-0.74397 -0.18972,-0.87163 -0.98039,-0.6597 -0.53921,0.14454 -1.12745,0.26549 -1.30719,0.26876 -0.17973,0.004 -0.32678,0.41918 -0.32678,0.92423 0,0.65831 0.19513,0.8434 0.68922,0.65376 0.37908,-0.14551 0.96731,-0.26456 1.30719,-0.26456 z m 68.59158,-0.17128 c 0,-0.62323 -0.90133,-1.1362 -1.99643,-1.1362 -0.33986,0 -0.61795,0.39224 -0.61795,0.87166 0,0.67796 0.29049,0.87166 1.30719,0.87166 0.82683,0 1.30719,-0.2231 1.30719,-0.60712 z m -35.294,-1.1362 c 0,-0.87166 0.21786,-1.30749 0.65359,-1.30749 0.35947,0 0.6536,-0.29419 0.6536,-0.65375 0,-0.907 -2.43595,-0.87582 -2.78562,0.0356 -0.14547,0.37915 -0.26448,1.26172 -0.26448,1.96123 0,0.98129 0.19907,1.27185 0.87145,1.27185 0.6778,0 0.87146,-0.29056 0.87146,-1.30749 l 0,0 z m -28.57585,0.60711 c 1.21417,-0.46603 0.79097,-1.47877 -0.61795,-1.47877 -1.01671,0 -1.30718,0.1937 -1.30718,0.87166 0,0.88122 0.66478,1.09087 1.92513,0.60711 z m 59.07684,-0.38919 c 0,-0.35957 -0.14707,-0.65643 -0.3268,-0.6597 -0.17974,-0.004 -0.76797,-0.12422 -1.30719,-0.26875 -0.79066,-0.21194 -0.98039,-0.0843 -0.98039,0.65969 0,0.73444 0.26647,0.9225 1.30719,0.9225 0.87145,0 1.30719,-0.21792 1.30719,-0.65374 z m -4.79301,-0.65376 c 0,-0.67795 -0.2905,-0.87165 -1.30719,-0.87165 -1.01671,0 -1.30719,0.1937 -1.30719,0.87165 0,0.67797 0.29048,0.87167 1.30719,0.87167 1.01669,0 1.30719,-0.1937 1.30719,-0.87167 z m -48.36586,0.25356 c 0,-0.95045 -0.62505,-1.38229 -1.75963,-1.21572 -1.86558,0.27386 -1.67695,1.398 0.23458,1.398 0.83878,0 1.52505,-0.082 1.52505,-0.18228 z m 4.68881,-1.06893 c -0.10041,-0.48225 -0.54373,-0.68138 -1.38196,-0.62073 -1.46969,0.10629 -1.74889,0.32537 -1.44026,1.12984 0.34763,0.90611 3.01661,0.42465 2.82222,-0.50911 l 0,0 z m 38.88402,0.37955 c 0,-0.67797 -0.29048,-0.87167 -1.30717,-0.87167 -1.01671,0 -1.30719,0.1937 -1.30719,0.87167 0,0.67796 0.29048,0.87166 1.30719,0.87166 1.01669,0 1.30717,-0.1937 1.30717,-0.87166 z m -4.79301,-0.43583 c 0,-0.67407 -0.29048,-0.87167 -1.28147,-0.87167 -1.44896,0 -2.18495,0.77609 -1.27979,1.34955 1.13969,0.72203 2.56126,0.45679 2.56126,-0.47788 z m -29.27675,-0.32688 c -0.0808,-0.41949 -0.48729,-0.73819 -0.9034,-0.70823 -0.41611,0.03 -1.05067,0.079 -1.41014,0.10898 -0.35949,0.03 -0.6536,0.34866 -0.6536,0.70823 0,0.45913 0.46348,0.65374 1.557,0.65374 1.24831,0 1.52788,-0.15121 1.41014,-0.76271 z m 4.79526,-0.21791 c 0.11139,-0.58748 -0.15233,-0.76271 -1.14791,-0.76271 -1.21941,0 -2.09507,0.88857 -1.48097,1.50281 0.55786,0.55798 2.48566,0.0153 2.62888,-0.7401 z m 14.81403,0 c 0.11652,-0.61121 -0.16392,-0.76271 -1.41165,-0.76271 -1.05281,0 -1.55701,0.19994 -1.55701,0.61743 0,1.2808 2.72687,1.41425 2.96866,0.14528 z m 4.87445,0.10897 c 0,-0.67407 -0.29049,-0.87165 -1.28147,-0.87165 -1.33951,0 -2.00957,0.56494 -1.55076,1.30749 0.14811,0.23971 0.84596,0.43583 1.55076,0.43583 0.99098,0 1.28147,-0.19758 1.28147,-0.87167 z m -14.81477,-0.21791 c 0,-0.43583 -0.43572,-0.65374 -1.30717,-0.65374 -0.87146,0 -1.30719,0.21791 -1.30719,0.65374 0,0.43584 0.43573,0.65375 1.30719,0.65375 0.87145,0 1.30717,-0.21791 1.30717,-0.65375 z m 3.48584,-3.05081 c 0,-1.23485 -0.166,-1.52541 -0.87146,-1.52541 -0.70546,0 -0.87145,0.29056 -0.87145,1.52541 0,1.23486 0.16599,1.5254 0.87145,1.5254 0.70546,0 0.87146,-0.29054 0.87146,-1.5254 z m 0,-5.01205 c 0,-1.01694 -0.19366,-1.3075 -0.87146,-1.3075 -0.67781,0 -0.87145,0.29056 -0.87145,1.3075 0,1.01693 0.19364,1.30749 0.87145,1.30749 0.6778,0 0.87146,-0.29056 0.87146,-1.30749 z m 0,-4.79414 c 0,-1.01693 -0.19366,-1.30749 -0.87146,-1.30749 -0.67781,0 -0.87145,0.29056 -0.87145,1.30749 0,1.01694 0.19364,1.3075 0.87145,1.3075 0.6778,0 0.87146,-0.29056 0.87146,-1.3075 z m -50.10876,-2.98326 c 0,-0.20255 -0.41335,-0.7419 -0.91856,-1.19854 -1.3248,-1.19745 -2.90982,-4.5322 -3.65326,-7.68623 -1.56326,-6.63202 -0.13502,-14.26045 3.47292,-18.54924 1.61223,-1.91647 0.52198,-2.29041 -1.36079,-0.46674 -6.20357,6.00889 -6.39731,19.79806 -0.37188,26.46905 1.49354,1.65356 2.83157,2.33009 2.83157,1.4317 z m 33.23565,-1.14511 c 4.01695,-4.13707 5.75344,-12.45818 4.00281,-19.18092 -0.78165,-3.00162 -1.91171,-5.035 -4.06136,-7.30781 -2.57751,-2.72519 -3.13579,-1.94355 -0.79894,1.11861 2.29668,3.00951 3.1337,6.23221 3.1337,12.06527 0,5.83307 -0.83702,9.05576 -3.1337,12.06527 -2.30234,3.01692 -1.70569,3.87943 0.85749,1.23958 z m 16.87311,-0.88367 c 0,-1.23486 -0.166,-1.52541 -0.87146,-1.52541 -0.70546,0 -0.87145,0.29055 -0.87145,1.52541 0,1.23484 0.16599,1.5254 0.87145,1.5254 0.70546,0 0.87146,-0.29056 0.87146,-1.5254 z m 0,-4.79415 c 0,-1.23485 -0.166,-1.52541 -0.87146,-1.52541 -0.70546,0 -0.87145,0.29056 -0.87145,1.52541 0,1.23486 0.16599,1.52541 0.87145,1.52541 0.70546,0 0.87146,-0.29055 0.87146,-1.52541 z m -45.97332,-0.21418 c 0.92234,-0.86669 0.9261,-0.86669 2.62566,0 2.95698,1.50791 5.68654,1.01833 8.2911,-1.4871 2.25896,-2.17299 3.12493,-4.74832 2.36802,-7.04234 -0.61279,-1.85718 -1.68103,-2.62363 -4.92595,-3.53432 -2.839,-0.79677 -3.84651,-1.87925 -3.47928,-3.73817 0.34754,-1.75926 2.88042,-3.81418 4.70131,-3.81418 2.32841,0 3.76861,1.51622 3.93381,4.14148 0.0744,1.18339 0.32333,2.21427 0.55302,2.29086 0.46145,0.15384 2.46,-7.26532 2.06386,-7.66157 -0.13623,-0.13625 -0.65971,0.16436 -1.16327,0.66805 -0.90738,0.90758 -0.92778,0.90836 -2.27549,0.0864 -4.1596,-2.53703 -10.29231,1.10249 -10.29231,6.10808 0,3.16765 0.97272,4.0883 5.55671,5.25922 3.41201,0.87155 4.04321,3.8448 1.38143,6.50721 -3.3449,3.34568 -8.24533,1.43578 -8.24533,-3.21357 0,-2.63171 -0.72198,-1.71642 -1.68941,2.14175 -0.50872,2.02882 -0.92495,3.79394 -0.92495,3.92246 0,0.47089 0.62022,0.21227 1.52107,-0.63423 z m 45.97332,-4.57995 c 0,-1.23485 -0.166,-1.52541 -0.87146,-1.52541 -0.70546,0 -0.87145,0.29056 -0.87145,1.52541 0,1.23486 0.16599,1.5254 0.87145,1.5254 0.70546,0 0.87146,-0.29054 0.87146,-1.5254 z m 0,-5.01205 c 0,-1.01694 -0.19366,-1.3075 -0.87146,-1.3075 -0.67781,0 -0.87145,0.29056 -0.87145,1.3075 0,1.01693 0.19364,1.30749 0.87145,1.30749 0.6778,0 0.87146,-0.29056 0.87146,-1.30749 z m -24.73664,-6.62648 c 2.17434,-4.7867 2.28462,-6.0126 0.54088,-6.0126 -0.75717,0 -1.11911,0.35341 -1.45055,1.41644 -2.21802,7.11357 -2.64931,8.73415 -2.42223,9.10164 0.57231,0.92624 1.32991,-0.0982 3.3319,-4.50548 z m 24.73664,1.83234 c 0,-1.01693 -0.19366,-1.30749 -0.87146,-1.30749 -0.67781,0 -0.87145,0.29056 -0.87145,1.30749 0,1.01694 0.19364,1.3075 0.87145,1.3075 0.6778,0 0.87146,-0.29056 0.87146,-1.3075 z m 61.72976,-1.95322 c 0.81422,-0.57043 0.98419,-0.57043 1.4575,0 0.29467,0.35515 0.98692,0.64573 1.53832,0.64573 1.20625,0 3.48975,-1.82581 3.80856,-3.04521 0.37295,-1.42653 -0.46763,-1.44948 -1.20007,-0.0328 -0.83232,1.60993 -2.29349,2.49775 -2.98022,1.81084 -0.52529,-0.52541 0.22046,-5.05742 1.1488,-6.98146 0.65972,-1.3673 1.59952,-1.67872 1.59952,-0.53004 0,1.06073 0.54578,1.46717 1.48573,1.1064 1.12863,-0.4332 0.86071,-2.30962 -0.39814,-2.78834 -1.17685,-0.44754 -3.26624,0.20852 -3.26624,1.02557 0,0.24704 -0.26636,0.0848 -0.59192,-0.36051 -0.97759,-1.33725 -3.24304,-1.05928 -4.705,0.57733 -1.21136,1.35606 -1.62956,2.68073 -0.84632,2.68073 0.21598,0 0.7976,-0.68643 1.2925,-1.5254 0.95171,-1.61343 2.4932,-2.06304 2.9541,-0.86165 0.35424,0.92336 -1.06814,6.36269 -1.90638,7.29015 -0.92816,1.02695 -1.3962,0.96189 -1.10458,-0.15356 0.26147,-1.00007 -0.53974,-1.7547 -1.47988,-1.39385 -0.84183,0.32312 -0.71913,2.18818 0.17836,2.71104 1.07178,0.62441 1.94681,0.57362 3.01536,-0.17499 l 0,0 z m -61.72976,-3.05882 c 0,-1.23486 -0.166,-1.52541 -0.87146,-1.52541 -0.70546,0 -0.87145,0.29055 -0.87145,1.52541 0,1.23484 0.16599,1.5254 0.87145,1.5254 0.70546,0 0.87146,-0.29056 0.87146,-1.5254 z m 0,-4.79415 c 0,-1.23485 -0.166,-1.52541 -0.87146,-1.52541 -0.70546,0 -0.87145,0.29056 -0.87145,1.52541 0,1.23486 0.16599,1.52541 0.87145,1.52541 0.70546,0 0.87146,-0.29055 0.87146,-1.52541 z m 73.40703,-3.98385 c 0.84603,-1.83156 1.53825,-3.68316 1.53825,-4.11467 0,-1.07675 -0.83357,-1.50122 -1.52909,-0.77862 -0.68607,0.7128 -2.84655,7.62394 -2.49365,7.97692 0.59584,0.59597 1.03873,0.0463 2.48449,-3.08363 z m -73.40703,-0.81028 c 0,-1.23485 -0.166,-1.52541 -0.87146,-1.52541 -0.70546,0 -0.87145,0.29056 -0.87145,1.52541 0,1.23486 0.16599,1.5254 0.87145,1.5254 0.70546,0 0.87146,-0.29054 0.87146,-1.5254 z"
       id="path3940"
       inkscape:connector-curvature="0" />
    <path
       style="fill:none;stroke:#000000;stroke-width:1px;stroke-linecap:butt;stroke-linejoin:miter;stroke-opacity:1"
       d="M 410.30238,82.352777 436.69634,272.62688"
       id="path3010-3"
       inkscape:path-effect="#path-effect3012-1"
       inkscape:original-d="M 410.30238,82.352777 C 466.7616,293.11091 436.69634,272.62688 436.69634,272.62688"
       inkscape:connector-curvature="0"
       sodipodi:nodetypes="cc" />
    <path
       sodipodi:type="arc"
       style="fill:none;stroke:#000000;stroke-width:0.81954956;stroke-opacity:1"
       id="path3014-69"
       sodipodi:cx="231.57747"
       sodipodi:cy="278.58533"
       sodipodi:rx="56.316006"
       sodipodi:ry="17.172594"
       d="m 287.89347,278.58533 a 56.316006,17.172594 0 1 1 -112.63201,0"
       transform="matrix(1.2200394,0,0,1.2203255,222.65851,-68.912559)"
       sodipodi:start="0"
       sodipodi:end="3.1415927"
       sodipodi:open="true" />
    <path
       sodipodi:type="arc"
       style="fill:none;stroke:#000000;stroke-width:0.69229847;stroke-opacity:1"
       id="path3014-3-3"
       sodipodi:cx="231.57747"
       sodipodi:cy="278.58533"
       sodipodi:rx="56.316006"
       sodipodi:ry="17.172594"
       d="m 287.89347,278.58533 a 56.316006,17.172594 0 1 1 -112.63201,0 56.316006,17.172594 0 1 1 112.63201,0 z"
       transform="matrix(1.6852387,0,0,1.2380888,114.9279,-263.40902)" />
    <path
       style="fill:none;stroke:#000000;stroke-width:1px;stroke-linecap:butt;stroke-linejoin:miter;stroke-opacity:1"
       d="M 600.05596,82.352192 573.66199,272.6263"
       id="path3010-2-0"
       inkscape:path-effect="#path-effect3012-2-5"
       inkscape:original-d="M 600.05596,82.352192 C 543.59673,293.11033 573.66199,272.6263 573.66199,272.6263"
       inkscape:connector-curvature="0"
       sodipodi:nodetypes="cc" />
    <path
       sodipodi:type="arc"
       style="fill:none;stroke:#000000;stroke-width:0.81954956;stroke-miterlimit:4;stroke-opacity:1;stroke-dasharray:1.63909914, 1.63909914;stroke-dashoffset:0"
       id="path3014-6-0"
       sodipodi:cx="231.57747"
       sodipodi:cy="278.58533"
       sodipodi:rx="56.316006"
       sodipodi:ry="17.172594"
       d="m 287.89347,278.58533 a 56.316006,17.172594 0 1 1 -112.63201,0"
       transform="matrix(1.2200394,0,0,-1.2203255,222.49586,612.15522)"
       sodipodi:start="0"
       sodipodi:end="3.1415927"
       sodipodi:open="true" />
    <path
       style="fill:none;stroke:#2e00cf;stroke-width:1px;stroke-linecap:butt;stroke-linejoin:miter;stroke-opacity:1"
       d="m 415.02488,116.58902 c 3.35756,20.51349 13.97308,39.76414 29.52977,53.55059 15.55668,13.78645 35.94391,22.01066 56.71227,22.87774 22.03637,0.92002 44.32113,-6.48583 61.42345,-20.41273 17.10232,-13.9269 28.86848,-34.24966 32.43104,-56.0156"
       id="path3843-5"
       inkscape:path-effect="#path-effect3845-7"
       inkscape:original-d="m 415.02488,116.58902 c 0,0 47.84287,75.62694 86.24204,76.42833 40.33311,0.84175 93.85449,-76.42833 93.85449,-76.42833"
       inkscape:connector-curvature="0"
       sodipodi:nodetypes="cac" />
    <path
       style="fill:none;stroke:#000000;stroke-width:1;stroke-linecap:butt;stroke-linejoin:miter;stroke-miterlimit:4;stroke-opacity:1;stroke-dasharray:1.99999999, 1.99999999;stroke-dashoffset:0"
       d="m 505.06352,268.86098 0,-227.997382"
       id="path3855-9"
       inkscape:connector-curvature="0" />
    <path
       style="fill:none;stroke:#000000;stroke-width:0.99999982px;stroke-linecap:butt;stroke-linejoin:miter;stroke-opacity:1;marker-end:url(#Arrow2Lend)"
       d="m 505.06348,192.72613 0,-72.03156"
       id="path7082-6"
       inkscape:connector-curvature="0" />
    <path
       style="fill:none;stroke:#000000;stroke-width:0.99999994px;stroke-linecap:butt;stroke-linejoin:miter;stroke-opacity:1;marker-end:url(#Arrow2Lend)"
       d="m 505.53398,193.06691 71.49257,0"
       id="path7082-1-8"
       inkscape:connector-curvature="0" />
    <path
       style="fill:none;stroke:#000000;stroke-width:0.99999994px;stroke-linecap:butt;stroke-linejoin:miter;stroke-opacity:1;marker-end:url(#Arrow2Lend)"
       d="m 505.02605,192.63452 52.40631,-27.06886"
       id="path7082-1-0-1"
       inkscape:connector-curvature="0"
       sodipodi:nodetypes="cc" />
    <path
       sodipodi:type="arc"
       style="fill:none;stroke:#2e00cf;stroke-width:0.73044562;stroke-miterlimit:4;stroke-opacity:1;stroke-dasharray:none;stroke-dashoffset:0"
       id="path3014-3-5-0"
       sodipodi:cx="231.57747"
       sodipodi:cy="278.58533"
       sodipodi:rx="56.316006"
       sodipodi:ry="17.172594"
       d="m 287.89347,278.58533 a 56.316006,17.172594 0 1 1 -112.63201,0 56.316006,17.172594 0 1 1 112.63201,0 z"
       transform="matrix(1.597228,0,0,1.1734303,135.1933,-210.09623)" />
    <g
       style="font-style:normal;font-variant:normal;font-weight:normal;font-stretch:normal;letter-spacing:normal;word-spacing:normal;text-anchor:start;fill:none;stroke:#000000;stroke-width:2.42641473;stroke-linecap:butt;stroke-linejoin:miter;stroke-miterlimit:10.43299961;stroke-opacity:1;stroke-dasharray:none;stroke-dashoffset:0"
       word-spacing="normal"
       letter-spacing="normal"
       font-size-adjust="none"
       font-stretch="normal"
       font-weight="normal"
       font-variant="normal"
       font-style="normal"
       stroke-miterlimit="10.433"
       xml:space="preserve"
       transform="matrix(0.43804027,0,0,-0.438143,344.15631,335.60215)"
       id="g6512"><path
         style="fill:#000000;stroke-width:0"
         inkscape:connector-curvature="0"
         id="path6514"
         d="m 479.74,425.18 0.01,0.04 0.01,0.03 0.01,0.06 0.02,0.05 0.01,0.06 0.01,0.05 0.02,0.04 0.01,0.05 0.01,0.04 0.01,0.04 0,0.04 0.01,0.04 0.01,0.04 0.01,0.03 0,0.03 0.01,0.03 0,0.03 0.01,0.03 0,0.03 0.01,0.05 0,0.06 0,0.05 0,0.05 0.01,0.05 0,0.03 0,0.03 0,0.03 0,0.03 c 0,0.91 -0.69,1.35 -1.44,1.35 -0.5,0 -1.3,-0.3 -1.75,-1.05 -0.1,-0.25 -0.5,-1.78 -0.69,-2.69 -0.36,-1.29 -0.7,-2.64 -1,-3.98 l -2.25,-8.97 c -0.19,-0.75 -2.33,-4.23 -5.62,-4.23 -2.54,0 -3.1,2.18 -3.1,4.03 0,2.29 0.86,5.39 2.55,9.76 0.8,2.05 1,2.6 1,3.6 0,2.23 -1.59,4.07 -4.09,4.07 -4.74,0 -6.58,-7.21 -6.58,-7.67 0,-0.5 0.5,-0.5 0.61,-0.5 0.5,0 0.54,0.11 0.79,0.91 1.35,4.69 3.33,6.17 5.03,6.17 0.4,0 1.25,0 1.25,-1.59 0,-1.25 -0.5,-2.53 -0.85,-3.49 -1.99,-5.28 -2.9,-8.12 -2.9,-10.47 0,-4.42 3.15,-5.92 6.08,-5.92 1.96,0 3.64,0.85 5.03,2.24 -0.64,-2.58 -1.23,-5.03 -3.23,-7.68 -1.3,-1.68 -3.19,-3.14 -5.48,-3.14 -0.69,0 -2.94,0.16 -3.79,2.1 0.8,0 1.46,0 2.14,0.61 0.5,0.43 1,1.09 1,2.03 0,1.55 -1.34,1.75 -1.84,1.75 -1.14,0 -2.8,-0.8 -2.8,-3.24 0,-2.5 2.21,-4.34 5.29,-4.34 5.14,0 10.26,4.55 11.67,10.17 z" /><path
         style="fill:#000000;stroke-width:0"
         inkscape:connector-curvature="0"
         id="path6516"
         d="m 491.91,440.65 0.03,0.06 0.02,0.05 0.02,0.05 0.02,0.05 0.02,0.04 0.02,0.05 0.02,0.04 0.02,0.04 0.01,0.05 0.02,0.04 0.01,0.03 0.01,0.04 0.01,0.04 0.01,0.03 0.01,0.04 0.01,0.03 0.01,0.03 0.01,0.03 0,0.03 0.01,0.03 0,0.03 0.01,0.03 0,0.03 0,0.02 0.01,0.06 0,0.05 0,0.04 0,0.05 c 0,1.08 -0.98,1.92 -2.06,1.92 -1.33,0 -1.73,-1.09 -1.91,-1.64 l -4.61,-15.09 c -0.03,-0.06 -0.17,-0.52 -0.17,-0.56 0,-0.41 1.08,-0.77 1.36,-0.77 0.25,0 0.28,0.08 0.52,0.59 z" /></g>    <g
       style="font-style:normal;font-variant:normal;font-weight:normal;font-stretch:normal;letter-spacing:normal;word-spacing:normal;text-anchor:start;fill:none;stroke:#000000;stroke-width:2.39575791;stroke-linecap:butt;stroke-linejoin:miter;stroke-miterlimit:10.43299961;stroke-opacity:1;stroke-dasharray:none;stroke-dashoffset:0"
       id="g6736"
       transform="matrix(0.46014475,0,0,-0.42783838,301.70921,304.12173)"
       xml:space="preserve"
       stroke-miterlimit="10.433"
       font-style="normal"
       font-variant="normal"
       font-weight="normal"
       font-stretch="normal"
       font-size-adjust="none"
       letter-spacing="normal"
       word-spacing="normal"><path
         style="fill:#000000;stroke-width:0"
         inkscape:connector-curvature="0"
         d="m 462.14,410.34 0.25,0.27 0.24,0.25 0.24,0.25 0.23,0.24 0.22,0.23 0.22,0.22 0.21,0.22 0.2,0.21 0.2,0.2 0.2,0.19 0.19,0.19 0.19,0.19 0.18,0.17 0.19,0.18 0.35,0.33 0.34,0.32 0.33,0.3 0.33,0.29 0.32,0.29 0.65,0.56 0.33,0.29 0.33,0.28 c 0,0.05 3.08,2.69 4.88,4.49 4.73,4.64 5.83,7.03 5.83,7.21 0,0.5 -0.46,0.5 -0.55,0.5 -0.35,0 -0.5,-0.09 -0.75,-0.54 -1.49,-2.39 -2.53,-3.19 -3.74,-3.19 -1.2,0 -1.79,0.75 -2.54,1.59 -0.94,1.16 -1.78,2.14 -3.44,2.14 -3.73,0 -6.02,-4.62 -6.02,-5.67 0,-0.25 0.14,-0.54 0.6,-0.54 0.45,0 0.54,0.25 0.64,0.54 0.95,2.3 3.84,2.35 4.23,2.35 1.05,0 2,-0.36 3.14,-0.75 2,-0.75 2.55,-0.75 3.85,-0.75 -1.8,-2.14 -5.99,-5.74 -6.92,-6.53 l -4.49,-4.18 c -3.39,-3.34 -5.14,-6.18 -5.14,-6.53 0,-0.5 0.5,-0.5 0.59,-0.5 0.41,0 0.5,0.1 0.8,0.64 1.16,1.75 2.64,3.1 4.24,3.1 1.15,0 1.65,-0.46 2.89,-1.89 0.86,-1.05 1.75,-1.85 3.18,-1.85 4.94,0 7.83,6.33 7.83,7.67 0,0.25 -0.2,0.5 -0.59,0.5 -0.46,0 -0.55,-0.29 -0.71,-0.65 -1.14,-3.24 -4.32,-4.17 -5.98,-4.17 -0.98,0 -1.89,0.29 -2.94,0.64 -1.68,0.64 -2.43,0.84 -3.48,0.84 -0.1,0 -0.89,0 -1.35,-0.14 z"
         id="path6738" /><path
         style="fill:#000000;stroke-width:0"
         inkscape:connector-curvature="0"
         d="m 490.95,440.65 0.02,0.06 0.03,0.05 0.02,0.05 0.02,0.05 0.02,0.04 0.02,0.05 0.02,0.04 0.02,0.04 0.01,0.05 0.02,0.04 0.01,0.03 0.01,0.04 0.01,0.04 0.01,0.03 0.01,0.04 0.01,0.03 0.01,0.03 0.01,0.03 0,0.03 0.01,0.03 0,0.03 0.01,0.03 0,0.03 0,0.02 0.01,0.06 0,0.05 0,0.04 0,0.05 c 0,1.08 -0.98,1.92 -2.06,1.92 -1.33,0 -1.74,-1.09 -1.91,-1.64 l -4.61,-15.09 c -0.03,-0.06 -0.17,-0.52 -0.17,-0.56 0,-0.41 1.08,-0.77 1.36,-0.77 0.25,0 0.28,0.08 0.52,0.59 z"
         id="path6740" /></g>    <path
       style="fill:#e9e2ff;fill-opacity:1;stroke:none"
       d=""
       id="path3928"
       inkscape:connector-curvature="0" />
    <g
       word-spacing="normal"
       letter-spacing="normal"
       font-size-adjust="none"
       font-stretch="normal"
       font-weight="normal"
       font-variant="normal"
       font-style="normal"
       stroke-miterlimit="10.433"
       xml:space="preserve"
       transform="matrix(0.4875898,0,0,-0.48710791,226.72426,427.40022)"
       id="g7310"
       style="font-style:normal;font-variant:normal;font-weight:normal;font-stretch:normal;letter-spacing:normal;word-spacing:normal;text-anchor:start;fill:none;stroke:#000000;stroke-width:0.82956123;stroke-linecap:butt;stroke-linejoin:miter;stroke-miterlimit:10.43299961;stroke-opacity:1;stroke-dasharray:none;stroke-dashoffset:0"><path
         id="path7312"
         d="m 472,394.25 0,0.02 0,0.03 0,0.01 0,0.02 0,0.01 -0.01,0.02 0,0.01 -0.01,0.02 -0.01,0.02 -0.01,0.02 -0.01,0.02 -0.02,0.03 -0.01,0.02 -0.02,0.03 -0.02,0.03 -0.03,0.03 -0.02,0.03 -0.03,0.04 -0.02,0.02 -0.01,0.02 -0.02,0.02 -0.02,0.02 -0.02,0.02 -0.02,0.03 -0.02,0.02 -0.02,0.02 -0.02,0.03 -0.03,0.02 -0.02,0.03 -0.03,0.03 -0.03,0.03 -0.02,0.03 -0.03,0.03 -0.03,0.03 -0.03,0.03 -0.03,0.03 -0.04,0.04 -0.03,0.03 -0.04,0.04 -0.03,0.03 -0.04,0.04 -0.04,0.04 c -6.22,6.28 -7.81,15.69 -7.81,23.31 0,8.67 1.89,17.35 8.01,23.56 0.64,0.61 0.64,0.71 0.64,0.86 0,0.35 -0.18,0.49 -0.48,0.49 -0.5,0 -4.98,-3.38 -7.92,-9.7 -2.55,-5.49 -3.14,-11.02 -3.14,-15.21 0,-3.89 0.54,-9.9 3.28,-15.54 2.98,-6.13 7.28,-9.36 7.78,-9.36 0.3,0 0.48,0.14 0.48,0.5 z"
         inkscape:connector-curvature="0"
         style="fill:#000000;stroke-width:0" /><path
         id="path7314"
         d="m 506.98,440.82 0,0.02 0,0.02 -0.01,0.01 0,0.02 0,0.02 -0.01,0.02 0,0.02 -0.01,0.02 0,0.02 -0.01,0.02 -0.01,0.02 -0.01,0.02 -0.01,0.02 -0.01,0.02 -0.02,0.02 -0.01,0.02 -0.02,0.02 -0.02,0.02 -0.01,0.02 -0.02,0.02 -0.03,0.01 -0.02,0.02 -0.02,0.01 -0.03,0.02 -0.03,0.01 -0.03,0.01 -0.01,0.01 -0.02,0 -0.01,0.01 -0.02,0 -0.02,0 -0.02,0.01 -0.01,0 -0.02,0 -0.02,0 -0.02,0 -0.02,0 -0.02,0 c -0.25,0 -0.31,-0.04 -0.91,-0.75 l -2.39,-2.84 c -1.29,2.34 -3.89,3.59 -7.12,3.59 -6.33,0 -12.3,-5.73 -12.3,-11.76 0,-4.03 2.64,-6.33 5.17,-7.06 l 5.33,-1.41 c 1.84,-0.44 4.59,-1.19 4.59,-5.28 0,-4.49 -4.09,-9.16 -8.96,-9.16 -3.19,0 -8.72,1.1 -8.72,7.27 0,1.2 0.25,2.39 0.29,2.69 0.05,0.2 0.1,0.25 0.1,0.35 0,0.5 -0.35,0.55 -0.6,0.55 -0.25,0 -0.34,-0.05 -0.5,-0.2 -0.2,-0.2 -2.98,-11.56 -2.98,-11.7 0,-0.3 0.25,-0.5 0.55,-0.5 0.25,0 0.29,0.04 0.89,0.75 l 2.45,2.82 c 2.14,-2.89 5.52,-3.57 8.41,-3.57 6.78,0 12.65,6.62 12.65,12.79 0,3.44 -1.68,5.14 -2.43,5.83 -1.15,1.16 -1.9,1.34 -6.33,2.5 -1.1,0.3 -2.89,0.8 -3.35,0.89 -1.34,0.45 -3.03,1.89 -3.03,4.53 0,4.05 3.99,8.28 8.72,8.28 4.14,0 7.17,-2.14 7.17,-7.73 0,-1.59 -0.2,-2.49 -0.2,-2.78 0,-0.05 0,-0.5 0.61,-0.5 0.5,0 0.55,0.15 0.73,1 z"
         inkscape:connector-curvature="0"
         style="fill:#000000;stroke-width:0" /><path
         id="path7316"
         d="m 518.43,440.65 0.03,0.06 0.02,0.05 0.02,0.05 0.02,0.05 0.02,0.04 0.02,0.05 0.02,0.04 0.02,0.04 0.01,0.05 0.02,0.04 0.01,0.03 0.01,0.04 0.01,0.04 0.01,0.03 0.01,0.04 0.01,0.03 0.01,0.03 0.01,0.03 0,0.03 0.01,0.03 0,0.03 0.01,0.03 0,0.03 0,0.02 0.01,0.06 0,0.05 0,0.04 0,0.05 c 0,1.08 -0.98,1.92 -2.06,1.92 -1.33,0 -1.73,-1.09 -1.91,-1.64 l -4.61,-15.09 c -0.03,-0.06 -0.17,-0.52 -0.17,-0.56 0,-0.41 1.08,-0.77 1.36,-0.77 0.25,0 0.28,0.08 0.52,0.59 z"
         inkscape:connector-curvature="0"
         style="fill:#000000;stroke-width:0" /><path
         id="path7318"
         d="m 536.75,418.65 0,0.37 -0.01,0.39 -0.01,0.39 -0.01,0.41 -0.04,0.84 -0.06,0.88 -0.08,0.92 -0.11,0.95 -0.13,0.97 -0.17,1.01 -0.19,1.02 -0.23,1.03 -0.27,1.05 -0.3,1.06 -0.35,1.07 -0.4,1.07 -0.21,0.53 -0.22,0.53 -0.24,0.53 -0.25,0.53 c -2.99,6.12 -7.27,9.36 -7.77,9.36 -0.29,0 -0.5,-0.19 -0.5,-0.49 0,-0.15 0,-0.25 0.94,-1.15 4.89,-4.92 7.74,-12.85 7.74,-23.27 0,-8.51 -1.85,-17.28 -8.04,-23.56 -0.64,-0.59 -0.64,-0.7 -0.64,-0.84 0,-0.3 0.21,-0.5 0.5,-0.5 0.5,0 4.97,3.39 7.92,9.71 2.54,5.47 3.13,11 3.13,15.19 z"
         inkscape:connector-curvature="0"
         style="fill:#000000;stroke-width:0" /></g>    <path
       style="fill:#f4f0ff;fill-opacity:1;stroke:none"
       d="m 221.59646,135.30127 c -35.31824,-2.46649 -60.18652,-9.01039 -64.22725,-16.9009 -2.93121,-5.72391 9.40462,-12.01209 31.72725,-16.17292 7.94319,-1.48058 9.12113,-1.53216 16.07142,-0.70374 4.125,0.49167 14.57143,1.11305 23.21429,1.38085 12.70729,0.39373 15.87823,0.69236 16.57103,1.56063 0.75151,0.94185 0.98496,0.94551 1.90065,0.0298 0.81772,-0.81772 4.42387,-1.15406 16.64326,-1.55231 8.57964,-0.27963 18.97435,-0.91443 23.09935,-1.41067 6.96282,-0.83764 8.11391,-0.78783 16.07142,0.69542 17.24083,3.21361 28.6115,7.68258 31.31197,12.30641 1.28319,2.19714 1.28319,2.3216 0,4.51873 -3.4765,5.95259 -22.67312,11.91662 -47.74054,14.83208 -8.67565,1.00903 -27.03304,2.19427 -33.98539,2.19427 l -5.65746,0 0,-2.93356 c 0,-2.32412 0.22258,-2.84349 1.07142,-2.5 0.58929,0.23846 1.542,0.62422 2.11714,0.85725 0.7764,0.31458 0.45447,-1.33613 -1.25,-6.40952 -1.26264,-3.75827 -2.45642,-6.83065 -2.65285,-6.82752 -0.19643,0.003 -1.38155,3.07476 -2.63361,6.82583 -1.31923,3.95235 -1.91993,6.6739 -1.42857,6.47235 3.47672,-1.42606 3.34789,-1.48692 3.34789,1.58161 l 0,2.93356 -7.67857,-0.10201 c -4.22321,-0.0561 -11.375,-0.36015 -15.89285,-0.67566 z m 32.71428,-5.07947 c 0.66667,-0.66667 1.04762,-0.66667 1.71429,0 1.81809,1.81809 5.57143,0.12119 5.57143,-2.51887 0,-1.01336 -0.13599,-1.00805 -1.30625,0.051 -1.35231,1.22382 -3.69375,1.61228 -3.69375,0.61281 0,-0.31313 1.28571,-1.82479 2.85714,-3.35925 1.57143,-1.53446 2.85714,-3.24619 2.85714,-3.80385 0,-0.79544 -0.21881,-0.83233 -1.01546,-0.17117 -0.78404,0.6507 -1.35433,0.63112 -2.50247,-0.0859 -1.76178,-1.10026 -3.82847,-0.1398 -4.24303,1.97189 -0.22472,1.1447 -0.10201,1.19736 0.88377,0.37924 0.62959,-0.52252 1.68771,-0.74166 2.35136,-0.48699 0.9987,0.38323 0.63095,1.04753 -2.13375,3.85444 -1.83723,1.86528 -3.34042,3.62144 -3.34042,3.90259 0,0.78756 1.04772,0.60633 2,-0.34596 z m -7.71428,-14.14286 c 0,-0.78571 -0.32143,-1.42857 -0.71429,-1.42857 -0.39286,0 -0.71429,0.64286 -0.71429,1.42857 0,0.78571 0.32143,1.42857 0.71429,1.42857 0.39286,0 0.71429,-0.64286 0.71429,-1.42857 z m 0,-4.28571 c 0,-0.78572 -0.32143,-1.42858 -0.71429,-1.42858 -0.39286,0 -0.71429,0.64286 -0.71429,1.42858 0,0.78571 0.32143,1.42857 0.71429,1.42857 0.39286,0 0.71429,-0.64286 0.71429,-1.42857 z m 0,-3.92858 c 0,-0.58928 -0.32143,-1.07142 -0.71429,-1.07142 -0.39286,0 -0.71429,0.48214 -0.71429,1.07142 0,0.58929 0.32143,1.07143 0.71429,1.07143 0.39286,0 0.71429,-0.48214 0.71429,-1.07143 z"
       id="path3964"
       inkscape:connector-curvature="0" />
    <path
       style="fill:#f4f0ff;fill-opacity:1;stroke:none"
       d="m 226.23931,101.43025 c -0.39285,-0.1376 -4.89285,-0.47372 -10,-0.74693 -5.40874,-0.28933 -8.68925,-0.71817 -7.85714,-1.02709 2.29904,-0.853516 24.90322,-2.148716 37.5,-2.148716 12.36128,0 35.17065,1.289 37.43041,2.115266 2.38633,0.87254 -22.20219,2.1921 -39.57327,2.12373 -9.23214,-0.0363 -17.10714,-0.17865 -17.5,-0.31626 z m 20.35715,-1.77988 c 0,-0.785716 -0.32143,-1.428566 -0.71429,-1.428566 -0.39286,0 -0.71429,0.64285 -0.71429,1.428566 0,0.78571 0.32143,1.42857 0.71429,1.42857 0.39286,0 0.71429,-0.64286 0.71429,-1.42857 z"
       id="path3966"
       inkscape:connector-curvature="0" />
    <path
       style="fill:#f4f0ff;fill-opacity:1;stroke:none"
       d="m 480.16788,135.30651 c -34.69189,-2.65344 -59.44426,-9.08 -63.23946,-16.41912 -1.04282,-2.01659 -1.03029,-2.34665 0.16693,-4.39658 2.67342,-4.57753 14.11683,-9.06295 31.28682,-12.26336 7.94319,-1.48058 9.12113,-1.53216 16.07143,-0.70374 4.125,0.49167 14.57143,1.11305 23.21428,1.38085 12.7073,0.39373 15.87823,0.69236 16.57103,1.56063 0.75152,0.94185 0.98497,0.94551 1.90065,0.0298 0.81772,-0.81772 4.42387,-1.15406 16.64326,-1.55231 8.57964,-0.27963 18.97435,-0.91321 23.09935,-1.40796 6.6646,-0.79934 8.28911,-0.75608 14.5844,0.38841 15.86969,2.88512 25.78578,6.30157 30.62676,10.55201 6.3945,5.61444 1.1508,10.97497 -15.35423,15.69638 -15.31662,4.38145 -43.59147,7.89519 -63.60693,7.9045 l -6.25,0.003 0,-2.85714 c 0,-3.10084 0.12571,-3.22241 2.18981,-2.11773 1.78488,0.95524 1.76836,0.76388 -0.57097,-6.6153 -1.77633,-5.60323 -3.04741,-7.838 -3.04741,-5.35782 0,0.50003 -0.97349,3.43726 -2.16331,6.52717 -1.18981,3.08991 -2.02091,5.76041 -1.84688,5.93443 0.17402,0.17403 0.96566,-0.0311 1.7592,-0.45574 2.13212,-1.14108 2.25099,-1.03098 2.25099,2.08499 l 0,2.85714 -8.39286,-0.0994 c -4.61607,-0.0547 -11.76786,-0.35753 -15.89286,-0.67304 z m 35.97915,-5.01844 c 1.38673,1.15088 3.78735,0.41898 4.79377,-1.46154 1.01019,-1.88756 0.32183,-2.51581 -1.14707,-1.04691 -1.32258,1.32259 -1.25955,1.30701 -2.83797,0.70131 -0.9616,-0.369 -0.56708,-1.02346 2.08445,-3.45783 1.79879,-1.65147 3.27053,-3.41458 3.27053,-3.91802 0,-0.74169 -0.20788,-0.74282 -1.09578,-0.006 -0.88912,0.73791 -1.43263,0.72914 -2.88191,-0.0465 -1.59422,-0.8532 -1.9519,-0.79015 -3.32883,0.58678 -1.63626,1.63627 -1.28031,3.07716 0.41301,1.67183 0.54899,-0.45562 1.52535,-0.62609 2.16969,-0.37884 0.93806,0.35997 0.52904,1.01511 -2.05232,3.28732 -3.30156,2.90614 -4.60735,5.73531 -1.85329,4.01537 1.07445,-0.671 1.60719,-0.65956 2.46572,0.053 l 0,0 z m 10.30709,-11.01395 c 1.84583,-3.79926 1.98471,-5.33804 0.4818,-5.33804 -1.16927,0 -2.36979,2.50474 -2.99561,6.25 -0.55373,3.31375 0.67788,2.86695 2.51381,-0.91196 z m -20.57195,-3.19518 c 0,-0.78571 -0.32143,-1.42857 -0.71429,-1.42857 -0.39285,0 -0.71428,0.64286 -0.71428,1.42857 0,0.78571 0.32143,1.42857 0.71428,1.42857 0.39286,0 0.71429,-0.64286 0.71429,-1.42857 z m 0,-4.28571 c 0,-0.78572 -0.32143,-1.42858 -0.71429,-1.42858 -0.39285,0 -0.71428,0.64286 -0.71428,1.42858 0,0.78571 0.32143,1.42857 0.71428,1.42857 0.39286,0 0.71429,-0.64286 0.71429,-1.42857 z m 0,-3.92858 c 0,-0.58928 -0.32143,-1.07142 -0.71429,-1.07142 -0.39285,0 -0.71428,0.48214 -0.71428,1.07142 0,0.58929 0.32143,1.07143 0.71428,1.07143 0.39286,0 0.71429,-0.48214 0.71429,-1.07143 z"
       id="path3968"
       inkscape:connector-curvature="0" />
    <path
       style="fill:#f4f0ff;fill-opacity:1;stroke:none"
       d="m 490.01985,101.88653 c -6.67853,-0.25399 -10.58223,-0.48182 -16.875,-0.98485 -4.04923,-0.32369 -11.28459,-1.04639 -11.38113,-1.1368 -0.0636,-0.0596 8.74504,-0.973906 12.1847,-1.264726 16.23808,-1.37296 37.2621,-1.57845 54.64285,-0.5341 6.41217,0.38529 20.03792,1.626846 19.85556,1.809206 -0.0795,0.0795 -6.74917,0.76988 -10.12341,1.0479 -14.95072,1.23185 -33.26942,1.63513 -48.30357,1.06337 z m 15.625,-2.04738 0,-1.071426 -0.625,0 -0.625,0 0,1.071426 0,1.07143 0.625,0 0.625,0 0,-1.07143 z"
       id="path3972"
       inkscape:connector-curvature="0" />
    <path
       style="fill:#d6cdff;fill-opacity:1;stroke:none"
       d="m 86.278518,188.54672 c -13.56401,-1.36498 -29.401861,-7.05869 -40.661503,-14.61781 -17.37015,-11.66139 -29.679957,-27.8453 -36.1374249,-47.51048 -2.4863488,-7.57178 -2.5076269,-7.99877 -0.3152662,-6.32658 4.3688761,3.3323 14.6991801,6.91018 26.4008691,9.14388 13.662995,2.60808 34.377885,4.76443 45.9151,4.77959 2.77792,0.004 6.925859,0.1526 9.217642,0.33101 l 4.166879,0.32437 0,27.19925 0,27.19926 -2.399112,-0.0706 c -1.319512,-0.0388 -4.103745,-0.24219 -6.187184,-0.45185 z"
       id="path3974"
       inkscape:connector-curvature="0"
       transform="translate(150.53425,3.2943743)" />
    <path
       style="fill:#d6cdff;fill-opacity:1;stroke:none"
       d="m 106.48157,184.50818 c 4.86136,-2.53028 14.35048,-7.44152 21.08693,-10.91387 l 12.2481,-6.31337 0,2.09739 c 0,1.15357 0.18595,2.02163 0.41321,1.92903 0.6762,-0.27551 8.67817,-9.17097 8.67817,-9.64716 0,-0.24104 -0.39775,-0.3258 -0.88389,-0.18836 -0.48613,0.13744 -3.32719,0.52675 -6.31345,0.86513 -2.98626,0.33839 -5.42957,0.76848 -5.42957,0.95576 0,0.18727 0.59927,0.86156 1.33171,1.49841 l 1.3317,1.1579 -8.02397,4.13341 c -4.41318,2.27337 -14.10382,7.26376 -21.53475,11.08975 l -13.510793,6.95635 0,-26.72893 0,-26.72892 4.166883,-0.32437 c 2.29178,-0.17841 6.43972,-0.32736 9.21764,-0.33101 11.53722,-0.0152 32.2521,-2.17151 45.9151,-4.77959 11.70169,-2.2337 22.03199,-5.81158 26.40087,-9.14388 1.47689,-1.12648 1.67681,-1.17078 1.67026,-0.37006 -0.0146,1.78681 -4.1267,13.12052 -6.56149,18.08473 -11.8225,24.10446 -32.60279,41.19811 -58.58591,48.19219 -4.1311,1.11199 -11.35792,2.30704 -16.92005,2.79794 l -3.535536,0.31203 8.838836,-4.6005 z m 34.8361,-27.1325 c 1.19219,-1.09157 1.78842,-2.41633 2.78461,-6.18719 1.51256,-5.72542 1.57543,-6.69885 0.41827,-6.476 -0.57931,0.11157 -1.12539,1.21427 -1.70666,3.4463 -1.1042,4.24003 -1.40018,4.91051 -2.3243,5.26513 -1.81633,0.69699 -2.13498,-0.96282 -0.94057,-4.89921 0.40241,-1.32618 0.60291,-2.74671 0.44558,-3.15673 -0.44801,-1.16747 -3.0287,-0.92034 -3.93743,0.37706 -0.89504,1.27784 -1.02731,2.41299 -0.28118,2.41299 0.27779,0 0.50508,-0.3057 0.50508,-0.67933 0,-0.37363 0.45457,-1.09071 1.01015,-1.59351 0.92318,-0.83547 1.01015,-0.84081 1.01015,-0.0621 0,0.46867 -0.34092,1.66807 -0.75761,2.66535 -1.48102,3.54458 -0.59359,6.23555 2.05638,6.23555 1.43153,0 1.51709,0.37068 0.44036,1.90792 -0.49973,0.71347 -1.28197,1.108 -2.14657,1.08266 -0.74818,-0.0219 -1.07622,-0.15451 -0.72898,-0.29463 1.02466,-0.41346 0.76118,-2.19088 -0.32477,-2.19088 -1.20274,0 -1.72726,1.28642 -1.04461,2.56197 0.80641,1.50678 3.65692,1.29235 5.5221,-0.41539 z"
       id="path3976"
       inkscape:connector-curvature="0"
       transform="translate(150.53425,3.2943743)" />
    <path
       style="fill:#d6cdff;fill-opacity:1;stroke:none"
       d="m 345.38265,188.54672 c -20.67227,-2.08031 -41.3467,-12.19761 -55.82243,-27.31744 -9.63816,-10.06702 -16.87406,-22.19853 -21.18251,-35.51402 -2.23581,-6.9099 -2.24243,-7.25046 -0.10926,-5.62341 4.36888,3.3323 14.69918,6.91018 26.40087,9.14388 13.663,2.60808 34.37789,4.76443 45.9151,4.77959 2.77792,0.004 6.92586,0.1526 9.21764,0.33101 l 4.16688,0.32437 0,27.19925 0,27.19926 -2.39911,-0.0706 c -1.31951,-0.0388 -4.10374,-0.24219 -6.18718,-0.45185 z"
       id="path3978"
       inkscape:connector-curvature="0"
       transform="translate(150.53425,3.2943743)" />
    <path
       style="fill:#d6cdff;fill-opacity:1;stroke:none"
       d="m 377.70753,178.26729 20.96066,-10.85124 0.30021,1.74079 c 0.16511,0.95743 0.40309,1.84367 0.52885,1.96943 0.26548,0.26548 8.14021,-8.45979 8.43601,-9.34717 0.12365,-0.37098 -0.15701,-0.49384 -0.74528,-0.32623 -0.51901,0.14787 -3.38695,0.54572 -6.37321,0.8841 -2.98627,0.33839 -5.42957,0.72658 -5.42957,0.86265 0,0.13607 0.5935,0.79745 1.31889,1.46972 0.7254,0.67227 1.23679,1.28987 1.13642,1.37244 -0.49248,0.40518 -41.71171,21.5122 -42.01049,21.5122 -0.19022,0 -0.34585,-11.89907 -0.34585,-26.44239 l 0,-26.44239 3.86428,-0.32665 c 2.12535,-0.17966 6.27329,-0.33313 9.21764,-0.34104 17.49875,-0.047 44.85281,-3.7227 58.50906,-7.8621 5.73494,-1.73833 12.18866,-4.58482 13.89392,-6.12805 1.5078,-1.36454 1.61348,-0.29355 0.37305,3.78036 -4.55228,14.95086 -11.83977,27.20834 -22.86635,38.46094 -15.10495,15.41457 -34.91336,24.45106 -58.19337,26.54749 l -3.53554,0.31839 20.96067,-10.85125 z m 22.46731,-21.00892 c 0.95067,-0.99229 1.70492,-2.79916 2.56188,-6.13722 1.4678,-5.71746 1.5221,-6.62805 0.38209,-6.40851 -0.59872,0.11531 -1.136,1.28972 -1.80399,3.94327 -1.0546,4.18939 -1.56308,5.05796 -2.96101,5.05796 -1.16857,0 -1.2504,-1.74669 -0.23807,-5.08171 0.81267,-2.6773 0.3426,-4.00966 -1.41467,-4.00966 -1.19166,0 -2.44276,1.10468 -2.98481,2.63548 -0.49003,1.38388 0.61,1.5992 1.13365,0.2219 0.47638,-1.25297 1.42126,-2.13977 1.83697,-1.72405 0.12338,0.12338 -0.11902,1.19749 -0.53868,2.38692 -1.56409,4.4331 -0.69877,6.90889 2.26283,6.47422 1.90273,-0.27926 1.906,0.0919 0.0186,2.11239 -1.6734,1.79138 -2.5287,1.70209 -2.16021,-0.22551 0.27918,-1.46043 -0.85145,-1.77379 -1.88905,-0.52357 -0.80629,0.97152 -0.3217,2.1948 1.07397,2.71109 1.65126,0.61084 3.21804,0.13522 4.72049,-1.433 l 0,0 z m 7.84723,-14.93156 c 1.26208,-2.89463 1.52049,-3.95203 1.07474,-4.39778 -0.9191,-0.9191 -1.86756,0.42937 -3.0015,4.26737 -0.93531,3.16573 -0.95254,3.94133 -0.0875,3.94133 0.19398,0 1.10041,-1.71492 2.01429,-3.81092 z"
       id="path3980"
       inkscape:connector-curvature="0"
       transform="translate(150.53425,3.2943743)" />
  </g>
  <g
     id="g6298"
     transform="matrix(0.42701881,0,0,0.42701881,285.85598,55.283301)">
    <g
       word-spacing="normal"
       letter-spacing="normal"
       font-size-adjust="none"
       font-stretch="normal"
       font-weight="normal"
       font-variant="normal"
       font-style="normal"
       stroke-miterlimit="10.433"
       xml:space="preserve"
       transform="matrix(1.0629921,0,0,-1.0629921,-186.02362,789.27165)"
       id="g6300"
       style="font-style:normal;font-variant:normal;font-weight:normal;font-stretch:normal;letter-spacing:normal;word-spacing:normal;text-anchor:start;fill:none;stroke:#000000;stroke-width:2.34181714;stroke-linecap:butt;stroke-linejoin:miter;stroke-miterlimit:10.43299961;stroke-opacity:1;stroke-dasharray:none;stroke-dashoffset:0"><path
         id="path6302"
         d="m 472.16,421.25 0.03,0.13 0.04,0.15 0.04,0.16 0.04,0.18 0.06,0.19 0.06,0.21 0.06,0.22 0.07,0.22 0.08,0.23 0.09,0.24 0.1,0.25 0.1,0.24 0.11,0.25 0.12,0.25 0.13,0.25 0.14,0.25 0.15,0.24 0.15,0.24 0.17,0.23 0.18,0.22 0.18,0.22 0.2,0.2 0.21,0.19 0.22,0.18 0.23,0.16 0.25,0.14 0.12,0.07 0.13,0.06 0.14,0.05 0.13,0.05 0.14,0.05 0.14,0.04 0.15,0.03 0.15,0.03 0.15,0.02 0.16,0.02 0.16,0.01 0.16,0 c 0.25,0 1.44,0 2.48,-0.64 -1.39,-0.25 -2.39,-1.5 -2.39,-2.69 0,-0.79 0.55,-1.75 1.89,-1.75 1.1,0 2.69,0.89 2.69,2.89 0,2.6 -2.94,3.28 -4.63,3.28 -2.89,0 -4.64,-2.64 -5.23,-3.78 -1.25,3.28 -3.94,3.78 -5.37,3.78 -5.19,0 -8.04,-6.42 -8.04,-7.67 0,-0.5 0.5,-0.5 0.61,-0.5 0.39,0 0.55,0.11 0.64,0.55 1.69,5.28 4.99,6.53 6.68,6.53 0.95,0 2.68,-0.44 2.68,-3.33 0,-1.54 -0.84,-4.89 -2.68,-11.86 -0.8,-3.09 -2.54,-5.18 -4.74,-5.18 -0.3,0 -1.44,0 -2.48,0.65 1.25,0.24 2.34,1.28 2.34,2.69 0,1.34 -1.09,1.73 -1.84,1.73 -1.5,0 -2.75,-1.29 -2.75,-2.89 0,-2.28 2.5,-3.28 4.68,-3.28 3.3,0 5.08,3.49 5.24,3.78 0.59,-1.84 2.39,-3.78 5.37,-3.78 5.14,0 7.99,6.42 7.99,7.67 0,0.5 -0.45,0.5 -0.61,0.5 -0.44,0 -0.55,-0.2 -0.64,-0.54 -1.64,-5.33 -5.03,-6.53 -6.63,-6.53 -1.95,0 -2.75,1.59 -2.75,3.29 0,1.1 0.3,2.19 0.86,4.38 z"
         inkscape:connector-curvature="0"
         style="fill:#000000;stroke-width:0" /><path
         id="path6304"
         d="m 494.07,440.65 0.03,0.06 0.02,0.05 0.02,0.05 0.02,0.05 0.02,0.04 0.02,0.05 0.02,0.04 0.02,0.04 0.01,0.05 0.02,0.04 0.01,0.03 0.01,0.04 0.01,0.04 0.01,0.03 0.01,0.04 0.01,0.03 0.01,0.03 0.01,0.03 0,0.03 0.01,0.03 0,0.03 0.01,0.03 0,0.03 0,0.02 0.01,0.06 0,0.05 0,0.04 0,0.05 c 0,1.08 -0.98,1.92 -2.06,1.92 -1.33,0 -1.73,-1.09 -1.91,-1.64 l -4.61,-15.09 c -0.03,-0.06 -0.17,-0.52 -0.17,-0.56 0,-0.41 1.08,-0.77 1.36,-0.77 0.25,0 0.28,0.08 0.52,0.59 z"
         inkscape:connector-curvature="0"
         style="fill:#000000;stroke-width:0" /></g>  </g>
</svg>
