<?xml version="1.0" encoding="UTF-8" standalone="no"?>
<!-- Created with Inkscape (http://www.inkscape.org/) -->

<svg
   xmlns:dc="http://purl.org/dc/elements/1.1/"
   xmlns:cc="http://creativecommons.org/ns#"
   xmlns:rdf="http://www.w3.org/1999/02/22-rdf-syntax-ns#"
   xmlns:svg="http://www.w3.org/2000/svg"
   xmlns="http://www.w3.org/2000/svg"
   xmlns:sodipodi="http://sodipodi.sourceforge.net/DTD/sodipodi-0.dtd"
   xmlns:inkscape="http://www.inkscape.org/namespaces/inkscape"
   width="300"
   height="300"
   id="svg2"
   version="1.1"
   inkscape:version="0.92.5 (2060ec1f9f, 2020-04-08)"
   sodipodi:docname="similar-words.svg">
  <sodipodi:namedview
     id="base"
     pagecolor="#ffffff"
     bordercolor="#666666"
     borderopacity="1.0"
     inkscape:pageopacity="0.0"
     inkscape:pageshadow="2"
     inkscape:zoom="1.4"
     inkscape:cx="210.87648"
     inkscape:cy="195.62068"
     inkscape:document-units="px"
     inkscape:current-layer="layer1"
     showgrid="false"
     inkscape:window-width="1920"
     inkscape:window-height="1025"
     inkscape:window-x="0"
     inkscape:window-y="0"
     inkscape:window-maximized="1"
     fit-margin-top="2"
     fit-margin-left="2"
     fit-margin-right="2"
     fit-margin-bottom="2" />
  <defs
     id="defs4" />
  <metadata
     id="metadata7">
    <rdf:RDF>
      <cc:Work
         rdf:about="">
        <dc:format>image/svg+xml</dc:format>
        <dc:type
           rdf:resource="http://purl.org/dc/dcmitype/StillImage" />
        <dc:title />
      </cc:Work>
    </rdf:RDF>
  </metadata>
  <g
     transform="translate(-109.73508,-256.53413)"
     id="layer1"
     inkscape:groupmode="layer"
     inkscape:label="Layer 1">
    <path
       d="m 333.8554,375.55997 a 42.931484,42.931484 0 1 1 -85.86296,0 42.931484,42.931484 0 1 1 85.86296,0 z"
       sodipodi:ry="42.931484"
       sodipodi:rx="42.931484"
       sodipodi:cy="375.55997"
       sodipodi:cx="290.92392"
       id="path2993-3-2"
       style="fill:#ddddff;fill-opacity:1;stroke:#000000;stroke-width:0.46349534;stroke-linecap:butt;stroke-linejoin:round;stroke-miterlimit:4;stroke-opacity:1;stroke-dasharray:1.39048604, 1.39048604;stroke-dashoffset:0"
       sodipodi:type="arc"
       transform="matrix(3.4520303,0,0,3.4520303,-743.90532,-889.89604)" />
    <path
       d="m 333.8554,375.55997 a 42.931484,42.931484 0 1 1 -85.86296,0 42.931484,42.931484 0 1 1 85.86296,0 z"
       sodipodi:ry="42.931484"
       sodipodi:rx="42.931484"
       sodipodi:cy="375.55997"
       sodipodi:cx="290.92392"
       id="path2993-3"
       style="fill:#b2b2fa;fill-opacity:1;stroke:#000000;stroke-width:0.74970907;stroke-linecap:butt;stroke-linejoin:round;stroke-miterlimit:4;stroke-opacity:1;stroke-dasharray:2.2491272, 2.2491272;stroke-dashoffset:0"
       sodipodi:type="arc"
       transform="matrix(2.1341611,0,0,2.1341611,-360.50563,-395.26059)" />
    <path
       d="m 333.8554,375.55997 a 42.931484,42.931484 0 1 1 -85.86296,0 42.931484,42.931484 0 1 1 85.86296,0 z"
       sodipodi:ry="42.931484"
       sodipodi:rx="42.931484"
       sodipodi:cy="375.55997"
       sodipodi:cx="290.92392"
       id="path2993"
       style="fill:#9595ff;fill-opacity:1;stroke:#000000;stroke-width:1.91396308;stroke-linecap:butt;stroke-linejoin:round;stroke-miterlimit:4;stroke-opacity:1;stroke-dasharray:5.74188941, 5.74188941;stroke-dashoffset:0"
       sodipodi:type="arc"
       transform="matrix(0.83596176,0,0,0.83596176,18.050015,91.851934)" />
    <g
       aria-label="Land"
       style="font-style:normal;font-weight:normal;line-height:0%;font-family:sans-serif;letter-spacing:0px;word-spacing:0px;fill:#1d1d1d;fill-opacity:1;stroke:none"
       id="text2985">
      <path
         d="m 242.90196,400.56503 h 2.82872 v 8.83148 h 4.96678 v 2.13807 h -7.7955 z"
         style="font-style:normal;font-variant:normal;font-weight:bold;font-stretch:normal;font-size:15.04731274px;line-height:1.25;font-family:'DejaVu Sans';-inkscape-font-specification:'DejaVu Sans Bold';fill:#1d1d1d;fill-opacity:1"
         id="path943" />
      <path
         d="m 256.06101,407.83153 q -0.8229,0 -1.2417,0.27919 -0.41145,0.2792 -0.41145,0.8229 0,0.49962 0.33063,0.78617 0.33798,0.2792 0.93311,0.2792 0.74208,0 1.24904,-0.52901 0.50697,-0.53636 0.50697,-1.33721 v -0.30124 z m 4.01898,-0.99189 v 4.69494 h -2.65238 v -1.21966 q -0.52901,0.74943 -1.19027,1.09475 -0.66126,0.33798 -1.60906,0.33798 -1.27843,0 -2.07929,-0.74208 -0.79351,-0.74943 -0.79351,-1.93969 0,-1.44743 0.99189,-2.12338 0.99923,-0.67595 3.12995,-0.67595 h 1.55029 v -0.20573 q 0,-0.62452 -0.49227,-0.91107 -0.49227,-0.29389 -1.53559,-0.29389 -0.84494,0 -1.57233,0.16899 -0.72738,0.16899 -1.3519,0.50697 V 403.526 q 0.84494,-0.20573 1.69723,-0.30859 0.85229,-0.11021 1.70457,-0.11021 2.22624,0 3.21078,0.88168 0.99189,0.87433 0.99189,2.85076 z"
         style="font-style:normal;font-variant:normal;font-weight:bold;font-stretch:normal;font-size:15.04731274px;line-height:1.25;font-family:'DejaVu Sans';-inkscape-font-specification:'DejaVu Sans Bold';fill:#1d1d1d;fill-opacity:1"
         id="path945" />
      <path
         d="m 270.79973,406.5237 v 5.01088 h -2.64503 v -0.81556 -3.01974 q 0,-1.06537 -0.0514,-1.46947 -0.0441,-0.4041 -0.16164,-0.59513 -0.1543,-0.25716 -0.4188,-0.39676 -0.26451,-0.14694 -0.60248,-0.14694 -0.8229,0 -1.29313,0.63921 -0.47023,0.63187 -0.47023,1.75601 v 4.04838 h -2.63034 v -8.229 h 2.63034 v 1.20496 q 0.59513,-0.72004 1.26374,-1.05802 0.66861,-0.34532 1.47681,-0.34532 1.42538,0 2.16011,0.87433 0.74208,0.87433 0.74208,2.54217 z"
         style="font-style:normal;font-variant:normal;font-weight:bold;font-stretch:normal;font-size:15.04731274px;line-height:1.25;font-family:'DejaVu Sans';-inkscape-font-specification:'DejaVu Sans Bold';fill:#1d1d1d;fill-opacity:1"
         id="path947" />
      <path
         d="m 278.8377,404.51054 v -4.40839 h 2.64504 v 11.43243 h -2.64504 v -1.19027 q -0.5437,0.72739 -1.19761,1.06536 -0.65391,0.33798 -1.51355,0.33798 -1.5209,0 -2.49809,-1.20496 -0.97719,-1.21231 -0.97719,-3.11527 0,-1.90295 0.97719,-3.10791 0.97719,-1.21231 2.49809,-1.21231 0.85229,0 1.5062,0.34532 0.66126,0.33798 1.20496,1.05802 z m -1.73397,5.32681 q 0.84495,0 1.28578,-0.61718 0.44819,-0.61717 0.44819,-1.79275 0,-1.17557 -0.44819,-1.79274 -0.44083,-0.61718 -1.28578,-0.61718 -0.83759,0 -1.28578,0.61718 -0.44084,0.61717 -0.44084,1.79274 0,1.17558 0.44084,1.79275 0.44819,0.61718 1.28578,0.61718 z"
         style="font-style:normal;font-variant:normal;font-weight:bold;font-stretch:normal;font-size:15.04731274px;line-height:1.25;font-family:'DejaVu Sans';-inkscape-font-specification:'DejaVu Sans Bold';fill:#1d1d1d;fill-opacity:1"
         id="path949" />
    </g>
    <g
       aria-label=" "
       style="font-style:normal;font-weight:normal;line-height:0%;font-family:sans-serif;letter-spacing:0px;word-spacing:0px;fill:#000000;fill-opacity:1;stroke:none"
       id="text2989" />
    <g
       aria-label="fand"
       style="font-style:normal;font-weight:normal;line-height:0%;font-family:sans-serif;letter-spacing:0px;word-spacing:0px;fill:#1d1d1d;fill-opacity:1;stroke:none"
       id="text2985-4">
      <path
         d="m 199.77495,438.71635 v 0.99923 h -1.14944 q -0.64657,0 -0.90127,0.26124 -0.24818,0.26124 -0.24818,0.94046 v 0.64656 h 1.97888 v 0.93393 h -1.97888 v 6.38074 h -1.20823 v -6.38074 h -1.14944 v -0.93393 h 1.14944 v -0.50941 q 0,-1.22129 0.5682,-1.77642 0.56819,-0.56166 1.80254,-0.56166 z"
         style="font-size:13.37538815px;line-height:1.25;font-family:sans-serif;fill:#1d1d1d;fill-opacity:1"
         id="path933" />
      <path
         d="m 204.10498,445.20158 q -1.45641,0 -2.01807,0.33308 -0.56166,0.33308 -0.56166,1.13639 0,0.64003 0.41798,1.01883 0.42451,0.37226 1.14945,0.37226 0.99923,0 1.60008,-0.70534 0.60738,-0.71188 0.60738,-1.88745 v -0.26777 z m 2.39685,-0.49635 v 4.17328 h -1.20169 v -1.11026 q -0.41145,0.66615 -1.02536,0.98617 -0.61391,0.31349 -1.50212,0.31349 -1.12332,0 -1.78948,-0.62697 -0.65963,-0.63351 -0.65963,-1.69152 0,-1.23435 0.8229,-1.86132 0.82944,-0.62697 2.4687,-0.62697 h 1.68499 v -0.11756 q 0,-0.82943 -0.5486,-1.28007 -0.54207,-0.45716 -1.52824,-0.45716 -0.62697,0 -1.22129,0.15021 -0.59432,0.15021 -1.14292,0.45063 v -1.11026 q 0.65963,-0.2547 1.28007,-0.37879 0.62044,-0.13062 1.20823,-0.13062 1.58702,0 2.37073,0.8229 0.78371,0.8229 0.78371,2.49482 z"
         style="font-size:13.37538815px;line-height:1.25;font-family:sans-serif;fill:#1d1d1d;fill-opacity:1"
         id="path935" />
      <path
         d="m 215.05738,444.46359 v 4.41492 h -1.20169 v -4.37574 q 0,-1.03842 -0.40492,-1.55436 -0.40492,-0.51595 -1.21476,-0.51595 -0.97311,0 -1.53477,0.62044 -0.56167,0.62044 -0.56167,1.69152 v 4.13409 h -1.20822 v -7.31467 h 1.20822 v 1.13639 q 0.43105,-0.65963 1.0123,-0.98617 0.58779,-0.32655 1.35191,-0.32655 1.26047,0 1.90704,0.78371 0.64656,0.77719 0.64656,2.29237 z"
         style="font-size:13.37538815px;line-height:1.25;font-family:sans-serif;fill:#1d1d1d;fill-opacity:1"
         id="path937" />
      <path
         d="m 222.26755,442.67411 v -3.95776 h 1.2017 v 10.16216 h -1.2017 v -1.0972 q -0.37879,0.65309 -0.96005,0.97311 -0.57472,0.31349 -1.38456,0.31349 -1.32578,0 -2.16175,-1.05802 -0.82943,-1.05801 -0.82943,-2.78218 0,-1.72417 0.82943,-2.78219 0.83597,-1.05801 2.16175,-1.05801 0.80984,0 1.38456,0.32002 0.58126,0.31348 0.96005,0.96658 z m -4.09491,2.5536 q 0,1.32578 0.54207,2.08337 0.5486,0.75106 1.50212,0.75106 0.95352,0 1.50212,-0.75106 0.5486,-0.75759 0.5486,-2.08337 0,-1.32579 -0.5486,-2.07684 -0.5486,-0.7576 -1.50212,-0.7576 -0.95352,0 -1.50212,0.7576 -0.54207,0.75105 -0.54207,2.07684 z"
         style="font-size:13.37538815px;line-height:1.25;font-family:sans-serif;fill:#1d1d1d;fill-opacity:1"
         id="path939" />
    </g>
    <g
       aria-label="hand"
       style="font-style:normal;font-weight:normal;line-height:0%;font-family:sans-serif;letter-spacing:0px;word-spacing:0px;fill:#1d1d1d;fill-opacity:1;stroke:none"
       id="text3802">
      <path
         d="m 312.2391,391.32534 v 4.41492 h -1.20169 v -4.37573 q 0,-1.03842 -0.40492,-1.55437 -0.40492,-0.51594 -1.21476,-0.51594 -0.97311,0 -1.53477,0.62044 -0.56166,0.62044 -0.56166,1.69151 v 4.13409 h -1.20823 V 385.5781 h 1.20823 v 3.98389 q 0.43104,-0.65963 1.0123,-0.98618 0.58778,-0.32655 1.3519,-0.32655 1.26048,0 1.90704,0.78372 0.64656,0.77718 0.64656,2.29236 z"
         style="font-style:normal;font-variant:normal;font-weight:normal;font-stretch:normal;font-size:13.37538815px;line-height:1.25;font-family:'DejaVu Sans';-inkscape-font-specification:'DejaVu Sans'"
         id="path924" />
      <path
         d="m 317.96022,392.06334 q -1.4564,0 -2.01807,0.33308 -0.56166,0.33308 -0.56166,1.13638 0,0.64004 0.41798,1.01883 0.42451,0.37227 1.14945,0.37227 0.99924,0 1.60008,-0.70535 0.60738,-0.71187 0.60738,-1.88744 v -0.26777 z m 2.39686,-0.49635 v 4.17327 h -1.2017 V 394.63 q -0.41145,0.66616 -1.02536,0.98618 -0.61391,0.31348 -1.50212,0.31348 -1.12332,0 -1.78948,-0.62697 -0.65962,-0.6335 -0.65962,-1.69152 0,-1.23434 0.8229,-1.86132 0.82943,-0.62697 2.4687,-0.62697 h 1.68498 v -0.11755 q 0,-0.82944 -0.5486,-1.28007 -0.54207,-0.45717 -1.52824,-0.45717 -0.62697,0 -1.22129,0.15021 -0.59431,0.15022 -1.14291,0.45064 v -1.11026 q 0.65962,-0.25471 1.28006,-0.3788 0.62044,-0.13062 1.20823,-0.13062 1.58702,0 2.37073,0.8229 0.78372,0.8229 0.78372,2.49483 z"
         style="font-style:normal;font-variant:normal;font-weight:normal;font-stretch:normal;font-size:13.37538815px;line-height:1.25;font-family:'DejaVu Sans';-inkscape-font-specification:'DejaVu Sans'"
         id="path926" />
      <path
         d="m 328.91262,391.32534 v 4.41492 h -1.20169 v -4.37573 q 0,-1.03842 -0.40492,-1.55437 -0.40492,-0.51594 -1.21476,-0.51594 -0.97311,0 -1.53477,0.62044 -0.56166,0.62044 -0.56166,1.69151 v 4.13409 h -1.20823 v -7.31466 h 1.20823 v 1.13639 q 0.43104,-0.65963 1.01229,-0.98618 0.58779,-0.32655 1.35191,-0.32655 1.26048,0 1.90704,0.78372 0.64656,0.77718 0.64656,2.29236 z"
         style="font-style:normal;font-variant:normal;font-weight:normal;font-stretch:normal;font-size:13.37538815px;line-height:1.25;font-family:'DejaVu Sans';-inkscape-font-specification:'DejaVu Sans'"
         id="path928" />
      <path
         d="m 336.12279,389.53586 v -3.95776 h 1.2017 v 10.16216 h -1.2017 v -1.09719 q -0.37879,0.65309 -0.96005,0.97311 -0.57472,0.31348 -1.38456,0.31348 -1.32578,0 -2.16174,-1.05801 -0.82944,-1.05802 -0.82944,-2.78219 0,-1.72417 0.82944,-2.78218 0.83596,-1.05802 2.16174,-1.05802 0.80984,0 1.38456,0.32002 0.58126,0.31349 0.96005,0.96658 z m -4.0949,2.5536 q 0,1.32579 0.54206,2.08338 0.5486,0.75106 1.50212,0.75106 0.95352,0 1.50212,-0.75106 0.5486,-0.75759 0.5486,-2.08338 0,-1.32578 -0.5486,-2.07684 -0.5486,-0.75759 -1.50212,-0.75759 -0.95352,0 -1.50212,0.75759 -0.54206,0.75106 -0.54206,2.07684 z"
         style="font-style:normal;font-variant:normal;font-weight:normal;font-stretch:normal;font-size:13.37538815px;line-height:1.25;font-family:'DejaVu Sans';-inkscape-font-specification:'DejaVu Sans'"
         id="path930" />
    </g>
    <g
       aria-label="lang"
       style="font-style:normal;font-weight:normal;line-height:0%;font-family:sans-serif;letter-spacing:0px;word-spacing:0px;fill:#1d1d1d;fill-opacity:1;stroke:none"
       id="text3806">
      <path
         d="m 208.85924,351.3231 h 1.2017 v 10.16216 h -1.2017 z"
         style="font-size:13.37538815px;line-height:1.25;font-family:sans-serif"
         id="path915" />
      <path
         d="m 215.89961,357.80833 q -1.4564,0 -2.01806,0.33308 -0.56167,0.33308 -0.56167,1.13639 0,0.64003 0.41798,1.01883 0.42452,0.37226 1.14945,0.37226 0.99924,0 1.60008,-0.70534 0.60738,-0.71188 0.60738,-1.88745 v -0.26777 z m 2.39686,-0.49635 v 4.17328 h -1.2017 V 360.375 q -0.41145,0.66616 -1.02536,0.98617 -0.61391,0.31349 -1.50211,0.31349 -1.12333,0 -1.78949,-0.62697 -0.65962,-0.63351 -0.65962,-1.69152 0,-1.23435 0.8229,-1.86132 0.82943,-0.62697 2.4687,-0.62697 h 1.68498 v -0.11756 q 0,-0.82943 -0.5486,-1.28007 -0.54207,-0.45716 -1.52824,-0.45716 -0.62697,0 -1.22129,0.15021 -0.59431,0.15021 -1.14291,0.45063 v -1.11026 q 0.65962,-0.2547 1.28006,-0.37879 0.62044,-0.13062 1.20823,-0.13062 1.58702,0 2.37073,0.8229 0.78372,0.8229 0.78372,2.49482 z"
         style="font-size:13.37538815px;line-height:1.25;font-family:sans-serif"
         id="path917" />
      <path
         d="m 226.85201,357.07034 v 4.41492 h -1.20169 v -4.37574 q 0,-1.03842 -0.40492,-1.55436 -0.40492,-0.51595 -1.21476,-0.51595 -0.97311,0 -1.53477,0.62044 -0.56166,0.62044 -0.56166,1.69152 v 4.13409 h -1.20823 v -7.31467 h 1.20823 v 1.13639 q 0.43104,-0.65963 1.0123,-0.98617 0.58778,-0.32655 1.3519,-0.32655 1.26048,0 1.90704,0.78371 0.64656,0.77719 0.64656,2.29237 z"
         style="font-size:13.37538815px;line-height:1.25;font-family:sans-serif"
         id="path919" />
      <path
         d="m 234.06218,357.74302 q 0,-1.30619 -0.54206,-2.02459 -0.53554,-0.7184 -1.50865,-0.7184 -0.96659,0 -1.50865,0.7184 -0.53554,0.7184 -0.53554,2.02459 0,1.29966 0.53554,2.01807 0.54206,0.7184 1.50865,0.7184 0.97311,0 1.50865,-0.7184 0.54206,-0.71841 0.54206,-2.01807 z m 1.2017,2.83444 q 0,1.86785 -0.82943,2.77565 -0.82943,0.91434 -2.54054,0.91434 -0.6335,0 -1.19517,-0.098 -0.56166,-0.0914 -1.09066,-0.28736 v -1.16904 q 0.529,0.28736 1.04495,0.42451 0.51594,0.13715 1.05148,0.13715 1.1821,0 1.76989,-0.62044 0.58778,-0.61391 0.58778,-1.86132 v -0.59432 q -0.37226,0.64657 -0.95351,0.96658 -0.58126,0.32002 -1.3911,0.32002 -1.34537,0 -2.16827,-1.02536 -0.8229,-1.02536 -0.8229,-2.71688 0,-1.69804 0.8229,-2.7234 0.8229,-1.02536 2.16827,-1.02536 0.80984,0 1.3911,0.32002 0.58125,0.32001 0.95351,0.96658 v -1.11027 h 1.2017 z"
         style="font-size:13.37538815px;line-height:1.25;font-family:sans-serif"
         id="path921" />
    </g>
    <g
       aria-label="laut"
       style="font-style:normal;font-weight:normal;line-height:0%;font-family:sans-serif;letter-spacing:0px;word-spacing:0px;fill:#1d1d1d;fill-opacity:1;stroke:none"
       id="text3847">
      <path
         d="m 189.71821,507.37495 h 1.20169 v 10.16216 h -1.20169 z"
         style="font-size:13.37538815px;line-height:1.25;font-family:sans-serif"
         id="path906" />
      <path
         d="m 196.75857,513.86018 q -1.4564,0 -2.01806,0.33308 -0.56166,0.33308 -0.56166,1.13639 0,0.64003 0.41798,1.01883 0.42451,0.37226 1.14944,0.37226 0.99924,0 1.60009,-0.70534 0.60738,-0.71188 0.60738,-1.88745 v -0.26777 z m 2.39686,-0.49635 v 4.17328 h -1.20169 v -1.11026 q -0.41145,0.66615 -1.02536,0.98617 -0.61391,0.31349 -1.50212,0.31349 -1.12333,0 -1.78948,-0.62697 -0.65963,-0.63351 -0.65963,-1.69152 0,-1.23435 0.8229,-1.86132 0.82943,-0.62697 2.4687,-0.62697 h 1.68499 v -0.11756 q 0,-0.82943 -0.5486,-1.28007 -0.54207,-0.45716 -1.52825,-0.45716 -0.62697,0 -1.22128,0.15021 -0.59432,0.15021 -1.14292,0.45063 v -1.11026 q 0.65963,-0.2547 1.28007,-0.37879 0.62044,-0.13062 1.20822,-0.13062 1.58702,0 2.37074,0.8229 0.78371,0.8229 0.78371,2.49482 z"
         style="font-size:13.37538815px;line-height:1.25;font-family:sans-serif"
         id="path908" />
      <path
         d="m 201.50657,514.65043 v -4.42799 h 1.2017 v 4.38227 q 0,1.03842 0.40492,1.5609 0.40492,0.51594 1.21475,0.51594 0.97312,0 1.53478,-0.62044 0.56819,-0.62044 0.56819,-1.69151 v -4.14716 h 1.2017 v 7.31467 h -1.2017 v -1.12332 q -0.43757,0.66615 -1.01883,0.9927 -0.57472,0.32002 -1.33884,0.32002 -1.26048,0 -1.91357,-0.78372 -0.6531,-0.78371 -0.6531,-2.29236 z m 3.02383,-4.60432 z"
         style="font-size:13.37538815px;line-height:1.25;font-family:sans-serif"
         id="path910" />
      <path
         d="m 211.29647,508.1456 v 2.07684 h 2.47523 v 0.93393 h -2.47523 v 3.97082 q 0,0.89474 0.24164,1.14945 0.24818,0.2547 0.99924,0.2547 h 1.23435 v 1.00577 h -1.23435 q -1.39109,0 -1.9201,-0.51595 -0.52901,-0.52247 -0.52901,-1.89397 v -3.97082 h -0.88168 v -0.93393 h 0.88168 v -2.07684 z"
         style="font-size:13.37538815px;line-height:1.25;font-family:sans-serif"
         id="path912" />
    </g>
    <g
       aria-label="kann"
       style="font-style:normal;font-weight:normal;line-height:0%;font-family:sans-serif;letter-spacing:0px;word-spacing:0px;fill:#1d1d1d;fill-opacity:1;stroke:none"
       id="text3851">
      <path
         d="m 361.58179,379.30931 h 1.20823 v 6.00194 l 3.58549,-3.15445 h 1.53477 l -3.87938,3.42222 4.04266,3.89245 h -1.56743 l -3.71611,-3.57243 v 3.57243 h -1.20823 z"
         style="font-size:13.37538815px;line-height:1.25;font-family:sans-serif"
         id="path897" />
      <path
         d="m 372.46236,385.79454 q -1.45641,0 -2.01807,0.33308 -0.56166,0.33308 -0.56166,1.13638 0,0.64004 0.41798,1.01883 0.42451,0.37227 1.14945,0.37227 0.99923,0 1.60008,-0.70535 0.60738,-0.71187 0.60738,-1.88744 v -0.26777 z m 2.39686,-0.49635 v 4.17328 h -1.2017 v -1.11027 q -0.41145,0.66616 -1.02536,0.98618 -0.61391,0.31348 -1.50212,0.31348 -1.12332,0 -1.78948,-0.62697 -0.65962,-0.6335 -0.65962,-1.69151 0,-1.23435 0.8229,-1.86133 0.82943,-0.62697 2.4687,-0.62697 h 1.68498 v -0.11755 q 0,-0.82943 -0.5486,-1.28007 -0.54207,-0.45717 -1.52824,-0.45717 -0.62697,0 -1.22129,0.15022 -0.59432,0.15021 -1.14292,0.45063 v -1.11026 q 0.65963,-0.25471 1.28007,-0.3788 0.62044,-0.13062 1.20823,-0.13062 1.58702,0 2.37073,0.8229 0.78372,0.8229 0.78372,2.49483 z"
         style="font-size:13.37538815px;line-height:1.25;font-family:sans-serif"
         id="path899" />
      <path
         d="m 383.41476,385.05654 v 4.41493 h -1.20169 v -4.37574 q 0,-1.03842 -0.40492,-1.55437 -0.40492,-0.51594 -1.21476,-0.51594 -0.97311,0 -1.53477,0.62044 -0.56166,0.62044 -0.56166,1.69151 v 4.1341 h -1.20823 v -7.31467 h 1.20823 v 1.13639 q 0.43104,-0.65963 1.01229,-0.98618 0.58779,-0.32655 1.35191,-0.32655 1.26047,0 1.90704,0.78372 0.64656,0.77718 0.64656,2.29236 z"
         style="font-size:13.37538815px;line-height:1.25;font-family:sans-serif"
         id="path901" />
      <path
         d="m 391.89194,385.05654 v 4.41493 h -1.2017 v -4.37574 q 0,-1.03842 -0.40492,-1.55437 -0.40492,-0.51594 -1.21475,-0.51594 -0.97312,0 -1.53478,0.62044 -0.56166,0.62044 -0.56166,1.69151 v 4.1341 h -1.20823 v -7.31467 h 1.20823 v 1.13639 q 0.43104,-0.65963 1.0123,-0.98618 0.58778,-0.32655 1.3519,-0.32655 1.26048,0 1.90704,0.78372 0.64657,0.77718 0.64657,2.29236 z"
         style="font-size:13.37538815px;line-height:1.25;font-family:sans-serif"
         id="path903" />
    </g>
    <g
       aria-label="dann"
       style="font-style:normal;font-weight:normal;line-height:0%;font-family:sans-serif;letter-spacing:0px;word-spacing:0px;fill:#1d1d1d;fill-opacity:1;stroke:none"
       id="text3855">
      <path
         d="m 249.54072,285.60074 v -3.95775 h 1.20169 v 10.16216 h -1.20169 v -1.0972 q -0.3788,0.65309 -0.96005,0.97311 -0.57472,0.31348 -1.38456,0.31348 -1.32579,0 -2.16175,-1.05801 -0.82943,-1.05802 -0.82943,-2.78219 0,-1.72417 0.82943,-2.78218 0.83596,-1.05802 2.16175,-1.05802 0.80984,0 1.38456,0.32002 0.58125,0.31349 0.96005,0.96658 z m -4.09491,2.5536 q 0,1.32579 0.54207,2.08338 0.5486,0.75106 1.50212,0.75106 0.95352,0 1.50212,-0.75106 0.5486,-0.75759 0.5486,-2.08338 0,-1.32578 -0.5486,-2.07684 -0.5486,-0.75759 -1.50212,-0.75759 -0.95352,0 -1.50212,0.75759 -0.54207,0.75106 -0.54207,2.07684 z"
         style="font-size:13.37538815px;line-height:1.25;font-family:sans-serif"
         id="path888" />
      <path
         d="m 256.5419,288.12822 q -1.4564,0 -2.01807,0.33308 -0.56166,0.33308 -0.56166,1.13638 0,0.64004 0.41798,1.01883 0.42452,0.37227 1.14945,0.37227 0.99924,0 1.60008,-0.70535 0.60738,-0.71187 0.60738,-1.88744 v -0.26777 z m 2.39686,-0.49635 v 4.17328 h -1.2017 v -1.11027 q -0.41145,0.66616 -1.02536,0.98618 -0.61391,0.31348 -1.50212,0.31348 -1.12332,0 -1.78948,-0.62697 -0.65962,-0.6335 -0.65962,-1.69151 0,-1.23435 0.8229,-1.86133 0.82943,-0.62697 2.4687,-0.62697 h 1.68498 v -0.11755 q 0,-0.82944 -0.5486,-1.28007 -0.54207,-0.45717 -1.52824,-0.45717 -0.62697,0 -1.22129,0.15021 -0.59431,0.15022 -1.14291,0.45064 v -1.11026 q 0.65962,-0.25471 1.28006,-0.3788 0.62044,-0.13062 1.20823,-0.13062 1.58702,0 2.37073,0.8229 0.78372,0.8229 0.78372,2.49483 z"
         style="font-size:13.37538815px;line-height:1.25;font-family:sans-serif"
         id="path890" />
      <path
         d="m 267.4943,287.39022 v 4.41493 h -1.20169 v -4.37574 q 0,-1.03842 -0.40492,-1.55437 -0.40492,-0.51594 -1.21476,-0.51594 -0.97311,0 -1.53477,0.62044 -0.56166,0.62044 -0.56166,1.69151 v 4.1341 h -1.20823 v -7.31467 h 1.20823 v 1.13639 q 0.43104,-0.65963 1.0123,-0.98618 0.58778,-0.32655 1.3519,-0.32655 1.26048,0 1.90704,0.78372 0.64656,0.77718 0.64656,2.29236 z"
         style="font-size:13.37538815px;line-height:1.25;font-family:sans-serif"
         id="path892" />
      <path
         d="m 275.97148,287.39022 v 4.41493 h -1.2017 v -4.37574 q 0,-1.03842 -0.40492,-1.55437 -0.40492,-0.51594 -1.21475,-0.51594 -0.97312,0 -1.53478,0.62044 -0.56166,0.62044 -0.56166,1.69151 v 4.1341 h -1.20823 v -7.31467 h 1.20823 v 1.13639 q 0.43104,-0.65963 1.0123,-0.98618 0.58778,-0.32655 1.3519,-0.32655 1.26048,0 1.90704,0.78372 0.64657,0.77718 0.64657,2.29236 z"
         style="font-size:13.37538815px;line-height:1.25;font-family:sans-serif"
         id="path894" />
    </g>
    <g
       aria-label="Mann"
       style="font-style:normal;font-weight:normal;line-height:0%;font-family:sans-serif;letter-spacing:0px;word-spacing:0px;fill:#1d1d1d;fill-opacity:1;stroke:none"
       id="text3859">
      <path
         d="m 155.33598,319.2272 h 1.96581 l 2.48829,6.63544 2.50136,-6.63544 h 1.96581 v 9.75071 h -1.28659 v -8.56208 l -2.51442,6.68769 h -1.32578 l -2.51442,-6.68769 v 8.56208 h -1.28006 z"
         style="font-size:13.37538815px;line-height:1.25;font-family:sans-serif"
         id="path879" />
      <path
         d="m 170.14817,325.30098 q -1.4564,0 -2.01806,0.33308 -0.56166,0.33308 -0.56166,1.13638 0,0.64004 0.41798,1.01883 0.42451,0.37227 1.14945,0.37227 0.99923,0 1.60008,-0.70535 0.60738,-0.71187 0.60738,-1.88744 v -0.26777 z m 2.39686,-0.49635 v 4.17328 h -1.20169 v -1.11027 q -0.41145,0.66616 -1.02536,0.98618 -0.61391,0.31348 -1.50212,0.31348 -1.12332,0 -1.78948,-0.62697 -0.65963,-0.6335 -0.65963,-1.69151 0,-1.23435 0.8229,-1.86133 0.82943,-0.62697 2.4687,-0.62697 h 1.68499 v -0.11755 q 0,-0.82944 -0.5486,-1.28007 -0.54207,-0.45717 -1.52825,-0.45717 -0.62697,0 -1.22128,0.15021 -0.59432,0.15022 -1.14292,0.45064 v -1.11026 q 0.65963,-0.25471 1.28007,-0.3788 0.62044,-0.13062 1.20822,-0.13062 1.58702,0 2.37074,0.8229 0.78371,0.8229 0.78371,2.49483 z"
         style="font-size:13.37538815px;line-height:1.25;font-family:sans-serif"
         id="path881" />
      <path
         d="m 181.10058,324.56298 v 4.41493 h -1.2017 v -4.37574 q 0,-1.03842 -0.40492,-1.55437 -0.40492,-0.51594 -1.21475,-0.51594 -0.97311,0 -1.53478,0.62044 -0.56166,0.62044 -0.56166,1.69151 v 4.1341 h -1.20822 v -7.31467 h 1.20822 v 1.13639 q 0.43104,-0.65963 1.0123,-0.98618 0.58778,-0.32655 1.35191,-0.32655 1.26047,0 1.90703,0.78372 0.64657,0.77718 0.64657,2.29236 z"
         style="font-size:13.37538815px;line-height:1.25;font-family:sans-serif"
         id="path883" />
      <path
         d="m 189.57775,324.56298 v 4.41493 h -1.20169 v -4.37574 q 0,-1.03842 -0.40492,-1.55437 -0.40492,-0.51594 -1.21476,-0.51594 -0.97311,0 -1.53477,0.62044 -0.56166,0.62044 -0.56166,1.69151 v 4.1341 h -1.20823 v -7.31467 h 1.20823 v 1.13639 q 0.43104,-0.65963 1.01229,-0.98618 0.58779,-0.32655 1.35191,-0.32655 1.26047,0 1.90704,0.78372 0.64656,0.77718 0.64656,2.29236 z"
         style="font-size:13.37538815px;line-height:1.25;font-family:sans-serif"
         id="path885" />
    </g>
    <g
       aria-label="Bank"
       style="font-style:normal;font-weight:normal;line-height:0%;font-family:sans-serif;letter-spacing:0px;word-spacing:0px;fill:#1d1d1d;fill-opacity:1;stroke:none"
       id="text3863">
      <path
         d="m 323.83913,317.46388 v 3.57243 h 2.11602 q 1.06455,0 1.57396,-0.43757 0.51595,-0.4441 0.51595,-1.35191 0,-0.91433 -0.51595,-1.34537 -0.50941,-0.43758 -1.57396,-0.43758 z m 0,-4.01 v 2.93893 h 1.95275 q 0.96658,0 1.43681,-0.3592 0.47676,-0.36574 0.47676,-1.11027 0,-0.73799 -0.47676,-1.10373 -0.47023,-0.36573 -1.43681,-0.36573 z m -1.31926,-1.08414 h 3.36998 q 1.50865,0 2.32501,0.62697 0.81637,0.62698 0.81637,1.78295 0,0.89474 -0.41798,1.42375 -0.41798,0.52901 -1.22782,0.65963 0.97311,0.20899 1.50865,0.87514 0.54207,0.65963 0.54207,1.65234 0,1.30619 -0.88821,2.01806 -0.88821,0.71187 -2.52748,0.71187 h -3.50059 z"
         style="font-size:13.37538815px;line-height:1.25;font-family:sans-serif"
         id="path870" />
      <path
         d="m 334.96787,318.44353 q -1.4564,0 -2.01807,0.33308 -0.56166,0.33307 -0.56166,1.13638 0,0.64003 0.41798,1.01883 0.42451,0.37226 1.14945,0.37226 0.99924,0 1.60008,-0.70534 0.60738,-0.71187 0.60738,-1.88744 v -0.26777 z m 2.39686,-0.49635 v 4.17327 h -1.2017 v -1.11026 q -0.41145,0.66616 -1.02536,0.98617 -0.61391,0.31349 -1.50212,0.31349 -1.12332,0 -1.78948,-0.62697 -0.65962,-0.6335 -0.65962,-1.69152 0,-1.23435 0.8229,-1.86132 0.82943,-0.62697 2.4687,-0.62697 h 1.68498 v -0.11756 q 0,-0.82943 -0.5486,-1.28006 -0.54207,-0.45717 -1.52824,-0.45717 -0.62697,0 -1.22129,0.15021 -0.59432,0.15021 -1.14292,0.45064 v -1.11026 q 0.65963,-0.25471 1.28007,-0.3788 0.62044,-0.13062 1.20823,-0.13062 1.58702,0 2.37073,0.8229 0.78372,0.8229 0.78372,2.49483 z"
         style="font-size:13.37538815px;line-height:1.25;font-family:sans-serif"
         id="path872" />
      <path
         d="m 345.92027,317.70553 v 4.41492 h -1.20169 v -4.37573 q 0,-1.03843 -0.40492,-1.55437 -0.40492,-0.51595 -1.21476,-0.51595 -0.97311,0 -1.53477,0.62044 -0.56166,0.62044 -0.56166,1.69152 v 4.13409 h -1.20823 v -7.31466 h 1.20823 v 1.13638 q 0.43104,-0.65962 1.01229,-0.98617 0.58779,-0.32655 1.35191,-0.32655 1.26047,0 1.90704,0.78372 0.64656,0.77718 0.64656,2.29236 z"
         style="font-size:13.37538815px;line-height:1.25;font-family:sans-serif"
         id="path874" />
      <path
         d="m 348.27141,311.95829 h 1.20823 v 6.00195 l 3.58549,-3.15445 h 1.53478 l -3.87939,3.42222 4.04266,3.89244 h -1.56743 l -3.71611,-3.57243 v 3.57243 h -1.20823 z"
         style="font-size:13.37538815px;line-height:1.25;font-family:sans-serif"
         id="path876" />
    </g>
    <g
       aria-label="lange"
       style="font-style:normal;font-weight:normal;line-height:0%;font-family:sans-serif;letter-spacing:0px;word-spacing:0px;fill:#1d1d1d;fill-opacity:1;stroke:none"
       id="text3867">
      <path
         d="m 120.92564,399.32756 h 1.2017 v 10.16216 h -1.2017 z"
         style="font-size:13.37538815px;line-height:1.25;font-family:sans-serif"
         id="path859" />
      <path
         d="m 127.96601,405.81279 q -1.4564,0 -2.01807,0.33308 -0.56166,0.33308 -0.56166,1.13638 0,0.64004 0.41798,1.01883 0.42451,0.37227 1.14945,0.37227 0.99924,0 1.60008,-0.70535 0.60738,-0.71187 0.60738,-1.88744 v -0.26777 z m 2.39686,-0.49635 v 4.17328 h -1.2017 v -1.11027 q -0.41145,0.66616 -1.02536,0.98618 -0.61391,0.31348 -1.50212,0.31348 -1.12332,0 -1.78948,-0.62697 -0.65962,-0.6335 -0.65962,-1.69151 0,-1.23435 0.8229,-1.86133 0.82943,-0.62697 2.4687,-0.62697 h 1.68498 v -0.11755 q 0,-0.82943 -0.5486,-1.28007 -0.54207,-0.45717 -1.52824,-0.45717 -0.62697,0 -1.22129,0.15021 -0.59432,0.15022 -1.14292,0.45064 v -1.11026 q 0.65963,-0.25471 1.28007,-0.3788 0.62044,-0.13062 1.20823,-0.13062 1.58702,0 2.37073,0.8229 0.78372,0.8229 0.78372,2.49483 z"
         style="font-size:13.37538815px;line-height:1.25;font-family:sans-serif"
         id="path861" />
      <path
         d="m 138.91841,405.07479 v 4.41493 h -1.20169 v -4.37574 q 0,-1.03842 -0.40492,-1.55437 -0.40492,-0.51594 -1.21476,-0.51594 -0.97311,0 -1.53477,0.62044 -0.56166,0.62044 -0.56166,1.69151 v 4.1341 h -1.20823 v -7.31467 h 1.20823 v 1.13639 q 0.43104,-0.65963 1.01229,-0.98618 0.58779,-0.32655 1.35191,-0.32655 1.26047,0 1.90704,0.78372 0.64656,0.77718 0.64656,2.29236 z"
         style="font-size:13.37538815px;line-height:1.25;font-family:sans-serif"
         id="path863" />
      <path
         d="m 146.12858,405.74748 q 0,-1.30619 -0.54207,-2.02459 -0.53553,-0.71841 -1.50865,-0.71841 -0.96658,0 -1.50865,0.71841 -0.53553,0.7184 -0.53553,2.02459 0,1.29966 0.53553,2.01806 0.54207,0.71841 1.50865,0.71841 0.97312,0 1.50865,-0.71841 0.54207,-0.7184 0.54207,-2.01806 z m 1.2017,2.83443 q 0,1.86786 -0.82943,2.77566 -0.82943,0.91433 -2.54054,0.91433 -0.63351,0 -1.19517,-0.098 -0.56166,-0.0914 -1.09067,-0.28737 v -1.16904 q 0.52901,0.28737 1.04496,0.42452 0.51594,0.13715 1.05148,0.13715 1.1821,0 1.76989,-0.62044 0.58778,-0.61391 0.58778,-1.86133 v -0.59431 q -0.37226,0.64656 -0.95352,0.96658 -0.58125,0.32002 -1.39109,0.32002 -1.34537,0 -2.16827,-1.02536 -0.8229,-1.02536 -0.8229,-2.71688 0,-1.69805 0.8229,-2.72341 0.8229,-1.02536 2.16827,-1.02536 0.80984,0 1.39109,0.32002 0.58126,0.32002 0.95352,0.96658 v -1.11026 h 1.2017 z"
         style="font-size:13.37538815px;line-height:1.25;font-family:sans-serif"
         id="path865" />
      <path
         d="m 156.06216,405.53196 v 0.58778 h -5.52519 q 0.0784,1.24089 0.74453,1.89398 0.67269,0.64656 1.86786,0.64656 0.69228,0 1.33884,-0.1698 0.6531,-0.1698 1.29313,-0.50941 v 1.13638 q -0.64657,0.2743 -1.32578,0.41798 -0.67922,0.14368 -1.37804,0.14368 -1.75029,0 -2.77565,-1.01883 -1.01883,-1.01882 -1.01883,-2.75606 0,-1.79601 0.96658,-2.84749 0.97311,-1.05802 2.61891,-1.05802 1.476,0 2.33155,0.95352 0.86209,0.94699 0.86209,2.57973 z m -1.2017,-0.35267 q -0.0131,-0.98618 -0.55513,-1.57396 -0.53553,-0.58779 -1.42374,-0.58779 -1.00577,0 -1.61315,0.5682 -0.60085,0.56819 -0.69228,1.60008 z"
         style="font-size:13.37538815px;line-height:1.25;font-family:sans-serif"
         id="path867" />
    </g>
    <g
       aria-label="ganz"
       style="font-style:normal;font-weight:normal;line-height:0%;font-family:sans-serif;letter-spacing:0px;word-spacing:0px;fill:#1d1d1d;fill-opacity:1;stroke:none"
       id="text3871">
      <path
         d="m 313.53088,508.14888 q 0,-1.30619 -0.54207,-2.0246 -0.53554,-0.7184 -1.50865,-0.7184 -0.96658,0 -1.50865,0.7184 -0.53554,0.71841 -0.53554,2.0246 0,1.29966 0.53554,2.01806 0.54207,0.71841 1.50865,0.71841 0.97311,0 1.50865,-0.71841 0.54207,-0.7184 0.54207,-2.01806 z m 1.20169,2.83443 q 0,1.86785 -0.82943,2.77566 -0.82943,0.91433 -2.54054,0.91433 -0.6335,0 -1.19516,-0.098 -0.56166,-0.0914 -1.09067,-0.28736 v -1.16904 q 0.52901,0.28736 1.04495,0.42451 0.51595,0.13715 1.05148,0.13715 1.18211,0 1.76989,-0.62044 0.58779,-0.61391 0.58779,-1.86132 v -0.59431 q -0.37227,0.64656 -0.95352,0.96658 -0.58126,0.32001 -1.39109,0.32001 -1.34538,0 -2.16828,-1.02536 -0.8229,-1.02536 -0.8229,-2.71687 0,-1.69805 0.8229,-2.72341 0.8229,-1.02536 2.16828,-1.02536 0.80983,0 1.39109,0.32002 0.58125,0.32002 0.95352,0.96658 v -1.11026 h 1.20169 z"
         style="font-size:13.37538815px;line-height:1.25;font-family:sans-serif"
         id="path850" />
      <path
         d="m 320.53206,508.21419 q -1.45641,0 -2.01807,0.33308 -0.56166,0.33307 -0.56166,1.13638 0,0.64003 0.41798,1.01883 0.42451,0.37226 1.14945,0.37226 0.99923,0 1.60008,-0.70534 0.60738,-0.71187 0.60738,-1.88744 v -0.26777 z m 2.39686,-0.49635 v 4.17327 h -1.2017 v -1.11026 q -0.41145,0.66616 -1.02536,0.98618 -0.61391,0.31348 -1.50212,0.31348 -1.12332,0 -1.78948,-0.62697 -0.65962,-0.6335 -0.65962,-1.69152 0,-1.23435 0.8229,-1.86132 0.82943,-0.62697 2.46869,-0.62697 h 1.68499 v -0.11756 q 0,-0.82943 -0.5486,-1.28006 -0.54207,-0.45717 -1.52824,-0.45717 -0.62697,0 -1.22129,0.15021 -0.59432,0.15021 -1.14292,0.45064 v -1.11026 q 0.65963,-0.25471 1.28007,-0.3788 0.62044,-0.13062 1.20823,-0.13062 1.58702,0 2.37073,0.8229 0.78372,0.8229 0.78372,2.49483 z"
         style="font-size:13.37538815px;line-height:1.25;font-family:sans-serif"
         id="path852" />
      <path
         d="m 331.48446,507.47619 v 4.41492 h -1.20169 v -4.37573 q 0,-1.03843 -0.40492,-1.55437 -0.40492,-0.51595 -1.21476,-0.51595 -0.97311,0 -1.53477,0.62044 -0.56166,0.62045 -0.56166,1.69152 v 4.13409 h -1.20823 v -7.31466 h 1.20823 v 1.13638 q 0.43104,-0.65962 1.01229,-0.98617 0.58779,-0.32655 1.35191,-0.32655 1.26047,0 1.90704,0.78372 0.64656,0.77718 0.64656,2.29236 z"
         style="font-size:13.37538815px;line-height:1.25;font-family:sans-serif"
         id="path854" />
      <path
         d="m 333.35884,504.57645 h 5.70805 v 1.0972 l -4.51941,5.25741 h 4.51941 v 0.96005 h -5.87132 v -1.0972 l 4.51942,-5.25741 h -4.35615 z"
         style="font-size:13.37538815px;line-height:1.25;font-family:sans-serif"
         id="path856" />
    </g>
    <g
       aria-label="sind"
       style="font-style:normal;font-weight:normal;line-height:0%;font-family:sans-serif;letter-spacing:0px;word-spacing:0px;fill:#1d1d1d;fill-opacity:1;stroke:none"
       id="text3875">
      <path
         d="m 146.92121,464.82096 v 1.13639 q -0.50942,-0.26124 -1.05802,-0.39186 -0.5486,-0.13062 -1.13638,-0.13062 -0.89474,0 -1.34538,0.2743 -0.4441,0.2743 -0.4441,0.8229 0,0.41798 0.32001,0.65963 0.32002,0.23511 1.2866,0.45063 l 0.41145,0.0914 q 1.28007,0.2743 1.81561,0.77718 0.54206,0.49635 0.54206,1.39109 0,1.01883 -0.80983,1.61315 -0.80331,0.59431 -2.214,0.59431 -0.58778,0 -1.22781,-0.11755 -0.63351,-0.11103 -1.33885,-0.33961 v -1.24088 q 0.66616,0.34614 1.31272,0.52247 0.64657,0.16981 1.28007,0.16981 0.84902,0 1.30619,-0.28737 0.45716,-0.29389 0.45716,-0.8229 0,-0.48982 -0.33307,-0.75106 -0.32655,-0.26123 -1.44334,-0.50288 l -0.41798,-0.098 q -1.1168,-0.23512 -1.61315,-0.71841 -0.49635,-0.48982 -0.49635,-1.33884 0,-1.03189 0.73146,-1.59355 0.73147,-0.56167 2.07685,-0.56167 0.66615,0 1.25394,0.098 0.58779,0.098 1.08414,0.29389 z"
         style="font-size:13.37538815px;line-height:1.25;font-family:sans-serif"
         id="path841" />
      <path
         d="m 149.22663,464.60544 h 1.2017 v 7.31466 h -1.2017 z m 0,-2.8475 h 1.2017 v 1.52172 h -1.2017 z"
         style="font-size:13.37538815px;line-height:1.25;font-family:sans-serif"
         id="path843" />
      <path
         d="m 159.02306,467.50518 v 4.41492 h -1.20169 v -4.37573 q 0,-1.03842 -0.40492,-1.55437 -0.40492,-0.51594 -1.21476,-0.51594 -0.97311,0 -1.53477,0.62044 -0.56167,0.62044 -0.56167,1.69151 v 4.13409 h -1.20822 v -7.31466 h 1.20822 v 1.13639 q 0.43105,-0.65963 1.0123,-0.98618 0.58779,-0.32655 1.35191,-0.32655 1.26047,0 1.90704,0.78372 0.64656,0.77718 0.64656,2.29236 z"
         style="font-size:13.37538815px;line-height:1.25;font-family:sans-serif"
         id="path845" />
      <path
         d="m 166.23323,465.7157 v -3.95776 h 1.2017 v 10.16216 h -1.2017 v -1.09719 q -0.37879,0.65309 -0.96005,0.97311 -0.57472,0.31348 -1.38456,0.31348 -1.32578,0 -2.16174,-1.05801 -0.82944,-1.05802 -0.82944,-2.78219 0,-1.72417 0.82944,-2.78218 0.83596,-1.05802 2.16174,-1.05802 0.80984,0 1.38456,0.32002 0.58126,0.31349 0.96005,0.96658 z m -4.09491,2.5536 q 0,1.32579 0.54207,2.08338 0.5486,0.75106 1.50212,0.75106 0.95352,0 1.50212,-0.75106 0.5486,-0.75759 0.5486,-2.08338 0,-1.32578 -0.5486,-2.07684 -0.5486,-0.75759 -1.50212,-0.75759 -0.95352,0 -1.50212,0.75759 -0.54207,0.75106 -0.54207,2.07684 z"
         style="font-size:13.37538815px;line-height:1.25;font-family:sans-serif"
         id="path847" />
    </g>
    <g
       aria-label="Kind"
       style="font-style:normal;font-weight:normal;line-height:0%;font-family:sans-serif;letter-spacing:0px;word-spacing:0px;fill:#1d1d1d;fill-opacity:1;stroke:none"
       id="text3879">
      <path
         d="m 355.62434,451.55895 h 1.31925 v 4.12103 l 4.37574,-4.12103 h 1.69804 l -4.83943,4.54554 5.18557,5.20517 h -1.73723 l -4.68269,-4.69575 v 4.69575 h -1.31925 z"
         style="font-size:13.37538815px;line-height:1.25;font-family:sans-serif"
         id="path832" />
      <path
         d="m 364.34316,453.995 h 1.20169 v 7.31466 h -1.20169 z m 0,-2.8475 h 1.20169 v 1.52171 h -1.20169 z"
         style="font-size:13.37538815px;line-height:1.25;font-family:sans-serif"
         id="path834" />
      <path
         d="m 374.13958,456.89474 v 4.41492 h -1.20169 v -4.37574 q 0,-1.03842 -0.40492,-1.55436 -0.40492,-0.51595 -1.21476,-0.51595 -0.97311,0 -1.53477,0.62044 -0.56166,0.62044 -0.56166,1.69152 v 4.13409 h -1.20823 V 453.995 h 1.20823 v 1.13638 q 0.43104,-0.65962 1.01229,-0.98617 0.58779,-0.32655 1.35191,-0.32655 1.26047,0 1.90704,0.78371 0.64656,0.77719 0.64656,2.29237 z"
         style="font-size:13.37538815px;line-height:1.25;font-family:sans-serif"
         id="path836" />
      <path
         d="m 381.34975,455.10526 v -3.95776 h 1.2017 v 10.16216 h -1.2017 v -1.0972 q -0.37879,0.6531 -0.96005,0.97311 -0.57472,0.31349 -1.38456,0.31349 -1.32578,0 -2.16174,-1.05801 -0.82943,-1.05802 -0.82943,-2.78219 0,-1.72417 0.82943,-2.78219 0.83596,-1.05801 2.16174,-1.05801 0.80984,0 1.38456,0.32002 0.58126,0.31348 0.96005,0.96658 z m -4.0949,2.5536 q 0,1.32578 0.54207,2.08337 0.5486,0.75106 1.50211,0.75106 0.95352,0 1.50212,-0.75106 0.5486,-0.75759 0.5486,-2.08337 0,-1.32578 -0.5486,-2.07684 -0.5486,-0.75759 -1.50212,-0.75759 -0.95351,0 -1.50211,0.75759 -0.54207,0.75106 -0.54207,2.07684 z"
         style="font-size:13.37538815px;line-height:1.25;font-family:sans-serif"
         id="path838" />
    </g>
    <g
       id="g3919"
       transform="matrix(0.55273286,0,0,0.55273286,166.25563,398.0754)"
       style="fill:#363636;fill-opacity:1;stroke:#000000;stroke-width:1.19622695;stroke-opacity:1">
      <g
         word-spacing="normal"
         letter-spacing="normal"
         font-size-adjust="none"
         font-stretch="normal"
         font-weight="normal"
         font-variant="normal"
         font-style="normal"
         stroke-miterlimit="10.433"
         xml:space="preserve"
         transform="matrix(0.50880253,0,0,-0.50880253,-89.040442,267.12133)"
         id="content"
         style="font-style:normal;font-variant:normal;font-weight:normal;font-stretch:normal;letter-spacing:normal;word-spacing:normal;text-anchor:start;fill:#363636;fill-opacity:1;stroke:#000000;stroke-width:1.80919218;stroke-linecap:butt;stroke-linejoin:miter;stroke-miterlimit:10.43299961;stroke-opacity:1;stroke-dasharray:none;stroke-dashoffset:0"><path
           id="path3922"
           d="m 481.22,440.23 0,0 0,0.01 0,0 0,0.01 0,0.02 0,0.01 0,0.02 0,0.02 -0.01,0.02 0,0.02 -0.01,0.02 0,0.02 -0.01,0.02 -0.01,0.03 -0.01,0.02 -0.01,0.03 -0.02,0.02 -0.01,0.03 -0.02,0.02 -0.02,0.02 -0.02,0.03 -0.02,0.01 -0.01,0.01 -0.01,0.01 -0.02,0.01 -0.01,0.01 -0.02,0.01 -0.01,0.01 -0.02,0.01 -0.01,0.01 -0.02,0.01 -0.02,0 -0.02,0.01 -0.02,0.01 -0.02,0 -0.02,0.01 -0.03,0.01 -0.02,0 -0.02,0 -0.03,0.01 -0.03,0 -0.02,0 -0.03,0.01 -0.03,0 -0.03,0 c -0.75,0 -5.48,-0.46 -6.33,-0.55 -0.4,-0.05 -0.7,-0.3 -0.7,-0.95 0,-0.6 0.45,-0.6 1.2,-0.6 2.39,0 2.49,-0.34 2.49,-0.84 l -0.14,-1 -3,-11.81 c -0.89,1.84 -2.35,3.18 -4.58,3.18 l 0.05,-1.09 c 3.23,0 3.93,-4.08 3.93,-4.37 0,-0.32 -0.09,-0.61 -0.14,-0.86 l -2.5,-9.77 c -0.25,-0.89 -0.25,-0.98 -1,-1.84 -2.18,-2.74 -4.23,-3.53 -5.62,-3.53 -2.49,0 -3.19,2.73 -3.19,4.68 0,2.49 1.59,8.61 2.74,10.91 1.54,2.94 3.79,4.78 5.78,4.78 l -0.05,1.09 c -5.83,0 -12,-7.31 -12,-14.59 0,-4.69 2.73,-7.97 6.62,-7.97 0.99,0 3.49,0.21 6.47,3.74 0.41,-2.1 2.14,-3.74 4.53,-3.74 1.75,0 2.9,1.14 3.69,2.74 0.85,1.79 1.5,4.84 1.5,4.93 0,0.5 -0.45,0.5 -0.59,0.5 -0.5,0 -0.55,-0.2 -0.7,-0.9 -0.85,-3.24 -1.75,-6.17 -3.79,-6.17 -1.34,0 -1.5,1.29 -1.5,2.29 0,1.19 0.1,1.55 0.3,2.39 z"
           inkscape:connector-curvature="0"
           style="fill:#363636;fill-opacity:1;stroke:#000000;stroke-width:0;stroke-opacity:1" /><path
           id="path3924"
           d="m 529.59,422.5 0.14,0 0.15,0 0.14,0 0.07,0.01 0.08,0 0.07,0.01 0.07,0.01 0.07,0.01 0.07,0.01 0.07,0.01 0.06,0.02 0.07,0.02 0.06,0.02 0.06,0.02 0.06,0.03 0.06,0.03 0.05,0.04 0.05,0.03 0.05,0.05 0.04,0.04 0.04,0.05 0.02,0.03 0.02,0.03 0.01,0.02 0.02,0.03 0.01,0.03 0.02,0.04 0.01,0.03 0.01,0.04 0.01,0.03 0.01,0.04 0,0.04 0.01,0.04 0,0.04 0.01,0.04 0,0.04 0,0.05 c 0,1 -0.95,1 -1.64,1 H 499.8 c -0.71,0 -1.64,0 -1.64,-1 0,-0.98 0.93,-0.98 1.68,-0.98 z"
           inkscape:connector-curvature="0"
           style="fill:#363636;fill-opacity:1;stroke:#000000;stroke-width:0;stroke-opacity:1" /><path
           id="path3926"
           d="m 529.64,412.82 0.07,0 0.06,0 0.14,0.01 0.14,0 0.07,0 0.07,0.01 0.07,0.01 0.07,0 0.06,0.01 0.07,0.02 0.07,0.01 0.06,0.02 0.07,0.02 0.06,0.02 0.06,0.02 0.06,0.03 0.05,0.03 0.05,0.04 0.05,0.04 0.05,0.04 0.04,0.05 0.02,0.02 0.02,0.03 0.02,0.02 0.02,0.03 0.01,0.03 0.02,0.03 0.01,0.03 0.02,0.03 0.01,0.04 0.01,0.03 0.01,0.04 0.01,0.04 0,0.04 0.01,0.04 0,0.04 0.01,0.04 0,0.05 0,0.04 c 0,1 -0.95,1 -1.69,1 h -29.75 c -0.75,0 -1.68,0 -1.68,-1 0,-1 0.93,-1 1.64,-1 z"
           inkscape:connector-curvature="0"
           style="fill:#363636;fill-opacity:1;stroke:#000000;stroke-width:0;stroke-opacity:1" /><path
           id="path3928"
           d="m 570.84,422.14 -0.01,0.74 -0.01,0.75 -0.02,0.75 -0.03,0.74 -0.05,0.75 -0.06,0.74 -0.07,0.74 -0.1,0.73 -0.11,0.73 -0.14,0.73 -0.16,0.72 -0.19,0.72 -0.22,0.72 -0.25,0.7 -0.27,0.7 -0.15,0.35 -0.16,0.34 c -2.29,4.8 -6.38,5.6 -8.47,5.6 -2.99,0 -6.63,-1.3 -8.67,-5.94 -1.6,-3.44 -1.85,-7.33 -1.85,-11.31 0,-3.74 0.2,-8.22 2.25,-12 2.14,-4.03 5.78,-5.03 8.22,-5.03 v 1.09 c -1.94,0 -4.89,1.25 -5.78,6.03 -0.55,2.98 -0.55,7.56 -0.55,10.52 0,3.18 0,6.46 0.41,9.15 0.94,5.94 4.67,6.38 5.92,6.38 1.64,0 4.94,-0.89 5.88,-5.83 0.5,-2.78 0.5,-6.58 0.5,-9.7 0,-3.75 0,-7.13 -0.55,-10.32 -0.75,-4.73 -3.6,-6.23 -5.83,-6.23 h 0 v -1.09 c 2.69,0 6.47,1.04 8.67,5.78 1.6,3.43 1.85,7.31 1.85,11.25 z"
           inkscape:connector-curvature="0"
           style="fill:#363636;fill-opacity:1;stroke:#000000;stroke-width:0;stroke-opacity:1" /></g>    </g>
    <g
       id="g4012"
       transform="matrix(0.56122918,0,0,0.56122918,165.03432,454.50316)"
       style="fill:#363636;fill-opacity:1">
      <g
         id="g4014"
         transform="matrix(0.50880253,0,0,-0.50880253,-89.040442,267.12133)"
         xml:space="preserve"
         stroke-miterlimit="10.433"
         font-style="normal"
         font-variant="normal"
         font-weight="normal"
         font-stretch="normal"
         font-size-adjust="none"
         letter-spacing="normal"
         word-spacing="normal"
         style="font-style:normal;font-variant:normal;font-weight:normal;font-stretch:normal;letter-spacing:normal;word-spacing:normal;text-anchor:start;fill:#363636;fill-opacity:1;stroke:#000000;stroke-width:1.78180337;stroke-linecap:butt;stroke-linejoin:miter;stroke-miterlimit:10.43299961;stroke-opacity:1;stroke-dasharray:none;stroke-dashoffset:0"><path
           d="m 481.22,440.23 0,0 0,0.01 0,0 0,0.01 0,0.02 0,0.01 0,0.02 0,0.02 -0.01,0.02 0,0.02 -0.01,0.02 0,0.02 -0.01,0.02 -0.01,0.03 -0.01,0.02 -0.01,0.03 -0.02,0.02 -0.01,0.03 -0.02,0.02 -0.02,0.02 -0.02,0.03 -0.02,0.01 -0.01,0.01 -0.01,0.01 -0.02,0.01 -0.01,0.01 -0.02,0.01 -0.01,0.01 -0.02,0.01 -0.01,0.01 -0.02,0.01 -0.02,0 -0.02,0.01 -0.02,0.01 -0.02,0 -0.02,0.01 -0.03,0.01 -0.02,0 -0.02,0 -0.03,0.01 -0.03,0 -0.02,0 -0.03,0.01 -0.03,0 -0.03,0 c -0.75,0 -5.48,-0.46 -6.33,-0.55 -0.4,-0.05 -0.7,-0.3 -0.7,-0.95 0,-0.6 0.45,-0.6 1.2,-0.6 2.39,0 2.49,-0.34 2.49,-0.84 l -0.14,-1 -3,-11.81 c -0.89,1.84 -2.35,3.18 -4.58,3.18 l 0.05,-1.09 c 3.23,0 3.93,-4.08 3.93,-4.37 0,-0.32 -0.09,-0.61 -0.14,-0.86 l -2.5,-9.77 c -0.25,-0.89 -0.25,-0.98 -1,-1.84 -2.18,-2.74 -4.23,-3.53 -5.62,-3.53 -2.49,0 -3.19,2.73 -3.19,4.68 0,2.49 1.59,8.61 2.74,10.91 1.54,2.94 3.79,4.78 5.78,4.78 l -0.05,1.09 c -5.83,0 -12,-7.31 -12,-14.59 0,-4.69 2.73,-7.97 6.62,-7.97 0.99,0 3.49,0.21 6.47,3.74 0.41,-2.1 2.14,-3.74 4.53,-3.74 1.75,0 2.9,1.14 3.69,2.74 0.85,1.79 1.5,4.84 1.5,4.93 0,0.5 -0.45,0.5 -0.59,0.5 -0.5,0 -0.55,-0.2 -0.7,-0.9 -0.85,-3.24 -1.75,-6.17 -3.79,-6.17 -1.34,0 -1.5,1.29 -1.5,2.29 0,1.19 0.1,1.55 0.3,2.39 z"
           id="path4016"
           inkscape:connector-curvature="0"
           style="fill:#363636;fill-opacity:1;stroke-width:0" /><path
           d="m 529.59,422.5 0.14,0 0.15,0 0.14,0 0.07,0.01 0.08,0 0.07,0.01 0.07,0.01 0.07,0.01 0.07,0.01 0.07,0.01 0.06,0.02 0.07,0.02 0.06,0.02 0.06,0.02 0.06,0.03 0.06,0.03 0.05,0.04 0.05,0.03 0.05,0.05 0.04,0.04 0.04,0.05 0.02,0.03 0.02,0.03 0.01,0.02 0.02,0.03 0.01,0.03 0.02,0.04 0.01,0.03 0.01,0.04 0.01,0.03 0.01,0.04 0,0.04 0.01,0.04 0,0.04 0.01,0.04 0,0.04 0,0.05 c 0,1 -0.95,1 -1.64,1 H 499.8 c -0.71,0 -1.64,0 -1.64,-1 0,-0.98 0.93,-0.98 1.68,-0.98 z"
           id="path4018"
           inkscape:connector-curvature="0"
           style="fill:#363636;fill-opacity:1;stroke-width:0" /><path
           d="m 529.64,412.82 0.07,0 0.06,0 0.14,0.01 0.14,0 0.07,0 0.07,0.01 0.07,0.01 0.07,0 0.06,0.01 0.07,0.02 0.07,0.01 0.06,0.02 0.07,0.02 0.06,0.02 0.06,0.02 0.06,0.03 0.05,0.03 0.05,0.04 0.05,0.04 0.05,0.04 0.04,0.05 0.02,0.02 0.02,0.03 0.02,0.02 0.02,0.03 0.01,0.03 0.02,0.03 0.01,0.03 0.02,0.03 0.01,0.04 0.01,0.03 0.01,0.04 0.01,0.04 0,0.04 0.01,0.04 0,0.04 0.01,0.04 0,0.05 0,0.04 c 0,1 -0.95,1 -1.69,1 h -29.75 c -0.75,0 -1.68,0 -1.68,-1 0,-1 0.93,-1 1.64,-1 z"
           id="path4020"
           inkscape:connector-curvature="0"
           style="fill:#363636;fill-opacity:1;stroke-width:0" /><path
           d="m 562.55,438.09 0,0.05 0,0.06 0,0.05 0,0.05 0,0.05 0,0.05 0,0.04 0,0.05 0,0.04 0,0.04 0,0.04 0,0.04 0,0.04 -0.01,0.03 0,0.04 0,0.03 -0.01,0.07 -0.01,0.06 -0.01,0.05 -0.02,0.05 -0.01,0.05 -0.02,0.04 -0.02,0.04 -0.03,0.03 -0.03,0.03 -0.03,0.03 -0.03,0.03 -0.04,0.02 -0.05,0.02 -0.02,0.01 -0.03,0.01 -0.02,0 -0.03,0.01 -0.03,0.01 -0.03,0 -0.03,0.01 -0.03,0 -0.03,0.01 -0.04,0 -0.03,0 -0.04,0.01 -0.04,0 -0.04,0 -0.04,0 -0.04,0 -0.05,0 -0.05,0.01 -0.04,0 -0.05,0 -0.05,0 -0.06,0 c -3.09,-3.19 -7.46,-3.19 -9.06,-3.19 v -1.55 c 1,0 3.94,0 6.52,1.3 v -25.81 c 0,-1.8 -0.14,-2.39 -4.63,-2.39 h -1.59 v -1.55 c 1.75,0.16 6.08,0.16 8.06,0.16 2,0 6.33,0 8.08,-0.16 v 1.55 h -1.59 c -4.49,0 -4.65,0.54 -4.65,2.39 z"
           id="path4022"
           inkscape:connector-curvature="0"
           style="fill:#363636;fill-opacity:1;stroke-width:0" /></g>    </g>
    <g
       id="g4118"
       transform="matrix(0.56122918,0,0,0.56122918,75.604353,482.99137)"
       style="fill:#363636;fill-opacity:1">
      <g
         word-spacing="normal"
         letter-spacing="normal"
         font-size-adjust="none"
         font-stretch="normal"
         font-weight="normal"
         font-variant="normal"
         font-style="normal"
         stroke-miterlimit="10.433"
         xml:space="preserve"
         transform="matrix(0.50880253,0,0,-0.50880253,68.543355,319.64926)"
         id="g4120"
         style="font-style:normal;font-variant:normal;font-weight:normal;font-stretch:normal;letter-spacing:normal;word-spacing:normal;text-anchor:start;fill:#363636;fill-opacity:1;stroke:#000000;stroke-width:1.78180337;stroke-linecap:butt;stroke-linejoin:miter;stroke-miterlimit:10.43299961;stroke-opacity:1;stroke-dasharray:none;stroke-dashoffset:0"><path
           id="path4122"
           d="m 481.22,440.23 0,0 0,0.01 0,0 0,0.01 0,0.02 0,0.01 0,0.02 0,0.02 -0.01,0.02 0,0.02 -0.01,0.02 0,0.02 -0.01,0.02 -0.01,0.03 -0.01,0.02 -0.01,0.03 -0.02,0.02 -0.01,0.03 -0.02,0.02 -0.02,0.02 -0.02,0.03 -0.02,0.01 -0.01,0.01 -0.01,0.01 -0.02,0.01 -0.01,0.01 -0.02,0.01 -0.01,0.01 -0.02,0.01 -0.01,0.01 -0.02,0.01 -0.02,0 -0.02,0.01 -0.02,0.01 -0.02,0 -0.02,0.01 -0.03,0.01 -0.02,0 -0.02,0 -0.03,0.01 -0.03,0 -0.02,0 -0.03,0.01 -0.03,0 -0.03,0 c -0.75,0 -5.48,-0.46 -6.33,-0.55 -0.4,-0.05 -0.7,-0.3 -0.7,-0.95 0,-0.6 0.45,-0.6 1.2,-0.6 2.39,0 2.49,-0.34 2.49,-0.84 l -0.14,-1 -3,-11.81 c -0.89,1.84 -2.35,3.18 -4.58,3.18 l 0.05,-1.09 c 3.23,0 3.93,-4.08 3.93,-4.37 0,-0.32 -0.09,-0.61 -0.14,-0.86 l -2.5,-9.77 c -0.25,-0.89 -0.25,-0.98 -1,-1.84 -2.18,-2.74 -4.23,-3.53 -5.62,-3.53 -2.49,0 -3.19,2.73 -3.19,4.68 0,2.49 1.59,8.61 2.74,10.91 1.54,2.94 3.79,4.78 5.78,4.78 l -0.05,1.09 c -5.83,0 -12,-7.31 -12,-14.59 0,-4.69 2.73,-7.97 6.62,-7.97 0.99,0 3.49,0.21 6.47,3.74 0.41,-2.1 2.14,-3.74 4.53,-3.74 1.75,0 2.9,1.14 3.69,2.74 0.85,1.79 1.5,4.84 1.5,4.93 0,0.5 -0.45,0.5 -0.59,0.5 -0.5,0 -0.55,-0.2 -0.7,-0.9 -0.85,-3.24 -1.75,-6.17 -3.79,-6.17 -1.34,0 -1.5,1.29 -1.5,2.29 0,1.19 0.1,1.55 0.3,2.39 z"
           inkscape:connector-curvature="0"
           style="fill:#363636;fill-opacity:1;stroke-width:0" /><path
           id="path4124"
           d="m 529.59,422.5 0.14,0 0.15,0 0.14,0 0.07,0.01 0.08,0 0.07,0.01 0.07,0.01 0.07,0.01 0.07,0.01 0.07,0.01 0.06,0.02 0.07,0.02 0.06,0.02 0.06,0.02 0.06,0.03 0.06,0.03 0.05,0.04 0.05,0.03 0.05,0.05 0.04,0.04 0.04,0.05 0.02,0.03 0.02,0.03 0.01,0.02 0.02,0.03 0.01,0.03 0.02,0.04 0.01,0.03 0.01,0.04 0.01,0.03 0.01,0.04 0,0.04 0.01,0.04 0,0.04 0.01,0.04 0,0.04 0,0.05 c 0,1 -0.95,1 -1.64,1 H 499.8 c -0.71,0 -1.64,0 -1.64,-1 0,-0.98 0.93,-0.98 1.68,-0.98 z"
           inkscape:connector-curvature="0"
           style="fill:#363636;fill-opacity:1;stroke-width:0" /><path
           id="path4126"
           d="m 529.64,412.82 0.07,0 0.06,0 0.14,0.01 0.14,0 0.07,0 0.07,0.01 0.07,0.01 0.07,0 0.06,0.01 0.07,0.02 0.07,0.01 0.06,0.02 0.07,0.02 0.06,0.02 0.06,0.02 0.06,0.03 0.05,0.03 0.05,0.04 0.05,0.04 0.05,0.04 0.04,0.05 0.02,0.02 0.02,0.03 0.02,0.02 0.02,0.03 0.01,0.03 0.02,0.03 0.01,0.03 0.02,0.03 0.01,0.04 0.01,0.03 0.01,0.04 0.01,0.04 0,0.04 0.01,0.04 0,0.04 0.01,0.04 0,0.05 0,0.04 c 0,1 -0.95,1 -1.69,1 h -29.75 c -0.75,0 -1.68,0 -1.68,-1 0,-1 0.93,-1 1.64,-1 z"
           inkscape:connector-curvature="0"
           style="fill:#363636;fill-opacity:1;stroke-width:0" /><path
           id="path4128"
           d="m 554.24,410.04 5.28,5.13 c 7.77,6.87 10.77,9.56 10.77,14.54 0,5.69 -4.49,9.68 -10.56,9.68 -5.64,0 -9.33,-4.6 -9.33,-9.03 0,-2.79 2.5,-2.79 2.64,-2.79 0.86,0 2.59,0.6 2.59,2.64 0,1.3 -0.89,2.6 -2.64,2.6 -0.39,0 -0.5,0 -0.64,-0.05 1.14,3.24 3.83,5.08 6.72,5.08 4.53,0 6.69,-4.05 6.69,-8.13 0,-3.98 -2.5,-7.92 -5.24,-11.01 l -9.56,-10.66 c -0.56,-0.54 -0.56,-0.64 -0.56,-1.84 h 18.48 l 1.41,8.67 h -1.25 c -0.25,-1.5 -0.59,-3.69 -1.09,-4.44 -0.36,-0.39 -3.65,-0.39 -4.74,-0.39 z"
           inkscape:connector-curvature="0"
           style="fill:#363636;fill-opacity:1;stroke-width:0" /></g>    </g>
    <text
       xml:space="preserve"
       style="font-style:normal;font-weight:normal;line-height:0%;font-family:sans-serif;letter-spacing:0px;word-spacing:0px;fill:#000000;fill-opacity:1;stroke:none"
       x="159.68451"
       y="141.646"
       id="text4182"><tspan
         sodipodi:role="line"
         id="tspan4184"
         x="159.68451"
         y="141.646"
         style="font-size:15.04731274px;line-height:1.25;font-family:sans-serif"> </tspan></text>
  </g>
</svg>
