<?xml version="1.0" encoding="UTF-8" standalone="no"?>
<!-- Created with Inkscape (http://www.inkscape.org/) -->

<svg
   xmlns:dc="http://purl.org/dc/elements/1.1/"
   xmlns:cc="http://creativecommons.org/ns#"
   xmlns:rdf="http://www.w3.org/1999/02/22-rdf-syntax-ns#"
   xmlns:svg="http://www.w3.org/2000/svg"
   xmlns="http://www.w3.org/2000/svg"
   xmlns:sodipodi="http://sodipodi.sourceforge.net/DTD/sodipodi-0.dtd"
   xmlns:inkscape="http://www.inkscape.org/namespaces/inkscape"
   sodipodi:docname="washing-machine-forces.svg"
   inkscape:version="0.48.4 r9939"
   version="1.1"
   id="svg2"
   height="250"
   width="235.00058">
  <sodipodi:namedview
     id="base"
     pagecolor="#ffffff"
     bordercolor="#666666"
     borderopacity="1.0"
     inkscape:pageopacity="0.0"
     inkscape:pageshadow="2"
     inkscape:zoom="1.4"
     inkscape:cx="-0.35578095"
     inkscape:cy="167.6982"
     inkscape:document-units="px"
     inkscape:current-layer="layer1"
     showgrid="false"
     inkscape:window-width="1366"
     inkscape:window-height="717"
     inkscape:window-x="0"
     inkscape:window-y="27"
     inkscape:window-maximized="1"
     fit-margin-top="0"
     fit-margin-left="0"
     fit-margin-right="0"
     fit-margin-bottom="0" />
  <defs
     id="defs4">
    <marker
       inkscape:stockid="Arrow2Lstart"
       orient="auto"
       refY="0.0"
       refX="0.0"
       id="Arrow2Lstart"
       style="overflow:visible">
      <path
         id="path6896"
         style="fill-rule:evenodd;stroke-width:0.62500000;stroke-linejoin:round"
         d="M 8.7185878,4.0337352 L -2.2072895,0.016013256 L 8.7185884,-4.0017078 C 6.9730900,-1.6296469 6.9831476,1.6157441 8.7185878,4.0337352 z "
         transform="scale(1.1) translate(1,0)" />
    </marker>
    <inkscape:path-effect
       is_visible="true"
       id="path-effect8777"
       effect="spiro" />
    <marker
       inkscape:stockid="Arrow1Lstart"
       orient="auto"
       refY="0"
       refX="0"
       id="marker6480-9"
       style="overflow:visible">
      <path
         inkscape:connector-curvature="0"
         id="path6482-9"
         d="M 0,0 5,-5 -12.5,0 5,5 0,0 z"
         style="fill-rule:evenodd;stroke:#000000;stroke-width:1pt"
         transform="matrix(0.8,0,0,0.8,10,0)" />
    </marker>
    <marker
       inkscape:stockid="Arrow1Lstart"
       orient="auto"
       refY="0"
       refX="0"
       id="marker6480-9-7"
       style="overflow:visible">
      <path
         inkscape:connector-curvature="0"
         id="path6482-9-0"
         d="M 0,0 5,-5 -12.5,0 5,5 0,0 z"
         style="fill-rule:evenodd;stroke:#000000;stroke-width:1pt"
         transform="matrix(0.8,0,0,0.8,10,0)" />
    </marker>
    <marker
       inkscape:stockid="Arrow1Lstart"
       orient="auto"
       refY="0"
       refX="0"
       id="marker6480-9-2"
       style="overflow:visible">
      <path
         inkscape:connector-curvature="0"
         id="path6482-9-02"
         d="M 0,0 5,-5 -12.5,0 5,5 0,0 z"
         style="fill-rule:evenodd;stroke:#000000;stroke-width:1pt"
         transform="matrix(0.8,0,0,0.8,10,0)" />
    </marker>
    <marker
       inkscape:stockid="Arrow1Lstart"
       orient="auto"
       refY="0"
       refX="0"
       id="marker6480-9-6"
       style="overflow:visible">
      <path
         inkscape:connector-curvature="0"
         id="path6482-9-3"
         d="M 0,0 5,-5 -12.5,0 5,5 0,0 z"
         style="fill-rule:evenodd;stroke:#000000;stroke-width:1pt"
         transform="matrix(0.8,0,0,0.8,10,0)" />
    </marker>
    <marker
       inkscape:stockid="Arrow1Lstart"
       orient="auto"
       refY="0"
       refX="0"
       id="marker6480-9-5"
       style="overflow:visible">
      <path
         inkscape:connector-curvature="0"
         id="path6482-9-9"
         d="M 0,0 5,-5 -12.5,0 5,5 0,0 z"
         style="fill-rule:evenodd;stroke:#000000;stroke-width:1pt"
         transform="matrix(0.8,0,0,0.8,10,0)" />
    </marker>
  </defs>
  <metadata
     id="metadata7">
    <rdf:RDF>
      <cc:Work
         rdf:about="">
        <dc:format>image/svg+xml</dc:format>
        <dc:type
           rdf:resource="http://purl.org/dc/dcmitype/StillImage" />
        <dc:title />
      </cc:Work>
    </rdf:RDF>
  </metadata>
  <g
     inkscape:label="Layer 1"
     inkscape:groupmode="layer"
     id="layer1"
     transform="translate(-323.28909,-462.76363)">
    <path
       sodipodi:open="true"
       sodipodi:end="0.67369709"
       sodipodi:start="0.071558499"
       transform="matrix(0,-1.2524682,1.2007524,0,210.83689,1002.1372)"
       d="m 426.82662,194.76865 c -1.78682,24.92748 -11.08993,48.72733 -26.68158,68.25865"
       sodipodi:ry="123.57143"
       sodipodi:rx="123.57143"
       sodipodi:cy="185.93361"
       sodipodi:cx="303.57144"
       id="path3005-6"
       style="fill:#ffffff;fill-opacity:1;stroke:#000000;stroke-width:1.06067371000000010;stroke-linejoin:miter;stroke-miterlimit:4;stroke-opacity:1;stroke-dasharray:none;marker-start:url(#Arrow2Lstart)"
       sodipodi:type="arc" />
    <path
       transform="matrix(0,-0.94276312,0.94283084,0,265.48177,881.45931)"
       d="m 427.14287,185.93361 c 0,68.24661 -55.32481,123.57143 -123.57143,123.57143 -68.24661,0 -123.57142,-55.32482 -123.57142,-123.57143 0,-68.24662 55.32481,-123.571427 123.57142,-123.571427 68.24662,0 123.57143,55.324807 123.57143,123.571427 z"
       sodipodi:ry="123.57143"
       sodipodi:rx="123.57143"
       sodipodi:cy="185.93361"
       sodipodi:cx="303.57144"
       id="path3005"
       style="fill:#ffffff;fill-opacity:1;stroke:#000000;stroke-width:2.12134743;stroke-linejoin:miter;stroke-miterlimit:4;stroke-opacity:1;stroke-dasharray:none"
       sodipodi:type="arc" />
    <g
       transform="matrix(0.43247134,0,0,0.43244028,363.55676,318.33223)"
       id="g4730">
      <g
         style="font-style:normal;font-variant:normal;font-weight:normal;font-stretch:normal;letter-spacing:normal;word-spacing:normal;text-anchor:start;fill:none;stroke:#000000;stroke-width:1.06067371;stroke-linecap:butt;stroke-linejoin:miter;stroke-miterlimit:10.43299961;stroke-opacity:1;stroke-dasharray:none;stroke-dashoffset:0"
         id="g4732"
         transform="matrix(1.0629921,0,0,-1.0629921,-186.02362,789.27165)"
         xml:space="preserve"
         stroke-miterlimit="10.433"
         font-style="normal"
         font-variant="normal"
         font-weight="normal"
         font-stretch="normal"
         font-size-adjust="none"
         letter-spacing="normal"
         word-spacing="normal"><path
           style="fill:#000000;stroke-width:0"
           inkscape:connector-curvature="0"
           d="m 485.66,424.73 0,0.21 -0.01,0.2 -0.01,0.2 -0.02,0.19 -0.02,0.18 -0.03,0.18 -0.03,0.17 -0.04,0.16 -0.04,0.16 -0.04,0.16 -0.05,0.14 -0.05,0.14 -0.05,0.13 -0.06,0.13 -0.07,0.12 -0.06,0.12 -0.07,0.1 -0.07,0.1 -0.08,0.1 -0.08,0.09 -0.08,0.08 -0.08,0.07 -0.08,0.07 -0.09,0.06 -0.09,0.05 -0.09,0.05 -0.1,0.04 -0.09,0.03 -0.1,0.02 -0.1,0.02 -0.1,0.01 -0.1,0 c -1.3,0 -2.64,-1.18 -2.64,-2.34 0,-0.48 0.23,-1.03 0.73,-1.48 0.86,-0.75 1.75,-2.1 1.75,-4.19 0,-2 -0.95,-4.83 -2.48,-7.13 -1.5,-2.14 -3.35,-3.82 -5.69,-3.82 -2.85,0 -4.39,1.78 -4.83,4.46 0.55,1.3 1.69,4.49 1.69,5.9 0,0.59 -0.25,1.09 -0.89,1.09 -0.41,0 -0.96,-0.11 -1.35,-0.84 -0.54,-1 -1.15,-4.24 -1.15,-6.04 -1.64,-2.34 -3.63,-4.57 -6.77,-4.57 -3.3,0 -4.34,2.93 -4.34,5.71 0,6.24 5.09,11.47 5.09,12.11 0,0.55 -0.41,0.96 -0.95,0.96 -0.66,0 -1,-0.66 -1.3,-1.11 -2.55,-3.69 -4.44,-9.61 -4.44,-14.14 0,-3.44 1.16,-7.13 5.24,-7.13 3.53,0 5.87,2.49 7.67,5.24 0.45,-2.89 2.39,-5.24 5.48,-5.24 3.89,0 6.29,3.03 8.07,6.78 1.2,2.44 3.09,9.21 3.09,12.3 z"
           id="path4734" /></g>    </g>
    <path
       inkscape:connector-curvature="0"
       id="path3009"
       d="m 443.4574,622.61705 0.15589,84.91796"
       style="fill:none;stroke:#000000;stroke-width:0.87276018000000000;stroke-linecap:butt;stroke-linejoin:miter;stroke-miterlimit:4;stroke-opacity:1;stroke-dasharray:none;stroke-dashoffset:0;marker-start:url(#Arrow2Lstart)"
       sodipodi:nodetypes="cc" />
    <path
       sodipodi:type="arc"
       style="fill:#f56767;fill-opacity:1;stroke:#810000;stroke-width:2.12134743;stroke-linecap:butt;stroke-linejoin:miter;stroke-miterlimit:4;stroke-opacity:1;stroke-dasharray:none;stroke-dashoffset:0"
       id="path4199"
       sodipodi:cx="450"
       sodipodi:cy="698.43359"
       sodipodi:rx="39.285713"
       sodipodi:ry="11.071428"
       d="m 489.28571,698.43359 c 0,6.11458 -17.58881,11.07143 -39.28571,11.07143 -21.6969,0 -39.28571,-4.95685 -39.28571,-11.07143 0,-6.11458 17.58881,-11.07142 39.28571,-11.07142 21.6969,0 39.28571,4.95684 39.28571,11.07142 z"
       transform="matrix(1.2380052,0,0,1.3557137,-115.84045,-251.6423)" />
    <path
       inkscape:transform-center-y="0.36197434"
       inkscape:transform-center-x="-6.7247746"
       inkscape:connector-curvature="0"
       id="path3009-4"
       d="m 466.43886,586.72277 76.56706,-44.45022"
       style="fill:none;stroke:#000000;stroke-width:0.90987819000000003;stroke-linecap:butt;stroke-linejoin:miter;stroke-miterlimit:4;stroke-opacity:1;stroke-dasharray:none;stroke-dashoffset:0;marker-start:url(#Arrow2Lstart)"
       sodipodi:nodetypes="cc" />
    <path
       sodipodi:type="arc"
       style="fill:#486eff;fill-opacity:1;stroke:#070073;stroke-width:2.12134743;stroke-linecap:butt;stroke-linejoin:miter;stroke-miterlimit:4;stroke-opacity:1;stroke-dasharray:none;stroke-dashoffset:0"
       id="path4199-8-1"
       sodipodi:cx="450"
       sodipodi:cy="698.43359"
       sodipodi:rx="39.285713"
       sodipodi:ry="11.071428"
       d="m 489.28571,698.43359 c 0,6.11458 -17.58881,11.07143 -39.28571,11.07143 -21.6969,0 -39.28571,-4.95685 -39.28571,-11.07143 0,-6.11458 17.58881,-11.07142 39.28571,-11.07142 21.6969,0 39.28571,4.95684 39.28571,11.07142 z"
       transform="matrix(0.55040874,1.0146382,-1.1112689,0.60274112,1058.3065,-329.42709)"
       inkscape:transform-center-x="-110.5893"
       inkscape:transform-center-y="69.950373" />
    <path
       inkscape:transform-center-y="-6.3267898"
       inkscape:transform-center-x="2.306405"
       inkscape:connector-curvature="0"
       id="path3009-4-9"
       d="M 420.22508,580.74371 352.50166,525.98579"
       style="fill:none;stroke:#000000;stroke-width:0.90987819000000003;stroke-linecap:butt;stroke-linejoin:miter;stroke-miterlimit:4;stroke-opacity:1;stroke-dasharray:none;stroke-dashoffset:0;marker-start:url(#Arrow2Lstart)"
       sodipodi:nodetypes="cc" />
    <path
       sodipodi:type="arc"
       style="fill:#71f042;fill-opacity:1;stroke:#178300;stroke-width:2.12134743;stroke-linecap:butt;stroke-linejoin:miter;stroke-miterlimit:4;stroke-opacity:1;stroke-dasharray:none;stroke-dashoffset:0"
       id="path4199-8"
       sodipodi:cx="450"
       sodipodi:cy="698.43359"
       sodipodi:rx="39.285713"
       sodipodi:ry="11.071428"
       d="m 489.28571,698.43359 c 0,6.11458 -17.58881,11.07143 -39.28571,11.07143 -21.6969,0 -39.28571,-4.95685 -39.28571,-11.07143 0,-6.11458 17.58881,-11.07142 39.28571,-11.07142 21.6969,0 39.28571,4.95684 39.28571,11.07142 z"
       transform="matrix(-0.77318777,0.96802757,-1.060219,-0.84670179,1451.8814,687.57254)"
       inkscape:transform-center-x="22.953359"
       inkscape:transform-center-y="138.54798" />
    <path
       sodipodi:type="arc"
       style="fill:#000000;fill-opacity:1;stroke:none"
       id="path9403"
       sodipodi:cx="126.52161"
       sodipodi:cy="141.17369"
       sodipodi:rx="3.7880721"
       sodipodi:ry="3.7880721"
       d="m 130.30968,141.17369 c 0,2.0921 -1.69598,3.78807 -3.78807,3.78807 -2.0921,0 -3.78808,-1.69597 -3.78808,-3.78807 0,-2.09209 1.69598,-3.78807 3.78808,-3.78807 2.09209,0 3.78807,1.69598 3.78807,3.78807 z"
       transform="matrix(0.67615801,0,0,0.67610944,357.76135,499.00996)" />
  </g>
  <g
     transform="matrix(1.0957893,0,0,1.0957893,66.141621,63.665388)"
     id="g8531">
    <g
       style="font-style:normal;font-variant:normal;font-weight:normal;font-stretch:normal;letter-spacing:normal;word-spacing:normal;text-anchor:start;fill:none;stroke:#000000;stroke-width:1.05263162;stroke-linecap:butt;stroke-linejoin:miter;stroke-miterlimit:10.43299961;stroke-opacity:1;stroke-dasharray:none;stroke-dashoffset:0"
       id="g8533"
       transform="matrix(0.35589286,0,0,-0.35589286,-62.28125,198.87744)"
       xml:space="preserve"
       stroke-miterlimit="10.433"
       font-style="normal"
       font-variant="normal"
       font-weight="normal"
       font-stretch="normal"
       font-size-adjust="none"
       letter-spacing="normal"
       word-spacing="normal"><path
         style="fill:#000000;stroke-width:0"
         inkscape:connector-curvature="0"
         d="m 470.52,439.73 -0.05,0.05 -0.05,0.06 -0.04,0.04 -0.05,0.05 -0.04,0.04 -0.04,0.04 -0.03,0.04 -0.04,0.03 -0.04,0.03 -0.04,0.03 -0.03,0.03 -0.04,0.02 -0.03,0.03 -0.04,0.02 -0.04,0.02 -0.04,0.01 -0.04,0.02 -0.04,0.01 -0.05,0.01 -0.04,0.01 -0.05,0.01 -0.05,0.01 -0.06,0.01 -0.06,0 -0.06,0.01 -0.06,0 -0.07,0.01 -0.08,0 -0.08,0 -0.08,0 -0.04,0 -0.05,0 -0.04,0 -0.05,0 h -11.42 v -2.34 h 5.39 v -28.05 c 0,-1.09 -0.05,-1.14 -1.46,-1.3 -1.18,-0.14 -1.29,-0.14 -2.68,-0.14 h -1.25 v -2.34 c 1.9,0.16 4.73,0.16 6.68,0.16 2.1,0 4.68,0 6.72,-0.16 v 2.34 h -1.25 c -0.89,0 -1.73,0.05 -2.64,0.14 -1.43,0.16 -1.48,0.21 -1.48,1.3 v 26.06 l 24.81,-29.2 c 0.5,-0.59 0.55,-0.64 1.34,-0.64 1.35,0 1.35,0.45 1.35,1.59 v 28.8 c 0,1.09 0.05,1.14 1.44,1.3 1.2,0.14 1.29,0.14 2.68,0.14 h 1.25 v 2.34 c -1.89,-0.14 -4.73,-0.14 -6.67,-0.14 -2.09,0 -4.69,0 -6.73,0.14 v -2.34 h 1.25 c 0.9,0 1.75,-0.05 2.64,-0.14 1.45,-0.16 1.5,-0.21 1.5,-1.3 v -20.17 z"
         id="path8535" /><path
         style="fill:#000000;stroke-width:0"
         inkscape:connector-curvature="0"
         d="m 518.93,411.62 0.01,0.05 0.01,0.04 0.02,0.05 0.01,0.04 0.01,0.04 0,0.04 0.01,0.03 0.01,0.04 0.01,0.03 0,0.03 0.01,0.03 0.01,0.03 0,0.02 0.01,0.03 0,0.02 0,0.02 0.01,0.02 0,0.02 0,0.02 0,0.02 0,0.01 0.01,0.02 0,0.01 0,0.01 0,0.01 0,0.01 0,0.01 0,0.01 0,0.01 0,0 0,0.01 0,0.01 c 0,0.76 -0.62,1.1 -1.19,1.1 -0.79,0 -1.45,-0.65 -1.59,-1.32 -0.59,0.95 -1.78,1.98 -3.59,1.98 v -0.97 c 2.43,0 3.1,-2.61 3.1,-2.97 0,-0.06 0,-0.12 -0.1,-0.51 l -1.57,-6.27 c -0.14,-0.53 -0.14,-0.59 -0.73,-1.29 -1.22,-1.47 -2.89,-2.38 -4.22,-2.38 -1.78,0 -2.61,1.5 -2.61,3.31 0,1.53 0.94,5.44 1.84,6.97 1.47,2.44 3.1,3.14 4.29,3.14 v 0.97 c -4.36,0 -8.93,-4.66 -8.93,-9.64 0,-3.59 2.44,-5.72 5.3,-5.72 1.61,0 3.14,0.8 4.36,1.88 l -0.77,-3.13 c -0.39,-1.47 -0.62,-2.4 -1.95,-3.59 -1.53,-1.28 -3.03,-1.28 -3.91,-1.28 -1.59,0 -2.04,0.09 -2.67,0.23 0.86,0.42 1.11,1.25 1.11,1.75 0,0.83 -0.65,1.28 -1.36,1.28 -0.97,0 -1.98,-0.79 -1.98,-2.12 0,-2.1 3,-2.13 4.95,-2.13 5.47,0 7.8,2.78 8.28,4.78 z"
         id="path8537" /></g>  </g>
  <g
     transform="matrix(1.1386695,0,0,1.1386695,13.848825,134.48962)"
     id="g8621">
    <g
       style="font-style:normal;font-variant:normal;font-weight:normal;font-stretch:normal;letter-spacing:normal;word-spacing:normal;text-anchor:start;fill:none;stroke:#000000;stroke-width:1.17647064;stroke-linecap:butt;stroke-linejoin:miter;stroke-miterlimit:10.43299961;stroke-opacity:1;stroke-dasharray:none;stroke-dashoffset:0"
       word-spacing="normal"
       letter-spacing="normal"
       font-size-adjust="none"
       font-stretch="normal"
       font-weight="normal"
       font-variant="normal"
       font-style="normal"
       stroke-miterlimit="10.433"
       xml:space="preserve"
       transform="matrix(0.35589286,0,0,-0.35589286,-62.28125,198.87744)"
       id="g8623"><path
         style="fill:#000000;stroke-width:0"
         inkscape:connector-curvature="0"
         id="path8625"
         d="m 470.52,439.73 -0.05,0.05 -0.05,0.06 -0.04,0.04 -0.05,0.05 -0.04,0.04 -0.04,0.04 -0.03,0.04 -0.04,0.03 -0.04,0.03 -0.04,0.03 -0.03,0.03 -0.04,0.02 -0.03,0.03 -0.04,0.02 -0.04,0.02 -0.04,0.01 -0.04,0.02 -0.04,0.01 -0.05,0.01 -0.04,0.01 -0.05,0.01 -0.05,0.01 -0.06,0.01 -0.06,0 -0.06,0.01 -0.06,0 -0.07,0.01 -0.08,0 -0.08,0 -0.08,0 -0.04,0 -0.05,0 -0.04,0 -0.05,0 h -11.42 v -2.34 h 5.39 v -28.05 c 0,-1.09 -0.05,-1.14 -1.46,-1.3 -1.18,-0.14 -1.29,-0.14 -2.68,-0.14 h -1.25 v -2.34 c 1.9,0.16 4.73,0.16 6.68,0.16 2.1,0 4.68,0 6.72,-0.16 v 2.34 h -1.25 c -0.89,0 -1.73,0.05 -2.64,0.14 -1.43,0.16 -1.48,0.21 -1.48,1.3 v 26.06 l 24.81,-29.2 c 0.5,-0.59 0.55,-0.64 1.34,-0.64 1.35,0 1.35,0.45 1.35,1.59 v 28.8 c 0,1.09 0.05,1.14 1.44,1.3 1.2,0.14 1.29,0.14 2.68,0.14 h 1.25 v 2.34 c -1.89,-0.14 -4.73,-0.14 -6.67,-0.14 -2.09,0 -4.69,0 -6.73,0.14 v -2.34 h 1.25 c 0.9,0 1.75,-0.05 2.64,-0.14 1.45,-0.16 1.5,-0.21 1.5,-1.3 v -20.17 z" /><path
         style="fill:#000000;stroke-width:0"
         inkscape:connector-curvature="0"
         id="path8627"
         d="m 508.59,405.79 0,0.02 0,0.01 0.01,0.02 0,0.03 0.01,0.03 0,0.03 0.01,0.03 0.01,0.04 0.01,0.04 0.01,0.05 0.01,0.04 0.02,0.06 0.01,0.05 0.01,0.05 0.03,0.12 0.03,0.13 0.04,0.13 0.03,0.15 0.04,0.14 0.04,0.15 0.04,0.15 0.08,0.32 0.08,0.31 0.04,0.15 0.04,0.15 0.03,0.14 0.04,0.14 0.04,0.14 0.03,0.12 0.03,0.12 0.01,0.05 0.02,0.05 0.01,0.05 0.01,0.05 0.02,0.04 0.01,0.04 0.01,0.04 0.01,0.03 0,0.03 0.01,0.03 0.01,0.02 0,0.02 0.01,0.01 0,0.01 c 0.08,0.29 1.08,2.02 2.21,2.86 0.37,0.27 1.31,0.97 2.81,0.97 0.34,0 1.22,-0.03 1.92,-0.48 -1.13,-0.31 -1.53,-1.3 -1.53,-1.92 0,-0.77 0.59,-1.29 1.39,-1.29 0.8,0 1.95,0.66 1.95,2.13 0,1.81 -1.92,2.53 -3.7,2.53 -1.81,0 -3.38,-0.72 -4.91,-2.47 -0.62,2.13 -2.75,2.47 -3.59,2.47 -1.28,0 -2.16,-0.8 -2.72,-1.76 -0.8,-1.36 -1.28,-3.4 -1.28,-3.57 0,-0.45 0.48,-0.45 0.59,-0.45 0.49,0 0.52,0.11 0.77,1.05 0.51,2.12 1.19,3.76 2.55,3.76 0.9,0 1.14,-0.76 1.14,-1.7 0,-0.67 -0.32,-1.95 -0.57,-2.89 -0.23,-0.95 -0.57,-2.38 -0.76,-3.14 l -1.11,-4.47 c -0.14,-0.44 -0.35,-1.31 -0.35,-1.42 0,-0.77 0.63,-1.11 1.19,-1.11 0.52,0 1.22,0.31 1.49,1 0.07,0.22 0.45,1.75 0.67,2.62 z" /></g>  </g>
  <g
     transform="matrix(1.1386695,0,0,1.1386695,-64.437996,49.636793)"
     id="g8719">
    <g
       style="font-style:normal;font-variant:normal;font-weight:normal;font-stretch:normal;letter-spacing:normal;word-spacing:normal;text-anchor:start;fill:none;stroke:#000000;stroke-width:1.17647064;stroke-linecap:butt;stroke-linejoin:miter;stroke-miterlimit:10.43299961;stroke-opacity:1;stroke-dasharray:none;stroke-dashoffset:0"
       id="g8721"
       transform="matrix(0.35589286,0,0,-0.35589286,-62.28125,198.87744)"
       xml:space="preserve"
       stroke-miterlimit="10.433"
       font-style="normal"
       font-variant="normal"
       font-weight="normal"
       font-stretch="normal"
       font-size-adjust="none"
       letter-spacing="normal"
       word-spacing="normal"><path
         style="fill:#000000;stroke-width:0"
         inkscape:connector-curvature="0"
         d="m 470.52,439.73 -0.05,0.05 -0.05,0.06 -0.04,0.04 -0.05,0.05 -0.04,0.04 -0.04,0.04 -0.03,0.04 -0.04,0.03 -0.04,0.03 -0.04,0.03 -0.03,0.03 -0.04,0.02 -0.03,0.03 -0.04,0.02 -0.04,0.02 -0.04,0.01 -0.04,0.02 -0.04,0.01 -0.05,0.01 -0.04,0.01 -0.05,0.01 -0.05,0.01 -0.06,0.01 -0.06,0 -0.06,0.01 -0.06,0 -0.07,0.01 -0.08,0 -0.08,0 -0.08,0 -0.04,0 -0.05,0 -0.04,0 -0.05,0 h -11.42 v -2.34 h 5.39 v -28.05 c 0,-1.09 -0.05,-1.14 -1.46,-1.3 -1.18,-0.14 -1.29,-0.14 -2.68,-0.14 h -1.25 v -2.34 c 1.9,0.16 4.73,0.16 6.68,0.16 2.1,0 4.68,0 6.72,-0.16 v 2.34 h -1.25 c -0.89,0 -1.73,0.05 -2.64,0.14 -1.43,0.16 -1.48,0.21 -1.48,1.3 v 26.06 l 24.81,-29.2 c 0.5,-0.59 0.55,-0.64 1.34,-0.64 1.35,0 1.35,0.45 1.35,1.59 v 28.8 c 0,1.09 0.05,1.14 1.44,1.3 1.2,0.14 1.29,0.14 2.68,0.14 h 1.25 v 2.34 c -1.89,-0.14 -4.73,-0.14 -6.67,-0.14 -2.09,0 -4.69,0 -6.73,0.14 v -2.34 h 1.25 c 0.9,0 1.75,-0.05 2.64,-0.14 1.45,-0.16 1.5,-0.21 1.5,-1.3 v -20.17 z"
         id="path8723" /><path
         style="fill:#000000;stroke-width:0"
         inkscape:connector-curvature="0"
         d="m 509.6,421.9 0,0.01 0.01,0 0,0 0,0.01 0,0 0,0.01 0,0.01 0.01,0 0,0.01 0,0.01 0.01,0.01 0,0.02 0.01,0.02 0,0.02 0.01,0.02 0,0.02 0.01,0.02 0.01,0.03 0,0.02 0.01,0.05 0.02,0.04 0,0.03 0.01,0.02 0,0.02 0.01,0.02 0,0.02 0,0.02 0.01,0.02 0,0.01 0,0.01 0,0.01 0.01,0 0,0.01 0,0 0,0.01 0,0 0,0.01 0,0 0,0 0,0.01 0,0 c 0,0.19 -0.14,0.5 -0.56,0.5 -0.7,0 -3.59,-0.28 -4.45,-0.36 -0.28,-0.03 -0.78,-0.06 -0.78,-0.8 0,-0.48 0.5,-0.48 0.9,-0.48 1.67,0 1.67,-0.25 1.67,-0.53 0,-0.24 -0.34,-1.63 -0.54,-2.44 l -0.8,-3.2 c -0.33,-1.19 -2.23,-8.82 -2.31,-9.27 -0.17,-0.84 -0.17,-1.3 -0.17,-1.7 0,-3.53 2.23,-5.75 5.12,-5.75 l 0.03,0.97 c -1.7,0 -2.67,1.5 -2.67,3.56 0,1.28 0.31,2.47 1.28,6.41 0.2,0.65 0.2,0.73 0.88,1.5 1.32,1.53 2.89,2.29 4.14,2.29 1.36,0 2.54,-1.01 2.54,-3.37 0,-1.44 -0.76,-4.99 -1.81,-7.02 -0.84,-1.7 -2.58,-3.37 -4.36,-3.37 h 0 l -0.03,-0.97 c 4.36,0 8.98,4.73 8.98,9.89 0,4.08 -2.81,5.81 -5.21,5.81 -1.82,0 -3.35,-1 -4.39,-1.91 z"
         id="path8725" /></g>  </g>
  <path
     inkscape:connector-curvature="0"
     inkscape:original-d="M 120.80482,18.349476 119.98033,129.65446"
     inkscape:path-effect="#path-effect8777"
     id="path8775"
     d="M 120.80482,18.349476 119.98033,129.65446"
     style="fill:none;stroke:#000000;stroke-width:1;stroke-linecap:butt;stroke-linejoin:miter;stroke-miterlimit:4;stroke-opacity:1;stroke-dasharray:3, 3;stroke-dashoffset:0" />
  <g
     id="g9357"
     transform="matrix(1.4898553,0,0,1.4898553,-15.306222,-6.6325943)">
    <g
       word-spacing="normal"
       letter-spacing="normal"
       font-size-adjust="none"
       font-stretch="normal"
       font-weight="normal"
       font-variant="normal"
       font-style="normal"
       stroke-miterlimit="10.433"
       xml:space="preserve"
       transform="matrix(0.35589286,0,0,-0.35589286,-62.28125,198.87744)"
       id="content"
       style="font-style:normal;font-variant:normal;font-weight:normal;font-stretch:normal;letter-spacing:normal;word-spacing:normal;text-anchor:start;fill:none;stroke:#000000;stroke-linecap:butt;stroke-linejoin:miter;stroke-miterlimit:10.43299961;stroke-opacity:1;stroke-dasharray:none;stroke-dashoffset:0"><path
         id="path9360"
         d="m 459.91,409.14 -0.02,-0.07 -0.01,-0.08 -0.02,-0.07 -0.01,-0.08 -0.04,-0.16 -0.04,-0.16 -0.03,-0.16 -0.04,-0.16 -0.04,-0.16 -0.04,-0.16 -0.01,-0.08 -0.02,-0.07 -0.02,-0.07 -0.01,-0.07 -0.02,-0.07 -0.01,-0.07 -0.01,-0.06 -0.01,-0.06 -0.01,-0.06 -0.01,-0.05 -0.01,-0.05 -0.01,-0.04 -0.01,-0.04 0,-0.04 0,-0.03 0,-0.02 c 0,-0.89 0.7,-1.35 1.43,-1.35 0.61,0 1.5,0.39 1.85,1.39 0.11,0.21 1.8,6.99 2,7.88 0.39,1.64 1.3,5.12 1.59,6.48 0.21,0.64 1.6,2.99 2.78,4.08 0.41,0.34 1.85,1.64 4,1.64 1.28,0 2.03,-0.59 2.08,-0.59 -1.48,-0.25 -2.58,-1.46 -2.58,-2.74 0,-0.79 0.55,-1.75 1.89,-1.75 1.35,0 2.74,1.14 2.74,2.94 0,1.75 -1.6,3.23 -4.13,3.23 -3.25,0 -5.43,-2.43 -6.39,-3.82 -0.39,2.23 -2.18,3.82 -4.53,3.82 -2.28,0 -3.23,-1.93 -3.69,-2.82 -0.89,-1.71 -1.54,-4.69 -1.54,-4.85 0,-0.5 0.5,-0.5 0.61,-0.5 0.5,0 0.54,0.07 0.84,1.16 0.84,3.53 1.84,5.92 3.64,5.92 0.84,0 1.55,-0.39 1.55,-2.28 0,-1.05 -0.16,-1.61 -0.8,-4.19 z"
         inkscape:connector-curvature="0"
         style="fill:#000000;stroke-width:0" /></g>  </g>
</svg>
